<?xml version="1.0" standalone="no"?>
<!DOCTYPE svg PUBLIC "-//W3C//DTD SVG 20010904//EN"
 "http://www.w3.org/TR/2001/REC-SVG-20010904/DTD/svg10.dtd">
<svg version="1.0" xmlns="http://www.w3.org/2000/svg"
 width="59.000000pt" height="34.000000pt" viewBox="0 0 59.000000 34.000000"
 preserveAspectRatio="xMidYMid meet">

<g transform="translate(0.000000,34.000000) scale(0.100000,-0.100000)"
fill="#000000" stroke="none">
<path d="M215 275 c-19 -20 -35 -42 -35 -50 0 -10 -10 -15 -29 -15 -32 0 -81
-34 -81 -56 0 -8 -14 -20 -30 -26 -38 -13 -50 -51 -25 -78 17 -19 32 -20 254
-20 213 0 239 2 267 19 44 27 60 71 45 122 -16 54 -61 82 -118 75 -33 -4 -45
-2 -55 12 -25 35 -62 52 -110 52 -41 0 -52 -5 -83 -35z m78 -32 c-13 -2 -23
-9 -23 -14 0 -9 24 -12 71 -9 16 1 29 -5 32 -14 4 -9 3 -16 -1 -17 -4 0 -17
-2 -29 -5 -12 -2 -25 1 -28 6 -3 5 -12 7 -20 3 -9 -3 -15 1 -15 8 -1 10 -5 9
-14 -3 -7 -10 -19 -18 -27 -18 -9 0 -10 3 -3 8 15 10 25 42 13 42 -6 0 -7 5
-4 10 3 6 21 9 38 9 24 -1 26 -3 10 -6z m190 -40 c4 -3 1 -13 -5 -21 -7 -8
-12 -37 -13 -66 0 -38 -4 -51 -15 -51 -16 0 -20 44 -8 82 4 14 2 26 -7 33 -8
7 -12 16 -9 21 6 10 48 12 57 2z m-312 -60 c1 -15 2 -16 6 -2 3 13 18 17 62
18 l57 1 -1 -47 c0 -35 -5 -48 -15 -48 -11 0 -15 11 -14 37 0 43 -11 41 -21
-2 -8 -37 -24 -48 -40 -26 -11 14 -13 15 -19 1 -13 -34 -37 -9 -51 53 -6 28
-4 32 14 32 13 0 21 -7 22 -17z m259 1 c0 -11 -6 -15 -20 -11 -22 6 -28 -8 -7
-16 8 -4 8 -8 2 -14 -5 -4 -10 -15 -10 -23 0 -8 -8 -15 -19 -15 -15 0 -18 9
-20 48 l-2 47 38 0 c28 0 38 -4 38 -16z m-80 -44 c0 -5 -9 -10 -20 -10 -11 0
-20 5 -20 10 0 6 9 10 20 10 11 0 20 -4 20 -10z"/>
</g>
</svg>
