<?xml version="1.0" standalone="no"?>
<!DOCTYPE svg PUBLIC "-//W3C//DTD SVG 20010904//EN"
 "http://www.w3.org/TR/2001/REC-SVG-20010904/DTD/svg10.dtd">
<svg version="1.0" xmlns="http://www.w3.org/2000/svg"
 width="3240.000000pt" height="3240.000000pt" viewBox="0 0 3240.000000 3240.000000"
 preserveAspectRatio="xMidYMid meet">

<g transform="translate(0.000000,3240.000000) scale(0.100000,-0.100000)"
fill="#000000" stroke="none">
<path d="M16941 32389 c-297 -32 -624 -150 -876 -316 -136 -90 -232 -171 -358
-303 l-114 -120 -1654 1 -1654 0 -45 55 c-73 89 -246 240 -374 326 -503 337
-1129 419 -1700 221 -656 -226 -1138 -789 -1267 -1478 -29 -156 -36 -421 -15
-582 85 -645 478 -1196 1061 -1486 400 -200 865 -250 1312 -142 354 85 705
293 955 566 l82 89 1443 0 1443 0 0 -1250 0 -1250 -273 0 c-295 0 -336 -6
-423 -56 -59 -35 -141 -125 -169 -186 -13 -29 -29 -82 -34 -118 -7 -43 -11
-505 -11 -1351 l0 -1287 -113 -80 c-320 -226 -675 -548 -922 -837 -43 -49 -84
-96 -93 -103 -13 -10 -755 -12 -3651 -13 -2000 0 -3649 -2 -3666 -4 -16 -1
-66 -6 -110 -10 -797 -66 -1630 -431 -2240 -982 -672 -607 -1113 -1403 -1259
-2273 -53 -319 -50 -50 -56 -3870 l-5 -3525 -60 -2 c-288 -9 -605 -112 -865
-281 -744 -483 -1009 -1439 -619 -2237 90 -186 206 -342 368 -497 291 -279
662 -443 1078 -478 167 -14 6598 -13 6758 1 620 53 1144 399 1425 940 291 563
258 1227 -88 1759 -209 322 -531 574 -893 698 -161 56 -351 92 -483 93 l-67 1
4 666 c4 717 5 730 63 1010 51 250 126 466 249 717 175 359 390 645 695 927
347 321 772 558 1229 687 144 41 355 85 466 96 33 4 71 9 85 12 14 4 388 8
831 10 l806 5 83 -99 c109 -129 469 -487 595 -592 726 -603 1550 -985 2455
-1135 332 -55 538 -71 920 -71 362 1 640 29 995 100 448 90 850 229 1275 441
376 187 674 383 1000 655 147 121 479 450 604 597 l88 102 3664 0 3664 0 0
-61 c0 -95 29 -273 65 -399 196 -680 771 -1168 1485 -1259 103 -13 388 -6 485
12 202 38 361 92 524 177 510 269 851 758 926 1330 13 101 15 526 12 3530 l-2
3415 -27 121 c-78 349 -220 618 -457 867 -301 316 -710 507 -1143 535 -395 25
-764 -74 -1098 -295 -156 -103 -365 -311 -469 -467 -176 -265 -279 -559 -299
-854 l-7 -107 -3645 -3 c-2005 -1 -3654 0 -3665 2 -12 3 -54 45 -95 93 -120
142 -394 416 -550 551 -135 116 -283 231 -443 344 l-67 48 -2 1342 -3 1343
-29 60 c-53 107 -143 187 -254 224 -56 19 -85 21 -337 21 l-275 0 0 1250 0
1250 1443 0 1442 0 82 -89 c253 -274 602 -481 956 -566 340 -82 696 -73 1019
25 599 184 1076 648 1272 1240 145 438 123 947 -60 1364 -219 501 -630 883
-1140 1059 -570 198 -1197 116 -1700 -221 -125 -84 -275 -215 -365 -319 l-54
-61 -1658 -1 -1658 -1 -27 33 c-271 329 -675 575 -1102 671 -194 43 -423 56
-619 35z m496 -874 c258 -68 485 -233 642 -464 36 -52 82 -111 104 -133 58
-56 147 -96 242 -108 53 -7 602 -10 1629 -8 l1548 3 -6 -45 c-35 -239 -35
-425 0 -657 l6 -43 -1618 -2 -1619 -3 -67 -32 c-86 -41 -142 -93 -214 -201
-69 -102 -213 -252 -300 -310 -130 -87 -291 -153 -444 -183 -86 -16 -286 -16
-380 0 -300 53 -562 219 -732 463 -95 138 -140 183 -227 226 l-75 37 -1619 3
-1620 2 7 53 c35 258 35 385 1 642 l-7 50 1559 -3 c1043 -2 1581 1 1628 8 140
21 229 84 336 241 123 179 261 300 444 390 234 114 526 142 782 74z m-6395
-29 c412 -97 733 -433 813 -848 19 -96 21 -283 5 -381 -53 -333 -277 -634
-586 -790 -340 -171 -748 -148 -1071 62 -78 50 -211 176 -275 261 -64 84 -152
263 -178 365 -65 252 -41 509 70 742 73 154 191 299 329 404 135 102 357 190
521 207 98 9 288 -2 372 -22z m12663 8 c543 -110 920 -616 865 -1160 -15 -144
-43 -242 -104 -369 -124 -253 -326 -440 -582 -539 -407 -157 -861 -55 -1166
262 -95 100 -142 167 -198 284 -113 238 -136 507 -64 755 157 544 701 877
1249 767z m-7555 -2752 c615 -367 1413 -360 2018 16 46 29 88 52 93 52 5 0 8
-408 7 -1042 l-3 -1043 -1122 -3 -1123 -2 0 1051 0 1051 28 -18 c15 -10 61
-38 102 -62z m3022 -4104 l3 -1243 22 -53 c44 -108 90 -153 278 -277 436 -285
751 -571 1067 -967 112 -140 161 -183 258 -224 44 -19 126 -19 3863 -22 l3817
-2 -2 -2428 -3 -2427 -3820 -5 -3820 -5 -57 -27 c-88 -41 -122 -72 -235 -213
-624 -779 -1423 -1294 -2363 -1524 -337 -82 -571 -112 -947 -118 -549 -10
-1004 59 -1496 226 -783 268 -1447 739 -1982 1406 -136 171 -189 213 -300 244
-41 11 -1838 16 -1955 6 -367 -34 -645 -92 -965 -199 -818 -276 -1529 -822
-2012 -1546 -353 -529 -564 -1111 -639 -1762 -13 -114 -18 -277 -21 -795 l-5
-653 -2424 0 -2424 0 3 3523 c3 3877 -3 3539 61 3848 167 807 679 1537 1387
1980 136 85 416 223 552 274 206 75 521 152 702 170 39 4 79 10 90 14 11 3
1721 7 3800 8 2532 2 3796 6 3829 13 58 12 135 50 181 88 18 15 73 77 121 137
346 433 646 701 1167 1040 95 62 146 120 188 215 l24 55 3 1243 2 1242 2025 0
2025 0 2 -1242z m11278 -1088 c316 -81 561 -320 652 -636 l23 -79 0 -3410 c0
-3304 -1 -3412 -19 -3480 -22 -84 -81 -215 -127 -282 -18 -26 -62 -79 -98
-117 -353 -368 -930 -375 -1291 -14 -122 122 -201 264 -248 446 -16 63 -17
273 -17 3447 l0 3380 23 85 c97 356 367 608 725 676 101 19 270 12 377 -16z
m-21515 -12403 c280 -88 494 -284 598 -547 77 -195 76 -456 -1 -649 -96 -243
-282 -428 -523 -521 -168 -64 83 -60 -3614 -58 l-3360 3 -80 23 c-338 95 -592
362 -659 694 -20 99 -20 268 0 366 74 358 345 626 715 707 54 11 591 13 3449
12 l3385 -2 90 -28z"/>
<path d="M5373 7259 c-61 -8 -164 -54 -211 -94 -44 -37 -221 -260 -419 -525
-706 -949 -1249 -1901 -1572 -2758 -438 -1160 -372 -2152 193 -2910 99 -133
320 -355 446 -449 358 -265 742 -420 1230 -496 182 -28 573 -30 760 -4 515 72
951 251 1310 537 115 92 320 304 406 420 538 722 616 1671 230 2773 -265 755
-743 1648 -1345 2507 -287 410 -627 851 -698 908 -95 74 -214 107 -330 91z
m235 -1344 c682 -956 1195 -1921 1408 -2653 210 -723 152 -1329 -168 -1771
-23 -31 -89 -103 -147 -161 -294 -292 -686 -453 -1181 -485 -207 -14 -505 30
-725 105 -816 281 -1187 987 -1024 1950 134 794 704 1929 1573 3129 l89 124
20 -24 c11 -13 81 -109 155 -214z"/>
</g>
</svg>
