<?xml version="1.0" encoding="UTF-8"?>
<svg version="1.1" xmlns="http://www.w3.org/2000/svg" width="3375" height="3375">
<path d="M0 0 C2.00136354 1.61105613 4.05845675 3.12504404 6.1328125 4.640625 C9.34132325 7.0422804 12.11078904 9.60838088 14.8828125 12.515625 C15.53894531 13.15113281 16.19507813 13.78664062 16.87109375 14.44140625 C22.69712443 20.10644127 27.81053536 26.17527858 32.8828125 32.515625 C34.62866528 34.26147778 37.04786536 33.65995283 39.42280293 33.67498589 C40.63309864 33.68499402 41.84339436 33.69500215 43.09036571 33.70531356 C44.45081234 33.71144399 45.81125952 33.71745449 47.17170715 33.72335815 C48.60357595 33.73309249 50.03544205 33.74323125 51.46730536 33.75374234 C55.42100864 33.78134968 59.37472409 33.80240862 63.32847297 33.82225823 C66.71529737 33.84002509 70.10209495 33.86145133 73.48889837 33.88279794 C105.61056134 34.08419076 137.7328874 34.18767613 169.85504627 34.27131462 C174.03935106 34.28240307 178.22365525 34.2936953 182.40795898 34.30517578 C183.96797598 34.30944258 183.96797598 34.30944258 185.55950847 34.31379558 C202.39373015 34.36123908 219.22732261 34.45751717 236.06120185 34.57274686 C253.34142063 34.69005012 270.62131268 34.75799496 287.90191954 34.77944577 C297.60554967 34.79284191 307.30800949 34.82854469 317.01124001 34.920681 C325.27899541 34.99917364 333.54544382 35.03356969 341.8135663 35.0106561 C346.03074249 35.00036087 350.24508175 35.01091796 354.46178627 35.07875443 C373.10471715 36.32617051 373.10471715 36.32617051 389.16274136 29.03532898 C391.40519095 26.34950313 393.09957358 23.52996733 394.8828125 20.515625 C396.58479391 18.52504142 398.38966271 16.73427178 400.2578125 14.890625 C401.15757812 14.00246094 402.05734375 13.11429688 402.984375 12.19921875 C412.73370581 3.17254723 423.64051597 -4.44345218 434.8828125 -11.484375 C435.48222656 -11.86303711 436.08164063 -12.24169922 436.69921875 -12.63183594 C454.16386446 -23.50480381 473.92799806 -30.7313187 493.8828125 -35.484375 C495.05328125 -35.77828125 496.22375 -36.0721875 497.4296875 -36.375 C546.9696241 -48.01802657 602.98219778 -38.56993295 646.31201172 -12.08251953 C659.57968738 -3.75214621 671.57511371 5.65661681 682.8828125 16.515625 C683.45177246 17.05735352 684.02073242 17.59908203 684.60693359 18.15722656 C692.86855313 26.06003771 700.2758856 34.18289692 706.8828125 43.515625 C707.28419434 44.07266113 707.68557617 44.62969727 708.09912109 45.20361328 C738.64183425 87.86664271 751.84389851 143.25765414 743.36157227 195.19165039 C742.90883814 197.64319197 742.40728696 200.07844451 741.8828125 202.515625 C741.68413574 203.45728516 741.48545898 204.39894531 741.28076172 205.36914062 C734.75399745 235.46559069 722.62203495 263.002432 703.8828125 287.515625 C703.18671875 288.44246094 702.490625 289.36929687 701.7734375 290.32421875 C669.06191708 332.56533499 620.85749338 359.38275213 568.13671875 366.76171875 C516.45897049 373.3261248 461.62017268 360.48838025 420.0078125 328.515625 C417.94842059 326.86547123 415.90869865 325.20533515 413.8828125 323.515625 C413.31369141 323.04656738 412.74457031 322.57750977 412.15820312 322.09423828 C391.73022735 305.2027305 391.73022735 305.2027305 386.99155903 297.40244865 C385.18714919 295.25605455 384.19471983 294.58648076 381.43076646 293.95859551 C378.18741621 293.73923385 374.99125732 293.71833091 371.74052429 293.75613403 C370.49485225 293.74692393 369.24918021 293.73771383 367.96576053 293.72822464 C364.51029293 293.7087036 361.05676358 293.71604534 357.60141551 293.73468828 C353.87474484 293.74826504 350.1482507 293.72726717 346.4216156 293.71046448 C339.96585773 293.68609063 333.51038956 293.68363154 327.05460167 293.69604874 C317.72067636 293.71397013 308.3870347 293.69885404 299.05313168 293.67566942 C283.90966652 293.63895176 268.76630628 293.62895982 253.62280273 293.63574219 C238.9121543 293.64227353 224.20160007 293.6361698 209.4909668 293.61328125 C208.57498586 293.61187173 207.65900493 293.61046221 206.715267 293.60900998 C199.55171379 293.59788797 192.38816185 293.58603302 185.22461021 293.57394648 C150.11063096 293.51488889 114.99692413 293.51976118 79.8828125 293.515625 C79.5528125 379.645625 79.2228125 465.775625 78.8828125 554.515625 C97.0328125 554.515625 115.1828125 554.515625 133.8828125 554.515625 C148.53477149 558.17861475 158.36703005 562.38515574 167.2578125 574.890625 C172.60364375 583.83107162 174.47741725 592.08907318 174.29412842 602.43225098 C174.29034062 603.58136664 174.28655282 604.7304823 174.28265023 605.91441965 C174.26557919 609.73823996 174.22002389 613.56118285 174.17480469 617.38476562 C174.15498799 620.13695868 174.14156536 622.88917195 174.12825012 625.6414032 C174.09710269 631.55521795 174.05307005 637.4688192 174.00188446 643.38249207 C173.92247684 652.73690604 173.88962339 662.09122688 173.86480713 671.44592285 C173.85579242 674.65212287 173.84657871 677.85832231 173.83737564 681.06452179 C173.83396414 682.26612749 173.83396414 682.26612749 173.83048372 683.49200806 C173.80426333 692.5938184 173.77104111 701.69559528 173.73291016 710.79736328 C173.7294418 711.6286201 173.72597344 712.45987692 173.72239998 713.31632334 C173.66469175 726.79447428 173.5621421 740.27199131 173.44671521 753.74975449 C173.32945137 767.60980505 173.27358529 781.46921788 173.27104497 795.32976484 C173.26728823 803.868265 173.21411333 812.40354485 173.09665844 820.94125116 C173.02046345 826.79306603 173.00296047 832.64323028 173.03101304 838.49546635 C173.04538086 841.87022392 173.02529465 845.23528071 172.9519825 848.60991478 C172.12586086 861.72960928 172.12586086 861.72960928 176.44956112 873.64528084 C180.16891352 877.17097406 184.31103885 879.47558457 188.95206118 881.57923508 C191.76352638 882.94276007 194.13284769 884.77855517 196.58203125 886.703125 C197.4117041 887.333396 198.24137695 887.96366699 199.09619141 888.61303711 C199.91265137 889.24089111 200.72911133 889.86874512 201.5703125 890.515625 C202.45895996 891.19568604 203.34760742 891.87574707 204.26318359 892.57641602 C210.33036362 897.24784684 216.23883325 902.05978247 222.03125 907.06640625 C224.85138774 909.48863414 227.73045857 911.81794231 230.6328125 914.140625 C234.87067775 917.58504378 238.74702789 921.23330122 242.51953125 925.1796875 C244.50841561 927.14555997 246.5330864 928.96789413 248.6484375 930.79296875 C252.92893174 934.50674406 256.95103238 938.4355998 260.9453125 942.453125 C261.94788086 943.44989258 261.94788086 943.44989258 262.97070312 944.46679688 C266.90691857 948.41066288 270.65552559 952.46417549 274.29516602 956.68286133 C277.58281353 960.47808966 281.02981736 964.13466992 284.45809162 967.80281068 C285.8828125 969.515625 285.8828125 969.515625 287.43967545 971.96220391 C290.05449571 975.84586574 292.14340076 978.94249396 296.70406508 980.44521941 C300.15010296 980.79634247 303.47592979 980.8317943 306.93942261 980.76172066 C308.25376622 980.77494747 309.56810983 980.78817429 310.92228204 980.80180192 C314.57211173 980.83712729 318.21923416 980.81024312 321.86894916 980.77322614 C325.83843493 980.7440066 329.8075672 980.77288157 333.77704334 980.7944001 C340.73418729 980.82410879 347.69052564 980.81671 354.64764977 980.78505516 C364.99245123 980.73815433 375.33664028 980.74852656 385.68149605 980.77067881 C403.08280933 980.80631724 420.48380392 980.79544155 437.88510132 980.75812149 C455.11629021 980.72131803 472.34729464 980.70514845 489.57852173 980.71657944 C490.64961787 980.71727839 491.72071402 980.71797734 492.82426762 980.71869747 C498.2637509 980.72235452 503.70323385 980.72638064 509.14271677 980.73054884 C547.67771978 980.75941372 586.21257657 980.74194996 624.74755859 980.69726562 C662.18540329 980.65395946 699.62316447 980.63162297 737.06103516 980.63769531 C738.21488817 980.63787411 739.36874118 980.6380529 740.55755943 980.63823711 C752.1449507 980.6400558 763.73234185 980.642301 775.31973298 980.64485872 C798.92490644 980.65005945 822.5300799 980.65241321 846.13525391 980.65304565 C847.76327083 980.65309454 847.76327083 980.65309454 849.42417699 980.65314441 C921.91041287 980.65499457 994.39662026 980.59047783 1066.8828125 980.515625 C1066.87764618 979.63877548 1066.87247986 978.76192596 1066.86715698 977.85850525 C1066.86112961 976.12051414 1066.86112961 976.12051414 1066.85498047 974.34741211 C1066.84981415 973.20243759 1066.84464783 972.05746307 1066.83932495 970.87779236 C1067.44352139 924.16535198 1091.81791328 880.06537219 1124.2487793 847.84692383 C1159.65512357 813.67468806 1207.03486902 796.89225376 1255.76220703 797.16210938 C1273.6663668 797.4818673 1290.79482184 800.17856384 1307.8828125 805.515625 C1308.64094238 805.7523291 1309.39907227 805.9890332 1310.18017578 806.23291016 C1330.86388121 812.88453693 1349.62099364 823.4287122 1366.8828125 836.515625 C1367.88699219 837.25425781 1368.89117188 837.99289062 1369.92578125 838.75390625 C1374.39870815 842.10340034 1374.39870815 842.10340034 1375.8828125 843.515625 C1375.8828125 844.175625 1375.8828125 844.835625 1375.8828125 845.515625 C1376.41390625 845.721875 1376.945 845.928125 1377.4921875 846.140625 C1380.89054686 848.09523692 1383.39337178 850.73686217 1386.1328125 853.515625 C1386.96425781 854.33546875 1386.96425781 854.33546875 1387.8125 855.171875 C1391.8828125 859.2622383 1391.8828125 859.2622383 1391.8828125 861.515625 C1392.5428125 861.515625 1393.2028125 861.515625 1393.8828125 861.515625 C1395.79309175 863.76625898 1397.56811811 866.02031678 1399.3203125 868.390625 C1399.85237305 869.10806885 1400.38443359 869.8255127 1400.93261719 870.56469727 C1419.64708263 896.20152048 1432.16718164 925.01299787 1436.8828125 956.515625 C1437.05234049 957.6325632 1437.22186847 958.74950139 1437.39653367 959.9002862 C1438.08635357 965.50021661 1438.02441819 971.08956662 1438.01703358 976.72432709 C1438.01938581 977.9470617 1438.02173804 979.16979631 1438.02416155 980.42958349 C1438.029669 983.82172887 1438.03072516 987.21382241 1438.02988414 990.60596863 C1438.03005413 994.2973598 1438.03596583 997.98874258 1438.041125 1001.68012953 C1438.05043911 1009.00103148 1438.05437105 1016.32192738 1438.05664397 1023.64283452 C1438.05960921 1032.41268041 1438.06830863 1041.18251831 1438.07705825 1049.95236 C1438.09789242 1071.15129807 1438.10837155 1092.35023751 1438.11718785 1113.54918343 C1438.12139657 1123.5826698 1438.12661831 1133.61615558 1438.13187238 1143.64964146 C1438.14976332 1178.01031511 1438.16475758 1212.37098895 1438.17219257 1246.73166656 C1438.17266733 1248.88849937 1438.17314322 1251.04533217 1438.17362024 1253.20216498 C1438.1739748 1254.80652644 1438.1739748 1254.80652644 1438.17433653 1256.44329925 C1438.1755377 1261.86210185 1438.17675316 1267.28090444 1438.17797852 1272.69970703 C1438.17821867 1273.77507699 1438.17845882 1274.85044695 1438.17870624 1275.95840388 C1438.18659458 1310.80400931 1438.21001643 1345.64958066 1438.24253446 1380.49517121 C1438.2768684 1417.35412777 1438.2965471 1454.21306441 1438.29983681 1491.07203722 C1438.30025434 1495.12218762 1438.30073389 1499.17233801 1438.30125999 1503.2224884 C1438.30144478 1504.71832987 1438.30144478 1504.71832987 1438.3016333 1506.24439035 C1438.30396108 1522.26211329 1438.3195976 1538.27979651 1438.34010184 1554.29750532 C1438.36040498 1570.41450142 1438.365816 1586.53145005 1438.35633121 1602.64845657 C1438.3511334 1612.21051765 1438.35691187 1621.77242014 1438.37886588 1631.33445824 C1438.3924517 1637.73860439 1438.39122891 1644.14264234 1438.37846392 1650.54678975 C1438.3716185 1654.18480974 1438.37071839 1657.82252835 1438.38802401 1661.46052045 C1438.6090869 1711.05582708 1424.50411018 1757.86775372 1389.93359375 1794.5859375 C1388.27070308 1796.25243531 1386.58569563 1797.89014565 1384.8828125 1799.515625 C1384.0578125 1800.340625 1383.2328125 1801.165625 1382.3828125 1802.015625 C1381.5578125 1802.840625 1380.7328125 1803.665625 1379.8828125 1804.515625 C1379.38539551 1805.03261963 1378.88797852 1805.54961426 1378.37548828 1806.08227539 C1374.27376238 1810.297173 1369.98790215 1813.96497514 1365.2578125 1817.453125 C1364.55978516 1817.97036133 1363.86175781 1818.48759766 1363.14257812 1819.02050781 C1336.76512028 1838.34073332 1306.23551185 1850.19333017 1273.8828125 1854.515625 C1272.95082031 1854.64710937 1272.01882812 1854.77859375 1271.05859375 1854.9140625 C1224.52725923 1860.31958645 1175.50156719 1845.75977214 1138.6953125 1817.140625 C1098.87531476 1785.3577943 1073.09446233 1740.49653903 1067.28125 1689.65625 C1066.92706106 1685.82361526 1066.84103406 1682.04274655 1066.85791016 1678.19433594 C1066.86330307 1676.5932901 1066.86330307 1676.5932901 1066.86880493 1674.9598999 C1066.87342743 1674.15328918 1066.87804993 1673.34667847 1066.8828125 1672.515625 C993.31442469 1672.43963694 919.74602896 1672.37599505 846.17759705 1672.37820435 C845.08911244 1672.37823351 844.00062783 1672.37826268 842.87915884 1672.37829273 C819.22460729 1672.37900088 795.57005651 1672.38193208 771.91550553 1672.38715398 C760.31565935 1672.38970118 748.71581311 1672.39175704 737.1159668 1672.39355469 C735.96163023 1672.39374194 734.80729366 1672.39392919 733.61797719 1672.39412212 C696.18894123 1672.39996335 658.76001369 1672.37334667 621.33100517 1672.32993414 C582.8743148 1672.2855008 544.41774996 1672.27374075 505.96104181 1672.3032112 C500.53182774 1672.30735648 495.10261347 1672.31112747 489.67339897 1672.31467056 C488.60483046 1672.31537948 487.53626194 1672.3160884 486.43531256 1672.31681881 C469.22021438 1672.32727656 452.00532867 1672.30319534 434.79027413 1672.266262 C417.49177452 1672.22988441 400.19357724 1672.22974152 382.89507628 1672.26678102 C372.61200013 1672.28769258 362.32982127 1672.2806264 352.04682572 1672.23381149 C345.18091183 1672.20528866 338.31565721 1672.2129219 331.44978636 1672.25012641 C327.5351854 1672.27029843 323.62233104 1672.2745863 319.70784081 1672.23483835 C315.49133293 1672.19238999 311.2789771 1672.227134 307.06247044 1672.26952934 C305.23769658 1672.23253066 305.23769658 1672.23253066 303.37605861 1672.19478452 C298.41257681 1672.29995446 295.17002585 1672.49042518 291.20950007 1675.64478208 C288.89942905 1678.17015758 286.87190291 1680.7327019 284.8828125 1683.515625 C283.57087541 1685.22439067 282.25846327 1686.93279184 280.9453125 1688.640625 C280.40003906 1689.38570312 279.85476562 1690.13078125 279.29296875 1690.8984375 C278.59494141 1691.69894531 278.59494141 1691.69894531 277.8828125 1692.515625 C277.2228125 1692.515625 276.5628125 1692.515625 275.8828125 1692.515625 C275.48642578 1693.40507812 275.48642578 1693.40507812 275.08203125 1694.3125 C273.83910825 1696.59591554 272.57879604 1697.98989223 270.6953125 1699.765625 C267.40723155 1702.93725308 264.46087486 1706.29072347 261.55859375 1709.81640625 C259.78268985 1711.61714796 258.13924805 1712.42533051 255.8828125 1713.515625 C255.20013112 1714.84083003 254.5321084 1716.17374682 253.8828125 1717.515625 C252.8928125 1717.845625 251.9028125 1718.175625 250.8828125 1718.515625 C250.59148438 1719.10085938 250.30015625 1719.68609375 250 1720.2890625 C248.51273431 1723.25319343 246.48151124 1724.94585965 244.0078125 1727.140625 C243.14414063 1727.91664062 242.28046875 1728.69265625 241.390625 1729.4921875 C239.25126571 1731.21833721 237.38941297 1732.43137457 234.8828125 1733.515625 C234.8828125 1734.175625 234.8828125 1734.835625 234.8828125 1735.515625 C233.28947011 1736.95112226 231.63030168 1738.31389827 229.9453125 1739.640625 C226.29472176 1742.55735819 222.72034277 1745.50289846 219.2578125 1748.640625 C214.96178804 1752.49564164 210.48556323 1756.03567776 205.8828125 1759.515625 C205.01269531 1760.18078125 204.14257812 1760.8459375 203.24609375 1761.53125 C174.20930247 1783.55642865 143.43622534 1802.15047195 110.8828125 1818.515625 C109.98804199 1818.9703418 109.09327148 1819.42505859 108.17138672 1819.89355469 C59.82018054 1844.35589932 6.33089765 1859.51451866 -47.1171875 1867.515625 C-47.78991699 1867.61639343 -48.46264648 1867.71716187 -49.15576172 1867.82098389 C-72.38347009 1871.25960935 -95.66266485 1872.71130941 -119.1171875 1873.515625 C-120.62031494 1873.56976562 -120.62031494 1873.56976562 -122.15380859 1873.625 C-127.81982905 1873.8016147 -133.45281454 1873.71994377 -139.1171875 1873.515625 C-139.75386353 1873.49371094 -140.39053955 1873.47179688 -141.04650879 1873.44921875 C-212.34036199 1870.96074853 -282.61145753 1857.51550576 -348.1171875 1828.515625 C-349.24979004 1828.01595215 -350.38239258 1827.5162793 -351.54931641 1827.00146484 C-384.02543269 1812.55613871 -415.25520814 1795.31730793 -444.1171875 1774.515625 C-445.2311792 1773.71608398 -445.2311792 1773.71608398 -446.36767578 1772.90039062 C-457.5982095 1764.81237743 -468.5024643 1756.39557051 -479.1171875 1747.515625 C-479.71337891 1747.01853027 -480.30957031 1746.52143555 -480.92382812 1746.00927734 C-494.62680017 1734.54606892 -507.47019116 1722.24897697 -520.1171875 1709.640625 C-520.61209686 1709.14839447 -521.10700623 1708.65616394 -521.61691284 1708.14901733 C-527.33827884 1702.45118872 -532.88248519 1696.66632057 -538.1171875 1690.515625 C-539.27969853 1689.18354027 -540.44377405 1687.85281933 -541.609375 1686.5234375 C-542.73716939 1685.22933242 -543.8647744 1683.93506227 -544.9921875 1682.640625 C-545.57226562 1681.97804688 -546.15234375 1681.31546875 -546.75 1680.6328125 C-547.30171875 1679.99859375 -547.8534375 1679.364375 -548.421875 1678.7109375 C-548.91671387 1678.14391113 -549.41155273 1677.57688477 -549.92138672 1676.99267578 C-551.1171875 1675.515625 -551.1171875 1675.515625 -552.1171875 1673.515625 C-571.74724424 1673.46860757 -591.37728933 1673.43349207 -611.00739098 1673.41200066 C-620.12490106 1673.40175028 -629.24237587 1673.38781157 -638.35986328 1673.36474609 C-646.31984631 1673.34461872 -654.27980376 1673.33186344 -662.23981154 1673.32744801 C-666.44258461 1673.32487285 -670.6452846 1673.31895577 -674.84803391 1673.30416489 C-761.32606253 1673.0121654 -846.79641226 1695.6380237 -911.0078125 1756.71484375 C-913.1171875 1758.515625 -913.1171875 1758.515625 -915.1171875 1758.515625 C-915.4471875 1759.505625 -915.7771875 1760.495625 -916.1171875 1761.515625 C-917.70336914 1763.06738281 -917.70336914 1763.06738281 -919.71484375 1764.71875 C-923.95793355 1768.32192628 -927.77398455 1772.18546534 -931.5546875 1776.265625 C-932.20864502 1776.96880859 -932.86260254 1777.67199219 -933.53637695 1778.39648438 C-938.63877081 1783.92160287 -943.50916575 1789.56900538 -948.1171875 1795.515625 C-948.766875 1796.34054443 -948.766875 1796.34054443 -949.4296875 1797.18212891 C-993.27050187 1853.00305471 -1017.96008958 1922.65034692 -1018.32250977 1993.67138672 C-1018.33735916 1995.51787811 -1018.33735916 1995.51787811 -1018.35250854 1997.40167236 C-1018.37839397 2000.72717801 -1018.40037699 2004.05266351 -1018.42051053 2007.37820578 C-1018.44262491 2010.87220728 -1018.46988707 2014.36616885 -1018.49656677 2017.86013794 C-1018.54615425 2024.45410279 -1018.59121657 2031.04809021 -1018.63458914 2037.64209855 C-1018.68425479 2045.15863067 -1018.73906256 2052.67512267 -1018.79426873 2060.19161582 C-1018.90756653 2075.63291499 -1019.01451581 2091.07425129 -1019.1171875 2106.515625 C-1018.23902374 2106.51005081 -1017.36085999 2106.50447662 -1016.45608521 2106.49873352 C-1014.71656082 2106.4922303 -1014.71656082 2106.4922303 -1012.94189453 2106.4855957 C-1011.79560577 2106.48002151 -1010.64931702 2106.47444733 -1009.46829224 2106.46870422 C-1004.90945765 2106.53253513 -1000.49481323 2107.02128489 -995.9921875 2107.703125 C-995.10184814 2107.83549561 -994.21150879 2107.96786621 -993.29418945 2108.10424805 C-955.78153976 2114.01611683 -921.59449316 2131.4419588 -894.1171875 2157.515625 C-893.16070313 2158.41925781 -892.20421875 2159.32289063 -891.21875 2160.25390625 C-883.74440334 2167.44547245 -877.2494191 2175.15911366 -871.1171875 2183.515625 C-870.49529541 2184.34707031 -870.49529541 2184.34707031 -869.86083984 2185.1953125 C-841.2621792 2223.82560798 -831.87902412 2273.54013501 -838.1171875 2320.515625 C-844.34003483 2358.19342275 -860.82126078 2391.88055387 -887.1171875 2419.515625 C-887.62765625 2420.0533252 -888.138125 2420.59102539 -888.6640625 2421.14501953 C-901.1596778 2434.22089267 -914.54590876 2444.35650126 -930.1171875 2453.515625 C-931.02525146 2454.05316406 -931.02525146 2454.05316406 -931.95166016 2454.6015625 C-963.80175516 2473.20628448 -998.47046752 2478.0109645 -1034.76316588 2477.90102766 C-1038.43426228 2477.89330558 -1042.10532279 2477.90324084 -1045.77641386 2477.91075766 C-1052.18851027 2477.92151638 -1058.6005307 2477.92131154 -1065.01263046 2477.91361618 C-1074.54806314 2477.90220386 -1084.08343248 2477.90810337 -1093.61886482 2477.9172411 C-1110.65516658 2477.93299078 -1127.69143446 2477.93168821 -1144.72773939 2477.92300436 C-1159.63631614 2477.91544284 -1174.54488051 2477.91349451 -1189.45345879 2477.9170723 C-1190.93971443 2477.91741603 -1190.93971443 2477.91741603 -1192.45599544 2477.91776671 C-1196.47861864 2477.9187008 -1200.50124183 2477.919656 -1204.52386501 2477.920646 C-1242.21965879 2477.92981248 -1279.91543107 2477.92151919 -1317.61122152 2477.90535531 C-1351.06707913 2477.89111856 -1384.52290246 2477.89239452 -1417.97875977 2477.90673828 C-1455.60931674 2477.92281815 -1493.23985474 2477.92916336 -1530.87041467 2477.91990149 C-1534.88518711 2477.91893941 -1538.89995954 2477.91800088 -1542.91473198 2477.9170723 C-1543.90319513 2477.91683506 -1544.89165829 2477.91659783 -1545.91007487 2477.91635341 C-1560.80626163 2477.9129477 -1575.70243461 2477.91691927 -1590.59861946 2477.92451096 C-1607.5433806 2477.93310388 -1624.48810271 2477.93091195 -1641.43285901 2477.91466872 C-1650.90449785 2477.90588758 -1660.37605209 2477.90524459 -1669.84768865 2477.91660725 C-1676.18724761 2477.92337082 -1682.52673923 2477.91908249 -1688.86628827 2477.90609294 C-1692.4695863 2477.89900831 -1696.07271722 2477.89640691 -1699.67600954 2477.90731089 C-1752.13918995 2478.05410423 -1798.37845761 2462.89491383 -1837.1171875 2426.515625 C-1837.64860352 2426.01820801 -1838.18001953 2425.52079102 -1838.72753906 2425.00830078 C-1864.11128902 2401.05247736 -1881.33804868 2369.94742654 -1889.9296875 2336.203125 C-1890.12457764 2335.44032227 -1890.31946777 2334.67751953 -1890.52026367 2333.89160156 C-1893.64196994 2320.92049239 -1894.46586686 2308.26775477 -1894.43286133 2294.98608398 C-1894.42971245 2292.34902091 -1894.4532149 2289.71309649 -1894.47851562 2287.07617188 C-1894.53639147 2271.77385197 -1892.85741606 2256.77477788 -1888.4296875 2242.078125 C-1888.17477539 2241.21598389 -1887.91986328 2240.35384277 -1887.65722656 2239.46557617 C-1880.97385865 2217.51706058 -1871.03751495 2197.74354564 -1857.1171875 2179.515625 C-1856.47007813 2178.64421875 -1855.82296875 2177.7728125 -1855.15625 2176.875 C-1825.80997021 2139.06121656 -1782.28069204 2114.63724011 -1735.1171875 2107.515625 C-1734.43382324 2107.4110498 -1733.75045898 2107.30647461 -1733.04638672 2107.19873047 C-1728.28964397 2106.56895219 -1723.61463656 2106.47246924 -1718.81665039 2106.49047852 C-1716.93267296 2106.4959243 -1716.93267296 2106.4959243 -1715.01063538 2106.5014801 C-1714.05579758 2106.50614792 -1713.10095978 2106.51081573 -1712.1171875 2106.515625 C-1712.11765544 2105.5770224 -1712.11765544 2105.5770224 -1712.11813284 2104.61945813 C-1712.15204936 2036.44623353 -1712.18345688 1968.27300797 -1712.20187378 1900.09977722 C-1712.20214989 1899.08031142 -1712.20242601 1898.06084562 -1712.20271049 1897.01048692 C-1712.20869727 1874.85105516 -1712.2142375 1852.69162331 -1712.21931816 1830.53219132 C-1712.22181268 1819.66412037 -1712.22440581 1808.79604944 -1712.22705078 1797.92797852 C-1712.2273123 1796.84651473 -1712.22757382 1795.76505095 -1712.22784326 1794.65081554 C-1712.23635541 1759.64120204 -1712.25137013 1724.63159503 -1712.26978194 1689.62198546 C-1712.2886789 1653.62424101 -1712.30096574 1617.62650015 -1712.30501748 1581.62875083 C-1712.30559373 1576.53623455 -1712.306245 1571.44371828 -1712.30694199 1566.35120201 C-1712.30714426 1564.84788404 -1712.30714426 1564.84788404 -1712.30735061 1563.31419601 C-1712.30970767 1547.22636627 -1712.31896652 1531.13854767 -1712.33085157 1515.05072246 C-1712.34267125 1498.84977821 -1712.3471122 1482.64884492 -1712.34419025 1466.44789652 C-1712.34267711 1456.84031491 -1712.34665228 1447.23277363 -1712.35878259 1437.62519936 C-1712.36635418 1431.18404286 -1712.36646511 1424.74291238 -1712.36085113 1418.301754 C-1712.35786889 1414.64662137 -1712.35780372 1410.99156429 -1712.36695386 1407.33644018 C-1712.60889991 1304.37428645 -1681.22361764 1208.13911449 -1586.0546875 1097.265625 C-1580.06699177 1091.27294137 -1574.09487687 1085.49878897 -1567.3984375 1080.30078125 C-1565.1348406 1078.52943915 -1563.0406316 1076.65259763 -1560.9296875 1074.703125 C-1540.55662078 1056.53447388 -1516.1432728 1041.32665374 -1492.1171875 1028.515625 C-1490.68366943 1027.74557129 -1490.68366943 1027.74557129 -1489.22119141 1026.95996094 C-1444.82342785 1003.32993458 -1396.0316658 988.43049166 -1346.1171875 982.515625 C-1345.45383814 982.43312143 -1344.79048879 982.35061785 -1344.10703794 982.26561417 C-1327.93591645 980.29874717 -1311.80486996 980.23329387 -1295.54159033 980.27109261 C-1291.56972063 980.2780532 -1287.59786085 980.27320215 -1283.62598878 980.26993763 C-1276.68487269 980.26581715 -1269.74379111 980.26903113 -1262.80267906 980.27721405 C-1252.4817098 980.28934745 -1242.16076202 980.28987981 -1231.83978693 980.28813007 C-1214.47332069 980.28550978 -1197.10686974 980.29215645 -1179.74040794 980.30416489 C-1162.55629589 980.31601666 -1145.37219022 980.32370035 -1128.18807411 980.32587051 C-1126.58277032 980.32607673 -1126.58277032 980.32607673 -1124.94503615 980.32628712 C-1119.50956957 980.32696383 -1114.07410298 980.32756658 -1108.63863639 980.32814087 C-1070.1829961 980.33233681 -1031.72736412 980.34579788 -993.27172852 980.36474609 C-955.92277063 980.38312772 -918.57381502 980.39728869 -881.22485352 980.40576172 C-880.07271035 980.40602477 -878.92056717 980.40628782 -877.73351058 980.40655885 C-866.16275447 980.40919599 -854.59199834 980.4117476 -843.0212422 980.41423657 C-819.45225644 980.4193084 -795.88327082 980.4249509 -772.31428528 980.43093872 C-771.23072543 980.4312133 -770.14716558 980.43148788 -769.03077059 980.43177078 C-696.72623944 980.45015853 -624.42171289 980.48184734 -552.1171875 980.515625 C-551.82134766 979.90428711 -551.52550781 979.29294922 -551.22070312 978.66308594 C-549.92222224 976.13621916 -548.3515665 974.01443845 -546.6171875 971.765625 C-545.70453125 970.56679687 -545.70453125 970.56679687 -544.7734375 969.34375 C-544.226875 968.74046875 -543.6803125 968.1371875 -543.1171875 967.515625 C-542.4571875 967.515625 -541.7971875 967.515625 -541.1171875 967.515625 C-540.8696875 966.95875 -540.6221875 966.401875 -540.3671875 965.828125 C-537.75616564 960.99773455 -533.98463636 957.35034509 -530.1171875 953.515625 C-529.0646044 952.46404167 -528.01254352 951.41193543 -526.9609375 950.359375 C-524.73177083 948.13020833 -522.50260417 945.90104167 -520.2734375 943.671875 C-519.73436768 943.13264404 -519.19529785 942.59341309 -518.63989258 942.0378418 C-517.31448405 940.71285829 -515.98746079 939.38949042 -514.66015625 938.06640625 C-512.64200671 936.04205656 -510.63680097 934.00694224 -508.63671875 931.96484375 C-507.40111914 930.71086115 -506.16544077 929.45695617 -504.9296875 928.203125 C-504.30126953 927.55794922 -503.67285156 926.91277344 -503.02539062 926.24804688 C-502.42275391 925.63896484 -501.82011719 925.02988281 -501.19921875 924.40234375 C-500.65499268 923.84764404 -500.1107666 923.29294434 -499.55004883 922.72143555 C-498.1171875 921.515625 -498.1171875 921.515625 -496.1171875 921.515625 C-496.1171875 920.855625 -496.1171875 920.195625 -496.1171875 919.515625 C-490.64099702 914.515625 -490.64099702 914.515625 -488.1171875 914.515625 C-488.1171875 913.855625 -488.1171875 913.195625 -488.1171875 912.515625 C-486.06922889 910.77061885 -484.01158734 909.1347636 -481.8671875 907.515625 C-480.56385148 906.5146498 -479.26178717 905.5120168 -477.9609375 904.5078125 C-477.30738281 904.0034668 -476.65382813 903.49912109 -475.98046875 902.97949219 C-473.38126663 900.93745656 -470.87710572 898.79097628 -468.3671875 896.640625 C-462.02856526 891.31312346 -455.34699528 886.49902629 -448.609375 881.69140625 C-447.93061107 881.19699639 -447.25184714 880.70258654 -446.55251461 880.19319457 C-444.1171875 878.515625 -444.1171875 878.515625 -441.53389925 877.07384044 C-436.29426811 874.0412703 -436.29426811 874.0412703 -433.19752324 869.0555414 C-432.84699937 866.04619179 -432.8187813 863.17818342 -432.89686584 860.1492157 C-432.88635474 859.01097927 -432.87584364 857.87274285 -432.86501402 856.70001441 C-432.84186521 852.88793542 -432.88998539 849.0801113 -432.93774414 845.26831055 C-432.94119209 842.53472295 -432.92950626 839.80124994 -432.91836548 837.06768799 C-432.90214386 831.18190117 -432.92207969 825.29713458 -432.9663868 819.41150475 C-433.03020662 810.89120968 -433.03579662 802.37163952 -433.02679556 793.8511462 C-433.01347206 780.01231135 -433.04250874 766.17391382 -433.1003418 752.33520508 C-433.15627694 738.91919267 -433.19987291 725.50327348 -433.22143555 712.0871582 C-433.222772 711.26127953 -433.22410844 710.43540086 -433.22548539 709.58449557 C-433.23964982 700.56135972 -433.24938066 691.53822587 -433.25453091 682.51508045 C-433.2549957 681.72118204 -433.2554605 680.92728362 -433.25593938 680.10932768 C-433.25775557 676.93483914 -433.25955083 673.76035072 -433.26081055 670.5858619 C-433.26464286 661.30568634 -433.28208959 652.0257716 -433.32430654 642.74568722 C-433.35054776 636.92135746 -433.36718075 631.09705616 -433.37638987 625.27267464 C-433.38221525 621.91537852 -433.39487949 618.5584599 -433.41759682 615.20121193 C-433.44171883 611.55502362 -433.44731936 607.90924276 -433.44862366 604.26298523 C-433.46029243 603.21131391 -433.4719612 602.15964259 -433.48398358 601.07610244 C-433.43883788 587.52422384 -428.53932508 576.48568578 -419.3515625 566.58984375 C-398.10380202 546.86508708 -362.8943754 554.515625 -338.1171875 554.515625 C-338.4471875 468.385625 -338.7771875 382.255625 -339.1171875 293.515625 C-392.70203548 293.16597812 -392.70203548 293.16597812 -446.28710938 292.9296875 C-453.51424484 292.90619379 -460.74137719 292.88194823 -467.96850586 292.85644531 C-469.32716996 292.85169783 -469.32716996 292.85169783 -470.71328181 292.84685445 C-485.32767109 292.79469271 -499.94149255 292.70010469 -514.55554537 292.58979145 C-529.5587377 292.47748716 -544.56163324 292.41090184 -559.56522864 292.38656306 C-568.82019351 292.37011446 -578.07355408 292.31821024 -587.32802495 292.2206274 C-593.67823366 292.15708795 -600.02761573 292.13804699 -606.37811909 292.15360847 C-610.04023807 292.16127998 -613.69955907 292.14971148 -617.36117744 292.0851593 C-632.5520072 291.05767299 -632.5520072 291.05767299 -646.23406029 296.15882111 C-649.09009523 298.9412789 -651.10901854 302.07326624 -653.1171875 305.515625 C-654.80061054 307.43793106 -654.80061054 307.43793106 -656.32421875 308.92578125 C-657.18402344 309.80105469 -658.04382812 310.67632812 -658.9296875 311.578125 C-675.12613269 327.71371115 -695.2074898 341.33695488 -716.1171875 350.515625 C-716.73754883 350.78810059 -717.35791016 351.06057617 -717.99707031 351.34130859 C-768.49172203 373.14880118 -825.08636291 373.78983196 -876.2421875 353.765625 C-887.22286872 349.32975676 -898.24672635 344.09593243 -908.1171875 337.515625 C-908.1171875 336.855625 -908.1171875 336.195625 -908.1171875 335.515625 C-909.7671875 335.185625 -911.4171875 334.855625 -913.1171875 334.515625 C-913.1171875 333.855625 -913.1171875 333.195625 -913.1171875 332.515625 C-913.67277344 332.2578125 -914.22835937 332 -914.80078125 331.734375 C-922.94326015 327.45030516 -929.87290236 321.11721413 -936.55859375 314.88671875 C-938.74148009 312.86379965 -940.9659935 310.93123381 -943.2421875 309.015625 C-964.03679386 290.78358629 -980.60400775 264.32824091 -990.1171875 238.515625 C-990.44412598 237.62939453 -990.77106445 236.74316406 -991.10791016 235.83007812 C-996.02588901 222.26542711 -999.90831381 208.78001369 -1002.1171875 194.515625 C-1002.29072754 193.4318457 -1002.29072754 193.4318457 -1002.46777344 192.32617188 C-1010.57681523 139.62943143 -995.73421699 85.49522534 -964.90576172 42.52539062 C-951.08447294 23.70685784 -934.23864674 7.81105757 -915.1171875 -5.484375 C-914.26253906 -6.08636719 -913.40789063 -6.68835937 -912.52734375 -7.30859375 C-868.40445595 -36.84303891 -813.16935223 -47.16488699 -761.1171875 -37.484375 C-746.57997421 -34.56169562 -732.69938812 -30.42363546 -719.1171875 -24.484375 C-718.41577637 -24.18305664 -717.71436523 -23.88173828 -716.99169922 -23.57128906 C-696.5325892 -14.70051183 -678.65432141 -2.55045919 -662.2890625 12.53125 C-660.37856987 14.27680802 -658.42714536 15.93419951 -656.4296875 17.578125 C-651.81724798 21.49434723 -647.75256025 26.07953341 -644.38142288 31.10126281 C-642.33588151 33.72900598 -642.33588151 33.72900598 -639.39870465 34.1538775 C-638.34763338 34.16010998 -637.29656212 34.16634247 -636.21364021 34.17276382 C-634.99860475 34.19196955 -633.78356928 34.21117527 -632.53171456 34.23096299 C-631.18147077 34.22706177 -629.83122833 34.22266785 -628.48098755 34.21783447 C-627.04793737 34.23075349 -625.6149052 34.24581954 -624.181898 34.26285148 C-620.23872381 34.30321455 -616.29600457 34.31214981 -612.35264826 34.31583881 C-608.10143473 34.32509022 -603.8504575 34.36282695 -599.59938049 34.39651489 C-590.29942019 34.46445213 -580.9995676 34.49456062 -571.69940042 34.51656818 C-565.89000954 34.53038216 -560.08066024 34.55156975 -554.27129745 34.57408905 C-538.18161951 34.63506509 -522.09197491 34.6865526 -506.00218391 34.70346451 C-504.97214994 34.70456234 -503.94211597 34.70566017 -502.88086884 34.70679127 C-501.84838083 34.70788266 -500.81589281 34.70897404 -499.75211728 34.71009851 C-497.65994015 34.71231582 -495.56776303 34.71454864 -493.47558594 34.71679688 C-492.43779573 34.71790402 -491.40000553 34.71901117 -490.33076714 34.72015187 C-473.53024177 34.73987452 -456.73080312 34.82708343 -439.93069722 34.94359449 C-422.67517041 35.06229551 -405.42018801 35.12448002 -388.16424644 35.1303041 C-378.47840414 35.13488177 -368.79397609 35.16347905 -359.10852432 35.25440216 C-350.85679586 35.33159295 -342.60691792 35.35690748 -334.35489686 35.31571165 C-330.14728642 35.29623418 -325.9433969 35.3005103 -321.73624992 35.37099838 C-302.55037037 36.45029391 -302.55037037 36.45029391 -286.15488899 28.34849715 C-283.99851167 25.83371584 -282.14955798 23.23604781 -280.39717841 20.4273982 C-278.25215032 17.2236198 -275.54340213 14.58661752 -272.8046875 11.890625 C-271.96458628 11.05722709 -271.96458628 11.05722709 -271.10751331 10.20699286 C-255.14074332 -5.49334442 -235.30192752 -17.0888528 -215.1171875 -26.484375 C-213.98152344 -27.01675781 -212.84585937 -27.54914062 -211.67578125 -28.09765625 C-143.05010853 -58.87185711 -58.28518604 -47.08528755 0 0 Z M-142.1171875 46.515625 C-143.98863341 46.70158887 -145.86499054 46.8390026 -147.7421875 46.953125 C-152.49318601 47.31553728 -156.65749888 47.83085374 -161.1171875 49.515625 C-161.4471875 50.175625 -161.7771875 50.835625 -162.1171875 51.515625 C-163.1071875 51.185625 -164.0971875 50.855625 -165.1171875 50.515625 C-168.26739111 51.39881794 -168.26739111 51.39881794 -171.1171875 52.515625 C-171.1171875 53.175625 -171.1171875 53.835625 -171.1171875 54.515625 C-171.79910156 54.44601563 -172.48101563 54.37640625 -173.18359375 54.3046875 C-176.99109455 54.57846252 -179.77917107 56.07434944 -183.0546875 57.890625 C-183.71146484 58.25148193 -184.36824219 58.61233887 -185.04492188 58.98413086 C-203.4792141 69.34347845 -217.72195631 83.05194442 -229.43359375 100.640625 C-231.70239462 104.03576285 -234.23925605 107.06137014 -236.99584961 110.0703125 C-238.32151699 111.47410614 -238.32151699 111.47410614 -238.1171875 113.515625 C-238.68308594 113.78503906 -239.24898437 114.05445313 -239.83203125 114.33203125 C-243.03163629 115.98926258 -245.98941047 117.9979845 -248.99609375 119.98046875 C-258.11406033 124.46527584 -267.18467089 124.94498552 -277.19584656 124.87638855 C-278.59127488 124.87769931 -279.98670246 124.88033068 -281.38212615 124.88415605 C-285.18829839 124.89081998 -288.99421427 124.87892535 -292.80035388 124.86382186 C-296.91539957 124.85080618 -301.03043206 124.85525486 -305.14549255 124.85752869 C-312.26571231 124.85909794 -319.38584927 124.84972524 -326.5060482 124.83281517 C-336.80051109 124.80838239 -347.09493414 124.80061553 -357.38942287 124.7968512 C-374.09354091 124.79029341 -390.79761487 124.77035055 -407.50170898 124.74194336 C-423.72338644 124.71438535 -439.9450519 124.6931603 -456.16674805 124.68041992 C-457.66785888 124.67923767 -457.66785888 124.67923767 -459.19929519 124.67803153 C-464.21996607 124.67411627 -469.24063705 124.67032518 -474.26130807 124.66659582 C-515.8799652 124.63552088 -557.49857382 124.58270345 -599.1171875 124.515625 C-598.97843201 125.66481918 -598.83967651 126.81401337 -598.69671631 127.99803162 C-598.51354924 129.53049761 -598.33046872 131.06297396 -598.14746094 132.59545898 C-598.05612885 133.34995079 -597.96479675 134.1044426 -597.87069702 134.88179779 C-597.09057538 141.43896166 -596.6089905 147.97811725 -596.3671875 154.578125 C-596.32480957 155.71499756 -596.28243164 156.85187012 -596.23876953 158.02319336 C-595.94330673 168.63119008 -596.65846137 179.06470724 -597.80419922 189.60571289 C-598.09420082 192.30191342 -598.36768341 194.9991364 -598.63674927 197.69749451 C-598.72673754 198.5993621 -598.81672581 199.50122969 -598.90944099 200.4304266 C-598.97799734 201.11854207 -599.04655369 201.80665754 -599.1171875 202.515625 C-598.40443043 202.51622209 -597.69167336 202.51681918 -596.95731759 202.51743436 C-554.69489298 202.55334378 -512.43254043 202.61000655 -470.17018183 202.69354595 C-465.09343531 202.70356317 -460.01668847 202.71340734 -454.93994141 202.72314453 C-453.42393538 202.72605659 -453.42393538 202.72605659 -451.87730297 202.72902748 C-435.52186784 202.76003176 -419.16644672 202.77702375 -402.81098774 202.78881922 C-386.02342561 202.80123892 -369.23593697 202.82875883 -352.44842124 202.87023807 C-342.09319403 202.89534999 -331.73808874 202.90874396 -321.38283065 202.90705457 C-314.27771125 202.90702477 -307.17271586 202.92168879 -300.0676448 202.94778928 C-295.97099157 202.96240811 -291.87459265 202.97066155 -287.77791786 202.96142769 C-284.02073643 202.95310266 -280.26406457 202.96339891 -276.50695845 202.98796162 C-274.51759991 202.99627688 -272.52818871 202.98514937 -270.53884912 202.97312665 C-257.36596517 203.09829457 -246.997339 206.7193057 -237.1171875 215.515625 C-233.65168603 219.22715598 -230.90180348 223.34621651 -228.078125 227.5546875 C-210.47124688 253.62282153 -184.82720581 272.93690106 -153.54150391 279.01611328 C-121.13937325 284.64645656 -89.24815153 279.31528754 -61.94140625 260.3046875 C-49.78469901 251.44867506 -39.53022581 240.9875853 -31.1171875 228.515625 C-29.82645806 226.70245746 -28.53482319 224.88993404 -27.2421875 223.078125 C-25.66996151 220.85872692 -24.26253229 218.84775585 -23.171875 216.35546875 C-21.81826447 213.99417038 -20.59118641 213.58292778 -18.1171875 212.515625 C-15.78051801 211.04393316 -13.45651922 209.5549584 -11.140625 208.05078125 C-2.29456876 203.55917905 6.15906732 203.08008315 15.95510864 203.11689758 C17.36205199 203.11144987 18.76899078 203.10469488 20.17592227 203.09675568 C24.0185163 203.07881381 27.86091625 203.07927712 31.70354223 203.08288515 C35.85612927 203.08351103 40.00865233 203.06686993 44.16120911 203.05236816 C51.34798792 203.02961363 58.53471836 203.01770249 65.72153091 203.01323891 C76.11233326 203.00676959 86.50304829 202.98381845 96.89381538 202.95689561 C113.75374223 202.91365626 130.61366539 202.88367322 147.47363281 202.86206055 C163.84767466 202.84104231 180.22168639 202.81375983 196.59570312 202.77807617 C197.60566739 202.77587735 198.61563166 202.77367852 199.6562009 202.77141307 C204.72309494 202.7603432 209.7899887 202.74915043 214.85688233 202.73789656 C256.86549927 202.64475184 298.87413263 202.57313515 340.8828125 202.515625 C340.79383603 201.89551324 340.70485956 201.27540148 340.61318684 200.63649845 C340.2061137 197.7811568 339.80577904 194.92490767 339.40551758 192.06860352 C339.26547554 191.09344032 339.1254335 190.11827713 338.98114777 189.11356354 C337.88136129 181.21179531 337.44821448 173.46061421 337.54663086 165.4831543 C337.57039504 163.44604916 337.5671146 161.4102582 337.56054688 159.37304688 C337.58037232 151.34804366 338.10340859 143.45191435 338.90161133 135.47094727 C339.04266171 134.02752331 339.04266171 134.02752331 339.18656158 132.55493927 C339.41622535 130.20825197 339.64835271 127.86183713 339.8828125 125.515625 C338.82637271 125.51415979 338.82637271 125.51415979 337.74859071 125.51266497 C295.98720023 125.45436668 254.22586222 125.38055 212.46453591 125.28663872 C207.44787445 125.27537084 202.43121271 125.26423234 197.41455078 125.25317383 C196.41584256 125.25097014 195.41713433 125.24876646 194.38816223 125.246496 C178.22672769 125.21114365 162.06529321 125.18626787 145.90383437 125.16527798 C129.31516349 125.14349951 112.72654269 125.11042963 96.13791442 125.06692344 C85.90554548 125.04044201 75.67323892 125.0227208 65.44083741 125.01627896 C58.41983443 125.01101435 51.39890989 124.99476135 44.37794897 124.96995934 C40.32994149 124.95598112 36.28207431 124.94675974 32.23404121 124.95061684 C28.52134494 124.954047 24.80894742 124.94354862 21.09631225 124.92238948 C19.13081587 124.91469329 17.16527876 124.92153097 15.19978166 124.92904204 C0.67821083 124.81372431 -10.80119328 121.37743751 -21.6796875 111.515625 C-25.40785793 107.56606678 -28.19869903 102.96394268 -31.14257812 98.42358398 C-37.77801947 88.29705235 -45.58411577 79.03699341 -55.1171875 71.515625 C-56.13167969 70.71511719 -57.14617188 69.91460937 -58.19140625 69.08984375 C-71.53420316 58.91586408 -126.8809548 31.2793923 -142.1171875 46.515625 Z M-811.1171875 50.515625 C-812.98863341 50.70158887 -814.86499054 50.8390026 -816.7421875 50.953125 C-821.46630128 51.3156603 -825.6104299 51.98502808 -830.1171875 53.515625 C-830.83519531 53.74378906 -831.55320312 53.97195312 -832.29296875 54.20703125 C-837.01879439 55.72406099 -841.6153118 57.41946677 -846.1171875 59.515625 C-847.42623047 60.11310547 -847.42623047 60.11310547 -848.76171875 60.72265625 C-876.47773012 73.90864855 -896.73569577 96.88304578 -907.22045898 125.63793945 C-917.02601275 154.09967392 -915.09750366 185.54429869 -902.31738281 212.6940918 C-896.5993492 224.39069624 -889.02336779 234.05380066 -880.1171875 243.515625 C-879.23353516 244.51335937 -879.23353516 244.51335937 -878.33203125 245.53125 C-859.70118932 265.67712743 -831.28573917 275.91475517 -804.41796875 277.4296875 C-772.47309392 278.62287468 -744.32844481 266.03391704 -720.625 245.33984375 C-699.62644933 225.49957613 -687.52033193 197.19238937 -686.1171875 168.515625 C-686.0759375 167.75507813 -686.0346875 166.99453125 -685.9921875 166.2109375 C-685.14192738 134.64503071 -697.66458817 106.18044312 -719.1171875 83.515625 C-719.849375 82.73058594 -720.5815625 81.94554687 -721.3359375 81.13671875 C-728.89162828 73.2750757 -737.25645531 67.83941542 -746.8046875 62.703125 C-747.51753906 62.31769531 -748.23039062 61.93226562 -748.96484375 61.53515625 C-754.16221883 58.81088158 -759.14131048 56.515625 -765.1171875 56.515625 C-765.4471875 55.855625 -765.7771875 55.195625 -766.1171875 54.515625 C-769.89341364 53.20550573 -773.46427316 52.41623908 -777.4296875 51.953125 C-781.1171875 51.515625 -781.1171875 51.515625 -783.1171875 50.515625 C-787.62843268 50.14463579 -792.15644472 50.04715452 -796.6796875 49.890625 C-798.58524414 49.81328125 -798.58524414 49.81328125 -800.52929688 49.734375 C-801.73521484 49.69054687 -802.94113281 49.64671875 -804.18359375 49.6015625 C-805.8533728 49.5404126 -805.8533728 49.5404126 -807.55688477 49.47802734 C-810.05109725 49.21731878 -810.05109725 49.21731878 -811.1171875 50.515625 Z M500.8828125 56.515625 C500.8828125 57.175625 500.8828125 57.835625 500.8828125 58.515625 C499.7071875 58.4846875 499.7071875 58.4846875 498.5078125 58.453125 C495.90166289 58.32878437 495.90166289 58.32878437 493.8828125 59.515625 C493.8828125 60.175625 493.8828125 60.835625 493.8828125 61.515625 C492.9340625 61.66 491.9853125 61.804375 491.0078125 61.953125 C487.9893631 62.34497899 487.9893631 62.34497899 485.8828125 63.515625 C485.8828125 64.175625 485.8828125 64.835625 485.8828125 65.515625 C485.17253906 65.60070312 484.46226562 65.68578125 483.73046875 65.7734375 C467.49158019 70.00579529 451.86771665 91.03648107 443.6484375 104.70141602 C428.51752395 130.79860466 423.02864613 161.69703057 430.62890625 191.19921875 C435.48984526 208.40686588 443.06688856 223.9775421 454.8828125 237.515625 C455.43710938 238.22460938 455.99140625 238.93359375 456.5625 239.6640625 C473.53438302 260.55833626 501.6125966 273.5610401 527.94042969 276.76611328 C557.79615916 279.84646632 587.17393741 272.07449278 610.8828125 253.515625 C614.31678507 250.61490654 617.64253104 247.63079906 620.8828125 244.515625 C621.46804687 243.97679687 622.05328125 243.43796875 622.65625 242.8828125 C624.1054088 241.5736334 624.1054088 241.5736334 623.8828125 239.515625 C624.5428125 239.515625 625.2028125 239.515625 625.8828125 239.515625 C625.8828125 238.855625 625.8828125 238.195625 625.8828125 237.515625 C626.5428125 237.515625 627.2028125 237.515625 627.8828125 237.515625 C629.52683628 235.36128157 631.03027231 233.21883463 632.5078125 230.953125 C633.17441895 229.9336377 633.17441895 229.9336377 633.85449219 228.89355469 C651.15798162 202.05270887 658.62176667 171.74801529 652.2578125 139.890625 C645.51428159 109.26655761 627.31617974 83.4240304 600.8828125 66.515625 C569.68680862 48.01132868 535.18313228 47.03259541 500.8828125 56.515625 Z M-247.1171875 335.515625 C-247.1171875 407.785625 -247.1171875 480.055625 -247.1171875 554.515625 C-169.5671875 554.515625 -92.0171875 554.515625 -12.1171875 554.515625 C-12.1171875 482.245625 -12.1171875 409.975625 -12.1171875 335.515625 C-15.7471875 337.825625 -19.3771875 340.135625 -23.1171875 342.515625 C-53.82309161 360.25560847 -87.67092189 370.19053096 -123.1171875 371.515625 C-124.49390625 371.5775 -124.49390625 371.5775 -125.8984375 371.640625 C-165.79895196 372.55787821 -210.85986109 361.42697371 -242.95703125 337.0625 C-244.94538397 335.32155456 -244.94538397 335.32155456 -247.1171875 335.515625 Z M-342.1171875 645.515625 C-342.32727797 729.22506272 -342.32727797 729.22506272 -342.50512695 812.93457031 C-342.55505371 829.13037109 -342.55505371 829.13037109 -342.5821991 836.71405029 C-342.60012464 842.00686798 -342.60998543 847.29962761 -342.61430359 852.59246826 C-342.61984742 859.34959907 -342.6407713 866.10652033 -342.67134893 872.86359167 C-342.68014738 875.33982108 -342.68398762 877.81607441 -342.68222678 880.29231882 C-342.68056457 883.64636524 -342.69730774 886.99985146 -342.71846008 890.3538208 C-342.71361194 891.31466961 -342.70876379 892.27551842 -342.70376873 893.26548386 C-342.79972286 902.55864592 -344.50421706 911.79513411 -349.3671875 919.828125 C-349.90859375 920.75238281 -350.45 921.67664063 -351.0078125 922.62890625 C-356.59626446 930.27680625 -363.35871774 934.82339698 -371.4296875 939.640625 C-395.23486272 954.18803094 -417.21160429 971.38500151 -437.6796875 990.32421875 C-440.1171875 992.515625 -440.1171875 992.515625 -442.9296875 994.67578125 C-444.0125 995.58650391 -444.0125 995.58650391 -445.1171875 996.515625 C-445.1171875 997.175625 -445.1171875 997.835625 -445.1171875 998.515625 C-445.91189453 998.82113281 -445.91189453 998.82113281 -446.72265625 999.1328125 C-450.15740356 1001.11633705 -452.67005601 1003.81697324 -455.4296875 1006.640625 C-456.01073242 1007.22884033 -456.59177734 1007.81705566 -457.19042969 1008.4230957 C-460.73945675 1012.03922622 -464.18251254 1015.71702535 -467.4609375 1019.58203125 C-469.37704327 1021.81899435 -471.37231606 1023.97366078 -473.3671875 1026.140625 C-476.96092063 1030.11940097 -480.32281311 1034.22764462 -483.6171875 1038.453125 C-484.08133057 1039.04826904 -484.54547363 1039.64341309 -485.02368164 1040.2565918 C-485.94661027 1041.44164444 -486.86922239 1042.62694366 -487.79150391 1043.8125 C-497.00349964 1055.64728494 -505.67459472 1066.34002345 -521.1171875 1069.515625 C-522.93253098 1069.60657877 -524.75089237 1069.6434473 -526.5685122 1069.64508486 C-528.2434196 1069.65022159 -528.2434196 1069.65022159 -529.95216352 1069.65546209 C-531.18137153 1069.65415357 -532.41057954 1069.65284505 -533.67703629 1069.65149689 C-534.9863277 1069.65403951 -536.29561911 1069.65658213 -537.64458603 1069.6592018 C-541.29812357 1069.66615839 -544.95164036 1069.666876 -548.60518355 1069.66662904 C-552.57298826 1069.66745552 -556.54078393 1069.67405347 -560.50858378 1069.67993975 C-567.4696243 1069.68946956 -574.43066039 1069.6953021 -581.39170647 1069.69874763 C-591.74387958 1069.70389479 -602.09604114 1069.71474522 -612.44820821 1069.72682707 C-629.86672737 1069.74701311 -647.28524783 1069.7626987 -664.7037735 1069.77598572 C-688.50781527 1069.79420328 -712.31184716 1069.8189125 -736.11588106 1069.84535962 C-747.20442434 1069.85767043 -758.29296797 1069.86966179 -769.38151169 1069.88156891 C-770.49173031 1069.88276143 -771.60194893 1069.88395396 -772.74581054 1069.88518262 C-799.1874718 1069.91350975 -825.6291359 1069.93870048 -852.07080078 1069.96337891 C-853.22802379 1069.9644601 -854.3852468 1069.9655413 -855.57753718 1069.96665526 C-871.99963787 1069.98199494 -888.42173868 1069.99719882 -904.84383953 1070.01236975 C-924.7479439 1070.03075931 -944.65204821 1070.0492256 -964.55615234 1070.06787109 C-966.28649507 1070.06949029 -966.28649507 1070.06949029 -968.05179422 1070.0711422 C-994.40686463 1070.09582113 -1020.76193378 1070.12138574 -1047.11700058 1070.14968109 C-1048.22598206 1070.15087134 -1049.33496355 1070.15206159 -1050.47755053 1070.15328791 C-1061.55221581 1070.16519396 -1072.62688091 1070.17725216 -1083.70154578 1070.18953812 C-1107.46866835 1070.21587036 -1131.23578927 1070.23952527 -1155.00291956 1070.25771151 C-1172.34366222 1070.2710208 -1189.68439888 1070.28768751 -1207.02513501 1070.30780661 C-1217.31586072 1070.31962879 -1227.60658037 1070.32872143 -1237.89731164 1070.33385258 C-1244.78731686 1070.33755518 -1251.6773125 1070.34484391 -1258.56731131 1070.3549369 C-1262.48281358 1070.36057017 -1266.39830059 1070.36473536 -1270.31380728 1070.36446577 C-1302.50228941 1070.19187412 -1302.50228941 1070.19187412 -1334.5546875 1072.765625 C-1335.57216064 1072.89348389 -1336.58963379 1073.02134277 -1337.63793945 1073.15307617 C-1374.62718401 1078.04808552 -1409.62841279 1089.17901572 -1443.1171875 1105.515625 C-1443.82488281 1105.85916016 -1444.53257812 1106.20269531 -1445.26171875 1106.55664062 C-1469.84633285 1118.64866569 -1492.80997888 1135.19455056 -1513.1171875 1153.515625 C-1513.71450684 1154.05123047 -1514.31182617 1154.58683594 -1514.92724609 1155.13867188 C-1528.75241374 1167.59403973 -1541.64484795 1180.87595085 -1552.81542969 1195.78125 C-1554.12470281 1197.52563789 -1555.45223131 1199.25500276 -1556.78125 1200.984375 C-1576.22190452 1226.56418358 -1591.11047034 1255.39784303 -1602.1171875 1285.515625 C-1602.613396 1286.86382324 -1602.613396 1286.86382324 -1603.11962891 1288.23925781 C-1609.75779149 1306.51372894 -1614.31468796 1325.32327139 -1617.3671875 1344.515625 C-1617.59378052 1345.91590942 -1617.59378052 1345.91590942 -1617.82495117 1347.34448242 C-1620.94666994 1368.41124221 -1621.41948295 1389.61018947 -1621.39665909 1410.86826579 C-1621.39492216 1414.58939737 -1621.40487192 1418.31050315 -1621.41321313 1422.0316233 C-1621.42622213 1428.52627335 -1621.43206403 1435.02089758 -1621.43297386 1441.51556015 C-1621.43436037 1451.17260227 -1621.44720619 1460.82960646 -1621.4622616 1470.48663575 C-1621.48727992 1486.73799468 -1621.50321091 1502.98935036 -1621.51384354 1519.24072456 C-1621.52439125 1535.31626646 -1621.53905112 1551.39179609 -1621.55912399 1567.46732903 C-1621.56037286 1568.4693256 -1621.56162173 1569.47132218 -1621.56290844 1570.50368229 C-1621.56927277 1575.59295092 -1621.57570981 1580.68221945 -1621.58217482 1585.77148794 C-1621.6277574 1621.7569133 -1621.66423924 1657.74234264 -1621.6953125 1693.7277832 C-1621.72550831 1728.67277613 -1621.75989483 1763.6177609 -1621.79980469 1798.56274414 C-1621.80231138 1800.76271611 -1621.80481796 1802.96268809 -1621.80732441 1805.16266006 C-1621.82771484 1823.04025227 -1621.84839318 1840.91784415 -1621.86914128 1858.79543594 C-1621.96476575 1941.36882255 -1622.03936341 2023.94221579 -1622.1171875 2106.515625 C-1453.1571875 2106.515625 -1284.1971875 2106.515625 -1110.1171875 2106.515625 C-1109.7871875 2064.275625 -1109.4571875 2022.035625 -1109.1171875 1978.515625 C-1106.77102392 1948.01549852 -1106.77102392 1948.01549852 -1105.3671875 1938.640625 C-1105.11340332 1936.92166016 -1105.11340332 1936.92166016 -1104.85449219 1935.16796875 C-1093.71950084 1862.62241235 -1063.75792656 1793.31812036 -1017.1171875 1736.515625 C-1016.45106445 1735.70303223 -1016.45106445 1735.70303223 -1015.77148438 1734.87402344 C-1005.64058533 1722.57846467 -994.76780399 1711.07562787 -983.5546875 1699.765625 C-982.69246582 1698.89035156 -981.83024414 1698.01507812 -980.94189453 1697.11328125 C-975.72431878 1691.88878957 -970.32698285 1687.08019893 -964.54711914 1682.48413086 C-962.31509744 1680.67595333 -960.20837927 1678.79577697 -958.1171875 1676.828125 C-941.09191166 1661.56303811 -920.9422439 1648.83770146 -901.1171875 1637.515625 C-900.32393066 1637.06219727 -899.53067383 1636.60876953 -898.71337891 1636.14160156 C-834.65060362 1599.79444424 -762.96437527 1582.4001987 -689.55712891 1582.35449219 C-687.78086244 1582.34984726 -686.00459693 1582.34482045 -684.22833252 1582.33944702 C-679.46428216 1582.32649719 -674.70024574 1582.31991482 -669.93618059 1582.31543636 C-666.95062994 1582.31248207 -663.96508293 1582.30837353 -660.97953415 1582.30393219 C-651.6100627 1582.29031418 -642.24059978 1582.28061525 -632.87111914 1582.2767303 C-622.10404817 1582.27223876 -611.33710346 1582.25461622 -600.57007086 1582.2257297 C-592.20610506 1582.20407697 -583.84217475 1582.19402439 -575.47818124 1582.19268918 C-570.49921482 1582.19164537 -565.52036803 1582.18582603 -560.54143143 1582.16786957 C-555.86431148 1582.15132243 -551.18740043 1582.1492654 -546.51026154 1582.15800858 C-544.80274518 1582.15877492 -543.09521724 1582.15448983 -541.38772964 1582.14455032 C-524.65104438 1582.05289153 -509.52347834 1584.39280894 -497.1171875 1596.515625 C-494.93924261 1599.06576966 -492.96477831 1601.74244557 -490.9921875 1604.453125 C-486.66917616 1610.24419827 -482.24138732 1615.87983722 -477.4921875 1621.328125 C-476.77651611 1622.15074829 -476.77651611 1622.15074829 -476.04638672 1622.98999023 C-474.41646803 1624.84404307 -472.76968502 1626.68165305 -471.1171875 1628.515625 C-470.32497803 1629.39613525 -469.53276855 1630.27664551 -468.71655273 1631.18383789 C-462.34741819 1638.22001638 -455.76938245 1645.02033277 -449.0456543 1651.7175293 C-447.41662178 1653.34114729 -445.79308022 1654.97012103 -444.16992188 1656.59960938 C-438.65948388 1662.1142338 -433.09249916 1667.50101536 -427.1171875 1672.515625 C-426.49030029 1673.04921631 -425.86341309 1673.58280762 -425.2175293 1674.13256836 C-344.80665235 1742.25068964 -244.2655481 1779.49729495 -139.1171875 1782.515625 C-137.94881348 1782.55067139 -137.94881348 1782.55067139 -136.75683594 1782.58642578 C-69.21008903 1784.31355575 -0.38626534 1769.86104688 60.8828125 1741.515625 C61.88231934 1741.05961914 62.88182617 1740.60361328 63.91162109 1740.13378906 C104.46194937 1721.56919258 142.26426382 1696.6044891 174.93359375 1666.21875 C177.1499423 1664.16433876 179.41906381 1662.18126684 181.70703125 1660.20703125 C186.10377875 1656.37375548 190.25735256 1652.32476507 194.3828125 1648.203125 C195.10984375 1647.48833984 195.836875 1646.77355469 196.5859375 1646.03710938 C197.27171875 1645.35326172 197.9575 1644.66941406 198.6640625 1643.96484375 C199.5931543 1643.04191528 199.5931543 1643.04191528 200.54101562 1642.1003418 C202.09820914 1640.60731186 202.09820914 1640.60731186 201.8828125 1638.515625 C202.8728125 1638.185625 203.8628125 1637.855625 204.8828125 1637.515625 C206.77032153 1635.72791631 206.77032153 1635.72791631 208.5703125 1633.578125 C209.19292969 1632.86785156 209.81554688 1632.15757812 210.45703125 1631.42578125 C212.08220015 1629.64576684 212.08220015 1629.64576684 211.8828125 1627.515625 C212.5428125 1627.515625 213.2028125 1627.515625 213.8828125 1627.515625 C215.78197501 1625.5186767 215.78197501 1625.5186767 217.8203125 1622.890625 C218.62339844 1621.88902344 219.42648437 1620.88742187 220.25390625 1619.85546875 C222.51338918 1616.99515909 224.75113538 1614.11813219 226.98876953 1611.24072266 C238.48108756 1596.50398841 248.5952102 1585.34823182 267.8828125 1582.515625 C269.83748199 1582.42831335 271.79459749 1582.38715922 273.75121486 1582.38501447 C274.90999897 1582.38133376 276.06878307 1582.37765305 277.26268184 1582.37386081 C279.16184673 1582.37539481 279.16184673 1582.37539481 281.09937859 1582.3769598 C282.46900935 1582.37451127 283.83863938 1582.37162707 285.2082684 1582.36834702 C288.98312823 1582.36057456 292.75796931 1582.35900506 296.53283616 1582.3584196 C300.63527965 1582.35669139 304.73771323 1582.34920649 308.84015095 1582.34244305 C316.03376609 1582.33138029 323.22737771 1582.32401202 330.42099953 1582.31904411 C341.11769275 1582.31164034 351.81437371 1582.2985577 362.51105972 1582.28429836 C380.50361482 1582.26047468 398.49617209 1582.24127602 416.4887352 1582.22469902 C434.30765964 1582.20826693 452.12658001 1582.18978794 469.94549942 1582.16856575 C471.05277806 1582.16724814 472.1600567 1582.16593054 473.30088924 1582.164573 C478.92403141 1582.15787106 484.54717353 1582.15113246 490.17031564 1582.14437974 C530.01523252 1582.09659677 569.8601532 1582.05341747 609.70507812 1582.01293945 C648.41764604 1581.97360127 687.13021079 1581.9321648 725.84277344 1581.88793945 C728.27648751 1581.88516211 730.71020158 1581.88238483 733.14391565 1581.87960762 C752.91836405 1581.85703091 772.69281229 1581.83430917 792.46726048 1581.81155226 C883.93910486 1581.70638889 975.41095737 1581.61182498 1066.8828125 1581.515625 C1066.8828125 1413.215625 1066.8828125 1244.915625 1066.8828125 1071.515625 C1009.64457031 1071.46664063 952.40632813 1071.41765625 893.43359375 1071.3671875 C859.42123004 1071.33393051 825.40886753 1071.30053886 791.39650667 1071.26464367 C771.45196932 1071.24360526 751.50743188 1071.22265951 731.56289414 1071.20199931 C729.15043125 1071.19950003 726.73796835 1071.19699784 724.32550546 1071.1944927 C685.86234213 1071.15457608 647.39917651 1071.1210802 608.93600439 1071.09093809 C569.40683028 1071.05992657 529.87766755 1071.02241514 490.34850756 1070.97671888 C484.76597581 1070.97026843 479.18344398 1070.96389233 473.60091209 1070.95756149 C472.50218396 1070.95631319 471.40345583 1070.95506488 470.2714329 1070.95377875 C452.58113769 1070.93387141 434.89084373 1070.92082106 417.2005407 1070.91033172 C399.41813142 1070.89964155 381.63574102 1070.88173511 363.85334639 1070.85645796 C353.28704266 1070.8416577 342.72076783 1070.83239508 332.15445364 1070.83105817 C325.09464781 1070.82961957 318.03487453 1070.82096441 310.9750835 1070.80646908 C306.95349683 1070.79841763 302.93197406 1070.79347759 298.91037969 1070.79734619 C295.24601999 1070.80080916 291.58179221 1070.79500087 287.91745486 1070.78204435 C285.99054674 1070.77755316 284.06362332 1070.78273218 282.1367183 1070.78839767 C265.11513439 1070.70206501 251.97364143 1067.77758812 238.8828125 1056.515625 C237.02227079 1054.41034942 235.32834652 1052.19227932 233.6328125 1049.953125 C232.66227715 1048.69598202 231.69091249 1047.43947887 230.71875 1046.18359375 C230.24018555 1045.56274902 229.76162109 1044.9419043 229.26855469 1044.30224609 C223.85723172 1037.32549108 218.17523634 1030.61327636 212.21875 1024.09765625 C210.96295638 1022.70956331 209.71277873 1021.31572124 208.5 1019.88989258 C203.2436954 1013.73418659 197.57114165 1008.01783559 191.85058594 1002.2980957 C190.14486652 1000.59019444 188.44732223 998.87444455 186.75 997.15820312 C180.89166161 991.26995788 174.9427815 985.7369759 168.4284668 980.56420898 C165.96232803 978.57961415 163.60809523 976.51467311 161.26171875 974.390625 C156.95174134 970.52301503 152.45966453 966.97835393 147.8203125 963.515625 C146.9754126 962.88333984 146.1305127 962.25105469 145.26000977 961.59960938 C132.06407303 951.8353109 118.29910362 942.82872104 104.35083008 934.17993164 C94.85441851 927.7760304 87.98247544 918.35347846 85.31881142 907.14164448 C83.25606235 895.50375904 83.57422717 883.77904378 83.56396484 871.9987793 C83.55454373 869.48410375 83.54426312 866.9694313 83.5331974 864.45476246 C83.50878946 858.42719083 83.49307763 852.39965676 83.48161349 846.37205162 C83.46789607 839.3904523 83.44156281 832.40893132 83.4152832 825.42736816 C83.35214838 807.01932054 83.3060087 788.6112178 83.2578125 770.203125 C83.0721875 708.4828125 83.0721875 708.4828125 82.8828125 645.515625 C-57.3671875 645.515625 -197.6171875 645.515625 -342.1171875 645.515625 Z M1180.8828125 919.515625 C1169.52255961 932.73854999 1162.4708526 948.54845235 1158.8828125 965.515625 C1158.70626294 966.33032133 1158.52971339 967.14501766 1158.34781384 967.98440176 C1157.67582324 973.08750279 1157.74324259 978.14291568 1157.75138474 983.28472805 C1157.7493321 984.48421411 1157.74727947 985.68370017 1157.74516463 986.9195343 C1157.74047717 990.25574089 1157.74026925 993.59189369 1157.74194222 996.9280996 C1157.7426736 1000.55524025 1157.73764972 1004.18237368 1157.7333672 1007.80951124 C1157.72578749 1015.00664293 1157.72359416 1022.20376719 1157.72303815 1029.40090244 C1157.72212447 1038.02056414 1157.71545679 1046.64021898 1157.70869133 1055.25987773 C1157.6926288 1076.09463353 1157.68672764 1096.92938859 1157.68194258 1117.76414946 C1157.67960676 1127.62078685 1157.67600411 1137.47742366 1157.6722472 1147.3340606 C1157.65941112 1181.07523749 1157.64869226 1214.81641406 1157.6452446 1248.55759335 C1157.64502297 1250.67582791 1157.64480118 1252.79406248 1157.64457925 1254.91229704 C1157.64435861 1257.03564819 1157.64413812 1259.15899934 1157.6439178 1261.28235048 C1157.64347525 1265.54215618 1157.64302813 1269.80196188 1157.64257812 1274.06176758 C1157.64246873 1275.11795234 1157.64235934 1276.17413711 1157.64224664 1277.26232747 C1157.63861642 1311.50517513 1157.62269801 1345.74800162 1157.59938776 1379.99084117 C1157.5747873 1416.1952134 1157.56107165 1452.39957354 1157.55987668 1488.60395437 C1157.55970523 1492.5789878 1157.5594898 1496.55402122 1157.55924225 1500.52905464 C1157.55918648 1501.50781799 1157.55913071 1502.48658133 1157.55907325 1503.49500417 C1157.55792295 1519.24123527 1157.54690269 1534.98744464 1157.53235519 1550.7336684 C1157.51798304 1566.56397514 1157.51475726 1582.39425403 1157.52279517 1598.2245655 C1157.52724813 1607.62629187 1157.52340419 1617.0279283 1157.50755666 1626.42964283 C1157.49779232 1632.71550104 1157.49899879 1639.00129638 1157.50899289 1645.28715404 C1157.51437446 1648.86499134 1157.51512908 1652.4426562 1157.50248417 1656.02047908 C1157.3265551 1675.97584659 1157.3265551 1675.97584659 1160.8828125 1695.515625 C1161.09479743 1696.29249143 1161.30678236 1697.06935786 1161.52519107 1697.8697657 C1166.01978866 1712.9236198 1174.74455051 1726.53152581 1185.8828125 1737.515625 C1187.00042969 1738.64871094 1187.00042969 1738.64871094 1188.140625 1739.8046875 C1205.33885908 1756.3218034 1228.30093156 1764.33357269 1251.8828125 1764.890625 C1279.35459651 1764.26749775 1302.05760138 1753.40100825 1321.75 1734.80859375 C1324.10983678 1732.79347783 1324.10983678 1732.79347783 1323.8828125 1730.515625 C1324.5428125 1730.515625 1325.2028125 1730.515625 1325.8828125 1730.515625 C1343.73007408 1707.80686072 1347.51164873 1683.87001415 1347.39048136 1655.6472033 C1347.37932458 1652.00163905 1347.39162381 1648.35613573 1347.40078884 1644.71057624 C1347.413637 1638.33575581 1347.41177496 1631.96107472 1347.40000916 1625.58625412 C1347.38256107 1616.10656446 1347.38815007 1606.6269835 1347.39817607 1597.14728807 C1347.41533613 1580.21357947 1347.4098477 1563.27993577 1347.39481888 1546.34622854 C1347.38175346 1531.52890083 1347.37657377 1516.71159562 1347.37913704 1501.89426231 C1347.37929745 1500.91038373 1347.37945787 1499.92650514 1347.37962315 1498.91281205 C1347.38028676 1494.91869528 1347.38098918 1490.92457852 1347.38174849 1486.93046177 C1347.38876778 1449.48624545 1347.37329654 1412.0420687 1347.34712503 1374.59786244 C1347.32400568 1341.34428194 1347.3186243 1308.09074493 1347.32885742 1274.8371582 C1347.33145952 1266.31959695 1347.33404456 1257.80203569 1347.33645535 1249.28447437 C1347.33690152 1247.71146238 1347.33690152 1247.71146238 1347.3373567 1246.10667237 C1347.34497385 1218.30209064 1347.33855751 1190.49751246 1347.32775933 1162.69293231 C1347.32661154 1159.70072029 1347.32546837 1156.70850827 1347.3243325 1153.71629624 C1347.32357726 1151.73142943 1347.32281161 1149.74656261 1347.32203549 1147.7616958 C1347.31638102 1132.95303793 1347.31770447 1118.14439132 1347.32226372 1103.33573341 C1347.32737432 1086.49714761 1347.32150595 1069.6586039 1347.30136942 1052.82002858 C1347.29039403 1043.40026849 1347.28757978 1033.98059119 1347.29665795 1024.5608286 C1347.30188642 1018.26460378 1347.29615621 1011.96844966 1347.28160461 1005.67223967 C1347.2736189 1002.08786564 1347.27024704 998.50365862 1347.28017717 994.91928563 C1347.53695356 975.49081838 1347.53695356 975.49081838 1343.8828125 956.515625 C1343.68558214 955.80595308 1343.48835178 955.09628115 1343.28514475 954.36510402 C1336.40843168 930.84196117 1319.03216491 911.34324149 1297.87011719 899.57470703 C1259.02932417 878.87552274 1210.55927903 886.98220556 1180.8828125 919.515625 Z M-1782.3671875 2230.890625 C-1788.84097917 2238.40508882 -1797.1171875 2249.2864117 -1797.1171875 2259.515625 C-1798.1071875 2260.010625 -1798.1071875 2260.010625 -1799.1171875 2260.515625 C-1799.4471875 2261.505625 -1799.7771875 2262.495625 -1800.1171875 2263.515625 C-1799.7871875 2264.175625 -1799.4571875 2264.835625 -1799.1171875 2265.515625 C-1800.1071875 2266.010625 -1800.1071875 2266.010625 -1801.1171875 2266.515625 C-1801.1171875 2268.825625 -1801.1171875 2271.135625 -1801.1171875 2273.515625 C-1802.1071875 2274.010625 -1802.1071875 2274.010625 -1803.1171875 2274.515625 C-1802.7871875 2276.165625 -1802.4571875 2277.815625 -1802.1171875 2279.515625 C-1803.1071875 2280.010625 -1803.1071875 2280.010625 -1804.1171875 2280.515625 C-1803.96335037 2307.91841265 -1803.96335037 2307.91841265 -1795.1171875 2333.515625 C-1794.62476563 2334.44246094 -1794.13234375 2335.36929688 -1793.625 2336.32421875 C-1789.52818993 2343.73434756 -1784.73394378 2350.19199803 -1779.1171875 2356.515625 C-1778.44171875 2357.28648437 -1777.76625 2358.05734375 -1777.0703125 2358.8515625 C-1761.24714243 2375.80495901 -1737.85067425 2385.88417536 -1714.8274647 2386.88062179 C-1707.95292705 2387.05976179 -1701.07880559 2387.05294544 -1694.20257938 2387.02329386 C-1690.5679774 2387.01212521 -1686.93343604 2387.02444014 -1683.29883879 2387.03360134 C-1676.94478604 2387.04644257 -1670.59087312 2387.04459303 -1664.23682022 2387.03282166 C-1654.78797443 2387.01536527 -1645.33923762 2387.02096561 -1635.89038603 2387.03098857 C-1619.01125446 2387.0481441 -1602.13218803 2387.04266309 -1585.25305783 2387.02763138 C-1570.48344961 2387.01456349 -1555.71386395 2387.00938675 -1540.94425011 2387.01194954 C-1539.96335808 2387.01210995 -1538.98246605 2387.01227037 -1537.97185002 2387.01243565 C-1533.9898097 2387.01309926 -1530.00776939 2387.01380168 -1526.02572909 2387.01456099 C-1488.69837694 2387.02157953 -1451.37106449 2387.00611158 -1414.04372244 2386.97993753 C-1380.89738128 2386.95681834 -1347.75108374 2386.95143689 -1314.60473633 2386.96166992 C-1306.11450865 2386.96427204 -1297.62428097 2386.96685709 -1289.13405323 2386.96926785 C-1287.56606576 2386.96971402 -1287.56606576 2386.96971402 -1285.96640177 2386.9701692 C-1258.24754848 2386.97778716 -1230.52869875 2386.97136929 -1202.80984706 2386.96057183 C-1199.82669247 2386.95942405 -1196.84353787 2386.95828087 -1193.86038328 2386.957145 C-1191.88154351 2386.95638976 -1189.90270375 2386.95562411 -1187.92386399 2386.95484799 C-1173.16326186 2386.94919465 -1158.40267103 2386.95051621 -1143.64206886 2386.95507622 C-1126.85733461 2386.96018793 -1110.07264258 2386.95431351 -1093.28791884 2386.93418192 C-1083.89946881 2386.92321046 -1074.51110181 2386.92038862 -1065.12264928 2386.92947045 C-1058.84605392 2386.93470187 -1052.56952942 2386.92896108 -1046.29294892 2386.91441711 C-1042.72062407 2386.90643729 -1039.14846666 2386.90304938 -1035.57614288 2386.91298967 C-1004.48703499 2386.99240839 -977.14440047 2381.19066756 -954.13671875 2358.6640625 C-936.65489473 2340.77167147 -927.68844784 2317.08776317 -926.8046875 2292.265625 C-927.45205352 2266.63754654 -937.05921588 2242.80697913 -955.1171875 2224.515625 C-956.1071875 2224.185625 -957.0971875 2223.855625 -958.1171875 2223.515625 C-958.4471875 2222.525625 -958.7771875 2221.535625 -959.1171875 2220.515625 C-982.42401518 2200.40091443 -1008.17571616 2197.04201634 -1037.64639296 2197.12402098 C-1041.27774694 2197.13078115 -1044.90905879 2197.12003962 -1048.54040354 2197.11162513 C-1054.89347889 2197.09929492 -1061.24648035 2197.09802997 -1067.5995636 2197.10417557 C-1077.04719109 2197.11329008 -1086.49475058 2197.1052158 -1095.94237287 2197.09388433 C-1112.81956853 2197.0742405 -1129.69673344 2197.07186563 -1146.5739378 2197.07707953 C-1161.34552191 2197.08164055 -1176.11709387 2197.08103272 -1190.8886776 2197.07523918 C-1192.8717858 2197.07448231 -1194.854894 2197.07372633 -1196.8380022 2197.07297124 C-1199.82654311 2197.07182602 -1202.81508401 2197.07067613 -1205.80362491 2197.06951199 C-1233.58043529 2197.05881038 -1261.35724162 2197.05407826 -1289.13405323 2197.06198215 C-1290.70393315 2197.06242791 -1290.70393315 2197.06242791 -1292.30552782 2197.06288268 C-1300.80399266 2197.0653315 -1309.30245746 2197.06794314 -1317.80092225 2197.07056681 C-1350.94680921 2197.08066833 -1384.0926455 2197.07231426 -1417.23852539 2197.04907227 C-1454.49910775 2197.02298715 -1491.75965962 2197.01015508 -1529.02025145 2197.01726002 C-1532.99491767 2197.01797605 -1536.96958388 2197.01865044 -1540.94425011 2197.01930046 C-1542.41218869 2197.01955517 -1542.41218869 2197.01955517 -1543.9097826 2197.01981503 C-1558.66767337 2197.02211581 -1573.42553577 2197.01415162 -1588.18342018 2197.00100899 C-1604.97144019 2196.98608486 -1621.75939383 2196.98527186 -1638.54741243 2197.0030799 C-1647.93524455 2197.01262881 -1657.32292177 2197.01123688 -1666.71074348 2196.99384521 C-1672.99085805 2196.9833273 -1679.27085508 2196.9874959 -1685.55095814 2197.00332525 C-1689.12292705 2197.01192599 -1692.69459329 2197.01445887 -1696.26654623 2196.99905593 C-1731.37862519 2196.85843008 -1757.84599903 2204.78587641 -1782.3671875 2230.890625 Z " fill="#FFFFFF" transform="translate(1894.1171875,44.484375)"/>
<path d="M0 0 C8.93878954 8.47002843 16.19208291 18.16001695 23.57714844 27.96289062 C25.9179349 31.04446886 28.31845888 34.07719936 30.72265625 37.109375 C69.96622561 86.8160007 105.37959148 140.31200658 137.16015625 195.046875 C137.91159912 196.33924072 137.91159912 196.33924072 138.67822266 197.65771484 C187.8787021 282.47454136 237.24252398 380.34747629 232.37841797 571.01611328 C223.14647522 604.64557798 207.19319235 634.39835575 186.16015625 662.046875 C185.64445068 662.78832764 185.12874512 663.52978027 184.59741211 664.29370117 C184.12311768 664.87224854 183.64882324 665.4507959 183.16015625 666.046875 C182.50015625 666.046875 181.84015625 666.046875 181.16015625 666.046875 C180.78890625 666.8821875 180.78890625 666.8821875 180.41015625 667.734375 C176.20284465 675.51790146 168.84125423 681.36140348 162.47265625 687.359375 C161.79654297 688.00455078 161.12042969 688.64972656 160.42382812 689.31445312 C159.77607422 689.92353516 159.12832031 690.53261719 158.4609375 691.16015625 C157.87481689 691.71485596 157.28869629 692.26955566 156.68481445 692.84106445 C155.16015625 694.046875 155.16015625 694.046875 153.16015625 694.046875 C153.16015625 694.706875 153.16015625 695.366875 153.16015625 696.046875 C151.44775391 697.54321289 151.44775391 697.54321289 149.07421875 699.26953125 C148.22601562 699.89021484 147.3778125 700.51089844 146.50390625 701.15039062 C145.60671875 701.79685547 144.70953125 702.44332031 143.78515625 703.109375 C142.89570312 703.75970703 142.00625 704.41003906 141.08984375 705.08007812 C132.7305878 711.16586977 132.7305878 711.16586977 126.92272282 711.2090292 C125.80532123 711.21965403 124.68791964 711.23027886 123.53665739 711.24122566 C122.29866705 711.24786249 121.06067671 711.25449933 119.78517151 711.26133728 C118.477881 711.27206963 117.17059049 711.28280197 115.82368511 711.29385954 C112.1822005 711.32337961 108.54069934 711.3463896 104.89916122 711.36816728 C101.77833814 711.38758176 98.65754566 711.41062402 95.53674681 711.43356114 C65.90443393 711.65012347 36.27134457 711.76310357 6.63841343 711.85437679 C2.77643831 711.86648438 -1.08553602 711.87881799 -4.94750977 711.89135742 C-6.38729027 711.89601769 -6.38729027 711.89601769 -7.85615725 711.9007721 C-23.37296515 711.95250166 -38.88898274 712.05661722 -54.40535843 712.18114965 C-70.34883107 712.30804208 -86.29189433 712.381346 -102.2358585 712.40478426 C-111.18250856 712.41939381 -120.12767896 712.45780976 -129.07382011 712.55766106 C-136.70133516 712.64278677 -144.32720301 712.67968711 -151.95518654 712.65540748 C-155.84138414 712.64452795 -159.72400688 712.65547188 -163.60959816 712.7292099 C-180.23541647 713.02853291 -193.13051451 712.39482799 -206.02555943 700.7487421 C-207.29937913 699.51725541 -208.57079573 698.28327834 -209.83984375 697.046875 C-211.24841182 695.77294385 -212.66254688 694.50513864 -214.0824194 693.24381924 C-217.77720819 689.95196867 -221.31408903 686.51777787 -224.83984375 683.046875 C-225.93172369 681.99290086 -227.02415658 680.93949921 -228.1171875 679.88671875 C-234.52549184 673.66068356 -240.38797658 667.13430232 -245.83984375 660.046875 C-246.25556641 659.51288086 -246.67128906 658.97888672 -247.09960938 658.42871094 C-279.27826705 616.88248847 -298.79991463 563.83921909 -299.04296875 511.08203125 C-299.0500737 510.05956802 -299.05717865 509.0371048 -299.0644989 507.98365784 C-299.29449011 465.12754632 -299.29449011 465.12754632 -295.83984375 445.046875 C-295.730495 444.3949115 -295.62114624 443.742948 -295.50848389 443.07122803 C-287.95024858 398.05009394 -274.060556 354.86204292 -255.83984375 313.046875 C-255.33372559 311.8805957 -254.82760742 310.71431641 -254.30615234 309.51269531 C-242.76594472 283.04045619 -230.41468352 256.89780962 -216.30517578 231.69238281 C-214.76719073 228.91570737 -213.26620396 226.12154166 -211.7734375 223.3203125 C-198.24011432 197.94559295 -183.4045795 173.22717063 -167.83984375 149.046875 C-166.88271484 147.54253906 -166.88271484 147.54253906 -165.90625 146.0078125 C-150.77696754 122.30064328 -135.01706745 98.94985891 -118.43261719 76.23681641 C-116.81105506 74.00729276 -115.20254869 71.76889172 -113.59765625 69.52734375 C-106.67870398 59.87108681 -99.58552561 50.37091465 -92.32275391 40.97070312 C-90.96109751 39.20418149 -89.60748227 37.43193726 -88.2578125 35.65625 C-56.05268464 -6.59021821 -56.05268464 -6.59021821 -36.83984375 -10.328125 C-23.4253585 -12.10636436 -10.43951713 -8.86695829 0 0 Z M-29.83984375 109.046875 C-30.91298828 110.57441406 -30.91298828 110.57441406 -32.0078125 112.1328125 C-36.82158013 118.97351576 -41.64795404 125.80199086 -46.57226562 132.5637207 C-54.57529508 143.55799371 -62.24092335 154.77049037 -69.83984375 166.046875 C-70.3208252 166.76004883 -70.80180664 167.47322266 -71.29736328 168.20800781 C-93.29967124 200.88374136 -114.02464354 234.43110331 -132.83984375 269.046875 C-133.61376465 270.46154053 -133.61376465 270.46154053 -134.40332031 271.90478516 C-167.75902986 332.91593458 -198.30182867 398.32399326 -206.83984375 468.046875 C-206.99235596 469.18467407 -206.99235596 469.18467407 -207.14794922 470.34545898 C-208.18328371 478.97601469 -208.08363526 487.67958693 -208.08984375 496.359375 C-208.09085587 497.63018417 -208.09085587 497.63018417 -208.09188843 498.92666626 C-208.07556055 511.83927078 -207.64407421 524.39258167 -204.83984375 537.046875 C-204.57445801 538.2519873 -204.57445801 538.2519873 -204.30371094 539.48144531 C-199.16236079 562.02702048 -190.43562486 583.89534367 -175.83984375 602.046875 C-175.13214844 602.95566406 -174.42445313 603.86445313 -173.6953125 604.80078125 C-145.10589067 640.80042099 -100.33886988 660.71125027 -55.4296875 666.3515625 C-24.1642277 669.61281227 7.29828462 667.03024449 37.16015625 657.046875 C37.88235352 656.80710937 38.60455078 656.56734375 39.34863281 656.3203125 C59.55017056 649.48315793 79.026836 639.06389941 95.16015625 625.046875 C95.98902344 624.32757812 96.81789063 623.60828125 97.671875 622.8671875 C100.20174261 620.62788662 102.68725072 618.34882403 105.16015625 616.046875 C106.27003906 615.03560547 106.27003906 615.03560547 107.40234375 614.00390625 C132.87166779 589.84883558 144.79744776 555.07600124 149.16015625 521.046875 C149.29292969 520.05042969 149.42570312 519.05398438 149.5625 518.02734375 C156.8058964 450.25693634 129.98192313 382.15471167 101.61279297 322.12402344 C100.19275147 319.11592209 98.78691955 316.10150288 97.3828125 313.0859375 C91.60068178 300.74472487 85.32084168 288.75945184 78.70166016 276.84912109 C77.14442844 274.01828397 75.62207653 271.171262 74.109375 268.31640625 C66.60706407 254.18907549 58.51386922 240.51326942 50.12957764 226.89997864 C48.11094247 223.61668674 46.12698196 220.31662054 44.18359375 216.98828125 C35.75827115 202.57222113 26.42851283 188.77275108 17.11024475 174.92524719 C13.79956107 170.00483315 10.51503967 165.06766484 7.24169922 160.12231445 C-1.63613486 146.72427844 -10.90111394 133.63412673 -20.40234375 120.671875 C-20.99853516 119.85638184 -21.59472656 119.04088867 -22.20898438 118.20068359 C-22.76908203 117.44094238 -23.32917969 116.68120117 -23.90625 115.8984375 C-24.40068604 115.22635254 -24.89512207 114.55426758 -25.40454102 113.86181641 C-26.78179202 112.12028145 -28.23670315 110.58015874 -29.83984375 109.046875 Z " fill="#FFFFFF" transform="translate(557.83984375,2663.953125)"/>
<path d="" fill="#FFFFFF" transform="translate(0,0)"/>
<path d="" fill="#FFFFFF" transform="translate(0,0)"/>
<path d="" fill="#FFFFFF" transform="translate(0,0)"/>
<path d="" fill="#FFFFFF" transform="translate(0,0)"/>
<path d="" fill="#FFFFFF" transform="translate(0,0)"/>
<path d="" fill="#FFFFFF" transform="translate(0,0)"/>
<path d="" fill="#FFFFFF" transform="translate(0,0)"/>
<path d="" fill="#FFFFFF" transform="translate(0,0)"/>
<path d="" fill="#FFFFFF" transform="translate(0,0)"/>
<path d="" fill="#FFFFFF" transform="translate(0,0)"/>
<path d="" fill="#FFFFFF" transform="translate(0,0)"/>
<path d="" fill="#FFFFFF" transform="translate(0,0)"/>
<path d="" fill="#FFFFFF" transform="translate(0,0)"/>
<path d="" fill="#FFFFFF" transform="translate(0,0)"/>
<path d="" fill="#FFFFFF" transform="translate(0,0)"/>
<path d="" fill="#FFFFFF" transform="translate(0,0)"/>
<path d="" fill="#FFFFFF" transform="translate(0,0)"/>
<path d="" fill="#FFFFFF" transform="translate(0,0)"/>
<path d="" fill="#FFFFFF" transform="translate(0,0)"/>
<path d="" fill="#FFFFFF" transform="translate(0,0)"/>
<path d="" fill="#FFFFFF" transform="translate(0,0)"/>
<path d="" fill="#FFFFFF" transform="translate(0,0)"/>
<path d="" fill="#FFFFFF" transform="translate(0,0)"/>
<path d="" fill="#FFFFFF" transform="translate(0,0)"/>
<path d="" fill="#FFFFFF" transform="translate(0,0)"/>
<path d="" fill="#FFFFFF" transform="translate(0,0)"/>
<path d="" fill="#FFFFFF" transform="translate(0,0)"/>
<path d="" fill="#FFFFFF" transform="translate(0,0)"/>
<path d="" fill="#FFFFFF" transform="translate(0,0)"/>
<path d="" fill="#FFFFFF" transform="translate(0,0)"/>
<path d="" fill="#FFFFFF" transform="translate(0,0)"/>
<path d="" fill="#FFFFFF" transform="translate(0,0)"/>
<path d="" fill="#FFFFFF" transform="translate(0,0)"/>
<path d="" fill="#FFFFFF" transform="translate(0,0)"/>
<path d="" fill="#FFFFFF" transform="translate(0,0)"/>
<path d="" fill="#FFFFFF" transform="translate(0,0)"/>
<path d="" fill="#FFFFFF" transform="translate(0,0)"/>
<path d="" fill="#FFFFFF" transform="translate(0,0)"/>
<path d="" fill="#FFFFFF" transform="translate(0,0)"/>
<path d="" fill="#FFFFFF" transform="translate(0,0)"/>
<path d="" fill="#FFFFFF" transform="translate(0,0)"/>
<path d="" fill="#FFFFFF" transform="translate(0,0)"/>
<path d="" fill="#FFFFFF" transform="translate(0,0)"/>
<path d="" fill="#FFFFFF" transform="translate(0,0)"/>
<path d="" fill="#FFFFFF" transform="translate(0,0)"/>
<path d="" fill="#FFFFFF" transform="translate(0,0)"/>
<path d="" fill="#FFFFFF" transform="translate(0,0)"/>
<path d="" fill="#FFFFFF" transform="translate(0,0)"/>
<path d="" fill="#FFFFFF" transform="translate(0,0)"/>
<path d="" fill="#FFFFFF" transform="translate(0,0)"/>
<path d="" fill="#FFFFFF" transform="translate(0,0)"/>
<path d="" fill="#FFFFFF" transform="translate(0,0)"/>
<path d="" fill="#FFFFFF" transform="translate(0,0)"/>
<path d="" fill="#FFFFFF" transform="translate(0,0)"/>
<path d="" fill="#FFFFFF" transform="translate(0,0)"/>
<path d="" fill="#FFFFFF" transform="translate(0,0)"/>
<path d="" fill="#FFFFFF" transform="translate(0,0)"/>
<path d="" fill="#FFFFFF" transform="translate(0,0)"/>
<path d="" fill="#FFFFFF" transform="translate(0,0)"/>
<path d="" fill="#FFFFFF" transform="translate(0,0)"/>
<path d="" fill="#FFFFFF" transform="translate(0,0)"/>
<path d="" fill="#FFFFFF" transform="translate(0,0)"/>
<path d="" fill="#FFFFFF" transform="translate(0,0)"/>
<path d="" fill="#FFFFFF" transform="translate(0,0)"/>
<path d="" fill="#FFFFFF" transform="translate(0,0)"/>
<path d="" fill="#FFFFFF" transform="translate(0,0)"/>
<path d="" fill="#FFFFFF" transform="translate(0,0)"/>
<path d="" fill="#FFFFFF" transform="translate(0,0)"/>
<path d="" fill="#FFFFFF" transform="translate(0,0)"/>
<path d="" fill="#FFFFFF" transform="translate(0,0)"/>
<path d="" fill="#FFFFFF" transform="translate(0,0)"/>
<path d="" fill="#FFFFFF" transform="translate(0,0)"/>
<path d="" fill="#FFFFFF" transform="translate(0,0)"/>
<path d="" fill="#FFFFFF" transform="translate(0,0)"/>
<path d="" fill="#FFFFFF" transform="translate(0,0)"/>
<path d="" fill="#FFFFFF" transform="translate(0,0)"/>
<path d="" fill="#FFFFFF" transform="translate(0,0)"/>
<path d="" fill="#FFFFFF" transform="translate(0,0)"/>
<path d="" fill="#FFFFFF" transform="translate(0,0)"/>
<path d="" fill="#FFFFFF" transform="translate(0,0)"/>
<path d="" fill="#FFFFFF" transform="translate(0,0)"/>
<path d="" fill="#FFFFFF" transform="translate(0,0)"/>
<path d="" fill="#FFFFFF" transform="translate(0,0)"/>
<path d="" fill="#FFFFFF" transform="translate(0,0)"/>
<path d="" fill="#FFFFFF" transform="translate(0,0)"/>
<path d="" fill="#FFFFFF" transform="translate(0,0)"/>
<path d="" fill="#FFFFFF" transform="translate(0,0)"/>
<path d="" fill="#FFFFFF" transform="translate(0,0)"/>
<path d="" fill="#FFFFFF" transform="translate(0,0)"/>
<path d="" fill="#FFFFFF" transform="translate(0,0)"/>
<path d="" fill="#FFFFFF" transform="translate(0,0)"/>
<path d="" fill="#FFFFFF" transform="translate(0,0)"/>
<path d="" fill="#FFFFFF" transform="translate(0,0)"/>
<path d="" fill="#FFFFFF" transform="translate(0,0)"/>
<path d="" fill="#FFFFFF" transform="translate(0,0)"/>
<path d="" fill="#FFFFFF" transform="translate(0,0)"/>
<path d="" fill="#FFFFFF" transform="translate(0,0)"/>
<path d="" fill="#FFFFFF" transform="translate(0,0)"/>
<path d="" fill="#FFFFFF" transform="translate(0,0)"/>
<path d="" fill="#FFFFFF" transform="translate(0,0)"/>
<path d="" fill="#FFFFFF" transform="translate(0,0)"/>
<path d="" fill="#FFFFFF" transform="translate(0,0)"/>
<path d="" fill="#FFFFFF" transform="translate(0,0)"/>
<path d="" fill="#FFFFFF" transform="translate(0,0)"/>
<path d="" fill="#FFFFFF" transform="translate(0,0)"/>
<path d="" fill="#FFFFFF" transform="translate(0,0)"/>
<path d="" fill="#FFFFFF" transform="translate(0,0)"/>
<path d="" fill="#FFFFFF" transform="translate(0,0)"/>
<path d="" fill="#FFFFFF" transform="translate(0,0)"/>
<path d="" fill="#FFFFFF" transform="translate(0,0)"/>
<path d="" fill="#FFFFFF" transform="translate(0,0)"/>
<path d="" fill="#FFFFFF" transform="translate(0,0)"/>
<path d="" fill="#FFFFFF" transform="translate(0,0)"/>
<path d="" fill="#FFFFFF" transform="translate(0,0)"/>
<path d="" fill="#FFFFFF" transform="translate(0,0)"/>
<path d="" fill="#FFFFFF" transform="translate(0,0)"/>
<path d="" fill="#FFFFFF" transform="translate(0,0)"/>
<path d="" fill="#FFFFFF" transform="translate(0,0)"/>
<path d="" fill="#FFFFFF" transform="translate(0,0)"/>
<path d="" fill="#FFFFFF" transform="translate(0,0)"/>
<path d="" fill="#FFFFFF" transform="translate(0,0)"/>
<path d="" fill="#FFFFFF" transform="translate(0,0)"/>
<path d="" fill="#FFFFFF" transform="translate(0,0)"/>
<path d="" fill="#FFFFFF" transform="translate(0,0)"/>
<path d="" fill="#FFFFFF" transform="translate(0,0)"/>
<path d="" fill="#FFFFFF" transform="translate(0,0)"/>
<path d="" fill="#FFFFFF" transform="translate(0,0)"/>
<path d="" fill="#FFFFFF" transform="translate(0,0)"/>
<path d="" fill="#FFFFFF" transform="translate(0,0)"/>
<path d="" fill="#FFFFFF" transform="translate(0,0)"/>
<path d="" fill="#FFFFFF" transform="translate(0,0)"/>
<path d="" fill="#FFFFFF" transform="translate(0,0)"/>
<path d="" fill="#FFFFFF" transform="translate(0,0)"/>
<path d="" fill="#FFFFFF" transform="translate(0,0)"/>
<path d="" fill="#FFFFFF" transform="translate(0,0)"/>
<path d="" fill="#FFFFFF" transform="translate(0,0)"/>
<path d="" fill="#FFFFFF" transform="translate(0,0)"/>
<path d="" fill="#FFFFFF" transform="translate(0,0)"/>
<path d="" fill="#FFFFFF" transform="translate(0,0)"/>
<path d="" fill="#FFFFFF" transform="translate(0,0)"/>
<path d="" fill="#FFFFFF" transform="translate(0,0)"/>
<path d="" fill="#FFFFFF" transform="translate(0,0)"/>
<path d="" fill="#FFFFFF" transform="translate(0,0)"/>
<path d="" fill="#FFFFFF" transform="translate(0,0)"/>
<path d="" fill="#FFFFFF" transform="translate(0,0)"/>
<path d="" fill="#FFFFFF" transform="translate(0,0)"/>
<path d="" fill="#FFFFFF" transform="translate(0,0)"/>
<path d="" fill="#FFFFFF" transform="translate(0,0)"/>
<path d="" fill="#FFFFFF" transform="translate(0,0)"/>
<path d="" fill="#FFFFFF" transform="translate(0,0)"/>
<path d="" fill="#FFFFFF" transform="translate(0,0)"/>
<path d="" fill="#FFFFFF" transform="translate(0,0)"/>
<path d="" fill="#FFFFFF" transform="translate(0,0)"/>
<path d="" fill="#FFFFFF" transform="translate(0,0)"/>
<path d="" fill="#FFFFFF" transform="translate(0,0)"/>
<path d="" fill="#FFFFFF" transform="translate(0,0)"/>
<path d="" fill="#FFFFFF" transform="translate(0,0)"/>
<path d="" fill="#FFFFFF" transform="translate(0,0)"/>
<path d="" fill="#FFFFFF" transform="translate(0,0)"/>
<path d="" fill="#FFFFFF" transform="translate(0,0)"/>
<path d="" fill="#FFFFFF" transform="translate(0,0)"/>
<path d="" fill="#FFFFFF" transform="translate(0,0)"/>
<path d="" fill="#FFFFFF" transform="translate(0,0)"/>
<path d="" fill="#FFFFFF" transform="translate(0,0)"/>
<path d="" fill="#FFFFFF" transform="translate(0,0)"/>
<path d="" fill="#FFFFFF" transform="translate(0,0)"/>
<path d="" fill="#FFFFFF" transform="translate(0,0)"/>
<path d="" fill="#FFFFFF" transform="translate(0,0)"/>
<path d="" fill="#FFFFFF" transform="translate(0,0)"/>
<path d="" fill="#FFFFFF" transform="translate(0,0)"/>
<path d="" fill="#FFFFFF" transform="translate(0,0)"/>
<path d="" fill="#FFFFFF" transform="translate(0,0)"/>
<path d="" fill="#FFFFFF" transform="translate(0,0)"/>
<path d="" fill="#FFFFFF" transform="translate(0,0)"/>
<path d="" fill="#FFFFFF" transform="translate(0,0)"/>
<path d="" fill="#FFFFFF" transform="translate(0,0)"/>
<path d="" fill="#FFFFFF" transform="translate(0,0)"/>
<path d="" fill="#FFFFFF" transform="translate(0,0)"/>
<path d="" fill="#FFFFFF" transform="translate(0,0)"/>
<path d="" fill="#FFFFFF" transform="translate(0,0)"/>
<path d="" fill="#FFFFFF" transform="translate(0,0)"/>
<path d="" fill="#FFFFFF" transform="translate(0,0)"/>
<path d="" fill="#FFFFFF" transform="translate(0,0)"/>
<path d="" fill="#FFFFFF" transform="translate(0,0)"/>
<path d="" fill="#FFFFFF" transform="translate(0,0)"/>
<path d="" fill="#FFFFFF" transform="translate(0,0)"/>
<path d="" fill="#FFFFFF" transform="translate(0,0)"/>
<path d="" fill="#FFFFFF" transform="translate(0,0)"/>
<path d="" fill="#FFFFFF" transform="translate(0,0)"/>
<path d="" fill="#FFFFFF" transform="translate(0,0)"/>
<path d="" fill="#FFFFFF" transform="translate(0,0)"/>
<path d="" fill="#FFFFFF" transform="translate(0,0)"/>
<path d="" fill="#FFFFFF" transform="translate(0,0)"/>
<path d="" fill="#FFFFFF" transform="translate(0,0)"/>
</svg>
