<?xml version="1.0" standalone="no"?>
<!DOCTYPE svg PUBLIC "-//W3C//DTD SVG 20010904//EN"
 "http://www.w3.org/TR/2001/REC-SVG-20010904/DTD/svg10.dtd">
<svg version="1.0" xmlns="http://www.w3.org/2000/svg"
 width="3375.000000pt" height="3375.000000pt" viewBox="0 0 3375.000000 3375.000000"
 preserveAspectRatio="xMidYMid meet">

<g transform="translate(0.000000,3375.000000) scale(0.100000,-0.100000)"
fill="#000000" stroke="none">
<path d="M17159 26243 c-8905 -11646 -9919 -12972 -9919 -12978 0 -3 1625 -5
3610 -5 1986 0 3610 -2 3610 -4 0 -5 -3599 -13207 -3605 -13223 -13 -36 23 5
156 180 188 248 5080 6647 9113 11922 1733 2266 3879 5072 4768 6235 l1617
2115 -3613 5 -3612 5 1803 6610 c991 3636 1801 6614 1800 6618 -1 4 -2579
-3362 -5728 -7480z"/>
<path d="M16488 31335 c-2 -1 -100 -6 -218 -10 -118 -4 -221 -8 -230 -10 -8
-1 -71 -6 -140 -9 -152 -9 -483 -39 -720 -67 -1289 -149 -2552 -473 -3766
-967 -613 -249 -1331 -606 -1904 -947 -2103 -1247 -3870 -3019 -5107 -5120
-320 -544 -677 -1263 -915 -1843 -865 -2112 -1216 -4394 -1027 -6692 133
-1624 547 -3227 1220 -4720 108 -240 370 -766 497 -995 1141 -2075 2765 -3836
4742 -5141 274 -181 574 -365 581 -356 3 4 145 547 314 1207 169 660 310 1205
312 1212 3 6 -30 36 -72 65 -141 97 -379 271 -545 400 -665 511 -1333 1156
-1900 1833 -1840 2200 -2838 5027 -2786 7890 37 2042 558 3960 1554 5725 745
1320 1785 2537 2982 3491 1310 1043 2802 1797 4411 2227 722 194 1541 330
2274 378 55 3 105 11 111 18 6 6 187 241 401 521 214 281 617 808 896 1172
279 364 508 668 509 674 4 14 -2 15 -143 24 -63 4 -121 9 -129 10 -9 2 -81 6
-160 10 -80 4 -156 9 -170 12 -29 4 -867 13 -872 8z"/>
<path d="M24179 29288 c-23 -90 -639 -2343 -644 -2358 -4 -12 28 -39 112 -96
278 -186 644 -464 938 -709 1859 -1552 3220 -3638 3876 -5940 209 -731 323
-1339 414 -2210 55 -516 59 -1480 9 -2080 -168 -2046 -840 -3975 -1977 -5680
-1160 -1738 -2761 -3155 -4627 -4094 -891 -449 -1833 -785 -2807 -1000 -522
-116 -1169 -212 -1663 -247 -52 -3 -123 -9 -156 -13 l-62 -6 -910 -1190 c-500
-655 -906 -1193 -900 -1196 5 -3 36 -7 68 -8 33 -1 68 -4 78 -6 10 -2 74 -6
143 -10 68 -4 132 -9 141 -11 134 -24 1286 -24 1494 0 16 2 83 7 149 11 842
46 1878 219 2800 466 1228 329 2488 863 3594 1521 3177 1891 5514 4918 6527
8453 313 1091 491 2185 544 3350 13 287 13 1021 0 1300 -73 1530 -371 2990
-897 4395 -1082 2890 -3094 5389 -5693 7071 -185 119 -525 329 -535 329 -2 0
-9 -19 -16 -42z"/>
</g>
</svg>
