<?xml version="1.0" encoding="UTF-8"?>
<svg version="1.1" xmlns="http://www.w3.org/2000/svg" width="3375" height="3375">
<path d="M0 0 C0.66 0 1.32 0 2 0 C-1.16717244 14.12527026 -4.94284591 28.06398485 -8.78125 42.01953125 C-9.46105361 44.50020195 -10.14056501 46.98095274 -10.81980896 49.46177673 C-12.27750118 54.78431378 -13.7372672 60.10627825 -15.19845581 65.42785645 C-17.54391469 73.97019934 -19.88479585 82.51379335 -22.22485352 91.05761719 C-22.62677006 92.52500004 -23.02868816 93.99238247 -23.4306078 95.45976448 C-24.03874005 97.68001706 -24.64686878 99.9002706 -25.25497872 102.12052929 C-26.4907385 106.63228149 -27.72683095 111.1439424 -28.96318942 115.65553057 C-37.08893794 145.30715659 -45.18350875 174.96724431 -53.2691623 204.62982529 C-55.13797498 211.48560784 -57.00721748 218.34127318 -58.8764894 225.19693053 C-61.32607644 234.18094604 -63.77557325 243.16498615 -66.224823 252.14909363 C-71.48344034 271.43823123 -76.74322429 290.72705038 -82.00390625 310.015625 C-82.28225724 311.03621647 -82.28225724 311.03621647 -82.56623149 312.07742596 C-84.2530079 318.26209471 -85.93979723 324.44675994 -87.62660503 330.63142014 C-90.25105536 340.25393637 -92.87543349 349.8764723 -95.49975586 359.49902344 C-95.68538814 360.17967755 -95.87102041 360.86033166 -96.06227791 361.56161165 C-96.99983197 364.99932357 -97.93738479 368.43703582 -98.87493706 371.87474823 C-100.56245234 378.06233931 -102.24997858 384.2499274 -103.93750393 390.43751574 C-104.87500307 393.87501037 -105.8125015 397.31250519 -106.75 400.75 C-107.125 402.125 -107.5 403.5 -107.875 404.875 C-108.060625 405.555625 -108.24625 406.23625 -108.4375 406.9375 C-127 475 -145.5625 543.0625 -254.125 941.125 C-254.31062496 941.80562486 -254.49624992 942.48624972 -254.68749988 943.18749958 C-255.06250026 944.56250098 -255.43750066 945.93750237 -255.81250107 947.31250376 C-256.74999531 950.74998239 -257.68748931 954.18746109 -258.62498283 957.62493992 C-260.31255141 963.81269511 -262.00012162 970.00044986 -263.68770063 976.1882022 C-264.62529768 979.62603748 -265.56289334 983.06387313 -266.50048828 986.50170898 C-266.77894856 987.5227262 -266.77894856 987.5227262 -267.0630343 988.56437004 C-269.6866527 998.18427915 -272.31019365 1007.80420938 -274.93368649 1017.42415273 C-276.61983613 1023.60699197 -278.30600846 1029.78982503 -279.9921875 1035.97265625 C-280.17768709 1036.6528423 -280.36318667 1037.33302836 -280.55430746 1038.03382611 C-285.82310502 1057.35330693 -291.09299878 1076.67248838 -296.36385894 1095.99140656 C-297.70072214 1100.89135393 -299.03749301 1105.79132649 -300.37420654 1110.6913147 C-300.56395467 1111.38687387 -300.7537028 1112.08243304 -300.94920087 1112.79906976 C-301.90287801 1116.2949751 -302.85654313 1119.79088372 -303.81019974 1123.28679466 C-305.57681883 1129.76280088 -307.3435893 1136.23876567 -309.11083984 1142.71459961 C-325.77999202 1203.79901737 -342.38129204 1264.90180897 -359 1326 C-120.74 1326 117.52 1326 363 1326 C361.15313029 1329.69373942 359.2200981 1332.45025104 356.6875 1335.6875 C355.78089348 1336.85258725 354.87466225 1338.01796659 353.96875 1339.18359375 C353.48664063 1339.80218262 353.00453125 1340.42077148 352.5078125 1341.05810547 C349.88153113 1344.44046331 347.28592736 1347.8462281 344.6875 1351.25 C343.57688538 1352.70317274 342.46620766 1354.15629726 341.35546875 1355.609375 C340.80036621 1356.33576172 340.24526367 1357.06214844 339.67333984 1357.81054688 C336.94966736 1361.37428992 334.22478337 1364.93710631 331.5 1368.5 C330.41666062 1369.91666204 329.33332729 1371.33332872 328.25 1372.75 C274.625 1442.875 221 1513 -29.25 1840.25 C-29.7864917 1840.95157227 -30.3229834 1841.65314453 -30.87573242 1842.37597656 C-31.95660017 1843.78940651 -33.03749201 1845.20281804 -34.1184082 1846.61621094 C-36.86466505 1850.20724701 -39.61047303 1853.7986248 -42.35546875 1857.390625 C-48.03101716 1864.8165762 -53.71620464 1872.23477953 -59.41796875 1879.640625 C-64.0684032 1885.68637123 -68.69533244 1891.75016216 -73.32666016 1897.81054688 C-76.05033264 1901.37428992 -78.77521663 1904.93710631 -81.5 1908.5 C-82.58333938 1909.91666204 -83.66667271 1911.33332872 -84.75 1912.75 C-138.375 1982.875 -192 2053 -390.25 2312.25 C-390.7864917 2312.95157227 -391.3229834 2313.65314453 -391.87573242 2314.37597656 C-392.95660017 2315.78940651 -394.03749201 2317.20281804 -395.1184082 2318.61621094 C-397.86466505 2322.20724701 -400.61047303 2325.7986248 -403.35546875 2329.390625 C-408.16548814 2335.68405578 -412.9774582 2341.97576515 -417.8125 2348.25 C-422.86517822 2354.81191977 -427.88188845 2361.4010433 -432.89892578 2367.99023438 C-438.72994739 2375.64798966 -444.57395389 2383.29572112 -450.42333984 2390.93945312 C-453.1163821 2394.45900665 -455.8081138 2397.97956226 -458.5 2401.5 C-459.58332729 2402.91667128 -460.66666062 2404.33333796 -461.75 2405.75 C-462.28625 2406.45125 -462.8225 2407.1525 -463.375 2407.875 C-611.25000004 2601.25000005 -611.25000004 2601.25000005 -612.87426758 2603.37402344 C-613.96006647 2604.79392684 -615.04584112 2606.21384878 -616.1315918 2607.63378906 C-618.80200585 2611.12608433 -621.47280895 2614.61808046 -624.14453125 2618.109375 C-630.10518774 2625.89953992 -636.05682511 2633.69648829 -642 2641.5 C-648.46422508 2649.9876614 -654.93956084 2658.46672292 -661.42333984 2666.93945312 C-664.1163821 2670.45900665 -666.8081138 2673.97956226 -669.5 2677.5 C-670.58332729 2678.91667128 -671.66666062 2680.33333796 -672.75 2681.75 C-673.28625 2682.45125 -673.8225 2683.1525 -674.375 2683.875 C-728 2754 -781.625 2824.125 -914.87426758 2998.37402344 C-915.96006647 2999.79392684 -917.04584112 3001.21384878 -918.1315918 3002.63378906 C-920.80200585 3006.12608433 -923.47280895 3009.61808046 -926.14453125 3013.109375 C-932.10518774 3020.89953992 -938.05682511 3028.69648829 -944 3036.5 C-950.46422508 3044.9876614 -956.93956084 3053.46672292 -963.42333984 3061.93945312 C-966.1163821 3065.45900665 -968.8081138 3068.97956226 -971.5 3072.5 C-972.58332729 3073.91667128 -973.66666062 3075.33333796 -974.75 3076.75 C-975.28625 3077.45125 -975.8225 3078.1525 -976.375 3078.875 C-1030 3149 -1083.625 3219.125 -1176.25 3340.25 C-1176.7869751 3340.9522168 -1177.3239502 3341.65443359 -1177.87719727 3342.37792969 C-1178.95313379 3343.78488625 -1180.0291421 3345.19178791 -1181.10522461 3346.59863281 C-1183.92734107 3350.28840133 -1186.74795147 3353.97930853 -1189.56640625 3357.671875 C-1190.15164063 3358.43822266 -1190.736875 3359.20457031 -1191.33984375 3359.99414062 C-1192.4561928 3361.45602628 -1193.57210578 3362.91824508 -1194.6875 3364.38085938 C-1195.67860854 3365.67837933 -1196.67209356 3366.97408904 -1197.66845703 3368.26757812 C-1198.87102305 3369.83219281 -1200.05943256 3371.40766344 -1201.24609375 3372.984375 C-1201.82488281 3373.64953125 -1202.40367187 3374.3146875 -1203 3375 C-1203.66 3375 -1204.32 3375 -1205 3375 C-1201.83282756 3360.87472974 -1198.05715409 3346.93601515 -1194.21875 3332.98046875 C-1193.53894639 3330.49979805 -1192.85943499 3328.01904726 -1192.18019104 3325.53822327 C-1190.72249882 3320.21568622 -1189.2627328 3314.89372175 -1187.80154419 3309.57214355 C-1185.45608531 3301.02980066 -1183.11520415 3292.48620665 -1180.77514648 3283.94238281 C-1180.37322994 3282.47499996 -1179.97131184 3281.00761753 -1179.5693922 3279.54023552 C-1178.96125995 3277.31998294 -1178.35313122 3275.0997294 -1177.74502128 3272.87947071 C-1176.5092615 3268.36771851 -1175.27316905 3263.8560576 -1174.03681058 3259.34446943 C-1165.91106206 3229.69284341 -1157.81649125 3200.03275569 -1149.7308377 3170.37017471 C-1147.86202502 3163.51439216 -1145.99278252 3156.65872682 -1144.1235106 3149.80306947 C-1141.67392356 3140.81905396 -1139.22442675 3131.83501385 -1136.775177 3122.85090637 C-1131.51655966 3103.56176877 -1126.25677571 3084.27294962 -1120.99609375 3064.984375 C-1120.81052642 3064.30398068 -1120.62495909 3063.62358637 -1120.43376851 3062.92257404 C-1118.7469921 3056.73790529 -1117.06020277 3050.55324006 -1115.37339497 3044.36857986 C-1112.74894464 3034.74606363 -1110.12456651 3025.1235277 -1107.50024414 3015.50097656 C-1107.31461186 3014.82032245 -1107.12897959 3014.13966834 -1106.93772209 3013.43838835 C-1106.00016803 3010.00067643 -1105.06261521 3006.56296418 -1104.12506294 3003.12525177 C-1102.43754766 2996.93766069 -1100.75002142 2990.7500726 -1099.06249607 2984.56248426 C-1098.12499693 2981.12498963 -1097.1874985 2977.68749481 -1096.25 2974.25 C-1095.875 2972.875 -1095.5 2971.5 -1095.125 2970.125 C-1094.939375 2969.444375 -1094.75375 2968.76375 -1094.5625 2968.0625 C-1076 2900 -1057.4375 2831.9375 -948.875 2433.875 C-948.68937504 2433.19437514 -948.50375008 2432.51375028 -948.31250012 2431.81250042 C-947.93749974 2430.43749902 -947.56249934 2429.06249763 -947.18749893 2427.68749624 C-946.25000469 2424.25001761 -945.31251069 2420.81253891 -944.37501717 2417.37506008 C-942.68744859 2411.18730489 -940.99987838 2404.99955014 -939.31229937 2398.8117978 C-938.37470232 2395.37396252 -937.43710666 2391.93612687 -936.49951172 2388.49829102 C-936.31387153 2387.81761287 -936.12823135 2387.13693472 -935.9369657 2386.43562996 C-933.3133473 2376.81572085 -930.68980635 2367.19579062 -928.06631351 2357.57584727 C-926.38016387 2351.39300803 -924.69399154 2345.21017497 -923.0078125 2339.02734375 C-922.82231291 2338.3471577 -922.63681333 2337.66697164 -922.44569254 2336.96617389 C-917.17689498 2317.64669307 -911.90700122 2298.32751162 -906.63614106 2279.00859344 C-905.29927786 2274.10864607 -903.96250699 2269.20867351 -902.62579346 2264.3086853 C-902.43604533 2263.61312613 -902.2462972 2262.91756696 -902.05079913 2262.20093024 C-901.09712199 2258.7050249 -900.14345687 2255.20911628 -899.18980026 2251.71320534 C-897.42318117 2245.23719912 -895.6564107 2238.76123433 -893.88916016 2232.28540039 C-877.22000798 2171.20098263 -860.61870796 2110.09819103 -844 2049 C-1082.26 2049 -1320.52 2049 -1566 2049 C-1564.54343504 2046.08687009 -1563.35605128 2043.99156579 -1561.41796875 2041.48828125 C-1560.64839844 2040.48861328 -1560.64839844 2040.48861328 -1559.86328125 2039.46875 C-1559.31027344 2038.7571875 -1558.75726562 2038.045625 -1558.1875 2037.3125 C-1557.0038177 2035.77741202 -1555.82022646 2034.24225383 -1554.63671875 2032.70703125 C-1554.03134277 2031.92408691 -1553.4259668 2031.14114258 -1552.80224609 2030.33447266 C-1550.02180181 2026.73292725 -1547.26132468 2023.11621093 -1544.5 2019.5 C-1543.41677558 2018.08325005 -1542.33344191 2016.66658363 -1541.25 2015.25 C-1540.71375 2014.54875 -1540.1775 2013.8475 -1539.625 2013.125 C-1486 1943 -1432.375 1872.875 -1013.12573242 1324.62597656 C-1012.03993353 1323.20607316 -1010.95415888 1321.78615122 -1009.8684082 1320.36621094 C-1007.19799415 1316.87391567 -1004.52719105 1313.38191954 -1001.85546875 1309.890625 C-995.89481226 1302.10046008 -989.94317489 1294.30351171 -984 1286.5 C-977.53577492 1278.0123386 -971.06043916 1269.53327708 -964.57666016 1261.06054688 C-961.8836179 1257.54099335 -959.1918862 1254.02043774 -956.5 1250.5 C-955.41667271 1249.08332872 -954.33333938 1247.66666204 -953.25 1246.25 C-952.71375 1245.54875 -952.1775 1244.8475 -951.625 1244.125 C-898 1174 -844.375 1103.875 -751.75 982.75 C-751.2135083 982.04842773 -750.6770166 981.34685547 -750.12426758 980.62402344 C-749.04339983 979.21059349 -747.96250799 977.79718196 -746.8815918 976.38378906 C-744.13533495 972.79275299 -741.38952697 969.2013752 -738.64453125 965.609375 C-732.96898284 958.1834238 -727.28379536 950.76522047 -721.58203125 943.359375 C-716.9315968 937.31362877 -712.30466756 931.24983784 -707.67333984 925.18945312 C-704.94966736 921.62571008 -702.22478337 918.06289369 -699.5 914.5 C-698.41666062 913.08333796 -697.33332729 911.66667128 -696.25 910.25 C-642.625 840.125 -589 770 -455.75 595.75 C-455.2135083 595.04842773 -454.6770166 594.34685547 -454.12426758 593.62402344 C-453.04339983 592.21059349 -451.96250799 590.79718196 -450.8815918 589.38378906 C-448.13533495 585.79275299 -445.38952697 582.2013752 -442.64453125 578.609375 C-436.96898284 571.1834238 -431.28379536 563.76522047 -425.58203125 556.359375 C-420.9315968 550.31362877 -416.30466756 544.24983784 -411.67333984 538.18945312 C-408.94966736 534.62571008 -406.22478337 531.06289369 -403.5 527.5 C-402.41666062 526.08333796 -401.33332729 524.66667128 -400.25 523.25 C-341.74999997 446.74999996 -341.74999997 446.74999996 -340.12573242 444.62597656 C-339.03993353 443.20607316 -337.95415888 441.78615122 -336.8684082 440.36621094 C-334.19799415 436.87391567 -331.52719105 433.38191954 -328.85546875 429.890625 C-322.89481226 422.10046008 -316.94317489 414.30351171 -311 406.5 C-304.53577492 398.0123386 -298.06043916 389.53327708 -291.57666016 381.06054688 C-288.8836179 377.54099335 -286.1918862 374.02043774 -283.5 370.5 C-282.41667271 369.08332872 -281.33333938 367.66666204 -280.25 366.25 C-279.71375 365.54875 -279.1775 364.8475 -278.625 364.125 C-225 294 -171.375 223.875 -26.75 34.75 C-25.94453735 33.6966748 -25.94453735 33.6966748 -25.12280273 32.62207031 C-24.04686621 31.21511375 -22.9708579 29.80821209 -21.89477539 28.40136719 C-19.07265893 24.71159867 -16.25204853 21.02069147 -13.43359375 17.328125 C-12.55574219 16.17860352 -12.55574219 16.17860352 -11.66015625 15.00585938 C-10.5438072 13.54397372 -9.42789422 12.08175492 -8.3125 10.61914062 C-7.32139146 9.32162067 -6.32790644 8.02591096 -5.33154297 6.73242188 C-4.12897695 5.16780719 -2.94056744 3.59233656 -1.75390625 2.015625 C-1.17511719 1.35046875 -0.59632812 0.6853125 0 0 Z " fill="#FFFFFF" transform="translate(2289,0)"/>
<path d="M0 0 C4.71806589 1.67445083 8.84377949 4.1364143 13.125 6.6875 C13.82109375 7.09677734 14.5171875 7.50605469 15.234375 7.92773438 C20.30497639 10.92860847 25.28260037 14.06387802 30.24560547 17.23901367 C32.80318575 18.87416937 35.36844543 20.49623358 37.9375 22.11328125 C87.61720197 53.46469203 135.64603586 87.64177176 181 125 C182.79157706 126.45844341 184.58324502 127.91677517 186.375 129.375 C191.01550033 133.16936921 195.59622134 137.02933454 200.16137695 140.91357422 C203.59003273 143.82541617 207.05951673 146.67745233 210.5625 149.5 C215.63607493 153.62690206 220.43741142 158.00102558 225.23046875 162.4453125 C227.45918393 164.50113722 229.70767919 166.51616957 232 168.5 C236.91009558 172.76082675 241.67563984 177.17928543 246.45751953 181.58251953 C247.91499983 182.9218881 249.3772771 184.25603125 250.83984375 185.58984375 C265.90475013 199.33217948 280.58619172 213.42088485 294.98779297 227.85742188 C297.6534681 230.52852608 300.32454162 233.1941501 302.99609375 235.859375 C304.71907122 237.5830123 306.44173898 239.30695925 308.1640625 241.03125 C308.94955475 241.81471802 309.735047 242.59818604 310.54434204 243.40539551 C314.71308052 247.5917621 318.72091287 251.85903101 322.56576538 256.34558105 C324.28630734 258.33026137 326.11084761 260.1759908 328 262 C331.12754053 265.08583999 334.03382257 268.281243 336.89453125 271.61328125 C339.1059256 274.12007521 341.3797846 276.5574491 343.66772461 278.99414062 C348.92880763 284.59753636 353.9512871 290.28530733 358.7578125 296.2890625 C361.23907812 299.28905961 363.84888189 302.15130287 366.5 305 C370.75535938 309.57924849 374.77323156 314.29286588 378.6953125 319.1640625 C381.2079481 322.2558819 383.7866213 325.28424234 386.375 328.3125 C391.63056785 334.48559017 396.64616691 340.828989 401.62060547 347.22949219 C403.46291563 349.59417065 405.31899319 351.94786325 407.17504883 354.30175781 C421.75860926 372.80899657 435.74797862 391.73147448 449.47802734 410.87939453 C450.44237386 412.22304449 451.40861418 413.56533894 452.37744141 414.90576172 C485.05427607 460.13491701 514.56806359 508.10142756 540.9140625 557.265625 C542.83815796 560.85551597 544.78590399 564.42922941 546.7734375 567.984375 C562.71088473 596.56545536 576.89542124 626.12174076 590.13006592 656.03875732 C590.9951168 657.98899097 591.86587551 659.93656622 592.73876953 661.88330078 C606.621596 692.85311506 619.27318375 724.35309989 630.68017578 756.31835938 C631.79678012 759.43311954 632.92898751 762.5415728 634.0696106 765.64759827 C649.10238679 806.65341541 661.33170681 848.6648381 672 891 C672.23334045 891.92347229 672.46668091 892.84694458 672.70709229 893.79840088 C696.96913556 990.01786958 710.20678359 1087.95708197 715 1187 C715.03867188 1187.79605652 715.07734375 1188.59211304 715.1171875 1189.41229248 C715.58808212 1199.271921 715.87185201 1209.12993477 716 1219 C716.01095703 1219.82326782 716.02191406 1220.64653564 716.03320312 1221.49475098 C717.32939201 1324.97541892 708.5032988 1428.11958258 586 1847 C585.67791565 1847.70155212 585.3558313 1848.40310425 585.02398682 1849.12591553 C571.49681925 1878.56203785 557.4141951 1907.82652427 541.60595703 1936.11328125 C539.73088845 1939.48372986 537.87824676 1942.86625008 536.02734375 1946.25 C529.59581045 1957.99652268 523.16511889 1969.72509401 516.14111328 1981.13134766 C514.81628992 1983.30083803 513.51468046 1985.48341723 512.21484375 1987.66796875 C501.26169562 2006.0699016 489.74967939 2024.09780082 478 2042 C477.51063965 2042.74572266 477.0212793 2043.49144531 476.51708984 2044.25976562 C457.90041827 2072.55962645 438.13582612 2100.07777492 417.4140625 2126.87109375 C415.81748729 2128.94044122 414.22879145 2131.01589432 412.6484375 2133.09765625 C406.70282426 2140.91216746 400.51500637 2148.50220057 394.25 2156.0625 C391.75484993 2159.07604883 389.29942325 2162.11656389 386.875 2165.1875 C383.19988398 2169.81484094 379.35335224 2174.28489677 375.49169922 2178.75634766 C372.42902816 2182.30904609 369.43776399 2185.90495717 366.5 2189.5625 C362.15097244 2194.92366488 357.49200516 2199.95570739 352.78515625 2205 C350.01778714 2207.96814447 347.33833857 2211.00459524 344.6796875 2214.0703125 C338.88053948 2220.73258953 332.89273813 2227.22311729 326.875 2233.6875 C326.30128662 2234.3050415 325.72757324 2234.92258301 325.13647461 2235.55883789 C322.3128868 2238.58275463 319.45591708 2241.554143 316.5078125 2244.45703125 C314.14801991 2246.79556406 311.92956032 2249.19852647 309.77075195 2251.72314453 C306.065954 2255.98020386 302.15537663 2259.98928561 298.16015625 2263.97265625 C297.43436874 2264.69940048 296.70858124 2265.42614471 295.96080017 2266.1749115 C294.43676444 2267.69962296 292.91148431 2269.2230915 291.38500977 2270.74536133 C289.06867537 2273.05633891 286.75772922 2275.37260771 284.44726562 2277.68945312 C282.95604966 2279.1800082 281.46452347 2280.670253 279.97265625 2282.16015625 C279.29219742 2282.84263931 278.61173859 2283.52512238 277.91065979 2284.22828674 C273.97125424 2288.14880636 269.92827984 2291.88905628 265.71080017 2295.50938416 C263.53322078 2297.40670355 261.51053347 2299.42760396 259.5 2301.5 C256.25403682 2304.78447461 252.92351052 2307.86152992 249.41796875 2310.86328125 C246.10335703 2313.79234847 242.90476539 2316.83982887 239.6875 2319.875 C234.51332807 2324.74360809 229.23015291 2329.35770012 223.67578125 2333.79296875 C220.68502436 2336.25979742 217.83654779 2338.85987396 215 2341.5 C210.44419 2345.73409467 205.74727671 2349.72932606 200.90234375 2353.62890625 C197.61037112 2356.31831054 194.39992018 2359.09167086 191.1875 2361.875 C185.44741127 2366.83081646 179.5622007 2371.55946177 173.57421875 2376.2109375 C170.45365329 2378.63603311 167.36905544 2381.10328359 164.29101562 2383.58203125 C157.30352487 2389.20906254 150.2046654 2394.65257711 143 2400 C141.77656605 2400.92084265 140.5539522 2401.84277561 139.33203125 2402.765625 C132.29160432 2408.0794207 125.21170966 2413.33329168 118.0625 2418.5 C117.40878418 2418.97276367 116.75506836 2419.44552734 116.08154297 2419.93261719 C113.72603939 2421.62884955 111.3637835 2423.3153203 109 2425 C108.42275177 2425.41235901 107.84550354 2425.82471802 107.25076294 2426.24957275 C95.91232319 2434.34017803 84.41332093 2442.16628344 72.8125 2449.875 C71.95938232 2450.44271118 71.10626465 2451.01042236 70.22729492 2451.59533691 C39.97215896 2471.72253854 9.19365202 2491.03531429 -22.63671875 2508.5859375 C-25.9468519 2510.41196859 -29.23950227 2512.26598757 -32.5246582 2514.13647461 C-98.72374042 2551.73867133 -168.57095599 2582.22183025 -240.0322876 2608.28051758 C-243.0178049 2609.37215435 -245.99858135 2610.47661812 -248.98046875 2611.578125 C-340.10787663 2644.97214323 -435.77228044 2666.56754738 -639.05792236 2690.80145264 C-641.75501299 2690.98346695 -644.4514996 2691.17253712 -647.14794922 2691.36376953 C-704.04368326 2695.32320885 -762.18136348 2694.69689857 -819 2690 C-820.07590393 2689.91182007 -821.15180786 2689.82364014 -822.26031494 2689.73278809 C-829.17438741 2689.16508321 -836.08757538 2688.58741892 -843 2688 C-841.66473436 2685.26775764 -840.28128603 2682.89499679 -838.41796875 2680.48828125 C-837.64839844 2679.48861328 -837.64839844 2679.48861328 -836.86328125 2678.46875 C-836.31027344 2677.7571875 -835.75726562 2677.045625 -835.1875 2676.3125 C-834.0038177 2674.77741202 -832.82022646 2673.24225383 -831.63671875 2671.70703125 C-831.03134277 2670.92408691 -830.4259668 2670.14114258 -829.80224609 2669.33447266 C-827.02180181 2665.73292725 -824.26132468 2662.11621093 -821.5 2658.5 C-820.41677558 2657.08325005 -819.33344191 2655.66658363 -818.25 2654.25 C-817.71375 2653.54875 -817.1775 2652.8475 -816.625 2652.125 C-806.33333333 2638.66666667 -796.04166667 2625.20833333 -785.75 2611.75 C-785.2135083 2611.04842773 -784.6770166 2610.34685547 -784.12426758 2609.62402344 C-783.04339983 2608.21059349 -781.96250799 2606.79718196 -780.8815918 2605.38378906 C-778.13533495 2601.79275299 -775.38952697 2598.2013752 -772.64453125 2594.609375 C-766.96898284 2587.1834238 -761.28379536 2579.76522047 -755.58203125 2572.359375 C-750.9315968 2566.31362877 -746.30466756 2560.24983784 -741.67333984 2554.18945312 C-738.94966736 2550.62571008 -736.22478337 2547.06289369 -733.5 2543.5 C-732.41666062 2542.08333796 -731.33332729 2540.66667128 -730.25 2539.25 C-715.08333333 2519.41666667 -699.91666667 2499.58333333 -684.75 2479.75 C-684.21310547 2479.04762207 -683.67621094 2478.34524414 -683.12304688 2477.62158203 C-682.04733668 2476.21545664 -680.97052623 2474.81017224 -679.89257812 2473.40576172 C-677.05767295 2469.70921718 -674.24744756 2465.99684016 -671.46875 2462.2578125 C-670.59766602 2461.09475586 -670.59766602 2461.09475586 -669.70898438 2459.90820312 C-668.59898098 2458.42523859 -667.49570165 2456.93720847 -666.40039062 2455.44335938 C-665.89701172 2454.77369141 -665.39363281 2454.10402344 -664.875 2453.4140625 C-664.43929688 2452.8257666 -664.00359375 2452.2374707 -663.5546875 2451.63134766 C-659.45897075 2447.33367502 -655.57497584 2446.58046137 -649.78125 2446.2265625 C-649.06827759 2446.17807159 -648.35530518 2446.12958069 -647.62072754 2446.07962036 C-646.06763951 2445.97420404 -644.51418378 2445.87410107 -642.96044922 2445.77868652 C-638.66896042 2445.51062816 -634.38154787 2445.18827521 -630.09375 2444.8671875 C-628.73672974 2444.76621765 -628.73672974 2444.76621765 -627.35229492 2444.66320801 C-536.94479987 2437.78498223 -447.2157024 2418.67470584 -361.07189941 2390.67132568 C-359.03479089 2390.01127276 -356.99581867 2389.35736231 -354.95605469 2388.70556641 C-322.03253893 2378.17400018 -289.64800663 2365.90290296 -258 2352 C-256.96085449 2351.5477002 -255.92170898 2351.09540039 -254.85107422 2350.62939453 C-217.10147747 2334.18848928 -179.72210374 2316.52264018 -144 2296 C-143.04963867 2295.45843262 -142.09927734 2294.91686523 -141.12011719 2294.35888672 C-120.75802405 2282.75532607 -100.64577003 2270.78187754 -81 2258 C-79.3416661 2256.94630803 -77.68332246 2255.89263101 -76.02441406 2254.83984375 C-43.81516218 2234.33469537 -12.22783223 2211.73476587 17.27734375 2187.5 C18.3751416 2186.59918701 18.3751416 2186.59918701 19.49511719 2185.68017578 C20.93338989 2184.49592318 22.36778472 2183.30694179 23.79785156 2182.11279297 C24.44592773 2181.57799316 25.09400391 2181.04319336 25.76171875 2180.4921875 C26.6273645 2179.77071533 26.6273645 2179.77071533 27.51049805 2179.03466797 C29 2178 29 2178 31 2178 C31 2177.34 31 2176.68 31 2176 C32.8984375 2174.2734375 32.8984375 2174.2734375 35.375 2172.375 C36.18710938 2171.74335938 36.99921875 2171.11171875 37.8359375 2170.4609375 C40 2169 40 2169 42 2169 C42 2168.34 42 2167.68 42 2167 C46.47058824 2163 46.47058824 2163 49 2163 C49 2162.34 49 2161.68 49 2161 C53.47058824 2157 53.47058824 2157 56 2157 C56 2156.34 56 2155.68 56 2155 C57.66015625 2153.546875 57.66015625 2153.546875 60.0625 2151.75 C65.53699903 2147.49032579 70.5525857 2142.8377433 75.59423828 2138.07861328 C78.82520898 2135.03029486 82.0653466 2132.01826771 85.4375 2129.125 C88.71593486 2126.30682057 91.74772482 2123.2969993 94.75 2120.1875 C96.64712469 2118.34307322 98.5804428 2116.62857126 100.58764648 2114.90795898 C105.19755684 2110.88444395 109.52804587 2106.61615259 113.84765625 2102.28515625 C114.66318466 2101.47058456 115.47871307 2100.65601288 116.31895447 2099.8167572 C118.03198008 2098.10440807 119.74375965 2096.39081158 121.4543457 2094.67602539 C124.05503552 2092.06997985 126.66101956 2089.46931478 129.26757812 2086.86914062 C130.94042486 2085.19563301 132.61296134 2083.52181518 134.28515625 2081.84765625 C135.44012352 2080.69572533 135.44012352 2080.69572533 136.61842346 2079.52052307 C140.74307338 2075.37817043 144.69969221 2071.14875047 148.51560974 2066.72019958 C150.20191413 2064.76600992 151.94347693 2062.87355085 153.71875 2061 C154.34136719 2060.34 154.96398438 2059.68 155.60546875 2059 C156.86848958 2057.66666667 158.13151042 2056.33333333 159.39453125 2055 C163.70892182 2050.42656735 167.89425212 2045.76145103 172 2041 C172.48839355 2040.4337793 172.97678711 2039.86755859 173.47998047 2039.28417969 C174.88525769 2037.65013641 176.28712127 2036.01324268 177.6875 2034.375 C180.80023641 2030.7337043 183.91435455 2027.09411282 187.0546875 2023.4765625 C192.46590926 2017.23068696 197.72624098 2010.90549165 202.79418945 2004.37744141 C205.6882225 2000.65279465 208.63824262 1996.98274771 211.63476562 1993.34008789 C219.08988218 1984.27022193 226.15866279 1974.93842963 233.14453125 1965.50390625 C234.92404114 1963.10250448 236.71120135 1960.70698668 238.5 1958.3125 C254.5330179 1936.78719473 269.43580271 1914.53379631 284 1892 C284.8660083 1890.66243652 284.8660083 1890.66243652 285.74951172 1889.29785156 C300.08057362 1867.09884368 313.33055829 1844.18130847 326 1821 C326.31864014 1820.41728333 326.63728027 1819.83456665 326.96557617 1819.23419189 C349.97326012 1777.10594751 370.47999773 1733.69716809 388 1689 C388.25698669 1688.34463257 388.51397339 1687.68926514 388.77874756 1687.01403809 C423.21000701 1599.05567086 447.55919688 1507.85466379 471 1306 C471.04236786 1305.07851166 471.08473572 1304.15702332 471.12838745 1303.20761108 C471.94680386 1284.8660771 472.20354393 1266.54596771 472.1875 1248.1875 C472.18723312 1247.49733418 472.18696625 1246.80716835 472.18669128 1246.09608841 C472.14043703 1150.23570209 460.88709166 1055.04134343 366 752 C365.29617188 750.43572266 365.29617188 750.43572266 364.578125 748.83984375 C351.49170908 719.88790746 337.57594755 691.14593089 321.55517578 663.69580078 C319.26401159 659.72420973 317.05337806 655.70902612 314.83398438 651.69702148 C283.95344108 595.96649303 247.21497863 542.84828894 206.890625 493.54296875 C204.52682797 490.65243946 202.19382183 487.7393056 199.875 484.8125 C195.52094437 479.35626711 191.00551659 474.03912487 186.47509766 468.72949219 C184.97450762 466.97011122 183.47744692 465.20776701 181.98046875 463.4453125 C176.49749827 457.00438359 170.93341979 450.6632064 165.21484375 444.4296875 C163.35993183 442.39484585 161.54571202 440.33678753 159.75 438.25 C156.25481652 434.230539 152.63054609 430.33429882 149 426.4375 C148.41831055 425.81198242 147.83662109 425.18646484 147.23730469 424.54199219 C144.37711837 421.48244494 141.4844633 418.47382003 138.5 415.53515625 C136.1554061 413.2109445 133.95261501 410.82635343 131.80859375 408.31640625 C127.34130862 403.1438259 122.49689878 398.34716699 117.6574707 393.52709961 C116.06541034 391.94040054 114.4787701 390.34842258 112.89257812 388.75585938 C107.43510919 383.29471673 101.90554906 377.98016545 96 373 C90.86949121 368.55866403 85.93753806 364.06101864 81.234375 359.16015625 C76.98779273 354.8049016 72.61168161 351.02199846 67.6875 347.4453125 C67.130625 346.96835937 66.57375 346.49140625 66 346 C66 345.34 66 344.68 66 344 C65.13375 343.5978125 65.13375 343.5978125 64.25 343.1875 C61.94449957 341.97070811 59.97943808 340.69666121 58 339 C58 338.34 58 337.68 58 337 C57.13375 336.5978125 57.13375 336.5978125 56.25 336.1875 C53.94449957 334.97070811 51.97943808 333.69666121 50 332 C50 331.34 50 330.68 50 330 C49.47792969 329.78730469 48.95585937 329.57460938 48.41796875 329.35546875 C44.99696044 327.4377145 42.24595689 324.89859459 39.3125 322.3125 C34.7592368 318.3547446 30.18364435 314.48619708 25.38671875 310.82421875 C22.33912994 308.49488328 19.32656892 306.12245409 16.3125 303.75 C15.71203857 303.27852539 15.11157715 302.80705078 14.49291992 302.32128906 C11.54048772 300.00267023 8.5928266 297.67851808 5.65625 295.33984375 C-8.74212673 283.89937143 -23.64554526 273.14093711 -38.71240234 262.60205078 C-41.25539739 260.82114006 -43.79380831 259.03379865 -46.33203125 257.24609375 C-48.13791168 255.97640723 -49.9438995 254.70687344 -51.75 253.4375 C-52.59618896 252.84130859 -53.44237793 252.24511719 -54.31420898 251.63085938 C-58.13806271 248.9491857 -61.94011863 246.31875338 -66 244 C-65.41422825 236.61338443 -63.76623141 229.86463461 -61.73828125 222.75 C-61.21908633 220.89348505 -60.69989795 219.03696827 -60.18092823 217.18039036 C-59.62066871 215.18081337 -59.05708783 213.18219872 -58.49261475 211.18380737 C-56.64213035 204.63007371 -54.81537404 198.06970139 -52.98642731 191.50993156 C-52.55260769 189.95433716 -52.11853778 188.39881253 -51.68422699 186.84335518 C-46.72080168 169.06696935 -41.87953071 151.25803298 -37.05406952 133.44378662 C-35.91866733 129.25328294 -34.78181242 125.06317347 -33.64501953 120.87304688 C-32.00484573 114.82707415 -30.36489015 108.78104234 -28.72527313 102.73491859 C-23.86650814 84.81850757 -19.00653867 66.90242764 -14.13262558 48.99013042 C-12.77795604 44.01124331 -11.42452908 39.03202618 -10.07415771 34.05197144 C-8.81229807 29.39836864 -7.54732724 24.74562326 -6.27989769 20.09353447 C-5.81238496 18.37531629 -5.34604207 16.65677934 -4.88091469 14.93791389 C-4.24622752 12.59316672 -3.60742475 10.24958022 -2.9675293 7.90625 C-2.78121634 7.21403823 -2.59490337 6.52182646 -2.40294456 5.80863857 C-1.11411742 1.11411742 -1.11411742 1.11411742 0 0 Z " fill="#FFFFFF" transform="translate(2419,441)"/>
<path d="M0 0 C0.93416622 -0.00088371 1.86833244 -0.00176743 2.83080673 -0.00267792 C33.32833054 -0.02822334 63.59585513 0.68614437 94 3.25 C96.21270293 3.43291911 98.4254321 3.61552093 100.63818359 3.79785156 C106.4259395 4.27621226 112.21314701 4.76084493 118 5.25 C113.80478323 12.75379832 113.80478323 12.75379832 111.40625 15.65234375 C110.70653076 16.50953003 110.70653076 16.50953003 109.99267578 17.3840332 C109.25380127 18.27674927 109.25380127 18.27674927 108.5 19.1875 C104.25884998 24.39811155 100.13065114 29.66870549 96.125 35.0625 C91.88414421 40.76634327 87.56786473 46.40259562 83.1875 52 C78.21369359 58.36000557 73.32843629 64.77898352 68.5 71.25 C63.12327779 78.45393236 57.6652002 85.58606497 52.13110352 92.66967773 C46.57589825 99.78137605 41.09419762 106.94782104 35.62207031 114.12353516 C32.85494832 117.7511138 30.08380188 121.37561415 27.3125 125 C26.49640259 126.0674646 26.49640259 126.0674646 25.66381836 127.15649414 C21.64671482 132.4090683 17.61601747 137.65100477 13.58203125 142.890625 C8.9315968 148.93637123 4.30466756 155.00016216 -0.32666016 161.06054688 C-3.05033264 164.62428992 -5.77521663 168.18710631 -8.5 171.75 C-9.58333938 173.16666204 -10.66667271 174.58332872 -11.75 176 C-13.91666667 178.83333333 -16.08333333 181.66666667 -18.25 184.5 C-18.7864917 185.20157227 -19.3229834 185.90314453 -19.87573242 186.62597656 C-20.95660017 188.03940651 -22.03749201 189.45281804 -23.1184082 190.86621094 C-25.86466505 194.45724701 -28.61047303 198.0486248 -31.35546875 201.640625 C-37.01520428 209.04588645 -42.68334042 216.44435297 -48.37109375 223.828125 C-50.41100465 226.47976927 -52.44282152 229.13751012 -54.47265625 231.796875 C-55.06755859 232.57611328 -55.66246094 233.35535156 -56.27539062 234.15820312 C-57.45051982 235.69807187 -58.62501746 237.23842281 -59.79882812 238.77929688 C-60.33056641 239.47603516 -60.86230469 240.17277344 -61.41015625 240.890625 C-61.88590088 241.51485352 -62.36164551 242.13908203 -62.85180664 242.78222656 C-64.7520976 245.21143117 -64.7520976 245.21143117 -66.72486877 245.51835632 C-67.47251999 245.58537247 -68.2201712 245.65238861 -68.99047852 245.72143555 C-69.83182846 245.79908646 -70.67317841 245.87673737 -71.5400238 245.95674133 C-72.45623001 246.03675888 -73.37243622 246.11677643 -74.31640625 246.19921875 C-75.26286514 246.28556076 -76.20932404 246.37190277 -77.1844635 246.46086121 C-80.12261334 246.72812115 -83.06124654 246.98947067 -86 247.25 C-89.30091097 247.54674691 -92.60164516 247.84543194 -95.90234375 248.14453125 C-96.71265549 248.21785675 -97.52296722 248.29118225 -98.35783386 248.36672974 C-190.19815898 256.7169263 -280.2525576 275.21861508 -465 340.25 C-466.15338867 340.7445166 -467.30677734 341.2390332 -468.49511719 341.74853516 C-502.90612888 356.54268289 -536.85130655 372.66381854 -569.57714844 390.90185547 C-571.88247419 392.18460525 -574.19382309 393.45561713 -576.5078125 394.72265625 C-593.91499072 404.27797867 -611.02344289 414.34953267 -627.9375 424.75 C-629.00871094 425.40822754 -630.07992187 426.06645508 -631.18359375 426.74462891 C-637.20466122 430.46503281 -643.13162264 434.29426432 -649 438.25 C-650.55378292 439.28001171 -652.10849981 440.30861564 -653.6640625 441.3359375 C-696.3950266 469.63390527 -737.50146296 500.2725058 -776.29394531 533.78222656 C-778.03077596 535.27647754 -779.77579808 536.76059799 -781.5234375 538.2421875 C-787.98298271 543.72643838 -794.3155416 549.3126638 -800.5144043 555.09057617 C-803.42412116 557.80238371 -806.36166459 560.46639564 -809.375 563.0625 C-812.44361842 565.71383767 -815.29418177 568.52021803 -818.13233948 571.41477966 C-819.90533985 573.15698404 -821.73255497 574.77220931 -823.62475586 576.38305664 C-828.46021492 580.58988593 -832.97891627 585.08511541 -837.50390625 589.62109375 C-838.3860228 590.50225357 -839.26813934 591.38341339 -840.17698669 592.29127502 C-842.50232809 594.6157675 -844.82523618 596.94265907 -847.14733887 599.27038574 C-848.56144824 600.68644678 -849.97749121 602.10054321 -851.39428711 603.51391602 C-854.1418672 606.25528256 -856.88592106 609.00013034 -859.62890625 611.74609375 C-860.46450577 612.57966904 -861.30010529 613.41324432 -862.161026 614.27207947 C-866.44656865 618.57462489 -870.57780951 622.94932453 -874.53868103 627.5528717 C-876.215869 629.50070323 -877.95089599 631.38427893 -879.71875 633.25 C-880.34136719 633.91 -880.96398437 634.57 -881.60546875 635.25 C-882.86848958 636.58333333 -884.13151042 637.91666667 -885.39453125 639.25 C-889.70892182 643.82343265 -893.89425212 648.48854897 -898 653.25 C-898.48839355 653.8162207 -898.97678711 654.38244141 -899.47998047 654.96582031 C-900.88525769 656.59986359 -902.28712127 658.23675732 -903.6875 659.875 C-906.80023641 663.5162957 -909.91435455 667.15588718 -913.0546875 670.7734375 C-918.46520465 677.01849975 -923.725829 683.34224297 -928.79199219 689.87036133 C-931.70091688 693.61521367 -934.66997704 697.30123125 -937.68554688 700.96069336 C-944.86538049 709.68444978 -951.58999552 718.69501661 -958.23388672 727.83105469 C-959.97920428 730.22151729 -961.73860856 732.60082556 -963.50390625 734.9765625 C-975.46569812 751.08199253 -987.00008014 767.47226191 -998 784.25 C-998.48791016 784.9915332 -998.97582031 785.73306641 -999.47851562 786.49707031 C-1054.9352866 870.85628045 -1100.24565045 961.84506966 -1135 1064.25 C-1135.25396545 1064.99965027 -1135.50793091 1065.74930054 -1135.76959229 1066.52166748 C-1143.84957904 1090.37318528 -1150.94523976 1114.42308929 -1157.3482666 1138.77709961 C-1157.9850187 1141.1931558 -1158.62797226 1143.60748183 -1159.27246094 1146.02148438 C-1178.86800509 1219.64811337 -1190.25634934 1295.62629243 -1195.125 1371.625 C-1195.23847778 1373.38469116 -1195.23847778 1373.38469116 -1195.35424805 1375.17993164 C-1196.76539619 1398.64963739 -1197.20766126 1422.11671112 -1197.1875 1445.625 C-1197.18723312 1446.32789909 -1197.18696625 1447.03079819 -1197.18669128 1447.75499725 C-1197.14183311 1542.39135843 -1186.36130453 1636.74790962 -1112 1892.25 C-1111.73078735 1892.92230652 -1111.46157471 1893.59461304 -1111.1842041 1894.28729248 C-1099.62081818 1923.14233028 -1086.72277582 1951.36613772 -1073 1979.25 C-1072.6908667 1979.87922363 -1072.3817334 1980.50844727 -1072.06323242 1981.15673828 C-1047.74752749 2030.63979271 -1020.13245495 2079.05553024 -988.42333984 2124.21875 C-986.84325586 2126.47368975 -985.27490228 2128.73655286 -983.70703125 2131 C-960.0122065 2165.13357115 -934.62708878 2198.10373813 -907.46337891 2229.54833984 C-905.98158701 2231.27141117 -904.51088679 2233.00338109 -903.04296875 2234.73828125 C-897.35596841 2241.4472446 -891.53292511 2247.98992223 -885.51733398 2254.40649414 C-882.66126162 2257.45346303 -879.85102996 2260.52237796 -877.125 2263.6875 C-874.49698719 2266.73625378 -871.71055118 2269.56307074 -868.83753967 2272.38002014 C-867.08143554 2274.16712678 -865.45121598 2276.00977646 -863.82592773 2277.91577148 C-859.83432128 2282.50408274 -855.58973973 2286.80438929 -851.28515625 2291.09765625 C-850.47058456 2291.91318466 -849.65601288 2292.72871307 -848.8167572 2293.56895447 C-847.10440807 2295.28198008 -845.39081158 2296.99375965 -843.67602539 2298.7043457 C-841.06997985 2301.30503552 -838.46931478 2303.91101956 -835.86914062 2306.51757812 C-834.19563301 2308.19042486 -832.52181518 2309.86296134 -830.84765625 2311.53515625 C-830.0797023 2312.30513443 -829.31174835 2313.07511261 -828.52052307 2313.86842346 C-824.38254255 2317.98871994 -820.15743328 2321.94027743 -815.73362732 2325.75218201 C-813.69751626 2327.51133967 -811.73088798 2329.33321372 -809.78125 2331.1875 C-809.07613281 2331.85523437 -808.37101563 2332.52296875 -807.64453125 2333.2109375 C-806.21484375 2334.5703125 -804.78515625 2335.9296875 -803.35546875 2337.2890625 C-798.66778099 2341.72822568 -793.89233817 2346.03764385 -789 2350.25 C-788.15163574 2350.98162354 -788.15163574 2350.98162354 -787.28613281 2351.72802734 C-785.65152729 2353.13406102 -784.01394161 2354.53652382 -782.375 2355.9375 C-778.7337043 2359.05023641 -775.09411282 2362.16435455 -771.4765625 2365.3046875 C-765.2334558 2370.71351043 -758.91095684 2375.97136109 -752.38623047 2381.03759766 C-748.5923691 2383.98580764 -744.85167787 2386.98979315 -741.13696289 2390.03710938 C-733.29035635 2396.47359284 -725.28906341 2402.6530832 -717.12451172 2408.68017578 C-714.9030736 2410.32161994 -712.68768036 2411.97100671 -710.47265625 2413.62109375 C-696.23799505 2424.1981658 -681.78617628 2434.45703371 -667 2444.25 C-668.37607268 2452.61213479 -670.30574282 2460.76223478 -672.4375 2468.9609375 C-672.78934556 2470.32601202 -673.14083513 2471.69117834 -673.49200439 2473.056427 C-674.25381739 2476.01502018 -675.01809276 2478.97296219 -675.78430176 2481.93041992 C-677.02893055 2486.73454054 -678.26821117 2491.54003156 -679.50683594 2496.34570312 C-681.09601368 2502.50983698 -682.68667416 2508.67358523 -684.27892685 2514.83692551 C-687.69983084 2528.07915953 -691.1089356 2541.32441544 -694.515625 2554.5703125 C-695.63554515 2558.9244066 -696.75550807 2563.27848971 -697.87548828 2567.63256836 C-698.1538685 2568.71482036 -698.43224873 2569.79707235 -698.71906471 2570.91211987 C-708.78229195 2610.03261415 -718.86715426 2649.14747656 -729 2688.25 C-732.7454834 2689.35366821 -732.7454834 2689.35366821 -735.03613281 2688.4206543 C-735.75124023 2687.97633057 -736.46634766 2687.53200684 -737.203125 2687.07421875 C-738.01031982 2686.58107178 -738.81751465 2686.0879248 -739.64916992 2685.57983398 C-740.93658081 2684.76687866 -740.93658081 2684.76687866 -742.25 2683.9375 C-743.58865112 2683.11197632 -743.58865112 2683.11197632 -744.9543457 2682.26977539 C-747.64342385 2680.6077807 -750.32194179 2678.92967487 -753 2677.25 C-754.42501309 2676.3685486 -755.85072917 2675.48823206 -757.27734375 2674.609375 C-783.46798863 2658.42472566 -808.92561637 2641.10548776 -834 2623.25 C-834.71381836 2622.74243164 -835.42763672 2622.23486328 -836.16308594 2621.71191406 C-847.85163488 2613.38546459 -859.30317828 2604.76933214 -870.68359375 2596.02734375 C-872.67066537 2594.50269352 -874.66184082 2592.98377738 -876.65625 2591.46875 C-884.64535761 2585.3780442 -892.43415783 2579.0586402 -900.21386719 2572.70410156 C-902.56804276 2570.78755294 -904.93837788 2568.8917608 -907.3125 2567 C-916.76830305 2559.44794432 -926.03182517 2551.69795866 -935.19726562 2543.79833984 C-936.97485913 2542.27159309 -938.75952015 2540.75358292 -940.546875 2539.23828125 C-947.55917139 2533.28409637 -954.39389103 2527.18014557 -961.125 2520.91015625 C-963.34528957 2518.85578506 -965.58217306 2516.84663351 -967.875 2514.875 C-972.94850913 2510.47937101 -977.81982888 2505.86411604 -982.71289062 2501.27001953 C-985.41478974 2498.73434844 -988.12156925 2496.2041213 -990.83374023 2493.67944336 C-1000.98773798 2484.20443779 -1010.89897614 2474.50731851 -1020.70605469 2464.67431641 C-1023.15444216 2462.22049246 -1025.60823532 2459.77216302 -1028.0625 2457.32421875 C-1029.64875877 2455.73730023 -1031.23470787 2454.15007211 -1032.8203125 2452.5625 C-1033.54018341 2451.84465332 -1034.26005432 2451.12680664 -1035.0017395 2450.38720703 C-1039.00235822 2446.36818859 -1042.82906756 2442.25354228 -1046.52133179 2437.94885254 C-1048.4138407 2435.77453544 -1050.43165918 2433.75659931 -1052.5 2431.75 C-1055.82426543 2428.46484357 -1058.9463983 2425.09219312 -1061.98828125 2421.546875 C-1064.60280636 2418.5617473 -1067.30054146 2415.6582244 -1070 2412.75 C-1074.41517115 2407.98382915 -1078.76922634 2403.18152292 -1083 2398.25 C-1083.62527588 2397.52224365 -1083.62527588 2397.52224365 -1084.26318359 2396.77978516 C-1086.78280676 2393.84679316 -1089.29904572 2390.91093619 -1091.8125 2387.97265625 C-1093.91232 2385.51836295 -1096.01652637 2383.0679562 -1098.125 2380.62109375 C-1104.18857355 2373.57964866 -1110.14842222 2366.46947908 -1116 2359.25 C-1117.03080794 2357.98922178 -1118.06208999 2356.72883109 -1119.09375 2355.46875 C-1125.4159765 2347.73598691 -1131.62884514 2339.94205796 -1137.67382812 2331.98974609 C-1139.11501728 2330.09911393 -1140.5647066 2328.21520624 -1142.015625 2326.33203125 C-1150.16083069 2315.74724684 -1158.12397379 2305.03629489 -1166 2294.25 C-1166.55187988 2293.4957373 -1167.10375977 2292.74147461 -1167.67236328 2291.96435547 C-1176.01521421 2280.54899633 -1184.09977333 2268.97573076 -1192 2257.25 C-1192.69287109 2256.22165039 -1193.38574219 2255.19330078 -1194.09960938 2254.13378906 C-1219.84880162 2215.84850892 -1244.1141473 2176.66513791 -1265.9140625 2135.984375 C-1267.83815796 2132.39448403 -1269.78590399 2128.82077059 -1271.7734375 2125.265625 C-1287.71088473 2096.68454464 -1301.89542124 2067.12825924 -1315.13006592 2037.21124268 C-1315.9951168 2035.26100903 -1316.86587551 2033.31343378 -1317.73876953 2031.36669922 C-1331.87152774 1999.83933713 -1344.70252979 1967.76125043 -1356.29742432 1935.21514893 C-1357.03270888 1933.15851119 -1357.77415934 1931.10418049 -1358.51708984 1929.05029297 C-1391.38233234 1838.13347946 -1413.98355109 1743.37084938 -1440 1507.25 C-1440.05640656 1506.06259216 -1440.05640656 1506.06259216 -1440.11395264 1504.85119629 C-1440.59028579 1494.6539319 -1440.87042579 1484.4572083 -1441 1474.25 C-1441.01095703 1473.41621826 -1441.02191406 1472.58243652 -1441.03320312 1471.72338867 C-1442.26246194 1372.84940169 -1434.14956768 1274.42813595 -1323 873.25 C-1322.50226074 872.1043457 -1322.00452148 870.95869141 -1321.49169922 869.77832031 C-1304.84498602 831.53362077 -1286.96088227 793.55917274 -1266.60595703 757.13671875 C-1264.73088845 753.76627014 -1262.87824676 750.38374992 -1261.02734375 747 C-1254.59581045 735.25347732 -1248.16511889 723.52490599 -1241.14111328 712.11865234 C-1239.81628992 709.94916197 -1238.51468046 707.76658277 -1237.21484375 705.58203125 C-1226.26169562 687.1800984 -1214.74967939 669.15219918 -1203 651.25 C-1202.51063965 650.50427734 -1202.0212793 649.75855469 -1201.51708984 648.99023438 C-1182.90041827 620.69037355 -1163.13582612 593.17222508 -1142.4140625 566.37890625 C-1140.81748729 564.30955878 -1139.22879145 562.23410568 -1137.6484375 560.15234375 C-1131.70282426 552.33783254 -1125.51500637 544.74779943 -1119.25 537.1875 C-1116.75484993 534.17395117 -1114.29942325 531.13343611 -1111.875 528.0625 C-1108.19988398 523.43515906 -1104.35335224 518.96510323 -1100.49169922 514.49365234 C-1097.42902816 510.94095391 -1094.43776399 507.34504283 -1091.5 503.6875 C-1087.15097244 498.32633512 -1082.49200516 493.29429261 -1077.78515625 488.25 C-1075.01778714 485.28185553 -1072.33833857 482.24540476 -1069.6796875 479.1796875 C-1062.2735598 470.67125242 -1054.55894179 462.44604322 -1046.84179688 454.22119141 C-1045.11982743 452.37824585 -1043.40982318 450.52504804 -1041.703125 448.66796875 C-1032.0600211 438.23213067 -1022.03765666 428.17918102 -1012 418.125 C-1011.2719516 417.3943634 -1010.5439032 416.66372681 -1009.79379272 415.91094971 C-1007.67798485 413.7892152 -1005.55840512 411.67132559 -1003.4375 409.5546875 C-1002.8076973 408.92290588 -1002.17789459 408.29112427 -1001.52900696 407.64019775 C-997.71648512 403.84712611 -993.78591429 400.24492555 -989.70825195 396.73806763 C-987.70861692 394.99617461 -985.84165622 393.15742966 -984 391.25 C-980.93882747 388.14753998 -977.76857732 385.26893576 -974.46484375 382.4296875 C-971.08014328 379.43656093 -967.7946642 376.34156846 -964.5 373.25 C-959.41291816 368.48457217 -954.30347724 363.77498517 -949 359.25 C-947.96722944 358.36353572 -946.93470072 357.47678965 -945.90234375 356.58984375 C-943.51117109 354.5366496 -941.11770396 352.48617228 -938.72265625 350.4375 C-936.26836295 348.33768 -933.8179562 346.23347363 -931.37109375 344.125 C-924.32960757 338.06139107 -917.218372 332.10299211 -910 326.25 C-908.78601933 325.25444133 -907.57250776 324.25831046 -906.359375 323.26171875 C-898.14498806 316.52821232 -889.8083016 309.98714836 -881.34765625 303.56640625 C-877.64224052 300.75075859 -873.97508989 297.88906133 -870.31420898 295.01586914 C-861.35248109 287.98776789 -852.21017231 281.25477655 -842.94042969 274.63964844 C-840.34208978 272.7788343 -837.7646994 270.88994623 -835.1875 269 C-829.19912971 264.64235082 -823.10621369 260.44011531 -817 256.25 C-816.2771582 255.75306641 -815.55431641 255.25613281 -814.80957031 254.74414062 C-785.71907664 234.7497536 -756.1680596 215.4068538 -725.52734375 197.85546875 C-722.62950411 196.19472933 -719.74644114 194.5133081 -716.87890625 192.80078125 C-706.75422985 186.75472554 -696.44799523 181.09363114 -686.05859375 175.515625 C-682.32675112 173.51136763 -678.6089821 171.48640366 -674.91015625 169.421875 C-614.33258907 135.69004036 -550.03304657 108.69584129 -484.9677124 84.96948242 C-481.9821951 83.87784565 -479.00141865 82.77338188 -476.01953125 81.671875 C-385.16668266 48.37847016 -289.67385171 26.64047414 -93.625 2.9375 C-92.46704926 2.85600708 -91.30909851 2.77451416 -90.11605835 2.69055176 C-60.06943296 0.6084556 -30.1075692 0.01306754 0 0 Z " fill="#FFFFFF" transform="translate(1681,240.75)"/>
</svg>
