<?xml version="1.0" encoding="UTF-8"?>
<svg version="1.1" xmlns="http://www.w3.org/2000/svg" width="3375" height="3375">
<path d="M0 0 C1.22281174 -0.00705963 2.44562347 -0.01411926 3.70549011 -0.02139282 C7.63050122 -0.03890374 11.5554267 -0.0460852 15.48046875 -0.046875 C16.15070068 -0.04716957 16.82093262 -0.04746414 17.51147461 -0.04776764 C38.37892938 -0.04924829 58.97301401 0.25458669 79.66796875 3.203125 C80.3706488 3.30258423 81.07332886 3.40204346 81.79730225 3.5045166 C113.47122783 8.02451093 144.29083647 15.06587661 174.66796875 25.203125 C175.74385254 25.56132324 176.81973633 25.91952148 177.92822266 26.28857422 C217.25143871 39.54188705 254.28456669 58.52170445 288.79296875 81.453125 C289.35088104 81.82335785 289.90879333 82.1935907 290.48361206 82.57504272 C298.42261595 87.85933704 306.09636121 93.40748737 313.66796875 99.203125 C314.33683105 99.71343262 315.00569336 100.22374023 315.69482422 100.74951172 C331.89841039 113.18932723 347.35905267 126.61726216 361.66796875 141.203125 C364.46712883 144.01673857 367.28498511 146.80967867 370.12109375 149.5859375 C376.69805423 156.05171624 382.99763631 162.49972539 388.7109375 169.75 C390.53381754 172.0349674 392.43766136 174.17971699 394.41796875 176.328125 C450.11396301 238.43357892 486.89891166 322.38664079 508.66796875 476.203125 C508.68988281 477.11755371 508.71179687 478.03198242 508.734375 478.97412109 C510.37751082 561.08983377 493.68852377 643.3875357 454.66796875 744.203125 C454.18972656 745.37053223 453.71148438 746.53793945 453.21875 747.74072266 C446.48397209 764.10368622 439.2119501 780.19896819 431.66796875 796.203125 C431.17683594 797.24855469 430.68570313 798.29398438 430.1796875 799.37109375 C418.97032787 823.1798919 406.84368614 846.42416662 393.66796875 869.203125 C393.33907654 869.77240723 393.01018433 870.34168945 392.67132568 870.92822266 C384.13612893 885.69691106 375.50204875 900.38220881 366.25927734 914.72265625 C364.47139241 917.50954041 362.70395676 920.30886198 360.9375 923.109375 C352.47116815 936.49446048 343.65511048 949.57388041 334.5390625 962.5234375 C332.18702552 965.89190799 329.88659156 969.29358398 327.58813477 972.69873047 C321.9303027 981.07249377 315.98954367 989.15583555 309.796875 997.140625 C306.7864513 1001.02719603 303.87178982 1004.97749441 300.98046875 1008.953125 C296.44352609 1015.17774224 291.80103238 1021.30962716 287.07373047 1027.39111328 C285.51813567 1029.39625823 283.96996937 1031.40702806 282.421875 1033.41796875 C274.85904804 1043.21934128 267.10594889 1052.83933282 259.19433594 1062.36083984 C257.10780261 1064.87923084 255.0440314 1067.41589762 252.98046875 1069.953125 C248.41646182 1075.53791721 243.75443464 1081.0370225 239.08398438 1086.53271484 C237.66478272 1088.20688341 236.25146104 1089.88583975 234.83984375 1091.56640625 C229.9457484 1097.38687177 224.97635073 1103.10664301 219.85546875 1108.73046875 C217.50271874 1111.38991653 215.27018818 1114.12541169 213.04296875 1116.890625 C209.9813915 1120.67507466 206.82233374 1124.16800514 203.328125 1127.55078125 C201.62412649 1129.24676094 200.05082792 1131.00802196 198.48046875 1132.828125 C193.90157123 1138.1294708 189.12814577 1143.24969143 184.36083984 1148.38085938 C183.20150455 1149.62880841 182.04301715 1150.87754551 180.88525391 1152.12695312 C174.85956821 1158.62881811 168.84393374 1165.11439154 162.51478577 1171.3238678 C160.78902425 1173.0799431 159.1919777 1174.88691227 157.59936523 1176.76342773 C153.0363024 1182.00853239 148.12264998 1186.89307071 143.203125 1191.80078125 C142.20081794 1192.80376403 141.19865919 1193.80689503 140.19664001 1194.81016541 C138.10805341 1196.90021638 136.01769487 1198.98847388 133.92602539 1201.07543945 C131.26566465 1203.7301037 128.60982033 1206.38923384 125.95530033 1209.04973698 C123.89030269 1211.11837449 121.82289671 1213.18459199 119.75478935 1215.25012016 C118.77540464 1216.22884505 117.79674194 1217.20829306 116.81886482 1218.18852425 C111.80284883 1223.2139675 106.75923639 1228.13710841 101.35057068 1232.7407074 C98.64897984 1235.08876961 96.1630291 1237.63951904 93.66796875 1240.203125 C89.84522217 1244.13089209 85.88392044 1247.80066203 81.73828125 1251.38671875 C78.29905084 1254.40415675 74.98918559 1257.55705045 71.66796875 1260.703125 C67.01390595 1265.11175871 62.3087926 1269.43323341 57.46728516 1273.63574219 C55.23209462 1275.58281454 53.04326872 1277.57806969 50.85546875 1279.578125 C46.59754635 1283.42190298 42.2107151 1287.06102951 37.7421875 1290.65625 C35.38665933 1292.60771679 33.09217508 1294.58791507 30.8125 1296.625 C30.14694092 1297.21635742 29.48138184 1297.80771484 28.7956543 1298.41699219 C27.48401723 1299.5868004 26.17918287 1300.7642917 24.88208008 1301.95019531 C22.34137707 1304.20874853 20.17118431 1305.98296819 17.04296875 1307.3515625 C13.42948582 1307.12571982 12.07402692 1305.34407237 9.54296875 1302.828125 C8.57268143 1301.88947211 7.59996229 1300.9533274 6.625 1300.01953125 C6.13338379 1299.54402832 5.64176758 1299.06852539 5.13525391 1298.57861328 C2.93337793 1296.51449194 0.58930904 1294.64655264 -1.76953125 1292.765625 C-6.89453971 1288.62901103 -11.7276628 1284.23993284 -16.5546875 1279.765625 C-19.44433798 1277.09950585 -22.38712129 1274.50714147 -25.35546875 1271.9296875 C-40.7581338 1258.47518562 -56.12433621 1244.65468289 -70.45167542 1230.05104065 C-72.21254691 1228.32054798 -74.02479111 1226.71837514 -75.90600586 1225.12084961 C-81.06970791 1220.6286813 -85.87849985 1215.80008912 -90.7109375 1210.95703125 C-91.69150006 1209.97714447 -92.67221084 1208.99740599 -93.65306091 1208.01780701 C-95.69603338 1205.9762986 -97.73721294 1203.93301934 -99.77709961 1201.88842773 C-102.37122991 1199.28860096 -104.96982559 1196.69329127 -107.56979465 1194.09930515 C-109.5921095 1192.08063104 -111.61200315 1190.05954767 -113.63120842 1188.0377636 C-115.04719371 1186.62080176 -116.4651664 1185.20582683 -117.88319397 1183.79090881 C-122.37238038 1179.28554255 -126.7373917 1174.73650838 -130.86192322 1169.89341736 C-133.21331534 1167.18984724 -135.76577753 1164.70076231 -138.33203125 1162.203125 C-142.2495447 1158.3903579 -145.90775065 1154.43942247 -149.484375 1150.3046875 C-152.67053503 1146.68068307 -156.00741328 1143.19970597 -159.33203125 1139.703125 C-163.91788351 1134.88007348 -168.42193584 1130.01340252 -172.78222656 1124.98486328 C-174.72227966 1122.75447458 -176.71253428 1120.57234487 -178.70703125 1118.390625 C-181.81731976 1114.94934295 -184.79681437 1111.43991202 -187.70703125 1107.828125 C-190.95156072 1103.81485684 -194.3195459 1099.97901633 -197.83203125 1096.203125 C-202.08281939 1091.62857217 -206.09672714 1086.92000971 -210.015625 1082.0546875 C-212.5970068 1078.8769325 -215.23984436 1075.75707561 -217.89453125 1072.640625 C-221.7362319 1068.11923378 -225.5065883 1063.553303 -229.19140625 1058.90234375 C-230.79768634 1056.87690663 -232.41208821 1054.85956082 -234.03515625 1052.84765625 C-239.90509204 1045.56276007 -245.66605816 1038.2059652 -251.328125 1030.75830078 C-254.75795855 1026.24949876 -258.22481085 1021.77243961 -261.71948242 1017.3137207 C-267.68549429 1009.69700163 -273.44372392 1001.98223189 -279.00878906 994.06933594 C-281.01399362 991.24133157 -283.05558256 988.44003789 -285.09375 985.63574219 C-340.94367471 908.7281827 -389.99088482 825.19623786 -431.33203125 718.203125 C-431.59844421 717.46209534 -431.86485718 716.72106567 -432.13934326 715.95758057 C-451.62546694 661.65358294 -465.77561617 606.04919906 -471.64453125 548.578125 C-471.72593353 547.78308563 -471.80733582 546.98804626 -471.89120483 546.16891479 C-473.71403219 528.07872356 -474.54388397 510.0712809 -474.51953125 491.890625 C-474.51859467 490.97560211 -474.51765808 490.06057922 -474.51669312 489.11782837 C-474.36232582 419.00237743 -459.72630184 349.98233258 -430.33203125 286.203125 C-429.64004639 284.69371338 -429.64004639 284.69371338 -428.93408203 283.15380859 C-415.04847128 253.0455913 -398.2048821 224.74409986 -378.33203125 198.203125 C-377.88375977 197.60177734 -377.43548828 197.00042969 -376.97363281 196.38085938 C-370.74197739 188.04997105 -364.12506041 180.0775792 -357.33203125 172.203125 C-356.37490234 171.09324219 -356.37490234 171.09324219 -355.3984375 169.9609375 C-353.72079934 168.03145989 -352.02973981 166.11495897 -350.33203125 164.203125 C-349.28789062 163.01976562 -349.28789062 163.01976562 -348.22265625 161.8125 C-343.11532655 156.07115695 -337.80935198 150.59048973 -332.33203125 145.203125 C-329.51853258 142.40383592 -326.72552572 139.58607469 -323.94921875 136.75 C-317.4882079 130.17788939 -311.04489726 123.88194291 -303.80078125 118.171875 C-301.43188091 116.28275194 -299.19402091 114.30809382 -296.95703125 112.265625 C-272.64922229 90.48720004 -243.98306001 72.86341313 -215.40039062 57.33349609 C-213.53018152 56.31141534 -211.67194528 55.27104643 -209.81640625 54.22265625 C-189.02164706 42.70957611 -166.74631801 33.98917576 -144.33203125 26.203125 C-143.30964355 25.84766602 -142.28725586 25.49220703 -141.23388672 25.12597656 C-96.18470304 9.66685602 -47.70689762 0.18491128 0 0 Z M-26.33203125 299.203125 C-27.23115234 299.41743164 -28.13027344 299.63173828 -29.05664062 299.85253906 C-60.89558525 307.68122731 -94.19792111 323.7282492 -116.9609375 347.796875 C-118.33203125 349.203125 -118.33203125 349.203125 -120.83203125 351.140625 C-124.45813058 354.13215695 -127.33323518 357.59255269 -130.33203125 361.203125 C-130.77498535 361.73373535 -131.21793945 362.2643457 -131.67431641 362.81103516 C-167.10655117 405.45545564 -182.73050007 457.17943623 -177.86328125 512.33203125 C-173.0447092 556.13863344 -151.93888561 601.12611279 -119.33203125 631.203125 C-118.67203125 631.203125 -118.01203125 631.203125 -117.33203125 631.203125 C-117.13480469 631.75484375 -116.93757813 632.3065625 -116.734375 632.875 C-114.75220137 636.16573951 -111.91346918 638.17103969 -108.89453125 640.453125 C-108.26200439 640.93837646 -107.62947754 641.42362793 -106.9777832 641.92358398 C-105.69493318 642.90405371 -104.40906534 643.8805883 -103.12011719 644.85302734 C-101.59148612 646.00722311 -100.07387102 647.17598411 -98.55859375 648.34765625 C-58.54033947 678.57682987 -7.35827791 690.89364597 42.10791016 684.67724609 C82.031081 679.1044465 123.82884036 661.19599684 151.66796875 631.203125 C156.66796875 626.203125 156.66796875 626.203125 158.625 624.3515625 C169.63869203 613.74292744 177.99810738 601.35444432 185.66796875 588.203125 C186.08578613 587.48946777 186.50360352 586.77581055 186.93408203 586.04052734 C211.98967713 542.59090552 218.33000755 489.64051452 205.85546875 441.203125 C196.65483196 407.32534005 179.81778641 378.52929481 155.66796875 353.203125 C154.83007812 352.30078125 153.9921875 351.3984375 153.12890625 350.46875 C126.16503236 322.28294829 87.84023128 303.88442025 49.66796875 297.203125 C48.67700195 297.02652344 47.68603516 296.84992188 46.66503906 296.66796875 C36.85062229 295.08180038 27.20786497 294.80367092 17.29296875 294.828125 C16.45992218 294.82866882 15.62687561 294.82921265 14.76858521 294.82977295 C0.75053289 294.87168845 -12.66258749 295.89892171 -26.33203125 299.203125 Z " fill="#FFFFFF" transform="translate(2744.33203125,-0.203125)"/>
<path d="M0 0 C4.41317985 0.00688536 8.82632646 -0.0037369 13.23949933 -0.01193976 C21.8509891 -0.02517976 30.46239979 -0.02244324 39.07389247 -0.01370184 C46.08160576 -0.00688696 53.0892971 -0.00602488 60.09701276 -0.00927329 C61.0998385 -0.00973299 62.10266425 -0.01019269 63.13587865 -0.01066632 C65.17400929 -0.01162563 67.21213992 -0.01259828 69.25027055 -0.01358409 C88.29775038 -0.02210947 107.34518668 -0.01234886 126.39265937 0.00381701 C142.68547443 0.01721757 158.97822534 0.01488867 175.27103925 0.00106072 C194.25703238 -0.01504575 213.24298749 -0.02128576 232.2289865 -0.01210248 C234.25902072 -0.01114698 236.28905494 -0.01020387 238.31908917 -0.00927329 C239.81675435 -0.00857905 239.81675435 -0.00857905 241.34467539 -0.00787079 C248.33232101 -0.00529605 255.31994222 -0.0096189 262.30758405 -0.01671195 C270.83985615 -0.02518375 279.37204562 -0.02272882 287.90430844 -0.00686972 C292.24561588 0.00093742 296.58678626 0.00423626 300.92809224 -0.00581717 C346.68230938 -0.10275879 388.56116076 6.8302389 425.70805097 35.39217401 C426.61555097 36.07537713 427.52305097 36.75858026 428.45805097 37.46248651 C463.39363223 64.80789684 485.92450981 105.02667711 491.73900688 148.96274924 C493.56997163 164.83321906 493.13247387 180.89243592 493.10022497 196.84259534 C493.09336186 201.87593854 493.10395094 206.90925201 493.11216474 211.94258904 C493.12542541 221.76973983 493.12265947 231.59682144 493.11392681 241.42397481 C493.10712334 249.41386346 493.10624499 257.40373287 493.10949826 265.39362359 C493.10995796 266.53517603 493.11041766 267.67672847 493.11089129 268.85287341 C493.11185055 271.17255017 493.11282319 273.49222691 493.11380906 275.81190366 C493.12233968 297.50252221 493.1125639 319.19310257 493.09640796 340.88371485 C493.08299245 359.47053801 493.08534756 378.05730497 493.09916425 396.64412713 C493.11523639 418.27496777 493.12153107 439.90577508 493.11232746 461.53662086 C493.11137188 463.84483075 493.11042877 466.15304064 493.10949826 468.46125054 C493.10903544 469.5966968 493.10857261 470.73214305 493.10809576 471.90199676 C493.10551185 479.88071006 493.1098636 487.85940211 493.11693692 495.83811212 C493.12536967 505.56301852 493.12303391 515.28785231 493.10709469 525.01275045 C493.09923808 529.9686113 493.09607586 534.9243513 493.10604215 539.88021111 C493.11504297 544.4248012 493.1099684 548.96915946 493.09410949 553.5137288 C493.09078453 555.14923046 493.09240362 556.7847521 493.09973685 558.4202407 C493.20267769 583.30544559 486.48184373 604.31661905 468.70805097 622.39217401 C468.02098065 623.09213494 467.33391034 623.79209588 466.62601972 624.51326776 C448.14007175 642.10750024 424.91989654 645.2592632 400.40456891 644.68877435 C384.01103246 644.10923867 369.13621059 638.28766873 357.13773847 627.03670526 C352.72531042 622.23411074 349.22943708 616.87157222 345.70805097 611.39217401 C345.04805097 610.40217401 344.38805097 609.41217401 343.70805097 608.39217401 C343.70707416 609.61124491 343.70609735 610.83031582 343.70509094 612.08632827 C343.66183227 665.82919556 343.614867 719.57205856 343.54906964 773.3149035 C343.54807408 774.12893262 343.54707851 774.94296175 343.54605278 775.78165842 C343.52439271 793.47399422 343.50206991 811.16632913 343.47906468 828.85866323 C343.46778647 837.53536068 343.45665465 846.21205831 343.44559979 854.88875604 C343.44449723 855.75217781 343.44339466 856.61559959 343.44225869 857.50518566 C343.40660946 885.47589239 343.38062206 913.44659793 343.35966128 941.4173192 C343.33806476 970.16814202 343.30668842 998.91893806 343.26305984 1027.66973629 C343.25689787 1031.73340944 343.25084734 1035.79708274 343.2448647 1039.86075616 C343.24368382 1040.66052152 343.24250294 1041.46028688 343.24128627 1042.28428755 C343.22258687 1055.14257985 343.21415394 1068.00085923 343.20958972 1080.85916346 C343.2047776 1093.79562115 343.1890794 1106.73202974 343.16238531 1119.66846108 C343.14686627 1127.34805655 343.1395779 1135.02755511 343.14428167 1142.70716537 C343.14687844 1148.4523398 343.13380762 1154.19739576 343.11481545 1159.94253546 C343.10956271 1162.25908417 343.10929663 1164.57565099 343.11465534 1166.89219946 C343.17588913 1196.37752858 337.12927755 1222.0489638 316.28617597 1243.80623651 C315.43539472 1244.65959588 314.58461347 1245.51295526 313.70805097 1246.39217401 C312.83406659 1247.27131463 311.96008222 1248.15045526 311.05961347 1249.05623651 C299.64610792 1260.39390481 286.0047132 1267.71429565 270.70805097 1272.39217401 C269.04516034 1272.90264276 269.04516034 1272.90264276 267.34867597 1273.42342401 C249.31161574 1277.91190904 228.32575725 1277.29539292 210.70805097 1271.39217401 C210.07157636 1271.18318475 209.43510175 1270.97419549 208.77934003 1270.75887322 C182.0876503 1261.78320426 162.35630951 1242.08205999 149.70805097 1217.39217401 C148.03108586 1213.69946296 146.70805097 1210.50749687 146.70805097 1206.39217401 C146.04805097 1206.39217401 145.38805097 1206.39217401 144.70805097 1206.39217401 C144.61652753 1207.22361932 144.52500409 1208.05506463 144.43070722 1208.91170526 C143.57419988 1213.03682978 142.05254476 1216.34826747 140.14555097 1220.07967401 C139.78840009 1220.78301873 139.43124921 1221.48636346 139.06327558 1222.21102166 C135.84215903 1228.39890031 132.111502 1233.97449241 127.70805097 1239.39217401 C127.0673869 1240.20815057 126.42672284 1241.02412713 125.76664472 1241.86483026 C110.39139075 1260.27428994 87.27984048 1271.98409447 63.70805097 1275.39217401 C49.41058151 1276.15668262 34.5069214 1276.62810633 20.70805097 1272.39217401 C20.07576581 1272.19881463 19.44348065 1272.00545526 18.79203534 1271.80623651 C2.58123576 1266.69202125 -10.27284394 1258.26904117 -22.29194903 1246.39217401 C-23.38249591 1245.40990838 -23.38249591 1245.40990838 -24.49507403 1244.40779901 C-39.8728839 1230.24084031 -50.50193256 1205.97282739 -51.38570441 1185.18711103 C-51.4254762 1182.61519783 -51.43349817 1180.04498657 -51.43061423 1177.47276425 C-51.43345645 1176.48543061 -51.43629867 1175.49809696 -51.43922701 1174.48084411 C-51.44756514 1171.16433745 -51.44884154 1167.84786576 -51.45016742 1164.53134942 C-51.45473336 1162.13292298 -51.45973344 1159.73449734 -51.46513098 1157.33607262 C-51.47587891 1152.11738185 -51.48355481 1146.89869581 -51.48852992 1141.67999673 C-51.49594434 1133.91999528 -51.50902943 1126.16001063 -51.52327567 1118.40001909 C-51.54708013 1105.34616017 -51.56628687 1092.29229827 -51.58287501 1079.23842835 C-51.59931483 1066.31310452 -51.61779708 1053.38778626 -51.63900828 1040.46246934 C-51.64032589 1039.65886938 -51.6416435 1038.85526943 -51.64300103 1038.02731796 C-51.6497031 1033.94625457 -51.65644167 1029.86519125 -51.66319429 1025.78412794 C-51.71095979 996.87654519 -51.75414411 967.96895724 -51.79463458 939.06136346 C-51.83398146 910.97770075 -51.87540326 882.89404236 -51.91963458 854.8103869 C-51.92099711 853.94475515 -51.92235964 853.0791234 -51.92376346 852.18726039 C-51.93744881 843.49424572 -51.95117635 834.8012311 -51.9649348 826.10821654 C-51.99296149 808.39947891 -52.02070659 790.69074084 -52.04828143 772.9820025 C-52.04954963 772.16777995 -52.05081783 771.35355741 -52.05212446 770.51466145 C-52.13678309 716.14050597 -52.21485711 661.76634067 -52.29194903 607.39217401 C-53.27904864 608.80369744 -53.27904864 608.80369744 -54.28608966 610.24373651 C-55.17323882 611.50170463 -56.06062112 612.75950836 -56.94819903 614.01717401 C-57.37906817 614.63463494 -57.80993731 615.25209588 -58.2538631 615.88826776 C-69.8206583 632.22797845 -84.34925535 640.50006183 -103.66694903 644.70467401 C-124.41766263 647.92087999 -144.21109585 642.79368444 -161.49507403 630.87264276 C-179.38088993 617.52081865 -190.21784759 600.19416874 -193.82004219 578.16222048 C-194.28541279 574.44439182 -194.4184535 570.89474253 -194.42058349 567.14955544 C-194.42233652 566.45156091 -194.42408956 565.75356637 -194.42589572 565.03442049 C-194.4305374 562.70197106 -194.42809494 560.36958447 -194.4256618 558.0371325 C-194.42753072 556.34521401 -194.42983175 554.65329595 -194.43252712 552.96137857 C-194.43864201 548.31642234 -194.43851188 543.67148412 -194.43733275 539.02652478 C-194.43712865 534.01464649 -194.44264854 529.00277397 -194.44739032 523.99089837 C-194.45569694 514.1709283 -194.45844521 504.35096422 -194.4590027 494.53099093 C-194.45947808 486.54361922 -194.46153395 478.55624949 -194.46470332 470.56887841 C-194.4735118 447.90742034 -194.47812268 425.245967 -194.47737285 402.5845072 C-194.47733289 401.36281459 -194.47729294 400.14112198 -194.47725177 398.88240838 C-194.47721089 397.6592175 -194.47717001 396.43602663 -194.47712789 395.17576936 C-194.4767219 375.37560487 -194.48627903 355.57545945 -194.50039013 335.77530047 C-194.51477547 315.42911249 -194.52165906 295.08293378 -194.52079636 274.73674059 C-194.52046502 263.3204217 -194.52318418 251.90412276 -194.53397441 240.48780847 C-194.54310806 230.76191473 -194.54523141 221.03604999 -194.53846499 211.31015381 C-194.53521351 206.35392891 -194.53509297 201.39775953 -194.54381824 196.44154 C-194.55174593 191.89121816 -194.55018865 187.34099528 -194.5415341 182.79067567 C-194.54001272 181.15731361 -194.54176288 179.52394393 -194.54739418 177.89059088 C-194.59824095 162.07629883 -193.51199969 146.34266537 -189.66694903 130.95467401 C-189.27998858 129.38290399 -189.27998858 129.38290399 -188.88521075 127.77938104 C-181.59561459 99.42521733 -166.9353499 74.89031658 -147.29194903 53.39217401 C-146.54429278 52.57233026 -145.79663653 51.75248651 -145.02632403 50.90779901 C-138.72645015 44.32793073 -131.57468723 38.8286125 -124.29194903 33.39217401 C-123.23878497 32.60584588 -122.18562091 31.81951776 -121.10054278 31.00936151 C-84.60450655 4.79068216 -43.75470736 -0.10132554 0 0 Z " fill="#FFFFFF" transform="translate(318.2919490337372,2099.6078259944916)"/>
<path d="M0 0 C2.56359559 2.06889699 2.56359559 2.06889699 5.5390625 3.99609375 C5.5390625 4.65609375 5.5390625 5.31609375 5.5390625 5.99609375 C6.3434375 6.33640625 6.3434375 6.33640625 7.1640625 6.68359375 C12.6252126 9.70159775 16.51583609 13.95430945 20.50390625 18.65234375 C22.85729789 21.36258364 25.32391214 23.94967218 27.7890625 26.55859375 C60.63911626 62.09730153 78.8436175 110.94082446 80.5390625 158.99609375 C80.6009375 160.70345703 80.6009375 160.70345703 80.6640625 162.4453125 C81.63728571 217.73655602 60.82382078 271.18369721 22.984375 311.33984375 C20.53160217 313.93993149 20.53160217 313.93993149 18.43359375 316.64453125 C16.75607737 318.72672684 15.13025554 320.39512328 13.1015625 322.12109375 C12.410625 322.71019531 11.7196875 323.29929687 11.0078125 323.90625 C10.193125 324.59589844 9.3784375 325.28554687 8.5390625 325.99609375 C7.50716954 326.88988323 6.47596369 327.78446639 5.4453125 328.6796875 C-0.60684123 333.90927048 -6.64006159 338.7872255 -13.4609375 342.99609375 C-14.83378906 343.87974609 -14.83378906 343.87974609 -16.234375 344.78125 C-51.96100195 367.41411317 -91.34871559 379.21385019 -133.6484375 379.24609375 C-134.44573273 379.24676849 -135.24302795 379.24744324 -136.06448364 379.24813843 C-185.57732828 379.18181468 -234.8096069 362.86183467 -272.4609375 329.99609375 C-273.20214844 329.36316406 -273.94335938 328.73023438 -274.70703125 328.078125 C-315.92936356 292.00012316 -341.65048809 244.49325564 -348.4609375 189.99609375 C-348.59242188 188.99449219 -348.72390625 187.99289062 -348.859375 186.9609375 C-354.64156659 132.6552192 -337.52505114 77.73327198 -304.015625 35.0703125 C-300.4575606 30.78866619 -296.72353051 26.70333531 -292.90625 22.65234375 C-290.45347717 20.05225601 -290.45347717 20.05225601 -288.35546875 17.34765625 C-286.67795237 15.26546066 -285.05213054 13.59706422 -283.0234375 11.87109375 C-282.32734375 11.278125 -281.63125 10.68515625 -280.9140625 10.07421875 C-280.10453125 9.3884375 -279.295 8.70265625 -278.4609375 7.99609375 C-277.48640625 7.1453125 -276.511875 6.29453125 -275.5078125 5.41796875 C-247.05705037 -19.29088068 -212.44018902 -35.8831907 -175.4609375 -43.00390625 C-174.65849609 -43.16616699 -173.85605469 -43.32842773 -173.02929688 -43.49560547 C-112.45501888 -55.30101081 -47.98033975 -37.95912955 0 0 Z " fill="#FFFFFF" transform="translate(590.4609375,1679.00390625)"/>
<path d="M0 0 C1.39874836 -0.00407775 2.79749613 -0.00835996 4.19624329 -0.01283264 C8.69594636 -0.02444462 13.1955993 -0.02300517 17.6953125 -0.01953125 C18.46075504 -0.01926437 19.22619759 -0.0189975 20.01483536 -0.01872253 C86.0534701 0.01029235 149.17005507 6.18043156 212.8203125 25.16796875 C213.69204102 25.42433105 214.56376953 25.68069336 215.46191406 25.94482422 C232.77306983 31.09527842 247.45291894 39.11543359 256.57421875 55.5234375 C263.61611872 70.46815937 264.07813407 84.41080332 259.8203125 100.16796875 C254.8030617 113.69203261 244.59221667 124.5664891 231.9453125 131.41796875 C230.5843917 132.03343391 229.20815959 132.61589698 227.8203125 133.16796875 C227.06878906 133.46703125 226.31726562 133.76609375 225.54296875 134.07421875 C212.44551441 138.43330987 198.11480068 137.02681454 185.18945312 132.91308594 C165.98314947 126.87252135 146.59145412 121.95368477 126.8203125 118.16796875 C125.80501465 117.97219238 124.7897168 117.77641602 123.74365234 117.57470703 C111.15301515 115.20789048 98.48562956 113.68692073 85.7265625 112.5859375 C84.96331161 112.52007446 84.20006073 112.45421143 83.41368103 112.38635254 C62.13266486 110.60147465 40.82565099 110.70262742 19.48510742 110.66265869 C13.90337756 110.651057 8.32194587 110.62741456 2.74034119 110.58796692 C0.18128978 110.57463413 -2.37733051 110.57851183 -4.93640137 110.58337402 C-22.62203573 110.52415316 -36.97567835 106.48594782 -50.1796875 94.16796875 C-62.20181402 81.49315235 -65.93021319 67.31551237 -65.5546875 50.296875 C-64.77365408 35.28150744 -57.21829267 23.41640901 -46.5546875 13.203125 C-32.91221083 1.51277903 -17.23524369 0.01593132 0 0 Z " fill="#FFFFFF" transform="translate(1959.1796875,2202.83203125)"/>
<path d="M0 0 C11.79707929 8.94611846 19.93544237 21.35361884 22.25 36.1328125 C23.51608862 57.22045254 17.34324816 71.78259443 4.48046875 88.2565918 C-28.80321453 131.21217686 -52.68740544 183.81180414 -65.8984375 236.4765625 C-66.07233505 237.1676561 -66.2462326 237.85874969 -66.42539978 238.57078552 C-67.24755189 241.86048231 -68.04218584 245.15189448 -68.80004883 248.45727539 C-73.03032221 266.08638937 -81.12044661 279.47778194 -96.75 289.1328125 C-97.38421875 289.53371094 -98.0184375 289.93460938 -98.671875 290.34765625 C-111.31611038 297.50731945 -126.53631409 297.40415803 -140.26171875 294.1640625 C-154.88725286 289.84027638 -166.91729335 279.83644971 -174.21875 266.4375 C-176.91457304 260.81075306 -179.03039711 255.34412167 -179.75 249.1328125 C-179.92789062 247.616875 -179.92789062 247.616875 -180.109375 246.0703125 C-181.44192551 222.28941111 -171.08751629 196.34630043 -163.75 174.1328125 C-163.41355469 173.10575195 -163.07710937 172.07869141 -162.73046875 171.02050781 C-146.37126273 121.40518676 -122.30502834 73.53318864 -91.75 31.1328125 C-91.19038574 30.35292969 -90.63077148 29.57304688 -90.05419922 28.76953125 C-77.01598188 10.65757068 -66.10514354 -3.87883818 -43.375 -9.44921875 C-27.85152194 -11.92096303 -12.98031848 -8.81334124 0 0 Z " fill="#FFFFFF" transform="translate(1383.75,1411.8671875)"/>
<path d="M0 0 C15.43562511 12.75484045 19.01110803 29.23837132 23.86865234 47.92724609 C33.98053479 86.13825364 49.60281578 122.73549048 69.85546875 156.65625 C70.39171875 157.55956055 70.92796875 158.46287109 71.48046875 159.39355469 C79.85619712 173.43195998 89.05476962 186.71209514 98.94140625 199.72265625 C110.0080945 214.36400694 115.07132557 227.01311209 113.85546875 245.65625 C111.56047828 261.50904129 103.24054884 274.27364201 90.81640625 284.046875 C77.95372596 292.66455162 63.49688359 295.24204697 48.29296875 292.90625 C24.4161513 287.99541521 11.9943973 270.47708462 -1.14453125 251.65625 C-1.68513184 250.88716309 -2.22573242 250.11807617 -2.78271484 249.32568359 C-40.52020388 195.5398308 -68.18039076 136.13465885 -85.14453125 72.65625 C-85.41700684 71.66415527 -85.68948242 70.67206055 -85.97021484 69.64990234 C-91.00168576 51.21587835 -93.13793375 33.65865846 -83.63671875 16.08984375 C-75.48067527 2.78823358 -64.16621529 -5.97380555 -49.14453125 -10.34375 C-31.72199658 -14.04159409 -14.31884571 -10.67243159 0 0 Z " fill="#FFFFFF" transform="translate(1295.14453125,1829.34375)"/>
<path d="M0 0 C3.53686247 2.81411232 6.79963027 5.81091905 10 9 C10.57621094 9.55300781 11.15242188 10.10601563 11.74609375 10.67578125 C22.5872679 22.02381549 24.57059945 37.11275319 24.3125 51.99609375 C21.68346221 126.64981262 0.43107516 204.1132751 -34.04833984 270.16162109 C-35.04871043 272.09409685 -36.01910075 274.0399969 -36.98828125 275.98828125 C-45.16766768 292.20393969 -55.74977533 301.87895254 -73 308 C-86.28216107 311.86550947 -103.01861695 309.90951249 -115.015625 303.3515625 C-117.76567305 301.66770955 -120.3882509 299.88962642 -123 298 C-124.051875 297.2575 -125.10375 296.515 -126.1875 295.75 C-137.50570841 284.68330733 -143.76546132 270.46044852 -144.3125 254.6875 C-143.98864143 243.61153687 -140.48976986 234.01200425 -135.5 224.25 C-134.41622555 222.05488631 -133.33557803 219.85822646 -132.2578125 217.66015625 C-131.71286133 216.5530127 -131.16791016 215.44586914 -130.60644531 214.30517578 C-108.38152126 168.57857671 -93.60390733 118.24683829 -89.0078125 67.55078125 C-88.881147 66.16172829 -88.881147 66.16172829 -88.75192261 64.74461365 C-88.33292175 60.10022424 -87.93533414 55.45530146 -87.56982422 50.80639648 C-86.35692166 36.11899465 -83.88360953 24.1854821 -75 12 C-74.56171875 11.36578125 -74.1234375 10.7315625 -73.671875 10.078125 C-56.87930965 -11.97476203 -22.12204919 -15.13095649 0 0 Z " fill="#FFFFFF" transform="translate(2542,2746)"/>
<path d="M0 0 C4.62749507 3.71555197 8.80089491 7.81320298 13 12 C14.67433375 13.6485852 16.3488239 15.29701157 18.0234375 16.9453125 C25.59469882 24.43782165 33.05734837 31.91727276 40 40 C41.45445517 41.60768373 42.91220895 43.21239715 44.375 44.8125 C49.10580648 50.06186031 53.56910697 55.49688766 58 61 C58.93702553 62.14491973 59.87454838 63.28943258 60.8125 64.43359375 C68.33132179 73.65285078 75.2908839 83.17836727 82 93 C82.6192334 93.90427734 83.2384668 94.80855469 83.87646484 95.74023438 C151.39972671 194.70104747 151.39972671 194.70104747 145.53515625 235.2109375 C142.34846121 249.57934944 134.69241631 261.78983268 122.625 270.375 C108.18679753 279.1392422 92.35228989 282.14651032 75.80078125 278.24609375 C59.51699743 273.262964 47.96518738 262.84785768 40 248 C38.25969333 244.35846789 36.68114752 240.66085601 35.125 236.9375 C34.25033194 234.89383113 33.37401781 232.85086601 32.49609375 230.80859375 C31.85776611 229.31948486 31.85776611 229.31948486 31.20654297 227.80029297 C18.67703059 198.72026323 1.99117843 171.2946334 -17 146 C-17.44972168 145.39720215 -17.89944336 144.7944043 -18.36279297 144.17333984 C-24.59287733 135.84375715 -31.20826715 127.87295153 -38 120 C-38.63808594 119.26007812 -39.27617187 118.52015625 -39.93359375 117.7578125 C-41.61122073 115.82834775 -43.30467255 113.91392656 -45 112 C-45.63518555 111.27635254 -46.27037109 110.55270508 -46.92480469 109.80712891 C-53.40419216 102.5003001 -60.30925538 95.69636681 -67.359375 88.94335938 C-74.78884297 81.66009814 -81.32131728 73.81508075 -84.375 63.6875 C-84.67148438 62.74261719 -84.96796875 61.79773437 -85.2734375 60.82421875 C-88.87361852 46.82996671 -87.44868845 32.16228652 -80.5 19.40234375 C-71.89380827 5.6189898 -59.96856978 -4.06581399 -44.0625 -7.8125 C-28.72337019 -10.70823648 -13.24331415 -8.7067375 0 0 Z " fill="#FFFFFF" transform="translate(2384,2350)"/>
<path d="M0 0 C5.65021636 4.93003964 10.93724945 10.11499545 14.921875 16.51171875 C15.48455078 17.40890625 15.48455078 17.40890625 16.05859375 18.32421875 C22.66708069 30.1163144 23.64712178 44.76254597 20.734375 57.76171875 C14.98650457 77.82604423 0.25750877 88.87876743 -16.078125 100.51171875 C-17.27665601 101.39109038 -18.47453384 102.27135272 -19.671875 103.15234375 C-31.08082739 111.46611847 -43.06784945 118.68415544 -55.23388672 125.82958984 C-57.615645 127.23820054 -59.97883251 128.66946668 -62.33203125 130.125 C-101.93499314 154.45224574 -146.6186522 171.65752904 -191.265625 184.07421875 C-192.00517426 184.28049896 -192.74472351 184.48677917 -193.50668335 184.6993103 C-214.56009164 190.52982473 -235.2540659 195.8589657 -255.890625 185.32421875 C-269.37894858 177.44376788 -279.43411742 165.47392244 -283.48828125 150.19140625 C-286.09661549 133.91954631 -284.39545813 118.80593786 -274.9140625 105.00390625 C-274.30820313 104.18148437 -273.70234375 103.3590625 -273.078125 102.51171875 C-272.29308594 101.43277344 -272.29308594 101.43277344 -271.4921875 100.33203125 C-262.82933045 89.47176656 -251.09929828 84.93108549 -238.078125 81.51171875 C-237.14693848 81.26631348 -236.21575195 81.0209082 -235.25634766 80.76806641 C-234.25522949 80.50429199 -233.25411133 80.24051758 -232.22265625 79.96875 C-190.45446693 68.9502071 -151.39801676 53.27251332 -114.078125 31.51171875 C-113.18883301 30.99673828 -112.29954102 30.48175781 -111.38330078 29.95117188 C-98.04953407 22.20946686 -85.36444773 13.79860426 -73.07421875 4.48828125 C-66.07486401 -0.79728467 -59.44954031 -5.55561984 -51.078125 -8.48828125 C-50.39234375 -8.730625 -49.7065625 -8.97296875 -49 -9.22265625 C-32.83972644 -13.78700832 -13.03684255 -10.53866587 0 0 Z " fill="#FFFFFF" transform="translate(2347.078125,3122.48828125)"/>
<path d="M0 0 C1.31097656 -0.02900391 2.62195312 -0.05800781 3.97265625 -0.08789062 C20.34308153 -0.19355871 32.96118976 4.85741101 44.8125 16.125 C54.61716777 26.44243169 60.66579893 39.88799295 60.5 54.3125 C59.48889491 70.63462501 53.88667463 84.92311221 41.95703125 96.328125 C28.78068912 106.96974948 15.09798873 109.57994866 -1.3387146 110.59121704 C-61.88423702 114.3816411 -120.1798774 129.46477799 -174.63232422 156.2734375 C-191.02723622 164.3339593 -206.69872618 166.80937686 -224.5 161.3125 C-239.73643356 154.90903305 -249.90834421 144.58327934 -256.8125 129.6875 C-262.18988782 115.0451756 -261.36297245 99.28302053 -254.96875 85.15625 C-238.41220635 53.09996337 -190.449975 40.3672008 -158.5 29.3125 C-157.40896973 28.93287109 -156.31793945 28.55324219 -155.19384766 28.16210938 C-105.77346667 11.15007968 -52.35954048 0.3861323 0 0 Z " fill="#FFFFFF" transform="translate(1722.5,1208.6875)"/>
<path d="M0 0 C52.64393478 24.72525946 110.02763591 38.96398708 168.14648438 41.36474609 C184.71603076 42.07344356 200.0851966 45.06415029 212.609375 56.8984375 C225.39131245 71.19953964 229.3854406 85.77260993 228.69042969 104.56542969 C227.96945427 114.73561361 223.3795079 122.92647821 217.515625 131.03125 C216.401875 132.6090625 216.401875 132.6090625 215.265625 134.21875 C203.84618547 145.89772225 189.96794474 151.98412008 173.765625 152.28125 C96.26055493 151.68367083 18.60729504 131.7048343 -51.23040771 98.72955322 C-53.04308794 97.87499977 -54.86153815 97.03271865 -56.68017578 96.19091797 C-67.03277704 91.20534268 -76.32908504 85.09650234 -82.421875 75.15625 C-82.78539062 74.56400635 -83.14890625 73.9717627 -83.5234375 73.36157227 C-91.07157504 60.67518316 -93.4770908 46.68794756 -90.765625 32.1875 C-86.66194774 16.96418113 -78.00066417 4.50866657 -64.484375 -3.96875 C-41.62621294 -15.75841932 -21.98447965 -10.36654196 0 0 Z " fill="#FFFFFF" transform="translate(1557.484375,2160.96875)"/>
<path d="M0 0 C1.40069973 -0.00573832 1.40069973 -0.00573832 2.82969642 -0.01159257 C5.93069215 -0.02183725 9.03149976 -0.01794671 12.13250732 -0.01396179 C14.36739776 -0.01831304 16.60228671 -0.02349757 18.83717346 -0.02944946 C24.88899809 -0.04280757 30.94076014 -0.04342158 36.99259663 -0.04088616 C42.05439749 -0.03981409 47.11618583 -0.04470596 52.177984 -0.04949158 C64.80856381 -0.06120921 77.43910548 -0.06036805 90.06968471 -0.05393478 C101.0106892 -0.04876969 111.95160453 -0.0600134 122.89259139 -0.07903299 C134.15468587 -0.09845908 145.41673945 -0.10636825 156.6788547 -0.10290974 C162.99043564 -0.10110157 169.30193496 -0.10368631 175.6135025 -0.11762428 C181.55287263 -0.1302501 187.49206515 -0.1282136 193.43143272 -0.11521339 C195.60251362 -0.11285825 197.7736072 -0.1155439 199.94467354 -0.12383652 C220.05347868 -0.19506321 237.71515583 1.45177576 253.03240967 15.8820343 C263.74194898 26.52203115 269.14286903 40.16660063 269.51043701 55.19819641 C269.34746178 71.0611189 263.28803436 83.57989289 252.60418701 94.94038391 C241.10383861 106.03000558 227.45515485 110.41666032 211.75627136 110.40113831 C210.81293302 110.40410943 209.86959468 110.40708055 208.89767033 110.41014171 C205.74050735 110.41880478 202.58338241 110.42033494 199.4262085 110.42182922 C197.16073018 110.42645915 194.89525264 110.43148405 192.629776 110.43687439 C186.47656239 110.44998502 180.3233597 110.45644095 174.17013431 110.46088505 C170.32297097 110.46381841 166.4758106 110.46792375 162.62864876 110.47238922 C151.9629586 110.48449594 141.29727207 110.49487827 130.63157558 110.49826431 C129.94957081 110.49848388 129.26756603 110.49870344 128.56489444 110.49892966 C127.88131608 110.49914794 127.19773772 110.49936622 126.49344486 110.49959111 C125.10840253 110.50003457 123.7233602 110.50048113 122.33831787 110.50093079 C121.65129829 110.50115222 120.96427871 110.50137365 120.25644035 110.50160179 C109.13668177 110.50554561 98.01698888 110.52298816 86.89725565 110.54629031 C75.46240082 110.57005798 64.02759366 110.58221116 52.59271103 110.58363223 C46.17993222 110.58467844 39.76724608 110.59054698 33.35449028 110.60845184 C27.31751493 110.62497958 21.28070144 110.62706515 15.24371147 110.61831284 C13.03512131 110.61754494 10.82652228 110.62185237 8.61795425 110.63177109 C-11.21637511 110.7155812 -28.48641109 109.13291274 -43.55206299 94.67085266 C-55.69856105 81.65976012 -59.33954669 67.6463479 -59.07550049 50.35835266 C-58.57862797 37.01904745 -52.36464353 26.20840028 -43.80206299 16.26069641 C-30.92823304 4.93793031 -16.98090471 -0.07529349 0 0 Z " fill="#FFFFFF" transform="translate(1951.8020629882813,1207.7393035888672)"/>
<path d="M0 0 C1.44435252 -0.00551503 1.44435252 -0.00551503 2.91788387 -0.01114148 C6.147247 -0.02216206 9.37657793 -0.02601944 12.60595703 -0.02983093 C14.92054852 -0.03609689 17.23513901 -0.0427438 19.54972839 -0.04974365 C27.15440166 -0.07077346 34.7590751 -0.0811461 42.36376953 -0.09111023 C44.98387665 -0.0951584 47.60398367 -0.09927534 50.22409058 -0.10346031 C61.12564328 -0.12032836 72.02719308 -0.13496214 82.92875671 -0.14220905 C85.75556439 -0.14411876 88.58237205 -0.14603912 91.40917969 -0.147995 C92.11171785 -0.14847874 92.814256 -0.14896248 93.5380832 -0.14946087 C104.90688678 -0.15775293 116.27558486 -0.18307692 127.64434242 -0.21557567 C139.33228384 -0.24871275 151.02017178 -0.26666386 162.7081604 -0.26985329 C169.26406786 -0.27220066 175.81980854 -0.28112055 182.37567139 -0.30631447 C188.54809347 -0.32965145 194.72023965 -0.33380561 200.89269447 -0.32355309 C203.15127799 -0.32305896 205.40987536 -0.32934267 207.66841698 -0.34310913 C226.74529638 -0.45282974 242.89551453 1.65877618 257.36376953 15.52217102 C268.30868472 27.27708896 273.80111821 40.96016027 273.48876953 57.14717102 C272.61364617 70.30472749 268.27548978 81.31441265 259.48876953 91.14717102 C258.95509766 91.76205383 258.42142578 92.37693665 257.87158203 93.01045227 C248.82770179 102.76832305 236.82365135 108.78064275 223.53144836 109.51461792 C217.44809553 109.71792589 211.36566751 109.68856559 205.27978516 109.66474915 C202.94430608 109.67017685 200.60883043 109.67730314 198.27336121 109.68598938 C191.96138979 109.70414827 185.64968134 109.69718583 179.33770561 109.68447304 C173.38729278 109.67533916 167.43691167 109.68233058 161.48649794 109.68818182 C148.98329702 109.69955876 136.48021385 109.68651943 123.97703224 109.66498035 C113.27369175 109.64711196 102.57052486 109.65021688 91.8671875 109.6686554 C79.40545662 109.69011335 66.94382867 109.69846039 54.48208189 109.68620634 C47.89725805 109.67998805 41.31255349 109.67908998 34.72773743 109.69235229 C28.53547141 109.70395407 22.34353143 109.69580585 16.15130043 109.67277527 C13.88627474 109.6675113 11.62122135 109.66896204 9.35620689 109.67782593 C-9.68016601 109.74542292 -25.05123263 107.55020834 -39.63623047 94.11201477 C-50.35240813 82.8823536 -56.17498676 67.76354236 -55.82373047 52.26435852 C-54.38929092 37.95582407 -49.33624986 24.01646798 -38.51123047 14.14717102 C-26.66325881 4.70017905 -15.177672 -0.00311352 0 0 Z " fill="#FFFFFF" transform="translate(1247.51123046875,3216.852828979492)"/>
<path d="M0 0 C2.31901883 -0.00378833 4.63803539 -0.00929258 6.95704651 -0.01637268 C13.22344153 -0.03027582 19.48956041 -0.0191942 25.75593996 -0.00266147 C32.32910635 0.01124021 38.90225754 0.00472326 45.47543335 0.00120544 C56.50921892 -0.00222086 67.54290141 0.01185379 78.57666016 0.03515625 C89.90775599 0.05908365 101.23870766 0.06615432 112.56982422 0.05566406 C126.25934605 0.04301295 139.94876684 0.04556588 153.63828659 0.06132317 C158.8541253 0.0670684 164.06991577 0.06701182 169.28575516 0.06225777 C175.43036833 0.05747228 181.574783 0.06765491 187.71935844 0.08921242 C189.96909732 0.09475854 192.21885536 0.09526567 194.4685955 0.09025955 C216.23163837 0.04791872 216.23163837 0.04791872 224.94287109 3.50170898 C226.03599609 3.91549805 227.12912109 4.32928711 228.25537109 4.75561523 C242.0655993 11.48007228 251.46115551 21.6338661 257.32177734 35.84545898 C262.31574528 51.01876922 260.90551712 65.98230718 254.44287109 80.43920898 C247.75822321 93.07122741 237.19582501 102.76408515 223.53149021 107.30263954 C217.1171531 109.15955872 211.33269726 109.9346139 204.67214966 109.88938904 C203.21398199 109.89746734 203.21398199 109.89746734 201.72635639 109.90570885 C198.50168312 109.91990122 195.27742543 109.9129063 192.05273438 109.90576172 C189.72740349 109.91146985 187.40207541 109.91843582 185.07675171 109.92655945 C178.78330188 109.94445718 172.48999175 109.94332875 166.19652414 109.93761706 C160.26620314 109.93412774 154.33590323 109.94209696 148.40558682 109.94897772 C135.94200109 109.96267877 123.47847827 109.95728204 111.01489399 109.9457925 C99.63675998 109.93586339 88.25878867 109.94879944 76.88067974 109.9727267 C65.16993333 109.99716606 53.45926255 110.00671367 41.74849117 110.00007397 C35.18486755 109.99671 28.6213783 109.99908239 22.05777359 110.016325 C15.88360427 110.0318376 9.70974459 110.02779042 3.53558731 110.00901985 C1.27700864 110.00534591 -0.98159319 110.00840734 -3.24015045 110.01890564 C-23.416984 110.10549143 -38.49030431 107.26763408 -53.73291016 92.98217773 C-64.95427454 81.00643591 -68.51634643 66.74751975 -68.26806641 50.79467773 C-67.7845761 37.12264639 -61.26093293 24.77124295 -51.88525391 15.04467773 C-36.29294489 1.02452142 -19.98411305 -0.09329464 0 0 Z " fill="#FFFFFF" transform="translate(824.05712890625,3216.498291015625)"/>
<path d="M0 0 C0.96943936 -0.00467997 1.93887872 -0.00935994 2.93769503 -0.01418173 C6.15322753 -0.0260507 9.36832741 -0.0167063 12.5838623 -0.00723267 C14.90258531 -0.01130196 17.22130638 -0.01664585 19.5400238 -0.02316284 C25.81475295 -0.03679955 32.08933354 -0.03155278 38.36406517 -0.02202559 C44.94258386 -0.01441013 51.52109016 -0.02147984 58.09960938 -0.02618408 C69.85206586 -0.03258357 81.60446006 -0.02268429 93.35690576 -0.00740607 C103.99492852 0.00599566 114.63285304 0.00366711 125.27087402 -0.01016235 C137.64905854 -0.02624669 150.0271805 -0.03217711 162.40537405 -0.02332556 C168.94878592 -0.01865768 175.49213024 -0.01799989 182.03553772 -0.02793503 C188.18832164 -0.03662515 194.34092073 -0.03054524 200.49368477 -0.01325226 C202.74665076 -0.00929837 204.9996324 -0.01040257 207.25259209 -0.01704025 C210.3377915 -0.02528923 213.4224058 -0.01489363 216.50756836 0 C217.83148362 -0.01003825 217.83148362 -0.01003825 219.18214464 -0.02027929 C234.6598419 0.1237534 247.723478 6.79648048 258.75378418 17.38095093 C269.25200667 28.96827473 273.2352411 43.10472049 272.96472168 58.46688843 C272.13106515 73.93584854 265.09416176 87.00606004 253.75378418 97.38095093 C242.78538946 105.79892005 231.85975825 109.53091107 218.20458984 109.52812195 C217.23760461 109.53179864 216.27061938 109.53547532 215.27433157 109.53926343 C212.03114893 109.55028435 208.78799835 109.55414144 205.5447998 109.55795288 C203.22035623 109.56421881 200.89591365 109.57086572 198.57147217 109.5778656 C190.93433325 109.59889569 183.29719416 109.60926806 175.66003418 109.61923218 C173.02878306 109.62328034 170.39753204 109.62739728 167.76628113 109.63158226 C156.81840559 109.64845034 145.87053211 109.66308413 134.92264557 109.670331 C132.08380634 109.67224071 129.24496712 109.67416107 126.40612793 109.67611694 C125.70059916 109.67660068 124.99507038 109.67708442 124.26816195 109.67758282 C112.85085964 109.68587495 101.43366237 109.71119905 90.01640588 109.74369762 C78.27874392 109.77683413 66.54113522 109.79478575 54.80342627 109.79797524 C48.21957343 109.80032267 41.63588666 109.80924326 35.05207825 109.83443642 C28.85339168 109.85777251 22.65497985 109.86192791 16.45626068 109.85167503 C14.18800186 109.85118089 11.91972925 109.85746522 9.65151215 109.87123108 C-10.42949345 109.9862297 -25.56816242 107.37072162 -40.66418457 93.11923218 C-52.03653814 81.05868777 -55.70829541 66.8106592 -55.45715332 50.67391968 C-54.96234716 36.681901 -48.14482807 23.94036209 -38.37121582 14.15048218 C-27.7402029 4.27057343 -14.34534727 -0.10876991 0 0 Z " fill="#FFFFFF" transform="translate(1683.2462158203125,3216.6190490722656)"/>
<path d="M0 0 C1.34835082 -0.00435839 2.69669918 -0.00954525 4.04504395 -0.01548767 C7.67541048 -0.02876905 11.30567222 -0.0294685 14.93605828 -0.02692437 C17.98231138 -0.02584705 21.02854392 -0.03075741 24.07479256 -0.03552979 C31.27041802 -0.04658782 38.46599127 -0.04708359 45.66162109 -0.04101562 C53.04897066 -0.0349811 60.43612952 -0.04728209 67.82344657 -0.06858569 C74.19836894 -0.08628391 80.57323105 -0.09219011 86.94817704 -0.08894795 C90.74129984 -0.08714771 94.53428663 -0.08964361 98.32738686 -0.10366249 C101.8988712 -0.11637078 105.47006148 -0.11417615 109.04154205 -0.1012516 C110.95197337 -0.097813 112.86241424 -0.10896767 114.77281189 -0.12081909 C131.81220178 -0.01891954 146.54654699 4.02533251 159.0300293 15.98950195 C169.49450399 26.9406964 175.20342529 40.06772048 175.58862305 55.2746582 C175.16025635 71.51689536 168.91441367 85.06058932 157.21362305 96.2746582 C144.21795855 108.13522901 130.21379202 110.58229829 113.1418457 110.54931641 C111.75098906 110.55367288 110.36013482 110.55885912 108.96928406 110.56480408 C105.21916266 110.57810488 101.4691426 110.57878277 97.71900225 110.57624078 C94.57568324 110.57516496 91.43238422 110.58006995 88.28906953 110.5848462 C80.86676983 110.59591057 73.44452074 110.59639616 66.0222168 110.59033203 C58.39343488 110.58429456 50.76483751 110.59660451 43.13608706 110.6179021 C36.55994426 110.63557849 29.98385988 110.64150998 23.40769422 110.63826436 C19.49166103 110.63646094 15.57575951 110.63899276 11.65974808 110.6529789 C7.97419821 110.66565147 4.28893385 110.66352525 0.60338783 110.65056801 C-1.37423336 110.64711509 -3.35186366 110.6583103 -5.32945251 110.6701355 C-21.60032348 110.57544375 -35.66706358 106.03120952 -47.53637695 94.6184082 C-59.09748037 82.57559215 -64.38656534 68.68243605 -64.09887695 52.0324707 C-62.7828277 36.20697838 -56.08434934 24.1345832 -44.78637695 13.2746582 C-31.42069396 2.12593061 -16.94880238 -0.03391125 0 0 Z " fill="#FFFFFF" transform="translate(2391.786376953125,1207.725341796875)"/>
</svg>
