<?xml version="1.0" standalone="no"?>
<!DOCTYPE svg PUBLIC "-//W3C//DTD SVG 20010904//EN"
 "http://www.w3.org/TR/2001/REC-SVG-20010904/DTD/svg10.dtd">
<svg version="1.0" xmlns="http://www.w3.org/2000/svg"
 width="3375.000000pt" height="3375.000000pt" viewBox="0 0 3375.000000 3375.000000"
 preserveAspectRatio="xMidYMid meet">

<g transform="translate(0.000000,3375.000000) scale(0.100000,-0.100000)"
fill="#000000" stroke="none">
<path d="M27349 33746 c-2 -2 -53 -6 -114 -10 -220 -13 -534 -62 -780 -121
-1554 -375 -2820 -1475 -3413 -2965 -137 -344 -238 -725 -291 -1095 -40 -279
-46 -365 -45 -720 0 -377 16 -580 69 -909 171 -1058 602 -2133 1318 -3281 744
-1194 1866 -2506 3067 -3584 179 -161 427 -371 437 -371 13 0 186 146 398 335
1251 1114 2392 2453 3168 3716 254 413 567 1013 732 1404 336 792 521 1512
586 2280 18 211 15 677 -5 877 -65 645 -220 1186 -501 1743 -250 496 -521 871
-915 1265 -288 289 -540 490 -887 708 -174 109 -589 317 -788 395 -379 148
-807 255 -1205 301 -74 8 -155 18 -180 21 -52 6 -645 17 -651 11z m543 -2960
c393 -60 769 -245 1055 -519 317 -302 514 -678 589 -1122 25 -142 25 -443 0
-589 -51 -312 -168 -598 -344 -845 -79 -111 -253 -296 -361 -383 -238 -192
-515 -326 -812 -392 -156 -34 -249 -44 -424 -44 -232 0 -409 29 -620 99 -687
231 -1190 823 -1311 1544 -22 129 -29 379 -15 510 26 234 82 436 177 635 298
622 862 1030 1544 1115 133 17 382 12 522 -9z"/>
<path d="M17080 21652 c-131 -7 -386 -37 -545 -64 -533 -89 -1016 -242 -1491
-473 -165 -80 -200 -102 -251 -152 -136 -133 -196 -319 -159 -493 55 -263 268
-439 531 -440 107 0 164 16 325 93 553 265 1129 416 1680 443 169 8 252 24
338 66 130 64 251 216 282 354 14 63 14 197 0 259 -45 197 -227 369 -429 405
-56 10 -135 11 -281 2z"/>
<path d="M19302 21635 c-225 -72 -376 -279 -376 -515 0 -246 157 -452 399
-527 57 -17 123 -18 1230 -18 l1170 0 70 22 c227 72 376 257 392 488 7 98 -20
218 -69 303 -44 79 -142 173 -220 211 -129 64 -60 61 -1348 60 l-1175 0 -73
-24z"/>
<path d="M23681 21644 c-231 -62 -401 -284 -401 -524 0 -248 175 -469 420
-531 44 -11 193 -14 770 -14 710 0 716 0 785 22 178 56 308 181 367 351 33 97
32 259 -3 352 -65 173 -204 300 -375 344 -54 14 -156 16 -785 15 -599 0 -733
-3 -778 -15z"/>
<path d="M13353 19705 c-162 -45 -243 -121 -447 -415 -382 -550 -657 -1157
-822 -1810 -60 -241 -56 -373 18 -514 69 -130 223 -247 365 -276 81 -17 225
-8 298 18 120 44 236 143 294 252 20 37 52 136 86 267 88 338 176 578 315 861
123 252 268 489 431 708 79 107 123 192 140 273 16 78 6 222 -20 296 -51 145
-174 269 -323 327 -70 28 -258 35 -335 13z"/>
<path d="M4390 17413 c-515 -45 -983 -261 -1343 -616 -505 -501 -722 -1210
-586 -1915 51 -264 182 -572 337 -792 364 -516 924 -844 1552 -909 147 -15
415 -6 555 18 359 63 675 199 957 412 110 83 327 302 410 414 133 179 244 387
311 586 226 666 111 1387 -312 1957 -139 187 -408 429 -610 548 -381 226 -846
334 -1271 297z"/>
<path d="M12520 15561 c-260 -35 -453 -245 -467 -506 -5 -103 9 -177 83 -440
186 -651 515 -1303 927 -1832 140 -181 271 -253 462 -253 154 0 277 51 387
161 123 124 176 285 150 461 -16 109 -50 177 -162 328 -360 481 -591 961 -751
1559 -58 215 -90 283 -174 366 -119 119 -291 178 -455 156z"/>
<path d="M2833 12738 c-744 -49 -1384 -603 -1543 -1336 -40 -186 -41 -232 -38
-2382 3 -2337 -5 -2107 83 -2286 72 -148 189 -262 350 -342 206 -103 354 -113
585 -40 93 29 168 78 241 156 60 62 131 159 145 196 3 9 10 16 15 16 5 0 10
-1257 11 -2952 l3 -2953 27 -86 c38 -122 70 -190 133 -285 279 -419 830 -563
1285 -334 98 49 176 108 265 201 96 100 167 210 211 328 25 67 34 82 40 66 4
-11 17 -46 30 -79 171 -431 638 -691 1097 -611 404 70 726 381 808 780 18 86
19 204 19 3010 1 2264 4 2916 13 2901 148 -240 233 -312 437 -367 71 -20 109
-24 235 -23 175 0 233 12 370 79 202 98 348 272 417 495 l23 75 3 2085 c3
2247 4 2198 -48 2402 -52 200 -148 409 -268 578 -86 121 -271 306 -389 390
-236 166 -509 275 -778 310 -100 12 -3598 20 -3782 8z"/>
<path d="M15063 12225 c-137 -37 -276 -147 -340 -271 -109 -207 -75 -459 84
-626 72 -75 120 -105 305 -190 516 -238 1063 -397 1611 -468 315 -40 608 -53
702 -29 201 49 364 214 406 409 19 88 7 243 -25 320 -66 162 -218 293 -381
328 -27 6 -131 16 -230 22 -597 36 -1119 168 -1656 421 -80 38 -172 75 -204
84 -73 19 -202 18 -272 0z"/>
<path d="M19343 11695 c-179 -50 -330 -194 -384 -364 -27 -86 -29 -222 -5
-306 44 -150 146 -274 277 -339 125 -61 162 -65 644 -67 237 -1 475 -6 530
-10 357 -32 674 -95 1010 -199 158 -49 242 -58 345 -36 194 41 345 175 411
366 31 91 32 228 1 325 -43 140 -152 266 -285 329 -227 107 -889 255 -1312
292 -44 3 -91 9 -105 11 -14 2 -261 6 -550 9 -439 3 -534 1 -577 -11z"/>
<path d="M23365 10312 c-223 -66 -377 -260 -392 -492 -6 -100 10 -180 58 -279
24 -49 67 -100 194 -231 194 -201 301 -323 427 -490 219 -290 391 -586 548
-945 31 -71 68 -149 83 -171 67 -107 215 -207 344 -234 75 -16 211 -7 285 19
264 92 417 367 354 636 -29 123 -209 505 -360 768 -246 427 -522 790 -885
1160 -214 218 -302 267 -491 273 -80 3 -119 -1 -165 -14z"/>
<path d="M25019 6368 c-203 -25 -385 -185 -443 -388 -9 -30 -20 -118 -26 -195
-45 -605 -202 -1180 -466 -1708 -97 -192 -118 -286 -95 -424 32 -189 158 -342
346 -419 64 -26 80 -29 190 -28 101 0 130 4 180 24 143 55 238 143 317 293
325 619 534 1329 603 2051 19 201 19 316 0 389 -45 174 -184 325 -350 382 -63
21 -183 32 -256 23z"/>
<path d="M23010 2615 c-89 -20 -150 -54 -322 -177 -208 -150 -384 -258 -603
-368 -319 -161 -570 -257 -925 -350 -225 -59 -287 -89 -374 -176 -173 -172
-210 -428 -93 -648 41 -78 140 -174 219 -214 153 -78 259 -82 520 -16 687 172
1380 503 1953 932 132 98 176 146 224 239 80 159 80 336 0 495 -35 69 -122
165 -189 208 -114 73 -281 103 -410 75z"/>
<path d="M7994 1565 c-147 -32 -292 -141 -361 -271 -113 -212 -75 -472 92
-640 75 -75 150 -118 251 -144 75 -19 113 -20 1224 -20 1118 0 1149 1 1226 20
192 49 340 201 390 400 21 84 14 221 -15 305 -61 172 -221 313 -398 350 -96
21 -2315 21 -2409 0z"/>
<path d="M12350 1564 c-181 -39 -332 -172 -396 -350 -109 -298 76 -635 387
-709 55 -13 223 -15 1205 -15 771 0 1160 3 1200 11 184 33 358 188 415 368 24
77 29 230 9 301 -39 142 -154 284 -280 348 -127 63 -89 62 -1340 61 -937 0
-1146 -3 -1200 -15z"/>
<path d="M16696 1564 c-190 -46 -344 -194 -400 -384 -24 -79 -22 -218 3 -300
57 -185 207 -327 396 -375 51 -13 212 -15 1205 -15 934 0 1157 3 1210 14 183
39 331 167 399 346 21 56 25 82 25 185 0 106 -3 128 -27 188 -71 181 -236 319
-417 347 -41 6 -483 10 -1200 9 -947 -1 -1145 -3 -1194 -15z"/>
</g>
</svg>
