<?xml version="1.0" standalone="no"?>
<!DOCTYPE svg PUBLIC "-//W3C//DTD SVG 20010904//EN"
 "http://www.w3.org/TR/2001/REC-SVG-20010904/DTD/svg10.dtd">
<svg version="1.0" xmlns="http://www.w3.org/2000/svg"
 width="3375.000000pt" height="3375.000000pt" viewBox="0 0 3375.000000 3375.000000"
 preserveAspectRatio="xMidYMid meet">

<g transform="translate(0.000000,3375.000000) scale(0.100000,-0.100000)"
fill="#000000" stroke="none">
<path d="M16320 33739 c-2135 -67 -4248 -543 -6200 -1397 -596 -261 -1261
-602 -1823 -934 -1506 -889 -2879 -2022 -4047 -3338 -1928 -2171 -3257 -4788
-3869 -7620 -507 -2343 -507 -4807 0 -7150 813 -3761 2882 -7114 5894 -9554
2043 -1655 4450 -2808 7025 -3365 2342 -507 4807 -507 7150 0 3630 785 6886
2742 9306 5594 1603 1888 2776 4125 3417 6515 769 2863 769 5907 0 8770 -847
3158 -2612 6019 -5058 8199 -1351 1205 -2843 2163 -4485 2883 -2288 1002
-4769 1476 -7310 1397z m1160 -1299 c973 -42 1832 -151 2728 -346 1857 -404
3602 -1139 5221 -2198 1192 -781 2324 -1777 3274 -2883 2110 -2458 3399 -5507
3687 -8725 49 -554 55 -691 55 -1413 0 -722 -6 -859 -55 -1413 -310 -3459
-1780 -6726 -4166 -9258 -1447 -1534 -3157 -2745 -5069 -3589 -1538 -678
-3191 -1105 -4867 -1255 -554 -49 -691 -55 -1413 -55 -722 0 -859 6 -1413 55
-3720 333 -7199 2002 -9799 4702 -2395 2486 -3880 5635 -4268 9053 -74 653
-90 963 -90 1760 0 707 5 842 50 1365 232 2695 1181 5313 2730 7531 1291 1847
2945 3382 4882 4528 498 294 1135 620 1668 853 1767 773 3635 1202 5600 1287
266 12 987 12 1245 1z"/>
<path d="M16300 31844 c-1788 -72 -3522 -450 -5140 -1119 -2895 -1199 -5351
-3280 -7007 -5940 -1234 -1983 -1978 -4196 -2192 -6525 -49 -527 -56 -695 -56
-1385 0 -769 19 -1118 96 -1775 438 -3754 2322 -7244 5229 -9686 2816 -2366
6339 -3603 10005 -3513 1510 37 2931 282 4355 753 2485 820 4742 2309 6491
4281 1662 1875 2828 4130 3388 6555 185 802 294 1554 358 2470 25 367 25 1463
0 1830 -83 1198 -254 2187 -562 3254 -779 2701 -2338 5167 -4450 7037 -1881
1666 -4129 2828 -6557 3389 -797 184 -1555 294 -2453 356 -216 15 -1269 27
-1505 18z m3475 -4564 c674 -37 1287 -152 1869 -350 458 -156 959 -404 1361
-673 1031 -689 1786 -1689 2214 -2932 424 -1229 497 -2829 190 -4173 -358
-1567 -1235 -2848 -2499 -3649 -814 -516 -1758 -828 -2800 -927 -350 -34 -529
-36 -3217 -36 l-2703 0 0 -4040 0 -4040 -1465 0 -1465 0 0 10415 0 10415 4163
0 c2718 0 4228 -4 4352 -10z"/>
<path d="M14190 20915 l0 -3595 2713 0 c1783 0 2753 4 2832 11 737 63 1348
332 1838 809 669 649 1027 1614 1027 2765 0 1418 -541 2548 -1512 3161 -340
214 -722 349 -1198 421 -107 16 -310 17 -2907 20 l-2793 3 0 -3595z"/>
</g>
</svg>
