<?xml version="1.0" encoding="UTF-8"?>
<svg version="1.1" xmlns="http://www.w3.org/2000/svg" width="3375" height="3375">
<path d="M0 0 C4.88179944 0.0081985 9.76357414 -0.00140011 14.64537091 -0.00851054 C23.19956716 -0.01860483 31.75370586 -0.01775681 40.30790324 -0.00945991 C53.11384449 0.00290434 65.91973974 -0.00224533 78.72568213 -0.01060784 C100.55941677 -0.0243606 122.3931319 -0.02400145 144.22686823 -0.0157652 C166.33690619 -0.0074698 188.44693044 -0.00575807 210.55696924 -0.01197721 C211.25596737 -0.01217075 211.95496551 -0.01236429 212.67514541 -0.0125637 C219.08164758 -0.01433848 225.48814973 -0.01618021 231.89465186 -0.01810233 C247.95542173 -0.02291319 264.01619177 -0.0266819 280.07696207 -0.02974345 C280.81270504 -0.02988415 281.54844802 -0.03002485 282.30648624 -0.03016982 C318.52385825 -0.03699673 354.74122779 -0.03240181 390.95859964 -0.02665998 C392.54398596 -0.02640907 394.12937229 -0.02615817 395.71475861 -0.02590729 C396.50048856 -0.02578293 397.2862185 -0.02565856 398.09575844 -0.02553042 C408.45835259 -0.02389074 418.82094673 -0.0222809 429.18354089 -0.02075054 C430.37181039 -0.02057431 430.37181039 -0.02057431 431.58408534 -0.02039453 C468.33426482 -0.01498501 505.08444308 -0.01627828 541.83462274 -0.0190419 C545.84671997 -0.0193413 549.85881721 -0.01962779 553.87091445 -0.01991573 C565.96456824 -0.02078754 578.05822203 -0.02167837 590.15187581 -0.02260853 C627.02809878 -0.02544178 663.90432176 -0.02724275 700.78054483 -0.02815343 C701.60154203 -0.02817404 702.42253923 -0.02819464 703.26841513 -0.02821587 C756.4188111 -0.02953162 809.56920568 -0.0262322 862.71960123 -0.0196047 C863.56779069 -0.01949934 864.41598014 -0.01939399 865.28987231 -0.01928544 C893.69800383 -0.01575663 922.1061353 -0.01198831 950.51426678 -0.00819555 C1036.41425272 0.00326516 1122.31423375 0.00954653 1275.72279031 -0.00854154 C1304.12383705 -0.01233132 1332.5248838 -0.01607696 1360.92593057 -0.0196047 C1362.19785966 -0.0197633 1362.19785966 -0.0197633 1363.49548428 -0.0199251 C1416.61865203 -0.02654352 1469.74181882 -0.02948671 1522.86498697 -0.02815343 C1524.09606849 -0.02812303 1524.09606849 -0.02812303 1525.35202034 -0.02809201 C1562.20794682 -0.02717175 1599.06387319 -0.02525662 1635.91979957 -0.02242192 C1648.00803629 -0.02149333 1660.09627302 -0.02061031 1672.18450975 -0.01974278 C1676.1942903 -0.0194548 1680.20407085 -0.01916274 1684.2138514 -0.0188612 C1720.96323185 -0.01610606 1757.71261066 -0.01530047 1794.46199091 -0.02075054 C1795.64950336 -0.02092591 1795.64950336 -0.02092591 1796.86100597 -0.02110483 C1807.21759505 -0.02264007 1817.57418412 -0.02426802 1827.93077319 -0.02590729 C1828.7158787 -0.02603153 1829.50098421 -0.02615577 1830.3098808 -0.02628378 C1831.89381877 -0.02653446 1833.47775675 -0.02678535 1835.06169472 -0.02703647 C1871.230654 -0.03275569 1907.39961036 -0.03666043 1943.56856973 -0.02974345 C1944.67072267 -0.02953335 1944.67072267 -0.02953335 1945.79514132 -0.02931901 C1961.83002645 -0.02622768 1977.86491126 -0.0222685 1993.89979596 -0.0174576 C2000.29605147 -0.01555009 2006.69230701 -0.01374823 2013.08856256 -0.01197721 C2014.13510157 -0.01168284 2014.13510157 -0.01168284 2015.20278279 -0.01138252 C2037.28170001 -0.00522104 2059.36060305 -0.00819879 2081.43951921 -0.01652752 C2103.8072994 -0.02492314 2126.17505527 -0.02284852 2148.54283274 -0.00824196 C2161.25009118 -0.00025967 2173.95728571 -0.00036172 2186.66454104 -0.01268675 C2195.12230579 -0.02006124 2203.58002117 -0.01640508 2212.03778 -0.00408619 C2216.82023781 0.00258067 2221.60256915 0.004874 2226.38502091 -0.00653574 C2283.34034712 -0.13269694 2339.35762272 7.40733719 2393.8227659 24.38222598 C2394.91105692 24.71802676 2395.99934793 25.05382754 2397.12061746 25.3998041 C2426.44492689 34.53602111 2454.42931973 46.56568239 2481.8227659 60.38222598 C2483.29374735 61.12085879 2483.29374735 61.12085879 2484.79444559 61.87441348 C2518.40459514 78.83763988 2550.12344112 99.90590873 2579.08301981 123.9466791 C2580.63394182 125.22641829 2582.20185737 126.48549915 2583.77198465 127.74160098 C2589.65862959 132.45091693 2595.2208994 137.43330109 2600.70216043 142.6029291 C2603.60131577 145.33615098 2606.53135727 148.00425629 2609.5571409 150.59706973 C2614.39580401 154.80611946 2618.91869325 159.32780185 2623.4411741 163.87026309 C2624.88301811 165.31746983 2626.33013706 166.75924624 2627.77784402 168.20058535 C2633.00617728 173.42516969 2638.01952907 178.76507357 2642.8227659 184.38222598 C2644.27722107 185.9899097 2645.73497485 187.59462312 2647.1977659 189.19472598 C2651.92852683 194.44403574 2656.39273642 199.87846543 2660.8227659 205.38222598 C2661.74814998 206.51536295 2662.67394983 207.64816046 2663.60010965 208.78066348 C2698.18502951 251.26922764 2726.33434836 300.23769924 2746.0180784 351.34316348 C2746.73658902 353.16385545 2747.51046604 354.96247311 2748.2915159 356.75722598 C2776.2066105 422.84193973 2785.39016878 495.45969671 2785.18562181 566.61661099 C2785.17449341 571.67946136 2785.18117204 576.74229725 2785.18540628 581.80515383 C2785.19097365 591.65892207 2785.18085731 601.51261093 2785.16511832 611.36636567 C2785.14741665 622.85682609 2785.14615583 634.347272 2785.14550273 645.83774391 C2785.1438239 666.32361688 2785.12811177 686.80945405 2785.1040159 707.29531191 C2785.08066299 727.16413005 2785.0665756 747.03292548 2785.06300027 766.90175723 C2785.06266612 768.7452787 2785.06266612 768.7452787 2785.06232522 770.62604302 C2785.06188261 773.10204502 2785.06144059 775.57804702 2785.06099915 778.05404902 C2785.06077959 779.27548121 2785.06056002 780.4969134 2785.0603338 781.75535868 C2785.06011782 782.9737656 2785.05990183 784.19217251 2785.0596793 785.44750085 C2785.05598508 804.42559319 2785.04463467 823.40368189 2785.0322034 842.38177025 C2785.02776763 849.25385084 2785.02432974 856.12593108 2785.02158128 862.99801254 C2785.01715931 873.87140292 2785.00941701 884.74477982 2784.99480687 895.61816168 C2784.98818483 900.58461559 2784.98313147 905.55105756 2784.98234613 910.51751612 C2784.9815628 915.05590171 2784.97619186 919.59425705 2784.96702663 924.13263324 C2784.96450606 925.78030154 2784.96369034 927.42797344 2784.96468542 929.07564336 C2784.9657712 931.30229187 2784.96079651 933.5288438 2784.95419366 935.75548075 C2784.95294717 936.99587819 2784.95170067 938.23627563 2784.9504164 939.51426088 C2784.8227659 942.38222598 2784.8227659 942.38222598 2783.8227659 944.38222598 C2783.77716197 946.54841266 2783.78442382 948.71589859 2783.8227659 950.88222598 C2783.93387701 957.16000376 2783.93387701 957.16000376 2782.8227659 959.38222598 C2782.8433909 960.55785098 2782.8640159 961.73347598 2782.8852659 962.94472598 C2782.99795643 972.8936895 2781.45188924 983.02457828 2779.3227659 992.72206973 C2778.65087605 996.29673367 2778.24399942 999.89647651 2777.8227659 1003.50722598 C2777.18561387 1008.94655834 2776.23906253 1014.09471857 2774.8227659 1019.38222598 C2774.42852747 1022.04333539 2774.13457179 1024.70960405 2773.8227659 1027.38222598 C2773.31105636 1029.79457095 2772.60813118 1032.08336605 2771.8852659 1034.44472598 C2770.98861488 1037.52366734 2770.41592273 1040.59539569 2769.8852659 1043.75722598 C2769.13337228 1048.09097505 2768.01359259 1052.06600298 2766.5415159 1056.20253848 C2765.81133645 1058.41688704 2765.29653962 1060.60021588 2764.8227659 1062.88222598 C2764.02165755 1066.70900802 2762.88733291 1070.31378333 2761.6040159 1074.00331973 C2760.75550232 1076.58704358 2760.06654453 1079.18717647 2759.3852659 1081.81972598 C2758.16359361 1086.4170717 2756.55826728 1090.71883629 2754.7290159 1095.10488223 C2753.52393398 1098.13316998 2752.70977452 1101.24812886 2751.8227659 1104.38222598 C2751.11931394 1106.07690569 2750.41390379 1107.77112842 2749.67042215 1109.44863223 C2747.12711555 1115.25018415 2744.88404002 1121.16620403 2742.7602659 1127.13222598 C2741.34949241 1131.04739582 2739.74734207 1134.68703973 2737.8227659 1138.38222598 C2737.08787263 1140.0046442 2736.35953408 1141.6300368 2735.6352659 1143.25722598 C2732.53491706 1150.1269959 2729.14580064 1156.85017023 2725.73194559 1163.56826113 C2724.86417021 1165.29961749 2724.03385946 1167.04960071 2723.2055784 1168.80019473 C2721.8227659 1171.38222598 2721.8227659 1171.38222598 2719.8227659 1172.38222598 C2719.15154517 1174.38070219 2718.48601279 1176.3810893 2717.8227659 1178.38222598 C2716.54232828 1181.0720978 2715.09535355 1183.66128721 2713.6352659 1186.25722598 C2713.20455789 1187.02607119 2712.77384988 1187.79491641 2712.33009012 1188.58705996 C2702.76534148 1205.44613711 2692.2978333 1221.76231818 2680.8227659 1237.38222598 C2680.04546121 1238.44312441 2679.26815652 1239.50402285 2678.46729715 1240.59706973 C2667.77980026 1254.99208766 2656.52230098 1268.90715442 2644.63795145 1282.33168887 C2643.44417456 1283.68024732 2642.25521761 1285.03309065 2641.0715452 1286.39052676 C2634.45217171 1293.88418781 2627.41730802 1300.9398226 2620.33863504 1307.99672793 C2618.25731401 1310.07267024 2616.18141777 1312.1539302 2614.10596902 1314.2357416 C2612.76058652 1315.5804635 2611.41489396 1316.92487527 2610.06885965 1318.26894473 C2609.15601457 1319.18482615 2609.15601457 1319.18482615 2608.22472818 1320.11921023 C2603.91871493 1324.40225651 2599.43249569 1328.42932948 2594.8227659 1332.38222598 C2594.25755731 1332.86974337 2593.69234872 1333.35726077 2593.1100126 1333.85955142 C2591.56301301 1335.18790282 2590.00563922 1336.50414401 2588.4477659 1337.81972598 C2587.92827371 1338.26509707 2587.40878152 1338.71046816 2586.87354715 1339.16933535 C2583.05361267 1342.38222598 2583.05361267 1342.38222598 2580.8227659 1342.38222598 C2580.8227659 1343.04222598 2580.8227659 1343.70222598 2580.8227659 1344.38222598 C2578.94051298 1345.98821274 2577.05690074 1347.47368624 2575.0727659 1348.94472598 C2574.48148904 1349.39017764 2573.89021219 1349.8356293 2573.28101785 1350.29457949 C2572.05486213 1351.21734636 2570.82672708 1352.13748861 2569.59669168 1353.05507754 C2568.0065531 1354.24472705 2566.4275676 1355.44925017 2564.85010965 1356.65566348 C2541.97558137 1374.0868721 2517.44668577 1389.35129336 2492.20167215 1403.08632754 C2490.6288714 1403.94310364 2489.0585035 1404.80436254 2487.49073465 1405.67031191 C2423.0051174 1441.2015662 2349.86319017 1460.64528881 2276.8227659 1467.38222598 C2275.57366434 1467.50210879 2274.32456277 1467.6219916 2273.03760965 1467.74550723 C2248.48571713 1469.78389236 2223.74174801 1469.52956142 2199.12632223 1469.50963464 C2194.35600368 1469.50691285 2189.58568803 1469.51009761 2184.8153698 1469.51247148 C2176.44841302 1469.51584314 2168.08146277 1469.5155486 2159.71450586 1469.51278794 C2147.1888537 1469.5086739 2134.66320678 1469.51037995 2122.1375545 1469.51317058 C2100.78392505 1469.51775933 2079.43029799 1469.51762607 2058.07666834 1469.5148897 C2036.44788618 1469.51213499 2014.81910566 1469.51155272 1993.19032343 1469.51362704 C1992.50695453 1469.51369155 1991.82358563 1469.51375607 1991.11950858 1469.51382254 C1984.8564056 1469.51441411 1978.59330261 1469.51502802 1972.33019963 1469.51566875 C1956.62786721 1469.51727251 1940.92553477 1469.51852869 1925.2232023 1469.51954912 C1924.50382346 1469.51959602 1923.78444463 1469.51964292 1923.04326643 1469.51969124 C1887.61821383 1469.52196772 1852.1931615 1469.52043487 1816.76810892 1469.5185213 C1815.21711041 1469.51843766 1813.66611191 1469.51835403 1812.11511341 1469.5182704 C1811.34642825 1469.51822894 1810.57774309 1469.51818749 1809.78576444 1469.51814478 C1799.64820228 1469.51759823 1789.51064011 1469.51706162 1779.37307794 1469.51655148 C1778.59812116 1469.51651232 1777.82316437 1469.51647316 1777.02472405 1469.51643281 C1741.08529718 1469.51463022 1705.14587045 1469.51506053 1669.20644356 1469.51598194 C1665.28372245 1469.51608173 1661.36100134 1469.51617723 1657.43828023 1469.51627321 C1645.61424168 1469.51656381 1633.79020312 1469.51686075 1621.96616457 1469.51717081 C1585.91134089 1469.51811526 1549.8565172 1469.51871556 1513.80169351 1469.51901911 C1512.9989596 1469.51902598 1512.19622568 1469.51903285 1511.36916649 1469.51903993 C1459.39535097 1469.51947856 1407.4215356 1469.51837846 1355.44772012 1469.51616953 C1354.61821404 1469.51613442 1353.78870795 1469.5160993 1352.93406532 1469.51606312 C1325.15107903 1469.51488682 1297.36809274 1469.51363073 1269.58510646 1469.51236649 C1185.5733513 1469.50854619 1101.5615967 1469.50645245 951.52590323 1469.51248182 C923.74987271 1469.51374506 895.97384219 1469.5149936 868.19781168 1469.51616953 C867.36853771 1469.51620478 866.53926374 1469.51624002 865.68486025 1469.51627634 C813.73785291 1469.51848223 761.79084568 1469.51946359 709.84383829 1469.51901911 C708.64014084 1469.51900898 708.64014084 1469.51900898 707.41212628 1469.51899864 C671.37719994 1469.5186919 635.34227361 1469.51805354 599.30734728 1469.51710861 C587.48858048 1469.51679907 575.66981368 1469.51650474 563.85104689 1469.51621556 C559.93059009 1469.51611957 556.0101333 1469.51602222 552.0896765 1469.5159217 C516.15060222 1469.51500311 480.21152812 1469.51473537 444.27245386 1469.51655148 C443.49799006 1469.51659045 442.72352627 1469.51662943 441.92559388 1469.51666958 C431.79386871 1469.51718134 421.66214355 1469.51772399 411.53041839 1469.5182704 C410.37830503 1469.51833252 410.37830503 1469.51833252 409.20291665 1469.5183959 C407.65333254 1469.51847946 406.10374844 1469.51856309 404.55416434 1469.51864679 C369.17688595 1469.52055281 333.7996079 1469.52185561 298.4223295 1469.51954912 C297.70390171 1469.51950243 296.98547392 1469.51945574 296.24527559 1469.51940764 C280.56837305 1469.51837728 264.89147055 1469.5170576 249.21456807 1469.51545384 C242.96144817 1469.51481798 236.70832827 1469.51421737 230.45520837 1469.51362704 C229.77312057 1469.51356162 229.09103276 1469.51349621 228.38827563 1469.51342881 C206.13136978 1469.51131107 183.87446576 1469.51254393 161.61756003 1469.51539605 C140.40112896 1469.51804347 119.18470053 1469.51710884 97.9682698 1469.51238196 C85.53586692 1469.50971762 73.1034713 1469.50976152 60.67106877 1469.51386355 C52.40290082 1469.5163164 44.1347385 1469.51511122 35.86657122 1469.5109967 C31.1870498 1469.50876818 26.50754278 1469.50802503 21.82802203 1469.51181322 C-4.08987099 1469.53132245 -30.03174345 1469.50666678 -55.8647341 1467.13222598 C-56.55859213 1467.06909213 -57.25245016 1467.00595828 -57.9673342 1466.94091128 C-149.67643728 1458.48640194 -239.23463759 1426.66964274 -362.1772341 1339.38222598 C-363.38034139 1338.3756944 -364.58346573 1337.36918319 -365.7866091 1336.36269473 C-378.86826246 1325.35285465 -391.13182323 1313.50828166 -403.2397341 1301.44472598 C-404.12024435 1300.56888857 -405.00075461 1299.69305117 -405.90794699 1298.79067324 C-410.3285738 1294.35906141 -414.60937257 1289.8667838 -418.68724387 1285.1173334 C-421.27662187 1282.10197874 -423.98550134 1279.19257627 -426.67332785 1276.26503848 C-428.1772341 1274.38222598 -428.1772341 1274.38222598 -428.1772341 1272.38222598 C-428.8372341 1272.38222598 -429.4972341 1272.38222598 -430.1772341 1272.38222598 C-431.84508926 1270.46110392 -433.3921015 1268.531355 -434.9272341 1266.50722598 C-435.92188449 1265.21545052 -436.91668334 1263.92378936 -437.9116091 1262.63222598 C-438.70534933 1261.59581973 -438.70534933 1261.59581973 -439.51512473 1260.53847598 C-441.2036871 1258.34790857 -442.91360697 1256.17575499 -444.6303591 1254.00722598 C-452.22612807 1244.39040052 -459.40825552 1234.59713881 -466.1772341 1224.38222598 C-466.61599875 1223.72464297 -467.0547634 1223.06705996 -467.50682394 1222.3895502 C-475.53077229 1210.33167232 -482.94295891 1197.9269113 -490.1772341 1185.38222598 C-490.6516091 1184.56415469 -491.1259841 1183.7460834 -491.6147341 1182.90322207 C-516.18462287 1140.29854633 -533.54158681 1093.08837985 -545.1772341 1045.38222598 C-545.44729269 1044.30231387 -545.71735129 1043.22240176 -545.99559348 1042.10976504 C-549.53474842 1027.84391207 -552.11657452 1013.46067311 -554.3647341 998.94472598 C-554.48552328 998.18685794 -554.60631247 997.42898989 -554.73076193 996.64815615 C-559.59832737 965.78733956 -560.63376348 934.82488236 -560.56940811 903.64624857 C-560.56247746 898.65226953 -560.57316643 893.65831868 -560.58134787 888.66434573 C-560.59454157 878.93553609 -560.5918726 869.20679669 -560.58310995 859.47798453 C-560.57627632 851.55628366 -560.57544089 843.63460218 -560.5786814 835.7128992 C-560.5791411 834.57639594 -560.57960079 833.43989269 -560.58007442 832.26894994 C-560.5810338 829.95865649 -560.58200645 827.64836305 -560.5829922 825.3380696 C-560.59150401 803.78076409 -560.58177857 782.22349713 -560.5655911 760.66619794 C-560.55219179 742.25332474 -560.55452108 723.84050832 -560.56834738 705.42763613 C-560.58447817 683.93639999 -560.59068043 662.44519746 -560.58151059 640.95395611 C-560.58055515 638.653155 -560.57961204 636.35235388 -560.5786814 634.05155276 C-560.57821857 632.92013219 -560.57775574 631.78871162 -560.57727889 630.62300559 C-560.57471138 622.7301509 -560.57901104 614.8373179 -560.58612006 606.94446658 C-560.59461927 597.29806303 -560.59208116 587.65173251 -560.57627782 578.00533711 C-560.56850644 573.10349132 -560.56510745 568.20176629 -560.57522528 563.29992198 C-560.73671148 477.7477466 -544.26152079 394.41852161 -430.1772341 197.38222598 C-429.64275656 196.74865176 -429.10827902 196.11507754 -428.55760519 195.4623041 C-417.18398571 182.01407485 -405.09815052 169.23962483 -392.6772341 156.75722598 C-392.04325705 156.11857607 -391.40928 155.47992617 -390.75609152 154.82192324 C-386.96886378 151.0476195 -383.05846018 147.4711441 -379.01219504 143.97646426 C-376.64073812 141.91611119 -374.34966303 139.77452305 -372.0522341 137.63222598 C-366.7674902 132.80861624 -361.22511725 128.40254552 -355.5678591 124.02675723 C-352.63081083 121.7519364 -349.77348832 119.39511104 -346.9272341 117.00722598 C-320.388397 95.22681011 -290.479386 77.35460444 -260.1772341 61.38222598 C-259.24991476 60.89254336 -258.32259543 60.40286074 -257.36717551 59.89833926 C-204.71465434 32.3123837 -146.93425022 14.50468331 -88.2397341 5.63222598 C-87.03099631 5.44571475 -85.82225851 5.25920352 -84.5768923 5.06704043 C-56.41986633 1.03685929 -28.39774854 -0.06775001 0 0 Z M1479.8227659 101.38222598 C1478.25244608 102.10128115 1478.25244608 102.10128115 1476.65040262 102.8348627 C1446.30902881 116.84816965 1417.60330976 133.35360027 1390.8227659 153.38222598 C1389.69450985 154.21383801 1388.56564667 155.04462724 1387.43604715 155.87441348 C1380.72526338 160.84090902 1374.23066777 166.03202455 1367.8227659 171.38222598 C1367.31632547 171.80229922 1366.80988504 172.22237246 1366.28809793 172.6551752 C1353.38781251 183.36372237 1341.31480542 194.79964399 1329.4477659 206.63222598 C1328.9254841 207.15182894 1328.4032023 207.67143191 1327.86509378 208.20678042 C1321.96505411 214.0838686 1316.20413655 220.01949389 1310.8227659 226.38222598 C1309.94586054 227.39194787 1309.06829822 228.40109975 1308.1899534 229.40956973 C1300.71431913 238.13895458 1293.69557588 247.17245757 1286.8227659 256.38222598 C1286.28893289 257.09507754 1285.75509988 257.8079291 1285.20509012 258.54238223 C1268.65369507 280.7384727 1253.76777193 304.38531791 1241.8227659 329.38222598 C1241.47439676 330.11038516 1241.12602762 330.83854434 1240.76710184 331.58876895 C1237.00823189 339.46944597 1233.29512394 347.37039499 1229.8227659 355.38222598 C1229.54819559 356.00226504 1229.27362527 356.6223041 1228.99073465 357.26113223 C1225.89545241 364.08344181 1225.89545241 364.08344181 1224.8227659 371.38222598 C1224.1627659 371.71222598 1223.5027659 372.04222598 1222.8227659 372.38222598 C1220.61932215 377.18822781 1218.8014722 382.23851646 1218.1977659 387.50722598 C1218.0740159 388.45597598 1217.9502659 389.40472598 1217.8227659 390.38222598 C1217.1627659 390.71222598 1216.5027659 391.04222598 1215.8227659 391.38222598 C1216.1527659 392.04222598 1216.4827659 392.70222598 1216.8227659 393.38222598 C1216.1627659 393.71222598 1215.5027659 394.04222598 1214.8227659 394.38222598 C1215.1527659 395.04222598 1215.4827659 395.70222598 1215.8227659 396.38222598 C1215.1627659 396.71222598 1214.5027659 397.04222598 1213.8227659 397.38222598 C1213.01280744 399.65252132 1213.01280744 399.65252132 1212.3852659 402.38222598 C1211.4645707 405.98130722 1210.48695513 409.50062949 1209.2602659 413.00722598 C1207.97721831 416.74276557 1207.09225909 420.4756099 1206.28760965 424.33925723 C1205.8227659 426.38222598 1205.8227659 426.38222598 1204.8227659 429.25722598 C1203.61438505 433.03341613 1202.9964703 436.80759008 1202.32667215 440.71035098 C1201.8227659 443.38222598 1201.8227659 443.38222598 1200.7602659 447.06972598 C1199.68347653 450.87438176 1199.26637539 454.45311338 1198.8227659 458.38222598 C1198.49421251 460.04984151 1198.16036313 461.71641776 1197.8227659 463.38222598 C1197.31009981 466.46623291 1196.81549405 469.55278868 1196.3227659 472.64003848 C1195.8227659 475.38222598 1195.8227659 475.38222598 1194.8227659 478.38222598 C1194.8227659 479.22785098 1194.8227659 480.07347598 1194.8227659 480.94472598 C1194.8227659 483.38222598 1194.8227659 483.38222598 1193.8227659 485.38222598 C1193.8227659 486.37222598 1193.8227659 487.36222598 1193.8227659 488.38222598 C1193.8227659 491.38222598 1193.8227659 491.38222598 1192.8227659 493.38222598 C1192.8227659 494.53722598 1192.8227659 495.69222598 1192.8227659 496.88222598 C1192.8227659 500.38222598 1192.8227659 500.38222598 1191.8227659 502.38222598 C1191.7777373 504.04828426 1191.78401669 505.71600982 1191.8227659 507.38222598 C1191.93387701 512.16000376 1191.93387701 512.16000376 1190.8227659 514.38222598 C1190.77657436 517.22300597 1190.77614369 520.0429331 1190.8227659 522.88222598 C1190.95790103 531.11195571 1190.95790103 531.11195571 1189.8227659 533.38222598 C1189.72802226 535.61073415 1189.70087013 537.84218843 1189.70251138 540.07270907 C1189.70165714 540.7717159 1189.70080289 541.47072273 1189.69992275 542.19091158 C1189.69826529 544.55675106 1189.70380183 546.92252084 1189.70924051 549.28835391 C1189.70952026 550.99219717 1189.70935806 552.69604055 1189.70878942 554.39988373 C1189.70849262 559.10036407 1189.7144466 563.80081938 1189.72135933 568.50129388 C1189.72771213 573.5633742 1189.72830078 578.6254554 1189.7295347 583.68753909 C1189.73242641 592.46452073 1189.73887384 601.24149401 1189.7476011 610.0184717 C1189.76012927 622.71081623 1189.76622581 635.40315763 1189.77053447 648.09550731 C1189.77760798 668.68896678 1189.78841526 689.28242233 1189.80225809 709.87587832 C1189.8030859 711.1093466 1189.80391371 712.34281487 1189.80476661 713.61366098 C1189.81066745 722.36984938 1189.81670123 731.12603769 1189.8227659 739.88222598 C1189.82969352 749.8843418 1189.83656104 759.88645766 1189.84327371 769.88857363 C1189.8445159 771.73653301 1189.8445159 771.73653301 1189.84578319 773.62182491 C1189.85945154 794.13614186 1189.86922008 814.65045888 1189.87618406 835.16477917 C1189.88067477 847.83103082 1189.88873437 860.49727087 1189.90132887 873.1635171 C1189.90973144 881.83646883 1189.91463998 890.50941787 1189.91675408 899.18237339 C1189.91810402 904.19315103 1189.92114406 909.20391367 1189.92851312 914.21468638 C1189.93522414 918.79513048 1189.93740619 923.37555278 1189.93587752 927.95600133 C1189.93615064 929.6194936 1189.9381462 931.28298658 1189.9419703 932.94647448 C1189.94690223 935.19492509 1189.94576822 937.44329055 1189.94302042 939.69174288 C1189.94440311 941.57087146 1189.94440311 941.57087146 1189.94581373 943.48796223 C1189.8227659 946.38222598 1189.8227659 946.38222598 1188.8227659 948.38222598 C1188.77716197 950.54841266 1188.78442382 952.71589859 1188.8227659 954.88222598 C1188.93387701 961.16000376 1188.93387701 961.16000376 1187.8227659 963.38222598 C1187.77800972 964.88155812 1187.783818 966.38273171 1187.8227659 967.88222598 C1187.93387701 972.16000376 1187.93387701 972.16000376 1186.8227659 974.38222598 C1186.8227659 975.53722598 1186.8227659 976.69222598 1186.8227659 977.88222598 C1186.8227659 981.38222598 1186.8227659 981.38222598 1185.8227659 983.38222598 C1185.8227659 984.20722598 1185.8227659 985.03222598 1185.8227659 985.88222598 C1185.8227659 988.38222598 1185.8227659 988.38222598 1184.8227659 990.38222598 C1184.63972376 992.00345635 1184.50083717 993.62979375 1184.3852659 995.25722598 C1183.66145475 1003.87510252 1182.19710008 1012.07205636 1179.8227659 1020.38222598 C1179.47229735 1022.40015815 1179.1405417 1024.42138789 1178.8227659 1026.44472598 C1178.15975628 1030.62479444 1177.21429051 1034.38159271 1175.8227659 1038.38222598 C1175.49374629 1039.98308607 1175.18303455 1041.58775965 1174.8852659 1043.19472598 C1173.94958382 1048.10153124 1172.46192148 1052.67401315 1170.8227659 1057.38222598 C1169.02255863 1061.8982342 1169.02255863 1061.8982342 1169.8227659 1066.38222598 C1169.1627659 1066.71222598 1168.5027659 1067.04222598 1167.8227659 1067.38222598 C1167.04977639 1069.62020991 1167.04977639 1069.62020991 1166.4477659 1072.31972598 C1165.20293496 1077.2348832 1163.54091045 1081.75236967 1161.4946409 1086.38613223 C1161.27292215 1087.04484316 1161.0512034 1087.7035541 1160.8227659 1088.38222598 C1161.1527659 1089.04222598 1161.4827659 1089.70222598 1161.8227659 1090.38222598 C1161.1627659 1090.71222598 1160.5027659 1091.04222598 1159.8227659 1091.38222598 C1158.79109448 1093.71652834 1158.79109448 1093.71652834 1157.8852659 1096.50722598 C1156.35433768 1100.89588686 1154.7021712 1105.13313572 1152.8227659 1109.38222598 C1152.0802659 1111.11472598 1152.0802659 1111.11472598 1151.3227659 1112.88222598 C1150.5802659 1114.61472598 1150.5802659 1114.61472598 1149.8227659 1116.38222598 C1149.36772684 1117.45343691 1148.91268777 1118.52464785 1148.44385965 1119.62831973 C1136.46864656 1147.52637601 1121.18060046 1174.48455998 1103.8227659 1199.38222598 C1103.41461649 1199.96907168 1103.00646707 1200.55591738 1102.58594949 1201.16054629 C1093.86423416 1213.64930761 1084.59406023 1225.69499159 1074.8227659 1237.38222598 C1074.17017801 1238.16436465 1074.17017801 1238.16436465 1073.50440652 1238.9623041 C1059.75345774 1255.38974221 1045.12058592 1271.84530172 1028.75635965 1285.72597598 C1026.51939655 1287.64208175 1024.36473012 1289.63735454 1022.1977659 1291.63222598 C1016.55354515 1296.72326124 1010.60548006 1301.37906198 1004.58985574 1306.01796816 C1002.89856977 1307.32370263 1001.21346299 1308.63700048 999.52979715 1309.95253848 C927.30222105 1366.21609768 839.74683013 1400.71892537 748.8227659 1410.38222598 C748.8227659 1410.71222598 748.8227659 1411.04222598 748.8227659 1411.38222598 C795.00562702 1411.39872207 841.18848836 1411.41453763 887.37134988 1411.4298334 C888.2751355 1411.43013279 889.17892111 1411.43043219 890.11009417 1411.43074065 C986.98396714 1411.46281312 1083.85784019 1411.49047961 1180.73171671 1411.5092554 C1182.88444044 1411.50967375 1185.03716417 1411.5100921 1187.1898879 1411.51051046 C1232.37976488 1411.51927921 1277.56964195 1411.52742928 1322.75951917 1411.53486501 C1345.46112743 1411.53860109 1368.16273567 1411.54245601 1390.86434389 1411.5464233 C1394.28871752 1411.54702105 1397.71309116 1411.5476154 1401.13746479 1411.54820962 C1453.84510741 1411.55738559 1506.55274794 1411.5691045 1559.26038797 1411.58821963 C1560.95925913 1411.58883567 1560.95925913 1411.58883567 1562.69245091 1411.58946416 C1580.95208693 1411.59610097 1599.21172288 1411.60295192 1617.47135881 1411.6098313 C1670.08827299 1411.62965163 1722.70518556 1411.64787897 1775.3221031 1411.65564536 C1776.40497592 1411.65580596 1777.48784875 1411.65596657 1778.6035359 1411.65613204 C1802.37979095 1411.65962998 1826.15604603 1411.66231424 1849.93230126 1411.66422893 C1859.50022636 1411.66501375 1869.06815144 1411.66591562 1878.63607652 1411.66685771 C1879.68322 1411.66695799 1880.73036347 1411.66705827 1881.80923856 1411.66716159 C1915.50368263 1411.67044655 1949.19811478 1411.68324487 1982.89255404 1411.7010726 C2016.85673734 1411.71899925 2050.8209091 1411.72751482 2084.78509724 1411.72309794 C2089.48740667 1411.72248877 2094.1897161 1411.72198659 2098.89202554 1411.72154902 C2100.27460566 1411.72141456 2100.27460566 1411.72141456 2101.68511669 1411.72127738 C2116.23168669 1411.72013908 2130.77823213 1411.72905668 2145.32479545 1411.74225556 C2159.65785145 1411.75505122 2173.99087588 1411.75700081 2188.32393492 1411.74772142 C2195.97933828 1411.74305653 2203.63466689 1411.74299565 2211.29006112 1411.75687552 C2254.14982222 1411.95750402 2254.14982222 1411.95750402 2296.8227659 1408.38222598 C2297.79570637 1408.25786052 2298.76864685 1408.13349507 2299.77107037 1408.00536097 C2305.05928401 1407.32050392 2310.3170449 1406.53211457 2315.5727659 1405.63222598 C2316.32861978 1405.50628054 2317.08447366 1405.38033511 2317.86323221 1405.25057315 C2389.87500689 1393.20852647 2458.69019947 1364.63416399 2518.2602659 1322.50722598 C2518.97907938 1321.99893252 2519.69789285 1321.49063906 2520.43848856 1320.96694277 C2547.78428613 1301.51787375 2575.06099245 1279.06527007 2596.95167215 1253.53456973 C2599.15356419 1251.00170436 2601.42472416 1248.53890075 2603.6977659 1246.06972598 C2608.61519336 1240.66498589 2613.27633209 1235.10029924 2617.8227659 1229.38222598 C2618.3172825 1228.7655707 2618.8117991 1228.14891543 2619.32130106 1227.51357363 C2641.47613918 1199.82505051 2659.98555508 1170.09551876 2675.8227659 1138.38222598 C2676.28489481 1137.46586367 2676.74702371 1136.54950137 2677.22315652 1135.60537051 C2704.03139285 1082.20448856 2719.14230131 1023.71330121 2724.8227659 964.38222598 C2724.90625874 963.51780202 2724.98975158 962.65337806 2725.0757745 961.76275943 C2725.89020841 952.39397341 2725.96877113 943.07257277 2725.96320779 933.67855166 C2725.96579668 931.91306119 2725.96881129 930.1475713 2725.9722112 928.38208221 C2725.98022371 923.56108275 2725.98206754 918.74009821 2725.98280866 913.91909288 C2725.98466944 908.70664021 2725.99222211 903.4941951 2725.99894388 898.28174685 C2726.01248939 886.89430151 2726.01854674 875.5068597 2726.02295454 864.11940764 C2726.02572482 856.99405371 2726.02996371 849.86870113 2726.03445871 842.74334811 C2726.04664917 822.97491763 2726.05694715 803.20648822 2726.0603338 783.43805407 C2726.06066315 781.54238058 2726.06066315 781.54238058 2726.06099915 779.60841066 C2726.06121743 778.34176353 2726.06143571 777.07511641 2726.0616606 775.77008604 C2726.06210405 773.20378763 2726.06255061 770.63748923 2726.06300027 768.07119082 C2726.0632217 766.79824362 2726.06344313 765.52529642 2726.06367127 764.21377506 C2726.06761127 743.6312922 2726.08504186 723.04884492 2726.1083598 702.46637578 C2726.13216422 681.281461 2726.14453986 660.09656398 2726.14570172 638.91163562 C2726.14661368 627.03887476 2726.15224372 615.16616019 2726.17052133 603.2934122 C2726.18604594 593.17389777 2726.19097109 583.05444394 2726.18278323 572.93491985 C2726.17891918 567.78651819 2726.17959365 562.63823805 2726.19384058 557.48985194 C2726.27120902 527.81916903 2725.28261817 498.48346088 2720.0727659 469.19472598 C2719.94648813 468.4634952 2719.82021036 467.73226443 2719.69010599 466.97887515 C2715.29599654 441.57158287 2708.986745 416.84628796 2700.8227659 392.38222598 C2700.46456766 391.30634219 2700.10636942 390.2304584 2699.73731668 389.12197207 C2685.83855351 347.88367385 2665.798103 308.0551904 2640.8227659 272.38222598 C2640.21706766 271.51283389 2640.21706766 271.51283389 2639.59913309 270.62587832 C2619.03246286 241.1704952 2595.39367186 211.735822 2568.02979715 188.31191348 C2565.87650435 186.42921146 2563.78591885 184.48848064 2561.69849832 182.53334902 C2555.22549031 176.48997942 2548.41754729 171.00858064 2541.40235574 165.6107416 C2539.23903911 163.9282363 2537.12757908 162.18458944 2535.0102659 160.44472598 C2527.87751986 154.73154767 2520.34082959 149.57012957 2512.8227659 144.38222598 C2512.11619852 143.89205996 2511.40963113 143.40189395 2510.68165262 142.89687441 C2438.65861615 93.12824048 2352.61594839 64.24864895 2265.2948118 59.28511904 C2264.17832979 59.22150201 2264.17832979 59.22150201 2263.03929259 59.15659978 C2239.6253436 57.87357331 2216.16957574 58.09776706 2192.72899611 58.12077664 C2186.51248629 58.12589094 2180.29598152 58.11947524 2174.07947331 58.11448191 C2160.6105384 58.10404278 2147.14162265 58.1048259 2133.67268598 58.11063973 C2121.88468263 58.11570204 2110.09668625 58.11696986 2098.30868204 58.11459445 C2097.12866566 58.11436529 2097.12866566 58.11436529 2095.92481056 58.11413151 C2092.73018174 58.11350867 2089.53555292 58.11287185 2086.34092411 58.11221198 C2056.46794721 58.10611535 2026.59498241 58.11160681 1996.72200738 58.12240577 C1970.2723514 58.13189459 1943.82271469 58.13104524 1917.37305887 58.12148379 C1887.54927057 58.11073824 1857.72549292 58.10654799 1827.90170295 58.11270832 C1824.71341856 58.1133496 1821.52513416 58.11397529 1818.33684976 58.11459445 C1817.15958379 58.11483168 1817.15958379 58.11483168 1815.95853466 58.1150737 C1804.18767425 58.11733373 1792.41682163 58.11471621 1780.64596231 58.10963534 C1767.24098335 58.1038774 1753.8360263 58.10542945 1740.43105002 58.11619683 C1733.60927868 58.1214979 1726.78754839 58.12359486 1719.96577699 58.11689852 C1636.60752821 58.04210505 1556.51074154 66.23918079 1479.8227659 101.38222598 Z M805.1821409 357.41347598 C795.45169932 369.65707797 789.2324331 384.1698646 785.8227659 399.38222598 C785.55206277 400.55785098 785.55206277 400.55785098 785.2758909 401.75722598 C784.79153055 404.56317558 784.72499437 407.16198949 784.7602659 410.00722598 C784.76928934 410.9482416 784.77831277 411.88925723 784.78760965 412.85878848 C784.79921121 413.69152285 784.81081277 414.52425723 784.8227659 415.38222598 C784.8227659 416.37222598 784.8227659 417.36222598 784.8227659 418.38222598 C786.43865384 440.89151592 791.87872512 458.47755389 805.8227659 476.38222598 C806.4827659 477.37222598 807.1427659 478.36222598 807.8227659 479.38222598 C808.4827659 479.38222598 809.1427659 479.38222598 809.8227659 479.38222598 C810.07413309 479.96488223 810.32550027 480.54753848 810.58448465 481.14785098 C818.05067225 494.61996235 839.17039793 503.24850135 853.4477659 507.44863223 C856.56387789 508.19520072 859.66638061 508.83348027 862.8227659 509.38222598 C864.7718284 509.72253848 864.7718284 509.72253848 866.7602659 510.06972598 C891.16696717 512.52574623 916.46873409 506.29330372 935.86573465 490.97988223 C938.26678356 488.84837499 940.56426646 486.66313116 942.8227659 484.38222598 C943.7096409 483.53660098 944.5965159 482.69097598 945.5102659 481.81972598 C946.6549534 480.61316348 946.6549534 480.61316348 947.8227659 479.38222598 C948.60007059 478.59718691 948.60007059 478.59718691 949.3930784 477.79628848 C966.05503882 460.0882857 972.42096449 435.6660609 972.1040159 411.96035098 C971.67457525 399.5151608 968.29647849 387.53710965 962.8227659 376.38222598 C962.37030496 375.45023379 961.91784402 374.5182416 961.45167215 373.55800723 C957.98503808 366.8220272 953.72102712 361.13696117 948.8227659 355.38222598 C948.00872293 354.34968691 948.00872293 354.34968691 947.17823465 353.29628848 C935.78007656 339.26351964 917.23900304 329.46028409 899.8227659 325.38222598 C898.89850809 325.15921816 897.97425027 324.93621035 897.02198465 324.70644473 C862.33024404 317.6529373 828.27282017 331.23423452 805.1821409 357.41347598 Z M-272.1772341 342.38222598 C-267.2272341 360.86222598 -262.2772341 379.34222598 -257.1772341 398.38222598 C-253.75106418 411.25272723 -250.32552816 424.1233608 -246.90751974 436.99602603 C-237.57093976 472.15411091 -228.20026194 507.30301973 -218.8022341 542.44472598 C-218.52273791 543.48986739 -218.24324171 544.5350088 -217.95527594 545.61182116 C-214.54665611 558.35776721 -211.13718578 571.10348567 -207.72744028 583.84913062 C-202.67676311 602.72883674 -197.62796442 621.60904525 -192.57999747 640.48947619 C-192.01966888 642.58521498 -191.45933054 644.68095117 -190.89898245 646.77668475 C-181.68407546 681.24114553 -172.48688619 715.71030868 -163.29769461 750.18163394 C-151.63087324 793.9469154 -139.93879867 837.70541355 -128.23672812 881.46128176 C-124.53062924 895.31927213 -120.82636757 909.1777526 -117.12325041 923.03654002 C-114.53729303 932.71432605 -111.95107723 942.39204303 -109.3647341 952.06972598 C-109.08577921 953.11353301 -108.80682433 954.15734004 -108.51941626 955.23277758 C-99.50130103 988.97624451 -90.46337799 1022.71436263 -81.40317194 1056.44655322 C-80.52025224 1059.73387389 -79.63755259 1063.02125362 -78.7548651 1066.30863665 C-78.15538451 1068.5407903 -77.55550652 1070.77283687 -76.95560019 1073.00487612 C-76.59765676 1074.3377672 -76.23973026 1075.67066282 -75.88182394 1077.00356387 C-75.57465445 1078.14676592 -75.26748495 1079.28996798 -74.95100729 1080.46781253 C-73.48766857 1085.97947164 -72.23825935 1091.52821779 -70.99364035 1097.09316348 C-70.21417146 1100.23341613 -69.20040361 1103.31271745 -68.1772341 1106.38222598 C-24.9472341 1106.38222598 18.2827659 1106.38222598 62.8227659 1106.38222598 C74.51834474 1066.47966288 86.21352457 1026.57803384 97.7602659 986.63222598 C97.98109842 985.86827391 98.20193094 985.10432185 98.42945535 984.31721972 C98.87846564 982.76388552 99.32747139 981.21055001 99.77647264 979.6572132 C100.91291497 975.72568319 102.04944345 971.79417809 103.18604715 967.86269473 C103.41256086 967.07914803 103.63907457 966.29560134 103.87245233 965.4883108 C109.44332741 946.21977866 115.04425893 926.95999432 120.64621027 907.70047854 C123.03086348 899.50202801 125.41522708 891.30349326 127.7993284 883.10488223 C128.0570383 882.21866057 128.31474821 881.33243891 128.5802675 880.41936206 C133.47060675 863.6013664 138.34864121 846.77982145 143.22180231 829.95684146 C153.17415138 795.59985596 163.15776526 761.25198685 173.14599474 726.90541743 C177.00145875 713.64760726 180.85521807 700.38930274 184.70762117 687.13060282 C186.37736514 681.38402239 188.04732046 675.63750337 189.71725996 669.89097975 C191.03276604 665.36404045 192.34814527 660.83706437 193.66318948 656.30999087 C196.79203355 645.53914645 199.9241415 634.76925823 203.06038339 624.00056552 C203.86710047 621.22996257 204.67328635 618.45920537 205.47944315 615.68843936 C206.87802707 610.88236035 208.27879037 606.07692094 209.68100221 601.27189921 C210.21747291 599.43246079 210.75328987 597.59283158 211.2884279 595.75300501 C212.02748406 593.21262287 212.76893328 590.67295126 213.51099832 588.13344668 C213.73118065 587.37465779 213.95136297 586.6158689 214.17821748 585.83408641 C215.70862615 580.61050547 215.70862615 580.61050547 216.8227659 578.38222598 C219.55806613 585.29527821 221.63416318 592.33663926 223.6821409 599.47988223 C224.06243849 600.79734581 224.44304235 602.11472101 224.82392557 603.43201541 C225.64439461 606.27168453 226.4629623 609.11189207 227.28004129 611.95253848 C228.59763941 616.53291556 229.91968425 621.11200141 231.24268777 625.69081973 C231.46899377 626.47407563 231.69529977 627.25733153 231.92846353 628.06432246 C232.39234188 629.6697947 232.85623462 631.27526277 233.32014139 632.8807268 C234.03305731 635.34843827 234.74557375 637.81626481 235.45801981 640.28411196 C240.2386006 656.84025303 245.05716156 673.38527391 249.87931497 689.92934512 C252.28787798 698.19311147 254.69400761 706.45758656 257.10010965 714.72206973 C257.33712783 715.5361769 257.57414602 716.35028407 257.81834657 717.18906115 C262.74653686 734.11690426 267.67279918 751.04530433 272.58790262 767.97695254 C273.43750833 770.90346037 274.2879371 773.82972682 275.13917215 776.75576113 C279.15568546 790.56361974 283.13173047 804.37768982 286.87752969 818.2619562 C288.63194859 824.74591906 290.53745609 831.16806778 292.5727659 837.56972598 C296.39366753 849.78146015 299.92240824 862.0689965 303.40967996 874.37905215 C303.61246057 875.09477893 303.81524118 875.8105057 304.02416666 876.54792117 C304.41990064 877.94469158 304.81546277 879.34151069 305.21084268 880.73838137 C306.25891521 884.43155839 307.33303155 888.11489521 308.4477659 891.78847598 C309.65176286 895.76045904 310.74714262 899.75401312 311.81397684 903.76479434 C314.94432828 915.53214982 318.46208091 927.16161944 322.0883909 938.78456973 C323.39151319 942.96924894 324.63973933 947.16169877 325.8227659 951.38222598 C326.43527673 953.5347891 327.04866235 955.68710337 327.66260965 957.83925723 C328.1740452 959.63266543 328.1740452 959.63266543 328.69581277 961.4623041 C329.04708231 962.69400332 329.39835184 963.92570254 329.7602659 965.19472598 C330.28136942 967.02487246 330.28136942 967.02487246 330.81300027 968.8919916 C332.31136445 974.14332068 333.81498666 979.39096698 335.4008909 984.61660098 C336.92399216 989.65534319 338.27956225 994.73388351 339.6352659 999.81972598 C341.80471873 1007.89091306 344.19650906 1015.85664403 346.77637918 1023.80507754 C348.5631455 1029.37579408 349.94907823 1034.9660762 351.1821409 1040.68691348 C351.87731868 1043.61174683 352.87589464 1046.25090335 354.00635965 1049.02675723 C355.1818644 1052.4182853 355.98376725 1055.89596683 356.8227659 1059.38222598 C358.26544103 1065.47612261 358.26544103 1065.47612261 360.3227659 1071.38222598 C361.91889532 1075.26845413 362.84109841 1079.30825973 363.8227659 1083.38222598 C365.15259253 1088.89754011 366.71582213 1094.11486656 368.8227659 1099.38222598 C369.4827659 1101.69222598 370.1427659 1104.00222598 370.8227659 1106.38222598 C415.7027659 1106.38222598 460.5827659 1106.38222598 506.8227659 1106.38222598 C510.4527659 1092.19222598 514.0827659 1078.00222598 517.8227659 1063.38222598 C524.00230827 1039.82411498 524.00230827 1039.82411498 526.00050027 1032.2826166 C526.47408406 1030.49331852 526.94763416 1028.70401153 527.42115457 1026.91469668 C527.66035623 1026.01099337 527.89955789 1025.10729006 528.14600809 1024.17620181 C530.23934379 1016.26457848 532.32799955 1008.35171696 534.41744287 1000.43906497 C534.96184119 998.377516 535.50629784 996.31598243 536.05081232 994.25446414 C542.0591014 971.50680093 548.03470298 948.75059107 554.00638254 925.9932947 C562.32393668 894.2968102 570.65976025 862.60524858 579.02404459 830.92106341 C587.90725946 797.27107025 596.75307384 763.61142481 605.5727659 729.94472598 C606.00294141 728.3026517 606.00294141 728.3026517 606.44180734 726.6274042 C607.01923288 724.42323237 607.59665725 722.21906024 608.17408044 720.0148878 C609.59205849 714.60215839 611.01010757 709.18944759 612.42823465 703.77675723 C612.70455728 702.7220838 612.98087991 701.66741038 613.26557596 700.58077716 C619.05033845 678.50277189 624.85640158 656.43040613 630.6688524 634.3596773 C631.67466254 630.54039129 632.6803881 626.72108302 633.68604715 622.90175723 C633.88765577 622.13609439 634.08926439 621.37043154 634.29698236 620.5815668 C637.86748484 607.02057924 641.43023748 593.45756232 644.99073465 579.89394473 C645.25755611 578.87750825 645.52437757 577.86107176 645.79928453 576.81383418 C646.8925646 572.64902573 647.98582256 568.48421149 649.07906492 564.31939314 C658.2253285 529.47606032 667.38253283 494.63564898 676.5690275 459.80289935 C677.31816367 456.96217762 678.06713016 454.1214112 678.81605203 451.28063296 C683.74597381 432.58154399 688.68399339 413.88469078 693.65615518 395.19678401 C694.31259994 392.72903623 694.96859244 390.26116873 695.62440164 387.79325198 C695.94009481 386.60529418 695.94009481 386.60529418 696.26216562 385.39333724 C696.67841939 383.82694187 697.09465402 382.26054142 697.51086862 380.69413565 C698.69807157 376.22756509 699.88873958 371.7619371 701.08218057 367.29702948 C701.62888647 365.24957517 702.17395261 363.20169302 702.71827371 361.15360354 C703.37291578 358.69070053 704.03029315 356.22852227 704.69092996 353.76722048 C704.97484598 352.69593402 705.25876199 351.62464755 705.55128152 350.52089785 C705.79866068 349.59402163 706.04603983 348.66714541 706.30091531 347.71218203 C706.93204567 345.2922611 706.93204567 345.2922611 706.8227659 342.38222598 C656.6627659 342.38222598 606.5027659 342.38222598 554.8227659 342.38222598 C552.85898121 348.27358005 551.17040939 353.86181068 550.3227659 360.00722598 C549.8289759 363.34030849 548.8854109 366.19429097 547.8227659 369.38222598 C547.6577659 370.53722598 547.4927659 371.69222598 547.3227659 372.88222598 C546.83797101 376.27579018 545.90316516 379.1410282 544.8227659 382.38222598 C544.6577659 383.53722598 544.4927659 384.69222598 544.3227659 385.88222598 C543.83797101 389.27579018 542.90316516 392.1410282 541.8227659 395.38222598 C541.6577659 396.53722598 541.4927659 397.69222598 541.3227659 398.88222598 C540.8227659 402.38222598 540.8227659 402.38222598 539.8852659 405.13222598 C538.92043193 408.08348284 538.34662809 410.8298006 537.8227659 413.88222598 C537.13573407 417.88540359 536.13422927 421.53526676 534.8227659 425.38222598 C534.6577659 426.53722598 534.4927659 427.69222598 534.3227659 428.88222598 C533.8227659 432.38222598 533.8227659 432.38222598 532.8852659 435.13222598 C531.92043193 438.08348284 531.34662809 440.8298006 530.8227659 443.88222598 C530.13573407 447.88540359 529.13422927 451.53526676 527.8227659 455.38222598 C527.6577659 456.53722598 527.4927659 457.69222598 527.3227659 458.88222598 C526.83797101 462.27579018 525.90316516 465.1410282 524.8227659 468.38222598 C524.6577659 469.53722598 524.4927659 470.69222598 524.3227659 471.88222598 C523.8227659 475.38222598 523.8227659 475.38222598 522.8852659 478.13222598 C521.92043193 481.08348284 521.34662809 483.8298006 520.8227659 486.88222598 C520.13573407 490.88540359 519.13422927 494.53526676 517.8227659 498.38222598 C517.6577659 499.53722598 517.4927659 500.69222598 517.3227659 501.88222598 C516.83797101 505.27579018 515.90316516 508.1410282 514.8227659 511.38222598 C514.6577659 512.53722598 514.4927659 513.69222598 514.3227659 514.88222598 C513.8227659 518.38222598 513.8227659 518.38222598 512.8852659 521.13222598 C511.92043193 524.08348284 511.34662809 526.8298006 510.8227659 529.88222598 C510.13573407 533.88540359 509.13422927 537.53526676 507.8227659 541.38222598 C507.6577659 542.53722598 507.4927659 543.69222598 507.3227659 544.88222598 C506.83797101 548.27579018 505.90316516 551.1410282 504.8227659 554.38222598 C504.6577659 555.53722598 504.4927659 556.69222598 504.3227659 557.88222598 C503.8227659 561.38222598 503.8227659 561.38222598 502.8852659 564.13222598 C501.92043193 567.08348284 501.34662809 569.8298006 500.8227659 572.88222598 C500.13573407 576.88540359 499.13422927 580.53526676 497.8227659 584.38222598 C497.6577659 585.53722598 497.4927659 586.69222598 497.3227659 587.88222598 C496.8227659 591.38222598 496.8227659 591.38222598 495.8852659 594.13222598 C494.92043193 597.08348284 494.34662809 599.8298006 493.8227659 602.88222598 C493.13573407 606.88540359 492.13422927 610.53526676 490.8227659 614.38222598 C490.6577659 615.53722598 490.4927659 616.69222598 490.3227659 617.88222598 C489.83797101 621.27579018 488.90316516 624.1410282 487.8227659 627.38222598 C487.6577659 628.53722598 487.4927659 629.69222598 487.3227659 630.88222598 C486.8227659 634.38222598 486.8227659 634.38222598 485.8852659 637.13222598 C484.92043193 640.08348284 484.34662809 642.8298006 483.8227659 645.88222598 C483.13573407 649.88540359 482.13422927 653.53526676 480.8227659 657.38222598 C480.6577659 658.53722598 480.4927659 659.69222598 480.3227659 660.88222598 C479.83797101 664.27579018 478.90316516 667.1410282 477.8227659 670.38222598 C477.6577659 671.53722598 477.4927659 672.69222598 477.3227659 673.88222598 C476.8227659 677.38222598 476.8227659 677.38222598 475.8852659 680.13222598 C474.92043193 683.08348284 474.34662809 685.8298006 473.8227659 688.88222598 C473.13573407 692.88540359 472.13422927 696.53526676 470.8227659 700.38222598 C470.6577659 701.53722598 470.4927659 702.69222598 470.3227659 703.88222598 C469.83797101 707.27579018 468.90316516 710.1410282 467.8227659 713.38222598 C467.6577659 714.53722598 467.4927659 715.69222598 467.3227659 716.88222598 C466.8227659 720.38222598 466.8227659 720.38222598 465.8852659 723.13222598 C464.92043193 726.08348284 464.34662809 728.8298006 463.8227659 731.88222598 C463.13573407 735.88540359 462.13422927 739.53526676 460.8227659 743.38222598 C460.6577659 744.53722598 460.4927659 745.69222598 460.3227659 746.88222598 C459.8227659 750.38222598 459.8227659 750.38222598 458.8852659 753.13222598 C457.92043193 756.08348284 457.34662809 758.8298006 456.8227659 761.88222598 C456.13573407 765.88540359 455.13422927 769.53526676 453.8227659 773.38222598 C453.6577659 774.53722598 453.4927659 775.69222598 453.3227659 776.88222598 C452.83797101 780.27579018 451.90316516 783.1410282 450.8227659 786.38222598 C450.6577659 787.53722598 450.4927659 788.69222598 450.3227659 789.88222598 C449.8227659 793.38222598 449.8227659 793.38222598 448.8852659 796.13222598 C447.92043193 799.08348284 447.34662809 801.8298006 446.8227659 804.88222598 C446.13573407 808.88540359 445.13422927 812.53526676 443.8227659 816.38222598 C443.6577659 817.53722598 443.4927659 818.69222598 443.3227659 819.88222598 C442.83797101 823.27579018 441.90316516 826.1410282 440.8227659 829.38222598 C440.6577659 830.53722598 440.4927659 831.69222598 440.3227659 832.88222598 C439.84006319 836.26114493 438.94327615 839.1700966 437.8227659 842.38222598 C437.8227659 843.04222598 437.8227659 843.70222598 437.8227659 844.38222598 C436.8327659 844.87722598 436.8327659 844.87722598 435.8227659 845.38222598 C435.72162485 844.81293872 435.6204838 844.24365145 435.51627786 843.65711306 C434.14885425 836.3751044 432.18418458 829.33442368 430.0962034 822.22988223 C429.71664895 820.92684249 429.33749043 819.62368736 428.95869119 818.32042788 C428.14103249 815.51007895 427.32082702 812.70049094 426.49860818 809.8914728 C425.16729823 805.3428475 423.84192854 800.79250438 422.51759012 796.24184512 C421.10040229 791.3728322 419.68299639 786.50388412 418.26383646 781.63544558 C413.30177433 764.61105282 408.37744982 747.57580166 403.45588358 730.53966616 C401.16989125 722.62682712 398.8822253 714.71447191 396.59458978 706.8021078 C396.08546912 705.04117757 395.57636215 703.28024338 395.06726892 701.51930522 C389.65706801 682.80560374 384.24045102 664.09376186 378.8227659 645.38222598 C370.89676499 618.0072348 362.97764745 590.63025945 355.06238992 563.25216006 C349.46417123 543.88854462 343.86529296 524.52512194 338.2602659 505.16347598 C338.03442882 504.38334832 337.80859174 503.60322066 337.57591112 502.79945277 C335.32251893 495.0154947 333.0688172 487.23162635 330.81452329 479.44792937 C325.93000148 462.58217536 321.05119762 445.71479142 316.18246515 428.84447192 C314.54747717 423.17976264 312.91166358 417.5152917 311.27590044 411.85080622 C309.71445752 406.44321759 308.15446011 401.03521481 306.59560163 395.62688063 C305.62196685 392.2502546 304.6469253 388.87403585 303.67154939 385.49791239 C303.22649491 383.95636458 302.78199443 382.41465666 302.33816393 380.87275599 C298.63214772 367.99946006 294.72408521 355.20084658 290.8227659 342.38222598 C244.2927659 342.38222598 197.7627659 342.38222598 149.8227659 342.38222598 C149.4927659 344.36222598 149.1627659 346.34222598 148.8227659 348.38222598 C148.17837873 350.05763261 147.51029891 351.72405814 146.8227659 353.38222598 C144.98336097 357.93088043 144.98336097 357.93088043 145.8227659 362.38222598 C145.1627659 362.71222598 144.5027659 363.04222598 143.8227659 363.38222598 C142.97827617 366.01894603 142.97827617 366.01894603 142.3227659 369.13222598 C141.43177898 373.06419001 140.38035568 376.66510932 138.8227659 380.38222598 C136.98336097 384.93088043 136.98336097 384.93088043 137.8227659 389.38222598 C137.1627659 389.71222598 136.5027659 390.04222598 135.8227659 390.38222598 C134.57119749 393.80437944 134.57119749 393.80437944 133.8227659 397.38222598 C134.1527659 398.04222598 134.4827659 398.70222598 134.8227659 399.38222598 C134.1627659 399.71222598 133.5027659 400.04222598 132.8227659 400.38222598 C131.97827617 403.01894603 131.97827617 403.01894603 131.3227659 406.13222598 C130.43177898 410.06419001 129.38035568 413.66510932 127.8227659 417.38222598 C125.98336097 421.93088043 125.98336097 421.93088043 126.8227659 426.38222598 C126.1627659 426.71222598 125.5027659 427.04222598 124.8227659 427.38222598 C123.97827617 430.01894603 123.97827617 430.01894603 123.3227659 433.13222598 C122.43177898 437.06419001 121.38035568 440.66510932 119.8227659 444.38222598 C117.98336097 448.93088043 117.98336097 448.93088043 118.8227659 453.38222598 C118.1627659 453.71222598 117.5027659 454.04222598 116.8227659 454.38222598 C115.57119749 457.80437944 115.57119749 457.80437944 114.8227659 461.38222598 C115.1527659 462.04222598 115.4827659 462.70222598 115.8227659 463.38222598 C115.1627659 463.71222598 114.5027659 464.04222598 113.8227659 464.38222598 C112.97827617 467.01894603 112.97827617 467.01894603 112.3227659 470.13222598 C111.43177898 474.06419001 110.38035568 477.66510932 108.8227659 481.38222598 C106.98336097 485.93088043 106.98336097 485.93088043 107.8227659 490.38222598 C107.1627659 490.71222598 106.5027659 491.04222598 105.8227659 491.38222598 C104.97827617 494.01894603 104.97827617 494.01894603 104.3227659 497.13222598 C103.43177898 501.06419001 102.38035568 504.66510932 100.8227659 508.38222598 C98.98336097 512.93088043 98.98336097 512.93088043 99.8227659 517.38222598 C99.1627659 517.71222598 98.5027659 518.04222598 97.8227659 518.38222598 C96.57119749 521.80437944 96.57119749 521.80437944 95.8227659 525.38222598 C96.1527659 526.04222598 96.4827659 526.70222598 96.8227659 527.38222598 C96.1627659 527.71222598 95.5027659 528.04222598 94.8227659 528.38222598 C93.94361971 531.12015411 93.94361971 531.12015411 93.2602659 534.31972598 C91.9022361 540.22328558 91.9022361 540.22328558 90.8227659 542.38222598 C91.1527659 543.04222598 91.4827659 543.70222598 91.8227659 544.38222598 C91.1627659 544.71222598 90.5027659 545.04222598 89.8227659 545.38222598 C88.57119749 548.80437944 88.57119749 548.80437944 87.8227659 552.38222598 C88.1527659 553.04222598 88.4827659 553.70222598 88.8227659 554.38222598 C88.1627659 554.71222598 87.5027659 555.04222598 86.8227659 555.38222598 C85.97827617 558.01894603 85.97827617 558.01894603 85.3227659 561.13222598 C84.43177898 565.06419001 83.38035568 568.66510932 81.8227659 572.38222598 C79.98336097 576.93088043 79.98336097 576.93088043 80.8227659 581.38222598 C80.1627659 581.71222598 79.5027659 582.04222598 78.8227659 582.38222598 C77.97827617 585.01894603 77.97827617 585.01894603 77.3227659 588.13222598 C76.43177898 592.06419001 75.38035568 595.66510932 73.8227659 599.38222598 C71.98336097 603.93088043 71.98336097 603.93088043 72.8227659 608.38222598 C72.1627659 608.71222598 71.5027659 609.04222598 70.8227659 609.38222598 C69.57119749 612.80437944 69.57119749 612.80437944 68.8227659 616.38222598 C69.1527659 617.04222598 69.4827659 617.70222598 69.8227659 618.38222598 C69.1627659 618.71222598 68.5027659 619.04222598 67.8227659 619.38222598 C66.97827617 622.01894603 66.97827617 622.01894603 66.3227659 625.13222598 C65.43177898 629.06419001 64.38035568 632.66510932 62.8227659 636.38222598 C60.98336097 640.93088043 60.98336097 640.93088043 61.8227659 645.38222598 C61.1627659 645.71222598 60.5027659 646.04222598 59.8227659 646.38222598 C59.24115236 648.23192203 59.24115236 648.23192203 58.8852659 650.44472598 C58.10799331 654.30660792 56.99186979 657.80032831 55.5571409 661.46035098 C54.43135087 664.40656744 53.55935633 667.31309918 52.8227659 670.38222598 C53.1527659 671.04222598 53.4827659 671.70222598 53.8227659 672.38222598 C53.1627659 672.71222598 52.5027659 673.04222598 51.8227659 673.38222598 C50.57119749 676.80437944 50.57119749 676.80437944 49.8227659 680.38222598 C50.1527659 681.04222598 50.4827659 681.70222598 50.8227659 682.38222598 C50.1627659 682.71222598 49.5027659 683.04222598 48.8227659 683.38222598 C47.97827617 686.01894603 47.97827617 686.01894603 47.3227659 689.13222598 C46.43177898 693.06419001 45.38035568 696.66510932 43.8227659 700.38222598 C41.98336097 704.93088043 41.98336097 704.93088043 42.8227659 709.38222598 C42.1627659 709.71222598 41.5027659 710.04222598 40.8227659 710.38222598 C40.24115236 712.23192203 40.24115236 712.23192203 39.8852659 714.44472598 C39.10799331 718.30660792 37.99186979 721.80032831 36.5571409 725.46035098 C35.43135087 728.40656744 34.55935633 731.31309918 33.8227659 734.38222598 C34.1527659 735.04222598 34.4827659 735.70222598 34.8227659 736.38222598 C34.1627659 736.71222598 33.5027659 737.04222598 32.8227659 737.38222598 C31.57119749 740.80437944 31.57119749 740.80437944 30.8227659 744.38222598 C31.1527659 745.04222598 31.4827659 745.70222598 31.8227659 746.38222598 C31.1627659 746.71222598 30.5027659 747.04222598 29.8227659 747.38222598 C28.97827617 750.01894603 28.97827617 750.01894603 28.3227659 753.13222598 C27.43177898 757.06419001 26.38035568 760.66510932 24.8227659 764.38222598 C22.98336097 768.93088043 22.98336097 768.93088043 23.8227659 773.38222598 C23.1627659 773.71222598 22.5027659 774.04222598 21.8227659 774.38222598 C21.24115236 776.23192203 21.24115236 776.23192203 20.8852659 778.44472598 C20.10799331 782.30660792 18.99186979 785.80032831 17.5571409 789.46035098 C16.43135087 792.40656744 15.55935633 795.31309918 14.8227659 798.38222598 C15.1527659 799.04222598 15.4827659 799.70222598 15.8227659 800.38222598 C15.1627659 800.71222598 14.5027659 801.04222598 13.8227659 801.38222598 C13.24115236 803.23192203 13.24115236 803.23192203 12.8852659 805.44472598 C12.10799331 809.30660792 10.99186979 812.80032831 9.5571409 816.46035098 C8.43135087 819.40656744 7.55935633 822.31309918 6.8227659 825.38222598 C7.1527659 826.04222598 7.4827659 826.70222598 7.8227659 827.38222598 C7.1627659 827.71222598 6.5027659 828.04222598 5.8227659 828.38222598 C5.17063298 830.40685853 5.17063298 830.40685853 4.8227659 832.38222598 C2.69082754 827.66725302 1.67432412 822.79359394 0.56153543 817.76674746 C0.2325861 816.30454838 0.2325861 816.30454838 -0.10300867 814.81280993 C-0.83740414 811.54384655 -1.56586313 808.27358854 -2.2944216 805.00331973 C-2.81914753 802.66260128 -3.34426813 800.32197127 -3.86975424 797.98142336 C-5.003469 792.92833102 -6.13473785 787.87469773 -7.2638735 782.82058047 C-9.07502002 774.7141519 -10.89230321 766.60910534 -12.71068137 758.50429629 C-13.1784128 756.41936642 -13.64613315 754.33443406 -14.11384975 752.24950086 C-14.42840907 750.84729469 -14.74297543 749.4450901 -15.05754875 748.04288708 C-16.17838628 743.0465243 -17.29846337 738.04999138 -18.41827719 733.05339907 C-24.6649737 705.18298052 -30.95313584 677.32199016 -37.24914877 649.46267031 C-38.70504911 643.01992569 -40.16036492 636.57704903 -41.61571066 630.1341791 C-43.37466061 622.34737971 -45.13365321 614.56058997 -46.89290182 606.77385806 C-51.45676538 586.57332073 -56.01820939 566.37223791 -60.57871513 546.17094229 C-61.31499738 542.90949991 -62.05128836 539.64805949 -62.78758566 536.38662051 C-62.93317899 535.74171129 -63.07877232 535.09680207 -63.22877757 534.43235015 C-65.4046778 524.79424923 -67.58126351 515.1563033 -69.75828879 505.51845645 C-70.62002502 501.70341133 -71.48175883 497.88836567 -72.34349005 494.07331942 C-72.91696077 491.53446366 -73.49043945 488.99560969 -74.06392615 486.45675753 C-77.66624688 470.50859588 -81.26529015 454.55970094 -84.86039297 438.60991095 C-87.31511617 427.71957411 -89.7715122 416.82961545 -92.22910635 405.93992613 C-93.68534725 399.48692091 -95.14056197 393.03368682 -96.5935549 386.57994937 C-97.93688308 380.61331221 -99.28257004 374.6472122 -100.63012831 368.68152903 C-101.12379388 366.49399666 -101.61655178 364.30625924 -102.10835783 362.11830805 C-102.77696213 359.14437567 -103.44872871 356.1711754 -104.1213259 353.19814395 C-104.31693169 352.32449411 -104.51253748 351.45084427 -104.71407072 350.5507202 C-105.61390586 346.35529927 -105.61390586 346.35529927 -107.1772341 342.38222598 C-161.6272341 342.38222598 -216.0772341 342.38222598 -272.1772341 342.38222598 Z M799.8227659 583.38222598 C799.8227659 755.97222598 799.8227659 928.56222598 799.8227659 1106.38222598 C851.9627659 1106.38222598 904.1027659 1106.38222598 957.8227659 1106.38222598 C957.8227659 933.79222598 957.8227659 761.20222598 957.8227659 583.38222598 C905.6827659 583.38222598 853.5427659 583.38222598 799.8227659 583.38222598 Z M737.8227659 1411.38222598 C737.8227659 1411.71222598 737.8227659 1412.04222598 737.8227659 1412.38222598 C740.4627659 1412.38222598 743.1027659 1412.38222598 745.8227659 1412.38222598 C745.8227659 1412.05222598 745.8227659 1411.72222598 745.8227659 1411.38222598 C743.1827659 1411.38222598 740.5427659 1411.38222598 737.8227659 1411.38222598 Z " fill="#FFFFFF" transform="translate(588.1772341001779,952.6177740227431)"/>
<path d="M0 0 C609.84 0 1219.68 0 1848 0 C1848 3 1848 3 1846.27734375 4.98046875 C1845.50519531 5.70878906 1844.73304687 6.43710938 1843.9375 7.1875 C1841.02976501 9.94612037 1838.30395763 12.76529482 1835.69140625 15.80078125 C1831.36847352 20.7956119 1826.67392846 25.37729622 1821.9609375 30 C1817.97966607 33.93515632 1814.20850167 37.97395634 1810.55419922 42.21435547 C1805.57478341 47.93528654 1800.0166936 53.04801576 1794.25390625 57.9609375 C1790.69458092 61.18098571 1787.3631135 64.63102622 1784.03588867 68.08911133 C1782.72672545 69.42902312 1781.36703921 70.71918942 1780 72 C1779.34 72 1778.68 72 1778 72 C1777.67 72.99 1777.34 73.98 1777 75 C1775.29296875 76.75390625 1775.29296875 76.75390625 1773.1875 78.5625 C1772.15689453 79.46162109 1772.15689453 79.46162109 1771.10546875 80.37890625 C1769 82 1769 82 1766.80078125 83.02734375 C1764.64414355 83.92686467 1764.64414355 83.92686467 1764 87 C1762.50390625 88.5078125 1762.50390625 88.5078125 1760.5625 90.125 C1757.28115956 92.90559728 1754.05987122 95.73404276 1750.875 98.625 C1740.45833333 108 1740.45833333 108 1738 108 C1738 108.66 1738 109.32 1738 110 C1735.99329215 111.70173705 1733.97511831 113.29549925 1731.875 114.875 C1726.78660404 118.77956507 1721.83647449 122.78749807 1717 127 C1710.6781 132.48703262 1704.15158706 137.66663047 1697.53857422 142.79638672 C1695.43898395 144.438878 1693.3775157 146.12684594 1691.3125 147.8125 C1684.22787953 153.49640302 1676.84322428 158.78967498 1669.515625 164.15332031 C1667.08783257 165.93552353 1664.66753555 167.72735315 1662.25 169.5234375 C1646.15052631 181.4744263 1629.7759073 193.01682943 1613 204 C1612.05737305 204.61875 1612.05737305 204.61875 1611.09570312 205.25 C1569.35025373 232.60765715 1526.15289287 257.77650418 1481.36621094 279.82861328 C1479.28126531 280.86076032 1477.20480359 281.90700328 1475.1328125 282.96484375 C1420.25415716 310.94205298 1362.55472455 333.08163643 1304 352 C1303.24027893 352.24621094 1302.48055786 352.49242188 1301.69781494 352.74609375 C1216.26833143 380.39714966 1127.81787922 397.29128087 1038.5 405.75 C1037.44750061 405.85123169 1036.39500122 405.95246338 1035.31060791 406.0567627 C999.56894928 409.45498667 963.90691961 410.38003137 928.01993942 410.31805801 C924.69852398 410.3124125 921.37711366 410.30959545 918.05569458 410.30697632 C887.55920513 410.27201417 857.19069511 410.04012134 826.79980469 407.25323486 C823.81927853 406.98365423 820.83765915 406.73045422 817.85546875 406.47998047 C720.54281388 398.24772834 624.85533094 378.57413636 387 290 C386.26620117 289.6587912 385.53240234 289.3175824 384.77636719 288.96603394 C376.76661691 285.23710814 368.77920814 281.50729995 361 277.3125 C359.40149494 276.46008695 357.80251026 275.60857289 356.203125 274.7578125 C355.36845703 274.3134082 354.53378906 273.86900391 353.67382812 273.41113281 C350.80761879 271.89846938 347.92915086 270.41149898 345.046875 268.9296875 C330.83110736 261.61811706 316.83971175 253.9999706 303 246 C301.84294621 245.33282769 300.68588205 244.66567337 299.52880859 243.99853516 C284.25970227 235.18466287 269.17987452 226.14573142 254.38720703 216.54638672 C252.17951343 215.11628534 249.9647073 213.69823599 247.74609375 212.28515625 C228.74238661 200.14825843 210.17132668 187.34779807 192 174 C190.423256 172.84754827 188.84643099 171.69520737 187.26953125 170.54296875 C171.77652813 159.1986737 156.56432481 147.56970576 141.71289062 135.39697266 C139.42966821 133.53485769 137.12219282 131.7041277 134.8125 129.875 C130.42944888 126.38179651 126.15430133 122.77033076 121.88818359 119.13623047 C118.44404516 116.20623318 114.959344 113.33675907 111.4375 110.5 C106.36248529 106.37192681 101.55984584 101.99654409 96.765625 97.55078125 C94.55944053 95.51598117 92.33367739 93.52353762 90.0625 91.5625 C84.95701743 87.13212257 80.01838752 82.51711458 75.07128906 77.91162109 C73.55658923 76.51368384 72.03092263 75.12760333 70.49902344 73.74853516 C59.89562324 64.15833538 49.84576611 53.99853135 39.75048828 43.88085938 C37.13522148 41.25985869 34.51543651 38.64342706 31.89432716 36.02827072 C29.84714739 33.98472746 27.80238326 31.93878037 25.75831223 29.89212799 C24.33123467 28.46407596 22.90217351 27.03800703 21.47305298 25.61199951 C16.94648373 21.06918777 12.54784154 16.47974689 8.38581848 11.59913635 C6.18870852 9.0638271 3.74427509 6.81832926 1.28515625 4.54296875 C0 3 0 3 0 0 Z " fill="#FFFFFF" transform="translate(776,2526)"/>
<path d="M0 0 C3.09588803 0.00565801 6.19177055 0.00846743 9.28766251 0.0110817 C39.57591744 0.04822467 69.73173996 0.45151361 99.92575455 3.06482315 C102.98435791 3.329361 106.04369572 3.58399037 109.10318375 3.83807755 C205.37848823 11.94257514 300.47244298 31.09089583 556.85367203 128.31805801 C557.44084 128.60616348 558.02800797 128.89426895 558.6329689 129.19110489 C575.58664877 137.51577346 592.38740129 146.05717712 608.85367203 155.31805801 C610.4411525 156.20847794 610.4411525 156.20847794 612.06070328 157.11688614 C635.7625631 170.44405645 659.18782078 184.28520201 681.85367203 199.31805801 C682.9710993 200.05679451 684.08861958 200.79539032 685.20621109 201.53387833 C713.31650141 220.11821179 713.31650141 220.11821179 726.8907814 229.90399551 C729.01446666 231.43389415 731.14483385 232.9542148 733.27554703 234.47430801 C743.63047671 241.88271299 753.78696959 249.52368281 763.85367203 257.31805801 C764.61776382 257.90796524 765.38185562 258.49787247 766.16910172 259.10565567 C775.16863828 266.05511193 784.09362062 273.0683603 792.85367203 280.31805801 C794.62435321 281.75574542 796.39519095 283.19324004 798.16617203 284.63055801 C804.21339977 289.57828981 810.1329355 294.6690401 816.05093765 299.76971817 C817.82853116 301.29646492 819.61319217 302.81447509 821.40054703 304.32977676 C828.36621392 310.24407688 835.1648362 316.29930108 841.84976578 322.52899551 C844.42628016 324.92941427 847.03753939 327.28716932 849.66617203 329.63055801 C863.25547021 341.84348757 876.29085548 354.59454742 889.19327164 367.52728653 C891.94025048 370.27968396 894.69261406 373.02661698 897.4454689 375.77313614 C899.21857651 377.54690371 900.99137433 379.32098101 902.76382828 381.09540176 C903.57433136 381.90388062 904.38483444 382.71235947 905.21989822 383.54533768 C909.45112136 387.793912 913.52640299 392.11718828 917.42569351 396.6733284 C919.65261459 399.23827108 922.10260867 401.54232781 924.56851578 403.87274551 C925.85367203 405.31805801 925.85367203 405.31805801 925.85367203 407.31805801 C926.51367203 407.31805801 927.17367203 407.31805801 927.85367203 407.31805801 C928.18367203 408.30805801 928.51367203 409.29805801 928.85367203 410.31805801 C318.68367203 410.31805801 -291.48632797 410.31805801 -920.14632797 410.31805801 C-918.19462628 405.43880377 -916.14335391 402.98161139 -912.45882797 399.50555801 C-909.18654559 396.37536707 -906.03176609 393.23198137 -903.09798813 389.77850723 C-898.5272104 384.52726487 -893.60788724 379.63497382 -888.68148422 374.72040176 C-887.67917717 373.71741899 -886.67701841 372.71428799 -885.67499924 371.71101761 C-883.58641263 369.62096663 -881.49605409 367.53270914 -879.40438461 365.44574356 C-876.74402388 362.79107931 -874.08817955 360.13194918 -871.43365955 357.47144604 C-869.36866191 355.40280852 -867.30125594 353.33659102 -865.23314857 351.27106285 C-864.25376386 350.29233796 -863.27510116 349.31288995 -862.29722404 348.33265877 C-856.74910522 342.77411263 -851.10627895 337.43069951 -845.14632797 332.31805801 C-843.80373331 331.08851168 -842.46783336 329.85149336 -841.14632797 328.59930801 C-840.48632797 327.97669083 -839.82632797 327.35407364 -839.14632797 326.71258926 C-838.48632797 326.08739395 -837.82632797 325.46219864 -837.14632797 324.81805801 C-831.91384083 319.86150281 -826.60490736 315.02493216 -821.14632797 310.31805801 C-820.29699692 309.58546768 -820.29699692 309.58546768 -819.43050766 308.83807755 C-817.7964647 307.4328006 -816.15952027 306.03099497 -814.52132797 304.63055801 C-813.30511953 303.59026662 -812.08897562 302.54989979 -810.87289047 301.50946426 C-810.25832993 300.9836879 -809.64376938 300.45791153 -809.01058578 299.91620255 C-807.16463518 298.33375196 -805.32284387 296.74659597 -803.48226547 295.15790176 C-797.69328883 290.16588993 -791.88235226 285.23043503 -785.88070297 280.49383926 C-783.75102093 278.79922084 -781.63977595 277.08850129 -779.53695297 275.36102676 C-770.96345484 268.32328647 -762.24428105 261.54540246 -753.33138657 254.94403458 C-750.97625068 253.19149771 -748.6326644 251.42430244 -746.29085922 249.65399551 C-736.42879466 242.20403552 -726.48000374 234.91619124 -716.33871078 227.85126114 C-714.03569828 226.24069115 -711.74272078 224.6165466 -709.45101547 222.98993301 C-696.89470158 214.09969617 -684.09521398 205.62458656 -671.14632797 197.31805801 C-670.30682602 196.77906876 -669.46732407 196.2400795 -668.60238266 195.68475723 C-640.50736709 177.68973622 -611.61141015 160.96283845 -582.14632797 145.31805801 C-581.22352036 144.82773087 -580.30071274 144.33740372 -579.34994125 143.83221817 C-572.64075172 140.27778277 -565.90090883 136.78534636 -559.14632797 133.31805801 C-558.04144028 132.74861465 -556.93655258 132.1791713 -555.79818344 131.59247208 C-535.92562824 121.38307508 -515.70293553 112.12748657 -495.21664047 103.22040176 C-493.26678741 102.37056015 -491.31928327 101.51563418 -489.37289047 100.65790176 C-432.823463 75.7536837 -373.80719754 56.22517229 -314.14632797 40.31805801 C-313.38203476 40.11307693 -312.61774155 39.90809586 -311.83028793 39.69690323 C-244.06465389 21.53270795 -174.42367837 10.27429809 -104.58382797 4.06805801 C-103.73076065 3.99083511 -102.87769333 3.91361221 -101.99877548 3.83404922 C-68.04506224 0.80559899 -34.07354453 -0.06334588 0 0 Z " fill="#FFFFFF" transform="translate(1696.146327972412,437.681941986084)"/>
<path d="M0 0 C189.75 0 379.5 0 575 0 C576.38154074 2.76308147 576.1259538 4.98678846 576.12698364 8.08021545 C576.12980347 9.37729935 576.13262329 10.67438324 576.13552856 12.01077271 C576.13358409 13.45648207 576.13153591 14.9021913 576.12939453 16.34790039 C576.1307489 17.86379539 576.13252903 19.37969006 576.13470459 20.89558411 C576.13927435 25.01937641 576.13749133 29.14314378 576.1343255 33.26693654 C576.13180002 37.57464113 576.13413993 41.88234354 576.13571167 46.19004822 C576.13753261 53.42398463 576.13512881 60.65791084 576.13037109 67.8918457 C576.12492656 76.26701679 576.12669282 84.64216354 576.1321975 93.01733404 C576.13672831 100.19695052 576.1373794 107.37655964 576.13475883 114.55617708 C576.13319614 118.84919823 576.1330021 123.14220792 576.13629532 127.43522835 C576.13917364 131.46938281 576.13719907 135.50350574 576.13140106 139.53765678 C576.13007334 141.02240318 576.13046778 142.50715221 576.13266373 143.99189758 C576.13537468 146.01018685 576.1313809 148.02848189 576.12698364 150.04676819 C576.12660662 151.17889771 576.12622959 152.31102724 576.12584114 153.47746372 C576 156 576 156 575 157 C572.85261442 157.10307384 570.70176997 157.13401902 568.55191708 157.1386652 C567.86697189 157.14150742 567.1820267 157.14434964 566.4763256 157.14727798 C564.1523317 157.1556829 561.82838726 157.15689769 559.50437927 157.15821838 C557.83297085 157.1627798 556.16156358 157.16777919 554.49015766 157.17318195 C549.87478213 157.1868204 545.259414 157.19419783 540.64402354 157.20060861 C535.67534233 157.20858762 530.70667666 157.22229393 525.73800659 157.23532104 C517.12198305 157.25711941 508.50595796 157.27525155 499.88992119 157.29092598 C487.43242522 157.3135941 474.97494643 157.34174111 462.517465 157.37124526 C442.30828176 157.41895876 422.09909152 157.46221272 401.88989258 157.50268555 C382.25316828 157.54202138 362.61645021 157.58344299 342.97973633 157.62768555 C341.1655306 157.63177196 341.1655306 157.63177196 339.31467425 157.63594092 C333.24739595 157.64962008 327.18011774 157.66334042 321.11283958 157.67708123 C270.74190526 157.79110502 220.37095848 157.89708394 170 158 C170 208.16 170 258.32 170 310 C181.47579834 310.02505615 192.95159668 310.0501123 204.77514648 310.07592773 C241.44877981 310.15670103 278.12240026 310.24236167 314.79601511 310.33111694 C320.48778928 310.34488733 326.17956355 310.35861431 331.87133789 310.37231445 C333.00451858 310.37504276 334.13769927 310.37777106 335.30521876 310.38058204 C353.67917244 310.42471646 372.05313231 310.46532957 390.42709684 310.50465261 C409.26554791 310.54504768 428.10398743 310.58920072 446.9424215 310.63687855 C458.57669484 310.66620397 470.21096727 310.69256071 481.84525562 310.71517897 C489.81179685 310.73094691 497.77832394 310.75034871 505.7448495 310.77266841 C510.34840344 310.78545693 514.95194642 310.79658559 519.55551338 310.80341911 C523.76283 310.80969961 527.9701089 310.82050116 532.17740489 310.8350333 C533.70634522 310.83949208 535.23529162 310.84223339 536.76423817 310.84316199 C538.82885944 310.84465692 540.89336939 310.85218097 542.95796871 310.8613348 C544.68436719 310.86532186 544.68436719 310.86532186 546.44564241 310.86938947 C549 311 549 311 550 312 C550 363.48 550 414.96 550 468 C424.6 468.33 299.2 468.66 170 469 C170 567.34 170 665.68 170 767 C113.9 767 57.8 767 0 767 C0 513.89 0 260.78 0 0 Z " fill="#FFFFFF" transform="translate(2029,1293)"/>
<path d="M0 0 C52.47 0 104.94 0 159 0 C160.82218689 1.82218689 160.12378675 4.3522234 160.13100848 6.7777603 C160.12838146 7.61741464 160.12575445 8.45706898 160.12304783 9.3221674 C160.12420167 10.20971743 160.12535552 11.09726745 160.12654433 12.01171294 C160.12921885 15.02492178 160.12468201 18.03807859 160.12025452 21.05128479 C160.12069005 23.21766816 160.12156462 25.38405149 160.12284368 27.55043453 C160.12509219 33.53400809 160.12106252 39.51756393 160.11606562 45.50113523 C160.11176638 51.94221395 160.11320717 58.38329159 160.1139679 64.82437134 C160.11466667 75.99411307 160.11137795 87.16384934 160.10573006 98.33358955 C160.09981961 110.05253693 160.09596544 121.77148198 160.09487724 133.49043083 C160.0948085 134.21819415 160.09473976 134.94595747 160.09466894 135.69577423 C160.09433062 139.39148884 160.09402923 143.08720346 160.09374207 146.78291809 C160.09163984 172.98182653 160.08489741 199.18073194 160.07543945 225.37963867 C160.0662599 250.83666976 160.0591739 276.29370001 160.05493164 301.75073242 C160.05480011 302.53498025 160.05466859 303.31922808 160.05453308 304.12724099 C160.05321459 312.00274632 160.05193877 319.87825166 160.05069422 327.75375701 C160.04815778 343.79807255 160.04533653 359.84238803 160.04234314 375.88670349 C160.0421372 376.99332008 160.0421372 376.99332008 160.04192711 378.12229257 C160.03770275 400.74189353 160.03227081 423.36149397 160.02565002 445.98109436 C160.02509419 447.88257226 160.02509419 447.88257226 160.02452713 449.82246386 C160.01703134 475.21497612 160.00836402 500.60748801 160 526 C107.2 526 54.4 526 0 526 C0 352.42 0 178.84 0 0 Z " fill="#FFFFFF" transform="translate(2717,1534)"/>
<path d="M0 0 C1.65020142 0.00845947 1.65020142 0.00845947 3.33374023 0.01708984 C11.51558315 0.13910773 18.84743246 0.82179262 26.6875 3.3125 C27.31382324 3.50585938 27.94014648 3.69921875 28.58544922 3.8984375 C46.44693861 9.53753379 63.13290639 20.44052915 74.6875 35.3125 C75.24824219 36.02535156 75.80898437 36.73820312 76.38671875 37.47265625 C91.15165915 57.34726142 97.59773116 80.68817561 95.6875 105.3125 C95.3575 105.9725 95.0275 106.6325 94.6875 107.3125 C94.7184375 108.3953125 94.7184375 108.3953125 94.75 109.5 C94.68763873 112.30625706 94.13963164 114.60453195 93.29296875 117.26953125 C92.64748077 119.33264547 92.64748077 119.33264547 92.23828125 121.57421875 C87.73715137 142.41987701 71.05719904 163.05746857 53.5390625 174.625 C29.9814098 188.56596708 3.62696143 194.68602313 -23.34326172 187.86035156 C-48.09790681 180.97349022 -69.56639451 165.4863875 -82.35595703 143.04736328 C-94.22407674 121.5223866 -98.16044219 95.86885549 -92.33984375 71.80859375 C-84.42258638 44.86583577 -69.00305258 24.48128064 -44.38671875 10.42578125 C-30.54616214 2.95140911 -15.63548642 -0.0843533 0 0 Z " fill="#FFFFFF" transform="translate(2797.3125,1272.6875)"/>
</svg>
