<?xml version="1.0" encoding="UTF-8"?>
<svg version="1.1" xmlns="http://www.w3.org/2000/svg" width="3375" height="3375">
<path d="M0 0 C1.63904832 -0.0012454 3.27809635 -0.00292774 4.91714383 -0.00500236 C9.41049258 -0.00943063 13.90382057 -0.00768236 18.39716985 -0.00490058 C23.30789152 -0.00297157 28.21860928 -0.00686455 33.12932986 -0.00999737 C41.76565056 -0.0147049 50.40196554 -0.01569721 59.03828731 -0.01426902 C71.96749618 -0.01214666 84.89669912 -0.01576298 97.82590708 -0.0204838 C119.86187058 -0.02835579 141.89783292 -0.03145374 163.9337976 -0.03192973 C186.26831556 -0.03242445 208.60283172 -0.03507181 230.93734908 -0.04033732 C232.36181199 -0.04067087 233.7862749 -0.04100433 235.21073781 -0.04133773 C240.95429537 -0.04268587 246.69785292 -0.04404916 252.44141047 -0.04542983 C315.60218355 -0.06059125 378.76295619 -0.06737193 441.92373081 -0.0718518 C443.1219143 -0.07193683 443.1219143 -0.07193683 444.34430352 -0.07202359 C448.3848211 -0.07231011 452.42533868 -0.07259514 456.46585627 -0.0728777 C490.33067591 -0.07525367 524.19549536 -0.07896353 558.06031485 -0.0829148 C574.28270209 -0.08480743 590.50508934 -0.08663594 606.7274766 -0.088449 C607.53431405 -0.08853919 608.34115151 -0.08862938 609.17243859 -0.0887223 C648.00407459 -0.09305847 686.83571063 -0.09698681 725.66734672 -0.10044932 C726.49568154 -0.1005232 727.32401637 -0.10059707 728.17745226 -0.10067318 C780.96325407 -0.10536783 833.74905581 -0.10819104 886.5348578 -0.1098361 C890.86225396 -0.10997168 895.18965013 -0.11011071 899.51704629 -0.11024964 C906.45482748 -0.11047212 913.39260867 -0.11069349 920.33038986 -0.11091352 C921.61994326 -0.11095443 921.61994326 -0.11095443 922.93554825 -0.11099616 C924.67307063 -0.11105127 926.41059301 -0.11110639 928.14811539 -0.11116149 C940.33617968 -0.1115481 952.52424398 -0.11193605 964.71230828 -0.11233062 C969.07342576 -0.11247173 973.43454324 -0.11261181 977.79566073 -0.11274952 C1060.1477536 -0.11535325 1142.4998446 -0.12068005 1224.8519361 -0.13663173 C1225.71866123 -0.13679952 1226.58538636 -0.13696731 1227.47837589 -0.13714019 C1254.55844207 -0.14239084 1281.63850818 -0.14796521 1308.71857429 -0.1535995 C1336.50528818 -0.15938066 1364.29200208 -0.1651113 1392.07871604 -0.17055583 C1392.93432778 -0.17072364 1393.78993952 -0.17089144 1394.67147889 -0.17106434 C1448.27569726 -0.18156106 1501.87991511 -0.18842012 1555.48413444 -0.19142222 C1556.31232897 -0.19146904 1557.14052351 -0.19151585 1557.99381485 -0.19156408 C1594.37018322 -0.19361495 1630.74655158 -0.19485886 1667.12292001 -0.19521013 C1681.75832307 -0.19535339 1696.39372614 -0.19559205 1711.0291292 -0.19587419 C1713.45568376 -0.19591972 1715.88223832 -0.19596137 1718.30879289 -0.1960023 C1755.401734 -0.19664799 1792.49467295 -0.19959756 1829.58761287 -0.20946288 C1830.38682579 -0.20967525 1831.18603872 -0.20988762 1832.00947022 -0.21010643 C1844.86476078 -0.21353496 1857.72005129 -0.21714801 1870.57534179 -0.22078283 C1907.09294714 -0.23110314 1943.61054984 -0.23987535 1980.1281569 -0.23793817 C1981.24096541 -0.23788006 1981.24096541 -0.23788006 1982.3762549 -0.23782078 C1998.56645115 -0.23694395 2014.75664721 -0.2352314 2030.94684328 -0.23270115 C2037.40522003 -0.23170448 2043.86359679 -0.23081779 2050.32197356 -0.22996593 C2051.37868556 -0.22982209 2051.37868556 -0.22982209 2052.45674528 -0.22967536 C2074.75149444 -0.22669292 2097.04622819 -0.23289754 2119.3409742 -0.24448479 C2141.92759766 -0.25618401 2164.5142022 -0.25743385 2187.10082691 -0.24616911 C2199.93319113 -0.24008848 2212.76549049 -0.24212515 2225.59784855 -0.25642108 C2234.1386439 -0.26510768 2242.67939191 -0.26275324 2251.2201844 -0.25172237 C2256.04992138 -0.24578483 2260.87953196 -0.24423514 2265.70926016 -0.25640723 C2352.93992582 -0.46150266 2438.16390527 18.58409857 2519.44367194 59.1276505 C2520.47975593 59.64440343 2521.51583991 60.16115636 2522.58332038 60.69356847 C2554.13579757 76.50874872 2583.64933988 95.68059731 2611.38117194 117.5026505 C2612.24476325 118.1818253 2612.24476325 118.1818253 2613.12580085 118.87472081 C2622.13467738 126.00418896 2630.85597117 133.49800965 2639.44367194 141.1276505 C2640.15136725 141.75413487 2640.85906257 142.38061925 2641.58820319 143.026088 C2644.22248676 145.37641065 2646.83609007 147.74771466 2649.44367194 150.1276505 C2650.32635749 150.9325089 2650.32635749 150.9325089 2651.22687507 151.75362706 C2660.50948714 160.24773648 2669.32642277 169.02841448 2677.79865241 178.32979894 C2679.40880448 180.08954364 2681.03422327 181.83358123 2682.66632819 183.572963 C2688.88269883 190.20920107 2694.76979835 197.01626867 2700.44367194 204.1276505 C2701.36458379 205.25734258 2702.28651305 206.38620582 2703.20929694 207.51436925 C2720.29546517 228.49226093 2735.84874505 250.96842181 2749.41486335 274.3776505 C2750.46567966 276.16508556 2751.54982338 277.92827663 2752.64289069 279.6901505 C2791.25189268 342.54031617 2813.82165748 416.62707578 2826.83584595 569.30100191 C2826.82891766 574.35835697 2826.83960313 579.41568414 2826.84778571 584.47303319 C2826.86098151 594.32583489 2826.85830956 604.17856724 2826.84954779 614.03137142 C2826.8427154 622.05319525 2826.84187821 630.07499992 2826.84511924 638.09682584 C2826.84557894 639.24749462 2826.84603864 640.3981634 2826.84651227 641.58370094 C2826.84747164 643.92274512 2826.84844428 646.2617893 2826.84943004 648.60083347 C2826.85794236 670.42755304 2826.84821539 692.25423454 2826.83202894 714.08094787 C2826.81862778 732.72780071 2826.82096034 751.37459749 2826.83478522 770.02144933 C2826.85091198 791.78259026 2826.85712065 813.54369801 2826.84794843 835.30484408 C2826.84699299 837.63399302 2826.84604987 839.96314197 2826.84511924 842.29229093 C2826.84465641 843.43767276 2826.84419358 844.58305459 2826.84371673 845.76314496 C2826.84114816 853.75715833 2826.8454512 861.75115029 2826.8525579 869.74516034 C2826.86105247 879.51309685 2826.85852829 889.28096125 2826.84271567 899.0488897 C2826.83493855 904.01339436 2826.83155575 908.97777968 2826.84166312 913.94228292 C2827.00300117 1000.59149743 2809.94207196 1085.58071219 2766.44367194 1174.1276505 C2765.96430182 1175.08896886 2765.48493171 1176.05028722 2764.99103522 1177.04073644 C2754.89725799 1197.17013446 2743.34524463 1216.66616546 2730.44367194 1235.1276505 C2729.82782233 1236.00936925 2729.82782233 1236.00936925 2729.19953132 1236.9089005 C2714.1303261 1258.39004096 2697.98998197 1278.96105921 2680.14679694 1298.2057755 C2678.35429123 1300.14333948 2676.57285993 1302.09121172 2674.80304694 1304.0495255 C2665.86073462 1313.93313385 2656.67120258 1323.74488469 2646.48664069 1332.36593175 C2644.33847618 1334.21836425 2642.25761497 1336.13601604 2640.17926764 1338.06612706 C2634.12997744 1343.67944098 2627.8888751 1348.96978289 2621.44367194 1354.1276505 C2620.31283238 1355.05005425 2619.1826568 1355.97327246 2618.05304694 1356.89718175 C2548.81527592 1413.27396894 2464.97941504 1452.10985785 2303.44367194 1479.1276505 C2302.76363697 1479.16838991 2302.08360199 1479.20912932 2301.38295989 1479.25110325 C2282.57659488 1480.33022158 2263.77579294 1480.2710972 2244.94654323 1480.25763037 C2240.11631532 1480.25530374 2235.28609082 1480.25884626 2230.45586362 1480.26159719 C2221.97546007 1480.26563188 2213.49506265 1480.26598538 2205.01465849 1480.26389124 C2192.31897485 1480.26077344 2179.6232968 1480.26343725 2166.92761356 1480.26718995 C2145.28595197 1480.27341589 2123.64429235 1480.27490461 2102.00263 1480.27377248 C2080.07664274 1480.2726391 2058.15065717 1480.27367719 2036.22467017 1480.27734494 C2034.82479349 1480.27757693 2033.4249168 1480.27780891 2032.02504012 1480.27804086 C2026.38036779 1480.27898044 2020.73569546 1480.27993674 2015.09102313 1480.28091205 C1999.18143228 1480.28365691 1983.27184139 1480.28603649 1967.36225045 1480.28816402 C1966.2688367 1480.28831034 1966.2688367 1480.28831034 1965.15333378 1480.28845963 C1923.72790843 1480.29396079 1882.30248299 1480.29426911 1840.87705734 1480.29468049 C1834.54609505 1480.29474374 1828.21513275 1480.29481026 1821.88417045 1480.29488104 C1820.2972869 1480.29489873 1818.71040334 1480.29491611 1817.12351979 1480.29493316 C1781.48526213 1480.2953212 1745.84700467 1480.29750073 1710.20874712 1480.30006341 C1702.25109818 1480.30063498 1694.29344925 1480.30118896 1686.33580032 1480.30174405 C1685.15091871 1480.30182673 1685.15091871 1480.30182673 1683.94210011 1480.30191108 C1679.14705069 1480.30224559 1674.35200127 1480.30257936 1669.55695184 1480.30291265 C1667.15482683 1480.30307973 1664.75270182 1480.30324724 1662.3505768 1480.30341478 C1625.00349924 1480.30601652 1587.65642166 1480.30824687 1550.30934405 1480.31009698 C1549.49564216 1480.31013735 1548.68194026 1480.31017772 1547.84358074 1480.31021931 C1496.00108314 1480.31278196 1444.15858565 1480.31368187 1392.316088 1480.31341898 C1389.76735704 1480.31340623 1387.21862609 1480.31339426 1384.66989514 1480.31338257 C1366.7647293 1480.31330023 1348.85956346 1480.31319752 1330.95439762 1480.31308969 C1325.82078658 1480.31305892 1320.68717553 1480.31302886 1315.55356449 1480.31299888 C1311.27146738 1480.31297378 1306.98937028 1480.31294799 1302.70727317 1480.31292076 C1221.84006804 1480.31240941 1140.9728639 1480.31382574 1060.10565925 1480.32326818 C1059.2544207 1480.32336753 1058.40318216 1480.32346689 1057.52614851 1480.32356926 C1030.92923898 1480.32668063 1004.33232948 1480.33004712 977.73541999 1480.33346105 C950.44378798 1480.33696261 923.15215597 1480.34043315 895.86052394 1480.34372544 C895.02014153 1480.34382697 894.17975911 1480.3439285 893.31391057 1480.3440331 C840.66137727 1480.35038484 788.00884427 1480.35430462 735.35631061 1480.35558343 C734.54279303 1480.35560346 733.72927545 1480.35562348 732.89110582 1480.35564412 C697.15915045 1480.35651955 661.4271951 1480.35683918 625.69523973 1480.35655323 C611.31921622 1480.35643896 596.94319272 1480.35638289 582.56716921 1480.35634991 C580.18365988 1480.35634351 577.80015054 1480.35633443 575.41664121 1480.35632476 C538.9874174 1480.35618838 502.55819449 1480.35752789 466.1289711 1480.36336994 C465.34422092 1480.36349561 464.55947074 1480.36362128 463.75094025 1480.36375076 C451.12863866 1480.36577959 438.50633708 1480.36792367 425.88403551 1480.37007757 C390.02612155 1480.37619147 354.16820882 1480.38122745 318.31029427 1480.3791064 C317.58170788 1480.37906369 316.8531215 1480.37902098 316.10245673 1480.37897697 C300.20164487 1480.37802329 284.30083311 1480.37650711 268.40002135 1480.37444025 C262.05697674 1480.37362401 255.71393213 1480.37288035 249.37088752 1480.37215924 C248.67899903 1480.37207859 247.98711054 1480.37199794 247.27425573 1480.37191484 C225.38493167 1480.36939747 203.49561443 1480.37299343 181.60629156 1480.38017706 C159.42687246 1480.38742899 137.24746411 1480.38770152 115.06804512 1480.37963829 C102.46995388 1480.37527037 89.87189184 1480.37629618 77.27380305 1480.38550508 C68.88568229 1480.39108322 60.49758311 1480.3892837 52.10946397 1480.3817223 C47.36824107 1480.37764783 42.62707519 1480.3764702 37.88585598 1480.38447298 C19.90986477 1480.41270699 1.98985764 1480.22574321 -15.96187359 1479.22537619 C-16.68229548 1479.18572059 -17.40271738 1479.14606499 -18.14497023 1479.10520771 C-88.14757286 1475.14725288 -155.90779531 1457.23908338 -219.55632806 1428.1276505 C-220.40340325 1427.74399327 -221.25047845 1427.36033605 -222.12322259 1426.96505284 C-248.91872185 1414.7940657 -274.31856741 1399.78054612 -298.55632806 1383.1276505 C-299.26353997 1382.64328526 -299.97075189 1382.15892003 -300.69939446 1381.65987706 C-316.66607839 1370.68301101 -331.91584961 1358.81606515 -346.55632806 1346.1276505 C-347.28980462 1345.49472081 -348.02328118 1344.86179112 -348.77898431 1344.20968175 C-380.76378476 1316.42169408 -380.76378476 1316.42169408 -393.62273431 1301.34249425 C-395.65507446 1299.01454098 -397.74975645 1296.75649288 -399.85930657 1294.49874425 C-405.69924755 1288.24432074 -411.21746473 1281.8191453 -416.55632806 1275.1276505 C-417.47723991 1273.99795842 -418.39916917 1272.86909518 -419.32195306 1271.74093175 C-436.35821066 1250.82431886 -451.87950683 1228.3782466 -465.55632806 1205.1276505 C-465.96173821 1204.44928136 -466.36714837 1203.77091222 -466.78484368 1203.07198644 C-507.14438933 1135.34855203 -531.20376255 1059.14681392 -539.86882806 980.9401505 C-539.95023034 980.20673436 -540.03163262 979.47331822 -540.11550164 978.71767735 C-541.86943506 962.67673509 -542.70672922 946.74950319 -542.69676995 930.62162328 C-542.69936109 928.9141416 -542.7023763 927.20666052 -542.70577335 925.49918026 C-542.71375949 920.85230321 -542.71562819 916.20544168 -542.71637082 911.55855858 C-542.71823629 906.52808779 -542.72579118 901.49762478 -542.73250604 896.46715856 C-542.74603253 885.48456809 -542.75210586 874.50198131 -542.7565167 863.51938391 C-542.75929013 856.64306953 -542.76352956 849.76675653 -542.76802087 842.89044309 C-542.78020869 823.80044733 -542.79050729 804.71045268 -542.79389596 785.62045312 C-542.79411553 784.40082896 -542.79433509 783.1812048 -542.79456131 781.92462234 C-542.79477959 780.70229062 -542.79499787 779.47995891 -542.79522276 778.22058684 C-542.7956662 775.74421418 -542.79611277 773.26784152 -542.79656243 770.79146886 C-542.79678386 769.56313601 -542.79700529 768.33480316 -542.79723343 767.0692481 C-542.80117236 747.21390859 -542.81860085 727.35860597 -542.84192196 707.50328068 C-542.86574795 687.05049959 -542.87810298 666.59773692 -542.87926388 646.14494175 C-542.88017463 634.68904677 -542.88577329 623.23319983 -542.90408349 611.77731824 C-542.91963755 602.01225702 -542.92451646 592.24725865 -542.91634539 582.48218737 C-542.91249147 577.51756678 -542.91310345 572.55307215 -542.92740273 567.58846784 C-543.16844275 478.57932238 -524.80477038 393.6582153 -486.55632806 313.1276505 C-485.96416497 311.86743077 -485.96416497 311.86743077 -485.360039 310.58175206 C-478.08960565 295.18662481 -469.41224215 280.64657601 -460.55632806 266.1276505 C-459.72367425 264.75866612 -459.72367425 264.75866612 -458.87419915 263.3620255 C-451.64897891 251.53687684 -443.81515097 240.25161178 -435.55632806 229.1276505 C-435.12159173 228.5383878 -434.6868554 227.94912511 -434.23894525 227.34200597 C-429.17045049 220.47259521 -423.93687278 213.75465346 -418.55632806 207.1276505 C-417.84734368 206.24335362 -417.13835931 205.35905675 -416.40789056 204.447963 C-411.7524907 198.68180107 -406.91522394 193.1383733 -401.89617181 187.68624425 C-399.88726958 185.48953147 -397.93118693 183.26215681 -395.99382806 181.0026505 C-392.75456259 177.26796796 -389.26878773 173.82164631 -385.74773431 170.354213 C-383.72955525 168.30365673 -381.85319789 166.19662219 -379.99382806 164.0026505 C-377.13666574 160.67366321 -374.05700557 157.8638007 -370.71257806 155.0339005 C-368.27194519 152.87623956 -366.01822167 150.5846237 -363.74382806 148.2526505 C-359.48117919 143.93777929 -354.98900628 140.10752462 -350.25164056 136.32686925 C-347.71769477 134.25931638 -345.32485001 132.10484296 -342.93132806 129.8776505 C-336.58144541 124.10775713 -329.73826569 119.00193945 -322.875664 113.86446691 C-321.33214875 112.7086177 -319.79111712 111.54944427 -318.25261712 110.38692784 C-293.46487407 91.66271248 -267.01005997 75.62431578 -239.55632806 61.1276505 C-238.69378411 60.67035558 -237.83124017 60.21306066 -236.94255853 59.74190831 C-211.85616828 46.54054592 -185.40616294 36.13431582 -158.55632806 27.1276505 C-157.52362786 26.77895909 -156.49092767 26.43026769 -155.42693353 26.07100987 C-115.11071606 12.62155573 -72.85212666 4.76752538 -30.55632806 1.1276505 C-29.53712163 1.03944593 -28.5179152 0.95124136 -27.46782372 0.86036392 C-18.30456255 0.13459802 -9.18520704 -0.01381581 0 0 Z M1507.44367194 104.1276505 C1506.08169684 104.7459171 1506.08169684 104.7459171 1504.6922071 105.37667394 C1476.75333337 118.0747667 1450.18761147 133.9935972 1425.44367194 152.1276505 C1424.41717536 152.87595128 1424.41717536 152.87595128 1423.36994147 153.63936925 C1415.14823416 159.64969416 1407.19131676 165.87909 1399.47882819 172.52999425 C1396.55077545 175.03598533 1393.57199038 177.4627373 1390.56867194 179.8776505 C1386.90021205 182.86126042 1383.4964872 185.9402725 1380.22321296 189.34908605 C1378.46153407 191.10979818 1376.63451694 192.72575544 1374.74054694 194.34249425 C1370.44157731 198.07961346 1366.39609277 202.02686447 1362.38117194 206.0651505 C1361.71279304 206.72966222 1361.04441413 207.39417394 1360.35578132 208.07882237 C1356.40798323 212.03429353 1352.64616951 216.0994277 1348.99567389 220.33053136 C1347.06051114 222.57132624 1345.06629221 224.75501415 1343.06867194 226.9401505 C1338.81010661 231.67109451 1334.72615751 236.51220695 1330.7571485 241.48849034 C1329.84549639 242.62619152 1328.92772779 243.75900782 1328.00519538 244.88790441 C1319.77799744 254.96687484 1312.34065908 265.49662893 1305.13117194 276.3151505 C1304.7152378 276.93773747 1304.29930366 277.56032445 1303.87076545 278.2017777 C1298.47489569 286.29751576 1293.32856362 294.51375946 1288.37091804 302.88497472 C1286.73804674 305.63235203 1285.0729797 308.35390071 1283.38117194 311.0651505 C1279.7469105 317.13884771 1276.65174965 323.48282869 1273.55744147 329.84249425 C1272.80499676 331.38630891 1272.04804049 332.9279316 1271.28693366 334.46749425 C1245.49759626 386.65944562 1229.41853381 442.61797375 1223.13117194 500.4401505 C1223.04967902 501.18413091 1222.9681861 501.92811131 1222.8842237 502.69463658 C1220.96980299 520.486049 1220.29235327 538.286252 1220.30564094 556.17284703 C1220.30321366 557.89004379 1220.3003486 559.60723997 1220.2970916 561.32443535 C1220.28944524 565.97946835 1220.28772501 570.63448653 1220.28704047 575.28952503 C1220.28518115 580.33554686 1220.27756334 585.3815604 1220.27056098 590.42757726 C1220.25909238 599.15669325 1220.25081818 607.88580737 1220.24444175 616.61492848 C1220.23404828 630.44591319 1220.21346693 644.27687443 1220.19132209 658.10784459 C1220.18384413 662.85504643 1220.17643009 667.60224838 1220.16903472 672.34945035 C1220.16625887 674.1286401 1220.16625887 674.1286401 1220.16342694 675.94377307 C1220.14254287 689.41505676 1220.12369541 702.88634302 1220.10578132 716.35763097 C1220.10414313 717.58747936 1220.10250495 718.81732775 1220.10081713 720.08444427 C1220.07457052 739.98356764 1220.05590193 759.88269283 1220.03918941 779.78182615 C1220.021695 800.28332997 1219.99277357 820.78479797 1219.95430005 841.28627312 C1219.9310626 853.89067927 1219.91692027 866.49502701 1219.91497241 879.09945475 C1219.91284338 887.75894458 1219.89975252 896.41837657 1219.87849309 905.07784034 C1219.86661255 910.05222974 1219.85921116 915.0265045 1219.86520553 920.00090718 C1219.89643064 949.83368482 1218.78685465 979.41154884 1213.69367194 1008.8776505 C1213.56706183 1009.63138951 1213.44045173 1010.38512853 1213.31000495 1011.16170812 C1205.72762644 1056.1962289 1192.17945207 1099.92061596 1172.44367194 1141.1276505 C1172.03858405 1141.98020421 1171.63349616 1142.83275792 1171.21613288 1143.71114659 C1158.18615287 1170.9687516 1142.35604331 1196.80975536 1124.44367194 1221.1276505 C1123.9813819 1221.76122472 1123.51909186 1222.39479894 1123.04279304 1223.04757237 C1113.92319742 1235.53182681 1104.0829209 1247.22428338 1093.67414069 1258.651088 C1092.45498663 1260.00475468 1091.24228256 1261.36479496 1090.06305671 1262.75338292 C1084.89613778 1268.80439636 1079.30689984 1274.41635384 1073.67389655 1280.02779698 C1072.00940917 1281.6869237 1070.35033747 1283.35133101 1068.69171882 1285.01632237 C1063.11544767 1290.59639665 1057.47808756 1296.039539 1051.44367194 1301.1276505 C1050.43381591 1302.00440139 1049.42465917 1302.88195861 1048.41632819 1303.760463 C1039.68694334 1311.23609727 1030.65344035 1318.25484052 1021.44367194 1325.1276505 C1020.73082038 1325.66148351 1020.01796882 1326.19531651 1019.28351569 1326.74532628 C995.89681677 1344.18454574 970.8246025 1359.5006574 944.514961 1372.12667394 C942.26077572 1373.21603741 940.02054075 1374.33160496 937.77960944 1375.447963 C885.8308587 1401.07431984 827.28031154 1417.19041447 769.44367194 1421.1276505 C769.44367194 1421.4576505 769.44367194 1421.7876505 769.44367194 1422.1276505 C815.98957028 1422.13865267 862.53546873 1422.14919138 909.08136725 1422.15938878 C910.44767324 1422.15968817 910.44767324 1422.15968817 911.84158136 1422.15999362 C1009.46453924 1422.181373 1107.08749716 1422.19981793 1204.71045661 1422.21233678 C1206.87954135 1422.21261568 1209.04862609 1422.21289458 1211.21771083 1422.21317349 C1256.74987788 1422.21901917 1302.28204497 1422.22445257 1347.81421212 1422.22940986 C1370.68737952 1422.2319006 1393.5605469 1422.23447054 1416.43371427 1422.23711538 C1419.8839913 1422.23751388 1423.33426833 1422.23791012 1426.78454536 1422.23830626 C1479.8981758 1422.24442441 1533.01180533 1422.2522386 1586.12543464 1422.2649796 C1587.83771677 1422.2653903 1587.83771677 1422.2653903 1589.58459047 1422.26580929 C1607.98866198 1422.27023389 1626.39273345 1422.27480117 1644.79680492 1422.27938738 C1697.82242837 1422.29259896 1750.84805112 1422.30475121 1803.87367606 1422.30993009 C1804.96469183 1422.31003716 1806.0557076 1422.31014423 1807.17978446 1422.31025454 C1831.13338625 1422.31258637 1855.08698806 1422.31437594 1879.04058994 1422.31565247 C1888.67951553 1422.31617569 1898.31844112 1422.31677693 1907.9573667 1422.31740499 C1909.01228835 1422.31747184 1910.06720999 1422.31753869 1911.15409895 1422.31760757 C1945.11292824 1422.31979845 1979.07175228 1422.32833375 2013.03057945 1422.34021492 C2047.25418879 1422.35215956 2081.47779304 1422.35784483 2115.70140451 1422.35489848 C2120.43695438 1422.35449235 2125.17250424 1422.35415757 2129.90805411 1422.35386586 C2130.83630999 1422.3538061 2131.76456586 1422.35374634 2132.7209507 1422.35368477 C2147.38534649 1422.35292517 2162.04973148 1422.35887747 2176.71412433 1422.36767022 C2191.15442545 1422.37618935 2205.59471264 1422.3775087 2220.03501509 1422.37131413 C2228.48727086 1422.36790164 2236.93948228 1422.36987207 2245.39173282 1422.3800845 C2251.02449621 1422.38633446 2256.65722832 1422.38515511 2262.28999083 1422.37825264 C2265.47073035 1422.37455402 2268.65136924 1422.37485449 2271.83210495 1422.38212099 C2294.03408319 1422.42958315 2316.24844164 1421.46772625 2338.25617194 1418.3776505 C2339.48150641 1418.20846105 2340.70684089 1418.03927159 2341.96930671 1417.86495519 C2420.86341968 1406.57359564 2495.46013613 1377.43320978 2560.44367194 1331.1276505 C2561.72008552 1330.21837804 2561.72008552 1330.21837804 2563.02228522 1329.29073644 C2572.6453665 1322.39631367 2581.97361124 1315.27233539 2590.88556647 1307.47970128 C2592.4942053 1306.08380002 2594.12033613 1304.71107135 2595.75226569 1303.34249425 C2610.80216962 1290.68156636 2625.78568527 1277.22988789 2638.58820319 1262.2682755 C2641.68814983 1258.69191601 2644.90938842 1255.22558738 2648.11164069 1251.74093175 C2652.52192881 1247.49303556 2652.52192881 1247.49303556 2654.44367194 1242.1276505 C2655.10367194 1242.1276505 2655.76367194 1242.1276505 2656.44367194 1242.1276505 C2657.95239157 1240.39553019 2659.37287101 1238.58648643 2660.75617194 1236.7526505 C2661.18841071 1236.18119298 2661.62064948 1235.60973546 2662.06598639 1235.02096105 C2667.98447131 1227.15015829 2673.73574126 1219.15196827 2679.44367194 1211.1276505 C2680.01593513 1210.32545079 2680.58819831 1209.52325109 2681.1778028 1208.6967423 C2685.19547577 1203.01891045 2688.98650181 1197.23866618 2692.63117194 1191.3151505 C2693.18796638 1190.41063146 2693.74476081 1189.50611241 2694.3184278 1188.5741837 C2721.4567614 1144.23122861 2742.17599321 1096.72841 2754.44367194 1046.1276505 C2754.68778815 1045.13700597 2754.93190436 1044.14636144 2755.18341804 1043.12569737 C2764.0847858 1006.57435042 2768.61715594 969.09571336 2768.57738471 931.48549962 C2768.57925832 929.77557831 2768.58156118 928.06565743 2768.58425003 926.35573721 C2768.59030688 921.70707429 2768.59024174 917.05842952 2768.58905566 912.40976357 C2768.58885008 907.37605638 2768.59438537 902.34235478 2768.59911323 897.30865026 C2768.60738736 887.46396856 2768.61016662 877.61929286 2768.6107256 867.77460799 C2768.61120243 859.76181769 2768.61326548 851.74902935 2768.61642623 843.73623967 C2768.62522501 820.9631696 2768.62984698 798.19010423 2768.62909576 775.41703245 C2768.6290558 774.19167313 2768.62901584 772.9663138 2768.62897468 771.70382237 C2768.6289338 770.47694716 2768.62889291 769.25007194 2768.6288508 767.98601869 C2768.62844484 748.12858036 2768.63800359 728.27116104 2768.65211304 708.41372821 C2768.66652311 687.96999429 2768.67338065 667.52626962 2768.67251927 647.0825305 C2768.67218883 635.62691769 2768.67486812 624.1713248 2768.68569732 612.7157166 C2768.69486363 602.95741323 2768.69692789 593.19913879 2768.69018789 583.44083294 C2768.68695293 578.47519849 2768.68675443 573.50961935 2768.69554114 568.54399037 C2768.73956236 542.01466463 2768.41892919 515.57766937 2764.69367194 489.2526505 C2764.52448249 488.03182775 2764.35529304 486.81100499 2764.18097663 485.55318761 C2757.0988341 436.24549992 2743.12349858 389.3570427 2722.44367194 344.1276505 C2721.72977592 342.52161494 2721.01732683 340.91493466 2720.30695319 339.307338 C2713.27213568 323.61859265 2704.33547811 308.81907026 2695.44367194 294.1276505 C2695.04825202 293.47030919 2694.6528321 292.81296788 2694.24542975 292.13570714 C2688.01891696 281.82389502 2681.23129428 272.01106421 2674.0696485 262.32833409 C2672.50581277 260.21175522 2670.95443641 258.08652898 2669.40460944 255.95968175 C2662.53728174 246.59935044 2655.17760962 237.78174427 2647.44367194 229.1276505 C2646.61738288 228.20081456 2645.79109382 227.27397862 2644.93976569 226.31905675 C2643.4697071 224.680261 2641.994628 223.04595161 2640.51398444 221.416713 C2639.18256923 219.94461996 2637.86369292 218.4610356 2636.56085944 216.963588 C2631.23590521 210.88687552 2625.58409879 205.16113498 2619.88117194 199.4401505 C2618.67581794 198.22790807 2618.67581794 198.22790807 2617.44611335 196.99117589 C2612.60559034 192.16305939 2607.63207782 187.57707096 2602.44367194 183.1276505 C2601.28703441 182.1061229 2600.13204251 181.08272853 2598.97882819 180.057338 C2589.79817615 171.95514 2580.27959718 164.41690982 2570.44367194 157.1276505 C2569.70713386 156.58076573 2568.97059577 156.03388097 2568.21173835 155.47042394 C2488.01592934 96.15513067 2388.77085437 60.24281819 2248.20816447 58.73264547 C2240.82101304 58.7424346 2233.43390375 58.73433224 2226.04675431 58.7260344 C2211.579634 58.71035471 2197.11255378 58.71155891 2182.64542979 58.72027113 C2169.98463717 58.72785693 2157.32385915 58.72976982 2144.66306472 58.7262032 C2143.81897406 58.72597405 2142.9748834 58.72574489 2142.10521424 58.72550879 C2138.67766422 58.72457458 2135.25011422 58.72361936 2131.82256422 58.7226295 C2099.75612689 58.71347965 2067.68971491 58.72172976 2035.62328151 58.73792019 C2007.21370733 58.75215528 1978.80417351 58.75087888 1950.39459968 58.73653722 C1918.38040528 58.7204294 1886.36623323 58.71412761 1854.35203534 58.72337401 C1850.93151137 58.72433598 1847.51098739 58.72527451 1844.0904634 58.7262032 C1843.24841498 58.72644044 1842.40636655 58.72667767 1841.53880151 58.72692209 C1828.89380867 58.7303163 1816.24883212 58.72637793 1803.60384154 58.71876454 C1789.20838281 58.71013974 1774.81296998 58.71243058 1760.41751688 58.72860678 C1753.0877777 58.73657435 1745.75811332 58.73998791 1738.42837501 58.72965932 C1657.31240489 58.62275172 1581.75923819 69.87056769 1507.44367194 104.1276505 Z M842.44367194 350.1276505 C841.2796485 351.17179112 841.2796485 351.17179112 840.09210944 352.2370255 C823.90990375 367.47387897 812.95195029 390.28308011 812.20539069 412.58468175 C811.71068332 440.71644914 818.80404673 464.66756409 838.69757819 485.34249425 C840.0568946 486.72114659 840.0568946 486.72114659 841.44367194 488.1276505 C842.17457038 488.87143956 842.90546882 489.61522862 843.65851569 490.38155675 C849.82588729 496.2503219 856.96216722 500.20555388 864.44367194 504.1276505 C865.34988288 504.61362706 866.25609382 505.09960362 867.18976569 505.60030675 C888.40431794 516.15914782 914.32426783 516.51428806 936.57599616 509.28829503 C960.90645427 500.85493329 979.33047678 484.35855852 991.18976569 461.807338 C1002.40704152 438.58953517 1004.50160238 413.36323616 996.25617194 388.8776505 C991.70205509 377.20602167 985.89989801 366.43558279 977.44367194 357.1276505 C976.24484382 355.78960362 976.24484382 355.78960362 975.02179694 354.4245255 C958.36449839 336.78158798 935.72030991 326.40536829 911.44367194 325.1276505 C910.68054694 325.0864005 909.91742194 325.0451505 909.13117194 325.0026505 C884.52813472 324.35520215 860.4713459 333.44184224 842.44367194 350.1276505 Z M-252.55632806 345.1276505 C-244.08599749 378.18719187 -244.08599749 378.18719187 -235.32976556 411.16866612 C-234.90620882 412.73806883 -234.48270855 414.30748678 -234.05925775 415.87691808 C-233.73717843 417.07035329 -233.73717843 417.07035329 -233.40859246 418.2878983 C-231.24815462 426.29817063 -229.09608762 434.31070004 -226.94304681 442.322963 C-226.69062596 443.2620828 -226.43820512 444.20120259 -226.17813516 445.16878057 C-219.73663154 469.13818797 -213.36439813 493.12599808 -206.99021173 517.1133759 C-198.19474843 550.21136691 -189.38149915 583.30429268 -180.49382806 616.3776505 C-172.25014654 647.05576184 -164.04914872 677.74508278 -155.86882806 708.4401505 C-153.49003471 717.36596184 -151.11119767 726.29176153 -148.73210931 735.21749425 C-148.43604476 736.32826833 -148.13998021 737.43904241 -147.83494401 738.58347631 C-141.08850042 763.89336944 -134.323567 789.19831104 -127.55632806 814.5026505 C-125.30618452 822.91667462 -123.05613883 831.3307249 -120.80632806 839.744838 C-120.53601958 840.75576953 -120.26571111 841.76670106 -119.98721147 842.80826688 C-114.63737183 862.81718856 -109.2997601 882.82935818 -103.96602654 902.84257817 C-96.05557299 932.52375599 -88.12346971 962.19912788 -80.18831277 991.87370992 C-69.29254432 1032.62012517 -58.41895471 1073.37238209 -47.55632806 1114.1276505 C-3.66632806 1114.1276505 40.22367194 1114.1276505 85.44367194 1114.1276505 C89.40367194 1100.2676505 93.36367194 1086.4076505 97.44367194 1072.1276505 C104.22929449 1048.71278848 104.22929449 1048.71278848 106.36945319 1041.369838 C106.87549309 1039.63253849 107.38151453 1037.8952336 107.8875196 1036.15792394 C108.14196845 1035.28441289 108.3964173 1034.41090184 108.65857673 1033.51092076 C110.85303141 1025.97585297 113.04473521 1018.43998404 115.2370069 1010.9042809 C116.06525671 1008.05735834 116.89362063 1005.21046901 117.72199225 1002.3635819 C122.44215583 986.14024758 127.14777426 969.91272132 131.84818244 953.68365407 C139.79834864 926.23468976 147.77103277 898.79230922 155.75086188 871.3519547 C162.79253075 847.13745919 169.82702664 822.92092114 176.84360099 798.69914174 C184.42561393 772.52544794 192.02333353 746.35634955 199.63117194 720.1901505 C199.88987697 719.30035874 200.14858199 718.41056699 200.41512656 717.49381185 C203.32217417 707.49538212 206.22953533 697.49704359 209.13703132 687.49874425 C214.04410872 670.62427273 218.95042569 653.74958013 223.85629725 636.87475801 C225.52109407 631.14835669 227.18605686 625.42200366 228.85115981 619.69569135 C229.87924192 616.15998898 230.90719064 612.62424784 231.93510413 609.08849645 C232.41104529 607.45148653 232.88704169 605.81449268 233.36309791 604.17751622 C234.0150243 601.93575879 234.66674988 599.69394307 235.3184278 597.45211339 C235.68270377 596.19927052 236.04697974 594.94642766 236.42229438 593.65561986 C237.43761612 590.14856807 238.44281867 586.63885249 239.44367194 583.1276505 C241.3863849 586.04171993 242.15461262 588.10896302 243.10993171 591.43746495 C243.43053565 592.54463872 243.75113959 593.65181249 244.08145881 594.79253697 C244.6030004 596.62324239 244.6030004 596.62324239 245.13507819 598.49093175 C245.51087101 599.7954826 245.88715613 601.09989171 246.26389289 602.40417027 C247.08218139 605.24066966 247.89723833 608.078071 248.70987678 610.9161942 C250.02959261 615.52477052 251.3566833 620.13120268 252.68512702 624.73726964 C254.10985647 629.67806444 255.53430817 634.61893726 256.95659614 639.56043553 C261.96190818 656.94809376 267.01339497 674.32224994 272.06879401 691.69539952 C273.645985 697.11563693 275.22218689 702.53616164 276.79816413 707.95675206 C277.3304715 709.78760346 277.86277945 711.6184547 278.39508796 713.44930577 C278.65941627 714.35845235 278.92374457 715.26759892 279.19608283 716.2042954 C280.53596106 720.81257642 281.87604202 725.42079849 283.21613288 730.02901769 C283.4822261 730.94404561 283.74831931 731.85907353 284.02247596 732.80182958 C284.82953788 735.57710421 285.63660412 738.35237758 286.44367194 741.1276505 C290.71486428 755.81504613 294.98583465 770.50250624 299.25617194 785.1901505 C299.51793094 786.09044358 299.77968993 786.99073667 300.04938102 787.91831136 C307.59337201 813.86541992 315.12526542 839.81600067 322.6437757 865.77050328 C329.72857659 890.22729959 336.83364669 914.67817652 343.94367194 939.1276505 C351.1888501 964.04203563 358.42893641 988.95786933 365.65006232 1013.87923741 C366.66537657 1017.38317662 367.68106549 1020.88700708 368.69691157 1024.39079213 C369.69074492 1027.81866802 370.6844318 1031.24658636 371.67804694 1034.6745255 C371.9695768 1035.6802926 371.9695768 1035.6802926 372.26699615 1036.70637822 C374.74474404 1045.25537309 377.21811826 1053.80562019 379.68710208 1062.35715032 C381.39119907 1068.25926637 383.09733256 1074.16079119 384.80488658 1080.06190801 C386.00730687 1084.21796654 387.20691239 1088.37482345 388.40435958 1092.5323174 C389.3041937 1095.65338708 390.2082386 1098.77323704 391.11164069 1101.8932755 C391.43662543 1103.02493138 391.76161017 1104.15658727 392.09644294 1105.32253575 C392.39302802 1106.34393651 392.6896131 1107.36533727 392.99518561 1108.41768956 C393.25240897 1109.30877416 393.50963233 1110.19985875 393.77465034 1111.11794591 C394.26849462 1113.10166187 394.26849462 1113.10166187 395.44367194 1114.1276505 C397.21527512 1114.22399509 398.99075602 1114.24952531 400.76497626 1114.24790502 C401.91909003 1114.24927968 403.0732038 1114.25065434 404.26229072 1114.25207067 C405.53974662 1114.24847539 406.81720252 1114.24488011 408.13336921 1114.24117589 C409.48325322 1114.24089402 410.83313738 1114.24105175 412.18302131 1114.24161839 C415.85847802 1114.24190637 419.53390237 1114.23600966 423.20935154 1114.22904444 C427.04640343 1114.22281088 430.88345598 1114.2222071 434.72051215 1114.22101903 C441.99138412 1114.21790572 449.26224113 1114.20969233 456.53310651 1114.19966954 C464.80866546 1114.1885084 473.08422512 1114.18299795 481.35978973 1114.1779741 C498.38775913 1114.16750972 515.41571396 1114.14991028 532.44367194 1114.1276505 C532.71732581 1113.05121785 532.99097968 1111.9747852 533.27292609 1110.86573339 C540.07212908 1084.13672746 547.00966867 1057.44720816 554.0660398 1030.78502965 C556.1763833 1022.80812847 558.28199036 1014.8299743 560.38860679 1006.85208821 C561.19202137 1003.80968221 561.99561864 1000.7673245 562.79923224 997.72497106 C567.61265912 979.49974674 572.40417738 961.26880943 577.18703055 943.03554082 C577.82158695 940.61653816 578.45623721 938.19756014 579.09091926 935.77859044 C581.05004354 928.31175316 583.00896833 920.84486357 584.96766353 913.37791371 C590.39455572 892.6896407 595.82453053 872.00217709 601.25617194 851.3151505 C601.53030292 850.27104512 601.80443389 849.22693974 602.08687186 848.15119481 C610.40820453 816.45757801 618.75391403 784.7704695 627.11759543 753.08800435 C635.71464738 720.52070194 644.26600911 687.94157035 652.80010581 655.35771871 C661.60626575 621.73565894 670.44488322 588.12234567 679.31620002 554.51742101 C680.79245472 548.92530287 682.26856641 543.333147 683.74445319 537.74093175 C683.9843768 536.83185441 684.22430041 535.92277707 684.47149444 534.98615193 C687.92365034 521.90432384 691.36609277 508.81997455 694.79914069 495.73311925 C695.12476336 494.4919154 695.12476336 494.4919154 695.45696425 493.22563672 C697.3967708 485.83107229 699.33595993 478.43634623 701.2732923 471.04113317 C706.16678119 452.36199711 711.08413307 433.68950073 716.04485488 415.02809453 C716.85931158 411.96361175 717.67314575 408.89896437 718.4867475 405.8342545 C718.75254646 404.83308473 719.01834542 403.83191495 719.2921989 402.80040669 C719.825252 400.7925718 720.35828421 398.78473135 720.89129519 396.77688527 C722.45107057 390.90312992 724.01542532 385.03061751 725.58311248 379.15896916 C726.549046 375.53724007 727.51096496 371.91445348 728.47183204 368.29137731 C728.92048366 366.60326008 729.37088705 364.91560734 729.82313514 363.22845006 C730.44181906 360.91965932 731.05443442 358.60934043 731.66559577 356.29854894 C731.847724 355.62489671 732.02985223 354.95124448 732.21749949 354.25717854 C733.05995382 351.0463319 733.44367194 348.4871439 733.44367194 345.1276505 C682.95367194 345.1276505 632.46367194 345.1276505 580.44367194 345.1276505 C577.07174954 356.88380487 577.07174954 356.88380487 574.13898444 368.72677159 C573.93888865 369.59222506 573.73879285 370.45767852 573.53263354 371.34935784 C572.87459175 374.19916564 572.22166011 377.0501184 571.56867194 379.901088 C571.09179816 381.97016501 570.61455865 384.03915776 570.13698554 386.10807347 C569.10995266 390.55998338 568.08502344 395.01237016 567.06174445 399.4651444 C564.54650193 410.40877285 562.01922863 421.34962669 559.49298263 432.29071927 C558.90233635 434.84901474 558.31182129 437.40734051 557.7214334 439.96569562 C551.40074471 467.35533764 545.0187733 494.73055577 538.62345862 522.10285878 C535.97261204 533.44941351 533.32338605 544.79634682 530.67414069 556.1432755 C530.23068305 558.04254135 530.23068305 558.04254135 529.77826667 559.98017621 C523.16009727 588.32648806 516.56386322 616.67788684 509.97189897 645.03030199 C508.73129708 650.36605373 507.49027351 655.70170732 506.24913913 661.03733522 C500.03219834 687.76398647 493.82055991 714.4918472 487.62729156 741.22399515 C487.45038941 741.98755801 487.27348726 742.75112088 487.09122443 743.53782201 C486.91424455 744.30172146 486.73726466 745.06562091 486.55492175 745.85266882 C484.28321772 755.65737099 482.00882923 765.46145066 479.73421645 775.26547837 C477.88922232 783.21845306 476.04679249 791.17201352 474.20763743 799.12634057 C472.81355655 805.15472293 471.41540671 811.18215475 470.01575065 817.20924497 C469.44179854 819.68386369 468.86923399 822.1588047 468.29813743 824.63408399 C467.51859231 828.01202998 466.73418759 831.38881135 465.94855475 834.76534581 C465.7222796 835.75127186 465.49600444 836.7371979 465.26287246 837.7530005 C464.26356955 842.02664835 463.27103166 846.11444115 461.44367194 850.1276505 C448.33140579 805.10033052 435.25438368 760.06303942 422.25617194 715.0026505 C421.96217505 713.98347917 421.66817817 712.96430783 421.36527228 711.91425252 C420.47342561 708.8225466 419.58159331 705.73083653 418.68976569 702.63912511 C417.80689701 699.57847919 416.92402488 696.51783427 416.04114127 693.45719266 C415.45925532 691.44000011 414.87737915 689.42280474 414.29551291 687.40560651 C408.60672085 667.68452843 402.90334555 647.9676917 397.19367194 628.2526505 C396.74838689 626.71504356 396.30310491 625.17743573 395.85782599 623.63982701 C395.52773614 622.49998341 395.52773614 622.49998341 395.19097781 621.33711267 C394.30217645 618.26795511 393.41337618 615.19879724 392.52458739 612.12963605 C392.08033494 610.59555002 391.63607658 609.06146569 391.19181228 607.52738309 C385.89797201 589.24699368 380.61123142 570.96455221 375.32524085 552.68189168 C374.56978782 550.06901 373.81431868 547.45613298 373.05884528 544.84325719 C369.2667957 531.72805221 365.47501385 518.61276983 361.68326545 505.49747777 C360.16369855 500.24144742 358.64411551 494.98542174 357.12451911 489.72939992 C356.36548748 487.10400734 355.60648296 484.47860694 354.84748054 481.85320592 C352.34977605 473.21381546 349.85144817 464.57460599 347.35187507 455.93575597 C346.36680198 452.53098442 345.3817832 449.12619717 344.39679694 445.7214005 C344.15384894 444.88163796 343.91090095 444.04187543 343.66059089 443.17666554 C340.33142283 431.66817291 337.01038948 420.15736094 333.69547248 408.6447556 C331.89390035 402.38825677 330.08975862 396.13249985 328.28492904 389.87694001 C326.82516451 384.81657612 325.36873874 379.75526729 323.9148252 374.69321942 C323.02390592 371.5943886 322.12976471 368.49649455 321.2346952 365.39886022 C320.82148127 363.96632626 320.40961897 362.53340163 319.9992063 361.10006261 C319.43952539 359.14606862 318.87459559 357.19358032 318.3093946 355.24117589 C317.9953971 354.1502715 317.6813996 353.05936711 317.35788703 351.93540502 C316.4329977 348.85910109 316.4329977 348.85910109 314.44367194 345.1276505 C267.91367194 345.1276505 221.38367194 345.1276505 173.44367194 345.1276505 C170.98013553 351.66104131 170.98013553 351.66104131 168.83161139 358.25826573 C168.40610747 359.67206265 168.40610747 359.67206265 167.97200751 361.11442113 C167.67003959 362.12812276 167.36807166 363.14182439 167.05695319 364.18624425 C166.56273116 365.83374921 166.56273116 365.83374921 166.05852485 367.5145371 C164.95483286 371.1972113 163.85540434 374.8811429 162.75617194 378.5651505 C162.1652956 380.54094985 161.57402579 382.5166312 160.98275542 384.49231267 C153.14076617 410.69958795 145.37642912 436.93002034 137.61286139 463.16060948 C137.35781427 464.0223292 137.10276715 464.88404891 136.83999133 465.77188134 C136.58491714 466.63369358 136.32984296 467.49550582 136.06703925 468.38343358 C135.55196094 470.12369412 135.03688018 471.86395392 134.52179694 473.604213 C134.26683133 474.4656523 134.01186572 475.32709161 133.74917388 476.21463513 C128.55381193 493.76670311 123.33890666 511.31293018 118.11901069 528.85771489 C110.20965206 555.44249906 102.31960427 582.03294466 94.44367194 608.6276505 C87.01587941 633.70912011 79.57676485 658.78716655 72.11836982 683.85955358 C64.22149457 710.4060703 56.33788893 736.9564902 48.46900153 763.51131749 C47.71114746 766.06867975 46.95316104 768.62600274 46.19513679 771.18331456 C39.5834206 793.48991991 32.99898829 815.80440402 26.44367194 838.1276505 C22.60695618 824.5138754 19.56833372 810.72596178 16.47492194 796.92843175 C15.88553869 794.30997313 15.29591289 791.69157025 14.70597053 789.07323766 C13.44332476 783.46718749 12.18274273 777.8606767 10.92359138 772.25384068 C8.91399199 763.30556686 6.90008326 754.35826562 4.88556647 745.41109776 C4.19648342 742.35041956 3.50743236 739.28973416 2.81839728 736.22904515 C2.56120294 735.08660325 2.56120294 735.08660325 2.29881275 733.92108172 C1.07384277 728.47956316 -0.15054225 723.03791317 -1.37465692 717.59620214 C-7.55734792 690.11214179 -13.75903703 662.63240106 -19.96691155 635.15401769 C-22.55766693 623.6863592 -25.14746717 612.21848499 -27.73734689 600.75062871 C-28.60181348 596.92286591 -29.4663206 593.09511227 -30.33083367 589.26735997 C-34.0229122 572.91981442 -37.71343924 556.57191925 -41.40300763 540.22380704 C-55.78375427 476.49734912 -55.78375427 476.49734912 -70.20476556 412.77999425 C-70.44737744 411.7097306 -70.68998933 410.63946694 -70.93995309 409.53677106 C-75.80751939 388.0660297 -80.68290317 366.59706284 -85.55632806 345.1276505 C-140.66632806 345.1276505 -195.77632806 345.1276505 -252.55632806 345.1276505 Z M827.44367194 587.1276505 C827.44367194 761.0376505 827.44367194 934.9476505 827.44367194 1114.1276505 C879.91367194 1114.1276505 932.38367194 1114.1276505 986.44367194 1114.1276505 C986.44367194 940.2176505 986.44367194 766.3076505 986.44367194 587.1276505 C933.97367194 587.1276505 881.50367194 587.1276505 827.44367194 587.1276505 Z " fill="#000000" transform="translate(545.5563280582428,947.8723495006561)"/>
<path d="M0 0 C614.79 0 1229.58 0 1863 0 C1861.30752753 3.38494494 1860.10686657 5.17711359 1857.5859375 7.828125 C1856.90660156 8.54613281 1856.22726562 9.26414062 1855.52734375 10.00390625 C1854.81707031 10.74511719 1854.10679688 11.48632812 1853.375 12.25 C1852.34439453 13.33861328 1852.34439453 13.33861328 1851.29296875 14.44921875 C1847.88478712 18.03644182 1844.43576218 21.57104405 1840.9140625 25.046875 C1838.40119538 27.54262491 1836.0168731 30.08641383 1833.71484375 32.77734375 C1829.41277602 37.76940025 1824.75127008 42.39865466 1820.0847168 47.0456543 C1818.56508332 48.5599258 1817.05087483 50.0794743 1815.53710938 51.59960938 C1810.73681283 56.40284722 1805.88017698 61.08123821 1800.71850586 65.49975586 C1798.18062453 67.71530931 1795.85385406 70.08942656 1793.5 72.5 C1789.86440864 76.18488963 1786.15387033 79.70735904 1782.21484375 83.06640625 C1779.88663662 85.09896803 1777.62840339 87.19400071 1775.37011719 89.3034668 C1769.96407993 94.3526052 1764.45100761 99.15527795 1758.6796875 103.7890625 C1755.86746685 106.1093495 1753.18202737 108.53071134 1750.5 111 C1745.69213097 115.41511354 1740.72590675 119.56654482 1735.64599609 123.66308594 C1733.04323731 125.7771036 1730.46476139 127.92032609 1727.88232422 130.05908203 C1719.68830315 136.83851792 1711.42100176 143.5047312 1703 150 C1701.83210938 150.90105469 1701.83210938 150.90105469 1700.640625 151.8203125 C1688.58430234 161.1029413 1676.40677723 170.19125592 1664 179 C1663.42111023 179.4127417 1662.84222046 179.8254834 1662.24578857 180.25073242 C1651.3323461 188.0287022 1640.28818212 195.5855259 1629.125 203 C1628.33508667 203.52524261 1627.54517334 204.05048523 1626.73132324 204.59164429 C1597.57601857 223.96956024 1567.67181392 242.11315462 1537 259 C1535.48913818 259.83265381 1535.48913818 259.83265381 1533.94775391 260.68212891 C1502.36445819 278.00951391 1470.11322036 293.96347711 1437.04345703 308.24951172 C1433.32154236 309.85753143 1429.61124345 311.49106706 1425.90234375 313.12890625 C1340.0079734 350.82257514 1248.82750751 377.06317663 1045.54296875 408.90234375 C1044.89306473 408.96321671 1044.24316071 409.02408966 1043.57356262 409.08680725 C1007.62921319 412.3431875 971.76427722 413.37959931 935.68454361 413.31805801 C932.32545168 413.31241679 928.9663648 413.30959689 925.60726929 413.30697632 C894.60151502 413.27180817 863.70622804 413.06085737 832.80505371 410.25323486 C829.84637182 409.98613074 826.88674055 409.73223908 823.92675781 409.47998047 C732.93524755 401.64130695 643.23329136 383.98423691 556 357 C555.18764893 356.74905579 554.37529785 356.49811157 553.53833008 356.23956299 C505.19291343 341.27087958 458.03474967 323.01185849 412 302 C410.94039062 301.52095215 409.88078125 301.0419043 408.7890625 300.54833984 C379.33077106 287.21881619 350.14266141 272.93200253 322 257 C320.95618164 256.4136377 319.91236328 255.82727539 318.83691406 255.22314453 C284.61773237 235.98532356 251.27156591 215.36637228 219 193 C218.14567383 192.40977051 217.29134766 191.81954102 216.41113281 191.21142578 C181.85524357 167.31499341 148.57496909 141.63688173 116.61230469 114.37402344 C114.91328411 112.92609978 113.2105632 111.48259688 111.5078125 110.0390625 C104.76091537 104.30415377 98.15207391 98.45072993 91.65234375 92.4375 C89.52509466 90.48256122 87.37727748 88.57117955 85.1875 86.6875 C76.44143838 79.09657859 67.98597994 71.10970518 59.87670898 62.84423828 C58.14100811 61.13856839 56.35672608 59.56368757 54.5 57.9921875 C49.42865257 53.58168562 44.69391416 48.84422841 39.9543457 44.0847168 C38.4400742 42.56508332 36.9205257 41.05087483 35.40039062 39.53710938 C30.59715278 34.73681283 25.91876179 29.88017698 21.50024414 24.71850586 C19.28469069 22.18062453 16.91057344 19.85385406 14.5 17.5 C3.0941337 6.18826739 3.0941337 6.18826739 0 0 Z " fill="#000000" transform="translate(756,2533)"/>
<path d="M0 0 C3.05473438 0.26484919 6.11022784 0.51939165 9.16589355 0.77325439 C106.83105962 8.99533388 203.09557411 28.52643311 502.20300293 147.75762939 C504.9318545 149.25933122 507.67037292 150.74163588 510.41296387 152.21807861 C539.42602685 167.85435417 567.52902822 185.15915419 595.01599121 203.33380127 C598.04911997 205.33804218 601.08847304 207.33263876 604.12780762 209.32745361 C614.36520902 216.07190642 624.41027332 222.94796515 634.14343262 230.40167236 C638.11262587 233.42967391 642.19756306 236.27864834 646.29577637 239.12823486 C654.71725226 245.0061169 662.79471496 251.28549083 670.86071777 257.63848877 C673.8400096 259.97376208 676.84914437 262.26914861 679.85827637 264.56573486 C685.64631675 269.0102527 691.29424955 273.60702531 696.92077637 278.25323486 C698.69153419 279.69082788 700.46236862 281.12832653 702.23327637 282.56573486 C708.28050411 287.51346666 714.20003984 292.60421695 720.11804199 297.70489502 C721.8956355 299.23164177 723.68029651 300.74965194 725.46765137 302.26495361 C732.47994775 308.21913849 739.3146674 314.32308929 746.04577637 320.59307861 C748.26606594 322.6474498 750.50294943 324.65660136 752.79577637 326.62823486 C762.58260083 335.11974432 771.94345588 344.10954916 781.00134277 353.3706665 C783.8535926 356.268528 786.76514432 359.01409182 789.85437012 361.65948486 C794.05001015 365.28634357 797.79503061 369.23699325 801.54577637 373.31573486 C806.75694873 378.92441631 812.03687027 384.43504598 817.48327637 389.81573486 C821.69305207 393.97815059 825.76690782 398.17820833 829.58874512 402.70635986 C831.04721187 404.44561458 831.04721187 404.44561458 833.35827637 406.62823486 C834.92077637 408.25323486 834.92077637 408.25323486 834.92077637 410.25323486 C220.13077637 410.25323486 -394.65922363 410.25323486 -1028.07922363 410.25323486 C-1026.30065422 406.69609603 -1025.16399181 405.13934055 -1022.39172363 402.50323486 C-1019.80280043 399.98341103 -1017.3415085 397.45518112 -1015.01672363 394.69073486 C-1011.41806354 390.49368325 -1007.50464112 386.64059692 -1003.57922363 382.75323486 C-999.12704891 378.34413875 -994.79755641 373.92581968 -990.74328613 369.14385986 C-986.00869175 363.76464934 -980.85715096 358.69946673 -975.39172363 354.06573486 C-971.23103164 350.51516471 -967.42533913 346.63642701 -963.57922363 342.75323486 C-959.26697626 338.40380843 -954.97172381 334.12950952 -950.28625488 330.17901611 C-947.02807671 327.33603941 -943.91114868 324.34587585 -940.76672363 321.37823486 C-935.5926725 316.50951458 -930.3093623 311.89552337 -924.75500488 307.46026611 C-921.76424508 304.99343504 -918.91581987 302.39331171 -916.07922363 299.75323486 C-910.60646061 294.6686173 -904.9041171 289.93169488 -899.07922363 285.25323486 C-897.32807445 283.81713501 -895.57809181 282.37961163 -893.82922363 280.94073486 C-875.3250582 265.81764215 -856.37891826 251.34564586 -837.07922363 237.25323486 C-836.32496094 236.70135498 -835.57069824 236.1494751 -834.7935791 235.58087158 C-823.37831608 227.2380909 -811.7944581 219.16857847 -800.07922363 211.25323486 C-799.45547852 210.8301001 -798.8317334 210.40696533 -798.18908691 209.9710083 C-777.60420455 196.01960285 -756.51131264 182.85879153 -735.07922363 170.25323486 C-734.02090332 169.63061768 -732.96258301 169.00800049 -731.87219238 168.36651611 C-715.80915759 158.94623573 -699.54502505 149.94885167 -683.07922363 141.25323486 C-681.47772461 140.4051123 -681.47772461 140.4051123 -679.84387207 139.53985596 C-599.32317094 96.99901551 -513.93312625 63.5883675 -412.07922363 36.25323486 C-411.25094055 36.03729675 -410.42265747 35.82135864 -409.5692749 35.59887695 C-340.61347703 17.68992675 -269.7857571 6.17261654 -198.79046631 0.4732666 C-196.09941793 0.25487374 -193.40942048 0.02592834 -190.71936035 -0.20428467 C-127.854776 -5.47570744 -62.84976163 -5.45682165 0 0 Z " fill="#000000" transform="translate(1784.0792236328125,431.74676513671875)"/>
<path d="M0 0 C191.07 0 382.14 0 579 0 C579 52.14 579 104.28 579 158 C444.03 158 309.06 158 170 158 C170 209.15 170 260.3 170 313 C296.39 313 422.78 313 553 313 C553 365.14 553 417.28 553 471 C426.61 471 300.22 471 170 471 C170 570.66 170 670.32 170 773 C113.9 773 57.8 773 0 773 C0 517.91 0 262.82 0 0 Z " fill="#000000" transform="translate(2019,1291)"/>
<path d="M0 0 C52.8 0 105.6 0 160 0 C160 175.23 160 350.46 160 531 C107.2 531 54.4 531 0 531 C0 355.77 0 180.54 0 0 Z " fill="#000000" transform="translate(2712,1533)"/>
<path d="M0 0 C3.91746138 3.33892879 7.58085055 6.88995453 11.19677734 10.55126953 C11.88384766 11.23962891 12.57091797 11.92798828 13.27880859 12.63720703 C30.44594485 31.00565531 37.83045895 56.43869572 37.17504883 81.12768555 C35.87360998 107.73180314 23.70113885 131.67922491 4.19677734 149.55126953 C-15.01871878 166.11100882 -40.56304267 174.20421271 -65.80322266 172.55126953 C-91.32406851 170.05350975 -114.89780094 158.91743445 -131.72509766 139.24658203 C-134.25995154 136.12474871 -136.54992833 132.8818688 -138.80322266 129.55126953 C-139.77001953 128.13974609 -139.77001953 128.13974609 -140.75634766 126.69970703 C-153.98979524 105.81387455 -157.50479379 77.93325852 -152.24072266 53.98876953 C-146.37138163 30.08122009 -131.54680792 8.8984777 -110.80322266 -4.44873047 C-101.27585976 -10.18912529 -91.68963705 -14.89634575 -80.80322266 -17.44873047 C-79.89056641 -17.67173828 -78.97791016 -17.89474609 -78.03759766 -18.12451172 C-51.3252042 -23.6087601 -21.35633727 -17.15793465 0 0 Z " fill="#000000" transform="translate(2851.80322265625,1289.44873046875)"/>
</svg>
